<svg version="1.1"
      xmlns="http://www.w3.org/2000/svg"
      xmlns:xlink="http://www.w3.org/1999/xlink"  id="snapshot-85748" width="250" height="250" viewBox="0 0 250 250"><desc>This image was made on Patterninja.com</desc><defs>
<!-- image 54116 -->
<g id="transformed-54116" data-image="54116" transform="translate(26.000000000000004, 22) rotate(0, 19.999999999999996, 20)"><g><svg version="1.1" width="39.99999999999999px" height="40px" viewBox="0 0 39.99999999999999 40"><g id="original-54116"><svg xmlns="http://www.w3.org/2000/svg" viewBox="0 0 512 512" xmlns:xlink="http://www.w3.org/1999/xlink" version="1.1" preserveAspectRatio="xMidYMid meet">
  <path d="M495.484 90.839H16.516L7.817 101v294.151c0 9.122 7.395 16.516 16.516 16.516H502l10-7.021v-297.29c0-9.123-7.395-16.517-16.516-16.517z" fill="rgba(149, 204, 129, 1)" stroke="none"/>
  <path d="M16.516 355.097V90.839C7.395 90.839 0 98.233 0 107.355v297.29c0 9.122 7.395 16.516 16.516 16.516h478.968c9.121 0 16.516-7.395 16.516-16.516H66.065c-27.365 0-49.549-22.183-49.549-49.548z" fill="rgba(125, 189, 128, 1)" stroke="none"/>
  <path d="M440.141 252.473L264.588 145.614a16.515 16.515 0 0 0-17.175 0L71.859 252.473c-2.643 1.609-2.643 5.446 0 7.054l175.553 106.859a16.515 16.515 0 0 0 17.175 0L440.14 259.527c2.644-1.609 2.644-5.445.001-7.054z" fill="rgba(255, 224, 125, 1)" stroke="none"/>
  <path d="M256 189.936c-24.565 0-45.998 13.407-57.382 33.302l-6.616 16.302a66.202 66.202 0 0 0-2.067 16.459c0 36.486 29.578 66.064 66.064 66.064 29.834 0 55.05-19.776 63.252-46.935l2.792-17.509c.013-.539.02-1.079.02-1.62.001-36.485-29.577-66.063-66.063-66.063z" fill="rgba(80, 85, 160, 1)" stroke="none"/>
  <path d="M192.002 239.541c45.894.372 89.785 12.681 127.25 35.589a65.88 65.88 0 0 0 2.792-17.509c-36.905-21.207-79.232-33.007-123.427-34.382a65.78 65.78 0 0 0-6.615 16.302z" fill="rgba(255, 255, 255, 1)" stroke="none"/>
</svg>
</g></svg></g></g>
<!-- /image 54116 -->

<!-- image 45437 -->
<g id="transformed-45437" data-image="45437" transform="translate(27.000000000000004, 108) rotate(0, 16.999999999999996, 17)"><g><svg version="1.1" width="33.99999999999999px" height="34px" viewBox="0 0 33.99999999999999 34"><g id="original-45437"><svg xmlns="http://www.w3.org/2000/svg" viewBox="0 0 58 58" xmlns:xlink="http://www.w3.org/1999/xlink" version="1.1" preserveAspectRatio="xMidYMid meet">
  <path d="M29 58c2 0 6-4 6-4a3.528 3.528 0 0 1 1 4 16.654 16.654 0 0 0 6-5 4.938 4.938 0 0 1 1 3c7-3 8-9 8-9 2 1 2 4 2 4 3-3 5-8 5-11a20.525 20.525 0 0 0-4-11c-3-4-5-8-7-16-1.475-5.9-5-13-18-13S12.475 7.1 11 13c-2 8-4 12-7 16a20.525 20.525 0 0 0-4 11c0 3 2 8 5 11 0 0 0-3 2-4 0 0 1 6 8 9a4.938 4.938 0 0 1 1-3 16.654 16.654 0 0 0 6 5 3.528 3.528 0 0 1 1-4s4 4 6 4z" fill-rule="nonzero" fill="rgba(243, 213, 91, 1)" stroke="none"/>
  <path d="M36 32.63c0 2.39-3.5 5.98-7 8.37-3.5-2.39-7-5.98-7-8.37.042-1.274.193-2.542.45-3.79.1-.57.22-1.09.32-1.5h12.47c.1.4.21.92.32 1.48a23.6 23.6 0 0 1 .44 3.81z" fill-rule="nonzero" fill="rgba(242, 156, 31, 1)" stroke="none"/>
  <path d="M17 29a1 1 0 0 1-.971-1.243c.209-.839.419-1.634.62-2.4A29.572 29.572 0 0 0 18 18a1 1 0 0 1 2 0 31.368 31.368 0 0 1-1.416 7.872c-.2.753-.406 1.54-.614 2.371A1 1 0 0 1 17 29z" fill-rule="nonzero" fill="rgba(240, 196, 25, 1)" stroke="none"/>
  <path d="M41 29a1 1 0 0 1-.969-.757c-.208-.831-.416-1.618-.614-2.371A31.368 31.368 0 0 1 38 18a1 1 0 0 1 2 0c.136 2.501.59 4.975 1.35 7.362.2.761.411 1.556.62 2.4a1 1 0 0 1-.728 1.213A.968.968 0 0 1 41 29z" fill-rule="nonzero" fill="rgba(240, 196, 25, 1)" stroke="none"/>
  <path d="M58 40c0 3-2 8-5 11 0 0 0-3-2-4 0 0-1 6-8 9a4.938 4.938 0 0 0-1-3 16.654 16.654 0 0 1-6 5 3.528 3.528 0 0 0-1-4s-4 4-6 4-6-4-6-4a3.528 3.528 0 0 0-1 4 16.654 16.654 0 0 1-6-5 4.938 4.938 0 0 0-1 3c-7-3-8-9-8-9-2 1-2 4-2 4-3-3-5-8-5-11a20.4 20.4 0 0 1 3.46-10.24A13.441 13.441 0 0 0 4 36c2 6 9 4 9 4s-1 6 4 8 9 2 12 5c3-3 7-3 12-5s4-8 4-8 7 2 9-4c.669-2.008.854-4.146.54-6.24A20.4 20.4 0 0 1 58 40z" fill-rule="nonzero" fill="rgba(79, 186, 111, 1)" stroke="none"/>
  <path d="M35.56 28.82A4 4 0 0 1 32 31a3.822 3.822 0 0 1-1.45-.28c-.995-.4-2.105-.4-3.1 0-.46.187-.953.282-1.45.28a3.983 3.983 0 0 1-3.55-2.16c.1-.57.22-1.09.32-1.5h12.47c.1.4.21.92.32 1.48z" fill-rule="nonzero" fill="rgba(229, 126, 37, 1)" stroke="none"/>
  <path d="M20 18c0 1.988-.412 3.6-2.4 3.6a3.6 3.6 0 1 1 0-7.2c1.988 0 2.4 1.612 2.4 3.6z" fill-rule="nonzero" fill="rgba(53, 73, 94, 1)" stroke="none"/>
  <path d="M44 18a3.6 3.6 0 0 1-3.6 3.6c-1.988 0-2.4-1.612-2.4-3.6s.412-3.6 2.4-3.6A3.6 3.6 0 0 1 44 18z" fill-rule="nonzero" fill="rgba(53, 73, 94, 1)" stroke="none"/>
  <circle cx="16" cy="17" r="1" fill-rule="nonzero" fill="rgba(236, 240, 241, 1)" stroke="none"/>
  <circle cx="40" cy="17" r="1" fill-rule="nonzero" fill="rgba(236, 240, 241, 1)" stroke="none"/>
  <path d="M35.81 26.23A4.012 4.012 0 0 1 32 29a3.822 3.822 0 0 1-1.45-.28c-.995-.4-2.105-.4-3.1 0-.46.187-.953.282-1.45.28a4.012 4.012 0 0 1-3.81-2.77 4.061 4.061 0 0 1 .05-2.6 3.978 3.978 0 0 1 5.26-2.33c.96.4 2.04.4 3 0a3.978 3.978 0 0 1 5.26 2.33v.01c.054.137.097.277.13.42.17.717.143 1.467-.08 2.17z" fill-rule="nonzero" fill="rgba(47, 168, 204, 1)" stroke="none"/>
  <path d="M26 24a1 1 0 0 1-1 1 3.427 3.427 0 0 0-2.3.72l-.51.51a4.061 4.061 0 0 1 .05-2.6A5.972 5.972 0 0 1 25 23a1 1 0 0 1 1 1z" fill-rule="nonzero" fill="rgba(41, 128, 186, 1)" stroke="none"/>
  <path d="M35.81 26.23l-.52-.52A3.44 3.44 0 0 0 33 25a1 1 0 0 1 0-2 5.972 5.972 0 0 1 2.76.63v.01c.054.137.097.277.13.42.17.717.143 1.467-.08 2.17z" fill-rule="nonzero" fill="rgba(41, 128, 186, 1)" stroke="none"/>
</svg>
</g></svg></g></g>
<!-- /image 45437 -->

<!-- image 04350 -->
<g id="transformed-04350" data-image="04350" transform="translate(111, 189) rotate(0, 20, 19.999999999999986)"><g><svg version="1.1" width="40px" height="39.99999999999997px" viewBox="0 0 40 39.99999999999997"><g id="original-04350"><svg xmlns="http://www.w3.org/2000/svg" viewBox="0 0 512 512" xmlns:xlink="http://www.w3.org/1999/xlink" version="1.1" preserveAspectRatio="xMidYMid meet">
  <path d="M295.512 25.569v104.093h-79.024V25.569C216.488 11.452 227.93 0 242.046 0h27.907c14.117 0 25.559 11.452 25.559 25.569z" fill="rgba(193, 193, 193, 1)" stroke="none"/>
  <path d="M216.492 82.338h79.026v47.323h-79.026z" fill="rgba(175, 175, 175, 1)" stroke="none"/>
  <path d="M255.997 72.321c-11.304 0-20.467-9.164-20.467-20.467v-20.84c0-5.867 4.756-10.625 10.625-10.625h19.686c5.867 0 10.625 4.756 10.625 10.625v20.84c-.002 11.303-9.165 20.467-20.469 20.467z" fill="rgba(224, 224, 227, 1)" stroke="none"/>
  <path d="M477.505 89.689l-.256-1.527a5.439 5.439 0 0 0-6.701-4.372l-10.558 2.679a5.439 5.439 0 0 0-3.882 3.745l-.872 2.984a5.439 5.439 0 0 1-3.882 3.745l-25.443 6.456a5.439 5.439 0 0 0-3.667 3.144l-4.539 10.678c-1.773 4.172 2.038 8.556 6.416 7.379l20.029-5.383a5.439 5.439 0 0 1 5.94 2.241l2.148 3.232a5.436 5.436 0 0 0 5.216 2.383l20.095-2.56a5.415 5.415 0 0 0 1.786-.551l28.684-14.645a5.437 5.437 0 0 0 2.89-5.743l-1.644-9.801a5.439 5.439 0 0 0-6.701-4.372l-18.359 4.658a5.436 5.436 0 0 1-6.7-4.37z" fill="rgba(193, 193, 193, 1)" stroke="none"/>
  <path d="M34.495 89.689l.256-1.527a5.439 5.439 0 0 1 6.701-4.372l10.558 2.679a5.439 5.439 0 0 1 3.882 3.745l.872 2.984a5.439 5.439 0 0 0 3.882 3.745l25.609 6.498a5.441 5.441 0 0 1 3.552 2.89l5.151 10.579c2.03 4.17-1.756 8.804-6.247 7.647l-20.891-5.39a5.438 5.438 0 0 0-5.887 2.255l-2.171 3.266a5.436 5.436 0 0 1-5.216 2.383l-20.095-2.56a5.415 5.415 0 0 1-1.786-.551L3.981 109.317a5.437 5.437 0 0 1-2.89-5.743l1.644-9.801a5.439 5.439 0 0 1 6.701-4.372l18.359 4.659a5.437 5.437 0 0 0 6.7-4.371z" fill="rgba(193, 193, 193, 1)" stroke="none"/>
  <path d="M437.908 101.014l-30.583 50.029a5.433 5.433 0 0 1-4.253 2.578l-40.795 2.936-18.195 1.305-.794.054-16.618 1.196h-.044l.75 16.52.01.338 8.951 197.951 4.275 94.489a5.435 5.435 0 0 1-5.427 5.688h-142.96a5.441 5.441 0 0 1-5.438-5.655l6.069-150.076L194.161 286a5.418 5.418 0 0 0-1.588-4.068l-12.67-12.659a5.446 5.446 0 0 1-1.577-4.22l5.916-85.712.435-6.373.587-8.429a5.437 5.437 0 0 0-5.035-5.797l-13.431-.968-18.957-1.359-38.903-2.795a5.435 5.435 0 0 1-4.253-2.578l-30.594-50.029c-2.208-3.622.392-8.277 4.644-8.277h354.53c4.253.002 6.863 4.657 4.643 8.278z" fill="rgba(224, 224, 227, 1)" stroke="none"/>
  <path d="M334.904 342.12l-30.011-13.127a5.439 5.439 0 0 1-3.259-4.982v-44.014l30.953 10.985.99 21.893 1.327 29.245z" fill="rgba(193, 193, 193, 1)" stroke="none"/>
  <path d="M267.659 158.471l.891 10.036h18.423l-2.75-49.308-1.044-18.685-20.066 6.634 1.272 14.367z" fill="rgba(193, 193, 193, 1)" stroke="none"/>
  <path d="M215.757 92.736s4.521 38.639 68.463 26.46l-1.476-26.46h-66.987z" fill="rgba(193, 193, 193, 1)" stroke="none"/>
  <path d="M333.577 312.875l-31.942-12.735v-20.143l30.953 10.985z" fill="rgba(175, 175, 175, 1)" stroke="none"/>
  <path d="M344.083 157.862l-17.412 1.251-2.828-66.375h17.793z" fill="rgba(193, 193, 193, 1)" stroke="none"/>
  <path d="M235.499 163.408l-8.059 168.347-34.585-13.388 1.403-34.748 6.695 6.944c3.275 3.397 9.025 1.297 9.34-3.411l8.305-123.993c5.21.468 10.832.565 16.901.249z" fill="rgba(193, 193, 193, 1)" stroke="none"/>
  <path d="M282.743 92.738h41.1l2.523 60.687 6.221 137.557-36.156-12.821a5.437 5.437 0 0 1-3.612-4.822L282.743 92.738z" fill="rgba(244, 244, 244, 1)" stroke="none"/>
  <path d="M340.875 474.097H186.558l.794-19.576 4.546-112.619.957-23.535 143.484 55.554 1.055 23.361 2.589 57.239z" fill="rgba(193, 193, 193, 1)" stroke="none"/>
  <path d="M339.983 454.521h-18.87v-63.437l16.282 6.197-1.055-23.361-143.484-55.554-.957 23.535 17.858 6.797V454.52h-22.405l-.794 19.576h154.317l-.892-19.575zm-115.501 0V354.305l9.745 3.709v96.508h-9.745v-.001zm24.47 0v-90.903l8.363 3.184v87.719h-8.363zm23.09 0v-82.114l9.81 3.734v78.38h-9.81zm24.536 0v-72.775l9.81 3.734v69.042h-9.81v-.001z" fill="rgba(175, 175, 175, 1)" stroke="none"/>
  <path d="M358.067 512H168.169a5.438 5.438 0 0 1-5.438-5.438v-27.024a5.438 5.438 0 0 1 5.438-5.438h189.897a5.438 5.438 0 0 1 5.438 5.438v27.024a5.438 5.438 0 0 1-5.437 5.438z" fill="rgba(82, 76, 69, 1)" stroke="none"/>
  <g>
    <path d="M358.067 512h-31.384v-37.903h31.384a5.438 5.438 0 0 1 5.438 5.438v27.026a5.44 5.44 0 0 1-5.438 5.439z" fill="rgba(76, 69, 63, 1)" stroke="none"/>
    <path d="M199.552 512h-31.383a5.438 5.438 0 0 1-5.438-5.438v-27.026a5.438 5.438 0 0 1 5.438-5.438h31.383V512z" fill="rgba(76, 69, 63, 1)" stroke="none"/>
  </g>
  <g>
    <path d="M263.114 287.366a7.355 7.355 0 0 1-2.977-.632l-41.259-18.276a7.36 7.36 0 1 1 5.962-13.46l41.259 18.276a7.36 7.36 0 0 1-2.985 14.092z" fill="rgba(193, 193, 193, 1)" stroke="none"/>
    <path d="M263.115 253.782a7.35 7.35 0 0 1-2.814-.562l-37.569-15.559a7.361 7.361 0 0 1 5.633-13.601l37.57 15.559a7.36 7.36 0 0 1-2.82 14.163z" fill="rgba(193, 193, 193, 1)" stroke="none"/>
    <path d="M382.573 127.801l-20.294 28.756-18.195 1.305-.794.054 27.255-38.609c2.349-3.318 6.939-4.111 10.256-1.762a7.348 7.348 0 0 1 1.772 10.256z" fill="rgba(193, 193, 193, 1)" stroke="none"/>
    <path d="M287.083 170.511c-23.372 7.32-66.255 16.727-102.406 2.458l.587-8.429a5.437 5.437 0 0 0-5.035-5.797l-13.431-.968-18.957-1.359-29.19-27.505a7.358 7.358 0 0 1-.304-10.408c2.785-2.958 7.439-3.089 10.398-.304l14.422 13.584c-6.461-15.052-8.331-30.115-8.831-39.044h18.249s0 103.146 133.533 60.535l.965 17.237z" fill="rgba(193, 193, 193, 1)" stroke="none"/>
  </g>
</svg>
</g></svg></g></g>
<!-- /image 04350 -->

<!-- image 45883 -->
<g id="transformed-45883" data-image="45883" transform="translate(204, 24.00000000000001) rotate(0, 17, 16.99999999999999)"><g><svg version="1.1" width="34px" height="33.99999999999998px" viewBox="0 0 34 33.99999999999998"><g id="original-45883"><svg xmlns="http://www.w3.org/2000/svg" viewBox="0 0 512 512" xmlns:xlink="http://www.w3.org/1999/xlink" version="1.1" preserveAspectRatio="xMidYMid meet">
  <path d="M256 440c-121.309 0-220-98.691-220-220S134.691 0 256 0s220 98.691 220 220-98.692 220-220 220z" fill="rgba(128, 54, 2, 1)" stroke="none"/>
  <path d="M256.064.001v439.998C377.343 439.964 476 341.287 476 220S377.343.036 256.064.001z" fill="rgba(111, 46, 1, 1)" stroke="none"/>
  <path d="M369.886 512h-228.18c-33.749 0-62.708-21.787-72.062-54.214L14.373 266.157a15 15 0 0 1 19.096-18.407l27.775 9.13 27.776-9.13c3.041-1 6.326-1 9.367 0l27.775 9.13 27.775-9.13c3.041-1 6.326-1 9.367 0l27.776 9.13 27.775-9.13c3.041-1 6.326-1 9.367 0L256 256.88l27.775-9.13c3.041-1 6.324-1 9.367 0l27.776 9.13 27.775-9.13c3.041-1 6.326-1 9.367 0l27.775 9.13 27.775-9.13c3.041-1 6.326-1 9.367 0l27.776 9.13 27.775-9.13a15 15 0 0 1 19.087 18.435l-55.712 191.741C432.509 490.27 403.565 512 369.886 512zm57.617-58.259h.01z" fill="rgba(71, 147, 255, 1)" stroke="none"/>
  <path d="M103.5 136.5a14.946 14.946 0 0 1-10.606-4.394l-35.5-35.5c-5.858-5.858-5.858-15.355 0-21.213 5.857-5.858 15.355-5.858 21.213 0l35.5 35.5c5.858 5.858 5.858 15.355 0 21.213A14.95 14.95 0 0 1 103.5 136.5z" fill="rgba(179, 79, 3, 1)" stroke="none"/>
  <path d="M317.014 66.024c-5.184 0-10.226-2.69-13.004-7.502-4.143-7.174-1.685-16.348 5.49-20.49l39.008-22.521c7.174-4.141 16.348-1.685 20.49 5.49 4.143 7.174 1.685 16.348-5.49 20.49L324.5 64.012a14.94 14.94 0 0 1-7.486 2.012z" fill="rgba(162, 70, 3, 1)" stroke="none"/>
  <path d="M242.226 225.851a14.946 14.946 0 0 1-10.606-4.394c-5.858-5.858-5.858-15.355 0-21.213l23.137-23.136c5.858-5.858 15.356-5.858 21.213 0 5.858 5.858 5.858 15.355 0 21.213l-23.137 23.136a14.956 14.956 0 0 1-10.607 4.394z" fill="rgba(179, 79, 3, 1)" stroke="none"/>
  <path d="M350.25 156.179a14.95 14.95 0 0 1-10.606-4.393c-5.858-5.858-5.858-15.355 0-21.213l22.75-22.75c5.857-5.858 15.355-5.858 21.213 0 5.858 5.857 5.858 15.355 0 21.213l-22.75 22.75a14.957 14.957 0 0 1-10.607 4.393z" fill="rgba(162, 70, 3, 1)" stroke="none"/>
  <path d="M117.812 228.862c-5.184 0-10.226-2.69-13.004-7.502-4.143-7.174-1.684-16.348 5.49-20.49l39.009-22.521c7.174-4.142 16.348-1.685 20.49 5.49 4.143 7.174 1.684 16.348-5.49 20.49l-39.009 22.521a14.938 14.938 0 0 1-7.486 2.012z" fill="rgba(179, 79, 3, 1)" stroke="none"/>
  <path d="M279.5 142.342a14.946 14.946 0 0 1-10.606-4.394l-27.342-27.342c-5.858-5.858-5.858-15.355 0-21.213 5.857-5.858 15.355-5.858 21.213 0l27.342 27.342c5.858 5.858 5.858 15.355 0 21.213a14.954 14.954 0 0 1-10.607 4.394z" fill="rgba(179, 79, 3, 1)" stroke="none"/>
  <path d="M169 147a14.95 14.95 0 0 1-10.606-4.393c-5.857-5.858-5.858-15.355 0-21.213l23.136-23.137c5.857-5.857 15.355-5.858 21.213 0 5.857 5.858 5.858 15.355 0 21.213l-23.136 23.137A14.953 14.953 0 0 1 169 147z" fill="rgba(179, 79, 3, 1)" stroke="none"/>
  <path d="M470.322 219.183c-2.545 0-5.124-.648-7.486-2.012l-28.336-16.36c-7.175-4.142-9.633-13.316-5.49-20.49 4.142-7.175 13.316-9.634 20.49-5.49l28.336 16.36c7.175 4.142 9.633 13.316 5.49 20.49-2.778 4.811-7.82 7.502-13.004 7.502z" fill="rgba(162, 70, 3, 1)" stroke="none"/>
  <path d="M202 76.75a14.946 14.946 0 0 1-10.606-4.394l-35.5-35.5c-5.858-5.858-5.858-15.355 0-21.213 5.857-5.858 15.355-5.858 21.213 0l35.5 35.5c5.858 5.858 5.858 15.355 0 21.213A14.95 14.95 0 0 1 202 76.75z" fill="rgba(179, 79, 3, 1)" stroke="none"/>
  <path d="M369.5 233.342a14.946 14.946 0 0 1-10.606-4.394l-27.342-27.342c-5.858-5.858-5.858-15.355 0-21.213 5.857-5.858 15.355-5.858 21.213 0l27.342 27.342c5.858 5.858 5.858 15.355 0 21.213a14.954 14.954 0 0 1-10.607 4.394z" fill="rgba(162, 70, 3, 1)" stroke="none"/>
  <path d="M290.106 116.735l-27.342-27.342a14.913 14.913 0 0 0-6.701-3.865v39.59l12.83 12.83c2.929 2.929 6.768 4.394 10.606 4.394s7.678-1.464 10.606-4.394c5.86-5.858 5.86-15.355.001-21.213z" fill="rgba(162, 70, 3, 1)" stroke="none"/>
  <path d="M275.97 177.108c-5.44-5.441-14.018-5.82-19.906-1.153v42.271l19.906-19.905c5.858-5.857 5.858-15.355 0-21.213z" fill="rgba(162, 70, 3, 1)" stroke="none"/>
  <path d="M493.636 251.21a14.998 14.998 0 0 0-15.104-3.46l-27.775 9.13-27.776-9.13c-3.041-1-6.326-1-9.367 0l-27.775 9.13-27.775-9.13c-3.041-1-6.326-1-9.367 0l-27.775 9.13-27.776-9.13c-3.043-1-6.326-1-9.367 0l-27.712 9.109V512h113.822c33.68 0 62.623-21.73 72.021-54.073l55.712-191.741a15.01 15.01 0 0 0-3.986-14.976z" fill="rgba(82, 92, 221, 1)" stroke="none"/>
</svg>
</g></svg></g></g>
<!-- /image 45883 -->

<!-- image 58472 -->
<g id="transformed-58472" data-image="58472" transform="translate(112.00000000000001, 26) rotate(0, 19.99999999999999, 20)"><g><svg version="1.1" width="39.99999999999998px" height="40px" viewBox="0 0 39.99999999999998 40"><g id="original-58472"><svg xmlns="http://www.w3.org/2000/svg" viewBox="0 0 64 64" xmlns:xlink="http://www.w3.org/1999/xlink" version="1.1" preserveAspectRatio="xMidYMid meet">
  <g data-name="Layer 10">
    <path d="M28.43 9.88a20.35 20.35 0 0 0-5.72-5.36l-1.07-.67L21.39 5a18.72 18.72 0 0 0 1.23 11.43 20.09 20.09 0 0 0 7.73 8.87l1.07.67.14-.66-.23-.31A19.81 19.81 0 0 1 28 14a20.29 20.29 0 0 1 .43-4.12z" fill="rgba(68, 114, 176, 1)" stroke="none"/>
    <path d="M32.44 25.34l.14.66 1.07-.67a20.09 20.09 0 0 0 7.73-8.87A18.72 18.72 0 0 0 42.61 5l-.25-1.18-1.07.67a20.35 20.35 0 0 0-5.72 5.36A20.29 20.29 0 0 1 36 14a19.81 19.81 0 0 1-3.33 11z" fill="rgba(68, 114, 176, 1)" stroke="none"/>
    <path d="M31.33 3L32 2l.67 1A19.81 19.81 0 0 1 36 14a19.81 19.81 0 0 1-3.33 11L32 26l-.67-1A19.81 19.81 0 0 1 28 14a19.81 19.81 0 0 1 3.33-11z" fill="rgba(105, 142, 192, 1)" stroke="none"/>
    <path d="M31 9h2v24h-2z" fill="rgba(68, 114, 176, 1)" stroke="none"/>
    <path d="M9 63H7v-.62a3.45 3.45 0 0 1 1.91-3h-.07L7.4 59a2 2 0 0 1 .07-3.94L7.8 55h.08-.08a2 2 0 0 1 0-4H8.21h-.06l-1.44-.33A2.1 2.1 0 0 1 5 48.86a1.94 1.94 0 0 1 1.08-2A1.51 1.51 0 0 0 7 45.62V29h2v16.62a3.45 3.45 0 0 1-1.91 3h.07L8.6 49a2 2 0 0 1-.07 3.94L8.2 53h-.08.08a2 2 0 0 1 0 4l-.33.07h-.08.06l1.44.33A2.1 2.1 0 0 1 11 59.14a1.94 1.94 0 0 1-1.08 2A1.51 1.51 0 0 0 9 62.38z" fill="rgba(247, 216, 129, 1)" stroke="none"/>
    <path d="M57 63h-2v-.62a1.51 1.51 0 0 0-.9-1.26 1.94 1.94 0 0 1-1.08-2 2.1 2.1 0 0 1 1.69-1.73l1.44-.33h.06-.08L55.8 57a2 2 0 0 1 0-4h.08-.08l-.33-.07A2 2 0 0 1 55.4 49l1.44-.33h.06a3.49 3.49 0 0 1-1.9-3V29h2v16.62a1.51 1.51 0 0 0 .9 1.26 1.94 1.94 0 0 1 1.08 2 2.1 2.1 0 0 1-1.69 1.73l-1.44.33h-.06.08l.33.07a2 2 0 0 1 0 4h-.08.08l.33.07A2 2 0 0 1 56.6 59l-1.44.33h-.06a3.49 3.49 0 0 1 1.9 3z" fill="rgba(247, 216, 129, 1)" stroke="none"/>
    <path d="M42.51 28h-2.62A8.88 8.88 0 0 0 32 32.81 8.88 8.88 0 0 0 24.11 28h-2.62A20.49 20.49 0 0 1 7 22v6.89A17.11 17.11 0 0 0 24.11 46 8.88 8.88 0 0 0 32 41.19 8.88 8.88 0 0 0 39.89 46 17.11 17.11 0 0 0 57 28.89V22a20.49 20.49 0 0 1-14.49 6z" fill="rgba(120, 183, 91, 1)" stroke="none"/>
    <ellipse cx="41" cy="37" rx="6" ry="3" fill="rgba(255, 255, 255, 1)" stroke="none"/>
    <ellipse cx="23" cy="37" rx="6" ry="3" fill="rgba(255, 255, 255, 1)" stroke="none"/>
  </g>
</svg>
</g></svg></g></g>
<!-- /image 58472 -->

<!-- image 37934 -->
<g id="transformed-37934" data-image="37934" transform="translate(24, 188) rotate(0, 20, 19.999999999999986)"><g><svg version="1.1" width="40px" height="39.99999999999997px" viewBox="0 0 40 39.99999999999997"><g id="original-37934"><svg xmlns="http://www.w3.org/2000/svg" viewBox="0 0 128 128" xmlns:xlink="http://www.w3.org/1999/xlink" version="1.1" preserveAspectRatio="xMidYMid meet">
  <path d="M32.87 49.5c7.781 0 7.781 6 15.562 6s7.779-6 15.558-6 7.782 6 15.563 6 7.783-6 15.565-6 7.783 6 15.566 6a11.316 11.316 0 0 0 3.51-.513 53.374 53.374 0 0 0-10.7-17.852 11.833 11.833 0 0 0-8.783-3.82h-61.42a11.833 11.833 0 0 0-8.783 3.82 53.381 53.381 0 0 0-10.7 17.853 11.294 11.294 0 0 0 3.5.512c7.782 0 7.782-6 15.562-6z" fill="rgba(239, 230, 222, 1)" stroke="none"/>
  <path d="M110.684 55.5c-7.783 0-7.783-6-15.566-6s-7.782 6-15.565 6-7.781-6-15.563-6-7.779 6-15.558 6-7.781-6-15.562-6-7.78 6-15.56 6a11.294 11.294 0 0 1-3.5-.512 53.312 53.312 0 1 0 100.389 0 11.316 11.316 0 0 1-3.515.512z" fill="rgba(50, 215, 54, 1)" stroke="none"/>
  <path d="M64 118a1.75 1.75 0 0 1 0-3.5 41.511 41.511 0 0 0 34.693-18.7 1.75 1.75 0 0 1 2.92 1.929A45 45 0 0 1 64 118z" fill="rgba(16, 187, 103, 1)" stroke="none"/>
  <path d="M66.998 33.315l7.546-23.562H95.25v-8H68.706L58.598 33.315z" fill="rgba(93, 83, 96, 1)" stroke="none"/>
</svg>
</g></svg></g></g>
<!-- /image 37934 -->

<!-- image 24264 -->
<g id="transformed-24264" data-image="24264" transform="translate(113, 103) rotate(0, 19.999999999999996, 20)"><g><svg version="1.1" width="39.99999999999999px" height="40px" viewBox="0 0 39.99999999999999 40"><g id="original-24264"><svg xmlns="http://www.w3.org/2000/svg" viewBox="0 0 512 512" xmlns:xlink="http://www.w3.org/1999/xlink" version="1.1" preserveAspectRatio="xMidYMid meet">
  <circle cx="256" cy="256" r="256" fill="rgba(120, 178, 42, 1)" stroke="none"/>
  <path d="M512 256c0-5.617-.201-11.185-.557-16.712l-116.04-116.039-279.55 264.705 123.492 123.492c5.508.354 11.058.554 16.655.554 141.385 0 256-114.615 256-256z" fill="rgba(103, 156, 32, 1)" stroke="none"/>
  <circle cx="256" cy="256" r="192.5" fill="rgba(255, 255, 255, 1)" stroke="none"/>
  <path d="M256 63.5c-.143 0-.285.005-.429.005v384.989c.143 0 .285.005.429.005 106.315 0 192.5-86.185 192.5-192.5S362.315 63.5 256 63.5z" fill="rgba(240, 240, 240, 1)" stroke="none"/>
  <path d="M256 176.7l-74.333 54.006 28.392 87.384h91.882l28.392-87.384z" fill="rgba(85, 90, 102, 1)" stroke="none"/>
  <path d="M330.333 230.706L256 176.7l-.429.311V318.09h46.37z" fill="rgba(65, 73, 82, 1)" stroke="none"/>
  <path d="M186.11 76.588L256 127.367l69.89-50.778C304.224 68.142 280.655 63.5 256 63.5s-48.224 4.642-69.89 13.088z" fill="rgba(85, 90, 102, 1)" stroke="none"/>
  <path d="M325.89 76.588C304.224 68.142 280.655 63.5 256 63.5c-.143 0-.285.005-.429.005v63.55l.429.311 69.89-50.778z" fill="rgba(65, 73, 82, 1)" stroke="none"/>
  <path d="M377.667 214.751l70.575 51.276c.17-3.321.258-6.664.258-10.027 0-46.711-16.642-89.532-44.313-122.869l-26.52 81.62z" fill="rgba(65, 73, 82, 1)" stroke="none"/>
  <path d="M304.815 442.249c47.49-12.413 87.831-42.504 113.566-82.825h-86.654l-26.912 82.825z" fill="rgba(65, 73, 82, 1)" stroke="none"/>
  <g>
    <path d="M107.813 133.131C80.142 166.468 63.5 209.289 63.5 256c0 3.363.088 6.706.258 10.027l70.575-51.276-26.52-81.62z" fill="rgba(85, 90, 102, 1)" stroke="none"/>
    <path d="M180.274 359.424H93.62c25.735 40.321 66.076 70.412 113.566 82.825l-26.912-82.825z" fill="rgba(85, 90, 102, 1)" stroke="none"/>
  </g>
</svg>
</g></svg></g></g>
<!-- /image 24264 -->

<!-- image 51429 -->
<g id="transformed-51429" data-image="51429" transform="translate(201, 191) rotate(0, 20.999999999999996, 21)"><g><svg version="1.1" width="41.99999999999999px" height="42px" viewBox="0 0 41.99999999999999 42"><g id="original-51429"><svg xmlns="http://www.w3.org/2000/svg" viewBox="0 0 128 128" xmlns:xlink="http://www.w3.org/1999/xlink" version="1.1" preserveAspectRatio="xMidYMid meet">
  <path d="M58 1.747h-6.124a12.124 12.124 0 0 0-12.124 12.124v15A32.225 32.225 0 0 0 7.844 56.594L1.75 99.75a37.906 37.906 0 0 0 28.174-12.5A36.995 36.995 0 0 0 64 50.375V7.747a6 6 0 0 0-6-6z" fill="rgba(93, 83, 96, 1)" stroke="none"/>
  <path d="M34.035 83.551a1.749 1.749 0 0 1-1.483-2.675A36.161 36.161 0 0 0 38 61.748a1.75 1.75 0 0 1 3.5 0 39.641 39.641 0 0 1-5.98 20.978 1.748 1.748 0 0 1-1.485.825z" fill="rgba(71, 60, 74, 1)" stroke="none"/>
  <path d="M13.628 95.22a1.75 1.75 0 0 1-1.148-3.072 36.249 36.249 0 0 0 12.512-27.4v-3a1.75 1.75 0 0 1 3.5 0v3a39.748 39.748 0 0 1-13.719 30.044 1.743 1.743 0 0 1-1.145.428z" fill="rgba(71, 60, 74, 1)" stroke="none"/>
  <path d="M64 7.747h28.9a8.847 8.847 0 0 1 8.847 8.847H64z" fill="rgba(254, 219, 65, 1)" stroke="none"/>
  <path d="M64 25.44h18.9a8.846 8.846 0 0 0 8.847-8.846H64z" fill="rgba(254, 168, 50, 1)" stroke="none"/>
  <path d="M59.222 7.747H64V25.44h-4.778a8.847 8.847 0 0 1-8.847-8.847 8.847 8.847 0 0 1 8.847-8.847z" fill="rgba(239, 230, 222, 1)" stroke="none"/>
  <path d="M26.726 90.375a38.011 38.011 0 0 1-13.1 7.476v28.4a21.214 21.214 0 0 0 21.214-21.213V90.375z" fill="rgba(71, 60, 74, 1)" stroke="none"/>
  <path d="M94.5 80.723l5-14.225h-7.871l-5 14.225H48.142a36.79 36.79 0 0 1-18.218 6.526 38.2 38.2 0 0 1-3.2 3.126h99.526v-9.652z" fill="rgba(194, 123, 72, 1)" stroke="none"/>
</svg>
</g></svg></g></g>
<!-- /image 51429 -->

<!-- image 70519 -->
<g id="transformed-70519" data-image="70519" transform="translate(201, 101) rotate(0, 20.999999999999996, 21)"><g><svg version="1.1" width="41.99999999999999px" height="42px" viewBox="0 0 41.99999999999999 42"><g id="original-70519"><svg xmlns="http://www.w3.org/2000/svg" viewBox="0 0 64 64" xmlns:xlink="http://www.w3.org/1999/xlink" version="1.1" preserveAspectRatio="xMidYMid meet">
  <path d="M43 13.462V56H13V13.464v.001c.588.34 1.271.535 2 .535.38 0 .741-.07 1.089-.169A4 4 0 0 0 20 17c.18 0 .352-.03.526-.053C21.211 18.166 22.502 19 24 19a3.972 3.972 0 0 0 3-1.38A3.972 3.972 0 0 0 30 19c.047 0 .091-.012.137-.014.144.564.408 1.074.763 1.514A3.967 3.967 0 0 0 30 23a4 4 0 0 0 8 0c0-.951-.346-1.813-.901-2.5A3.962 3.962 0 0 0 38 18c0-.498-.102-.969-.268-1.409a3.997 3.997 0 0 0 2.18-2.76c.347.099.708.169 1.088.169.729 0 1.413-.195 2.001-.536z" fill="rgba(242, 195, 81, 1)" stroke="none"/>
  <path d="M43 62H13a3 3 0 1 1 0-6h30a3 3 0 1 1 0 6z" fill="rgba(213, 206, 194, 1)" stroke="none"/>
  <path d="M43 43h5a2 2 0 0 0 2-2V24a2 2 0 0 0-2-2h-5v-4h5a6 6 0 0 1 6 6v17a6 6 0 0 1-6 6h-5z" fill="rgba(213, 206, 194, 1)" stroke="none"/>
  <path d="M41.707 6.071a3.965 3.965 0 0 0-2.236-1.024C38.785 3.831 37.496 3 36 3c-.692 0-1.333.192-1.9.501A3.975 3.975 0 0 0 31 2c-.732 0-1.41.211-2 .555A3.955 3.955 0 0 0 27 2c-.951 0-1.813.346-2.5.901A3.962 3.962 0 0 0 22 2c-1.498 0-2.789.834-3.474 2.053C18.352 4.03 18.18 4 18 4c-1.496 0-2.785.831-3.471 2.047C12.545 6.283 11 7.952 11 10a4 4 0 0 0 4 4c.38 0 .741-.07 1.089-.169A4 4 0 0 0 20 17c.18 0 .352-.03.526-.053C21.211 18.166 22.502 19 24 19a3.972 3.972 0 0 0 3-1.38A3.972 3.972 0 0 0 30 19c.047 0 .091-.012.137-.014.144.564.408 1.074.763 1.514A3.967 3.967 0 0 0 30 23a4 4 0 0 0 8 0c0-.951-.346-1.813-.901-2.5A3.962 3.962 0 0 0 38 18c0-.498-.102-.969-.268-1.409a3.997 3.997 0 0 0 2.18-2.76c.347.099.708.169 1.088.169a3.994 3.994 0 1 0 .707-7.929z" fill="rgba(231, 228, 221, 1)" stroke="none"/>
  <path d="M19 52a2 2 0 0 1-2-2V32a2 2 0 1 1 4 0v18a2 2 0 0 1-2 2z" fill="rgba(247, 216, 129, 1)" stroke="none"/>
  <path d="M28 52a2 2 0 0 1-2-2V32a2 2 0 1 1 4 0v18a2 2 0 0 1-2 2z" fill="rgba(247, 216, 129, 1)" stroke="none"/>
  <path d="M37 52a2 2 0 0 1-2-2V32a2 2 0 1 1 4 0v18a2 2 0 0 1-2 2z" fill="rgba(247, 216, 129, 1)" stroke="none"/>
</svg>
</g></svg></g></g>
<!-- /image 70519 -->
</defs><rect x="0" y="0" width="250" height="250" fill="rgba(239, 252, 93, 1)"></rect><use xlink:href="#transformed-54116" transform="translate(-250, -250)"></use><use xlink:href="#transformed-54116" transform="translate(0, -250)"></use><use xlink:href="#transformed-54116" transform="translate(250, -250)"></use><use xlink:href="#transformed-54116" transform="translate(-250, 0)"></use><use xlink:href="#transformed-54116" transform="translate(0, 0)"></use><use xlink:href="#transformed-54116" transform="translate(250, 0)"></use><use xlink:href="#transformed-54116" transform="translate(-250, 250)"></use><use xlink:href="#transformed-54116" transform="translate(0, 250)"></use><use xlink:href="#transformed-54116" transform="translate(250, 250)"></use><use xlink:href="#transformed-45437" transform="translate(-250, -250)"></use><use xlink:href="#transformed-45437" transform="translate(0, -250)"></use><use xlink:href="#transformed-45437" transform="translate(250, -250)"></use><use xlink:href="#transformed-45437" transform="translate(-250, 0)"></use><use xlink:href="#transformed-45437" transform="translate(0, 0)"></use><use xlink:href="#transformed-45437" transform="translate(250, 0)"></use><use xlink:href="#transformed-45437" transform="translate(-250, 250)"></use><use xlink:href="#transformed-45437" transform="translate(0, 250)"></use><use xlink:href="#transformed-45437" transform="translate(250, 250)"></use><use xlink:href="#transformed-04350" transform="translate(-250, -250)"></use><use xlink:href="#transformed-04350" transform="translate(0, -250)"></use><use xlink:href="#transformed-04350" transform="translate(250, -250)"></use><use xlink:href="#transformed-04350" transform="translate(-250, 0)"></use><use xlink:href="#transformed-04350" transform="translate(0, 0)"></use><use xlink:href="#transformed-04350" transform="translate(250, 0)"></use><use xlink:href="#transformed-04350" transform="translate(-250, 250)"></use><use xlink:href="#transformed-04350" transform="translate(0, 250)"></use><use xlink:href="#transformed-04350" transform="translate(250, 250)"></use><use xlink:href="#transformed-45883" transform="translate(-250, -250)"></use><use xlink:href="#transformed-45883" transform="translate(0, -250)"></use><use xlink:href="#transformed-45883" transform="translate(250, -250)"></use><use xlink:href="#transformed-45883" transform="translate(-250, 0)"></use><use xlink:href="#transformed-45883" transform="translate(0, 0)"></use><use xlink:href="#transformed-45883" transform="translate(250, 0)"></use><use xlink:href="#transformed-45883" transform="translate(-250, 250)"></use><use xlink:href="#transformed-45883" transform="translate(0, 250)"></use><use xlink:href="#transformed-45883" transform="translate(250, 250)"></use><use xlink:href="#transformed-58472" transform="translate(-250, -250)"></use><use xlink:href="#transformed-58472" transform="translate(0, -250)"></use><use xlink:href="#transformed-58472" transform="translate(250, -250)"></use><use xlink:href="#transformed-58472" transform="translate(-250, 0)"></use><use xlink:href="#transformed-58472" transform="translate(0, 0)"></use><use xlink:href="#transformed-58472" transform="translate(250, 0)"></use><use xlink:href="#transformed-58472" transform="translate(-250, 250)"></use><use xlink:href="#transformed-58472" transform="translate(0, 250)"></use><use xlink:href="#transformed-58472" transform="translate(250, 250)"></use><use xlink:href="#transformed-37934" transform="translate(-250, -250)"></use><use xlink:href="#transformed-37934" transform="translate(0, -250)"></use><use xlink:href="#transformed-37934" transform="translate(250, -250)"></use><use xlink:href="#transformed-37934" transform="translate(-250, 0)"></use><use xlink:href="#transformed-37934" transform="translate(0, 0)"></use><use xlink:href="#transformed-37934" transform="translate(250, 0)"></use><use xlink:href="#transformed-37934" transform="translate(-250, 250)"></use><use xlink:href="#transformed-37934" transform="translate(0, 250)"></use><use xlink:href="#transformed-37934" transform="translate(250, 250)"></use><use xlink:href="#transformed-24264" transform="translate(-250, -250)"></use><use xlink:href="#transformed-24264" transform="translate(0, -250)"></use><use xlink:href="#transformed-24264" transform="translate(250, -250)"></use><use xlink:href="#transformed-24264" transform="translate(-250, 0)"></use><use xlink:href="#transformed-24264" transform="translate(0, 0)"></use><use xlink:href="#transformed-24264" transform="translate(250, 0)"></use><use xlink:href="#transformed-24264" transform="translate(-250, 250)"></use><use xlink:href="#transformed-24264" transform="translate(0, 250)"></use><use xlink:href="#transformed-24264" transform="translate(250, 250)"></use><use xlink:href="#transformed-51429" transform="translate(-250, -250)"></use><use xlink:href="#transformed-51429" transform="translate(0, -250)"></use><use xlink:href="#transformed-51429" transform="translate(250, -250)"></use><use xlink:href="#transformed-51429" transform="translate(-250, 0)"></use><use xlink:href="#transformed-51429" transform="translate(0, 0)"></use><use xlink:href="#transformed-51429" transform="translate(250, 0)"></use><use xlink:href="#transformed-51429" transform="translate(-250, 250)"></use><use xlink:href="#transformed-51429" transform="translate(0, 250)"></use><use xlink:href="#transformed-51429" transform="translate(250, 250)"></use><use xlink:href="#transformed-70519" transform="translate(-250, -250)"></use><use xlink:href="#transformed-70519" transform="translate(0, -250)"></use><use xlink:href="#transformed-70519" transform="translate(250, -250)"></use><use xlink:href="#transformed-70519" transform="translate(-250, 0)"></use><use xlink:href="#transformed-70519" transform="translate(0, 0)"></use><use xlink:href="#transformed-70519" transform="translate(250, 0)"></use><use xlink:href="#transformed-70519" transform="translate(-250, 250)"></use><use xlink:href="#transformed-70519" transform="translate(0, 250)"></use><use xlink:href="#transformed-70519" transform="translate(250, 250)"></use></svg>