<svg version="1.1"
      xmlns="http://www.w3.org/2000/svg"
      xmlns:xlink="http://www.w3.org/1999/xlink"  id="snapshot-58687" width="250" height="250" viewBox="0 0 250 250"><desc>This image was made on Patterninja.com</desc><defs>
<!-- image 54116 -->
<g id="transformed-54116" data-image="54116" transform="translate(26.000000000000004, 22) rotate(0, 19.999999999999996, 20)"><g><svg version="1.1" width="39.99999999999999px" height="40px" viewBox="0 0 39.99999999999999 40"><g id="original-54116"><svg xmlns="http://www.w3.org/2000/svg" viewBox="0 0 512 512" xmlns:xlink="http://www.w3.org/1999/xlink" version="1.1" preserveAspectRatio="xMidYMid meet">
  <path d="M495.484 90.839H16.516L7.817 101v294.151c0 9.122 7.395 16.516 16.516 16.516H502l10-7.021v-297.29c0-9.123-7.395-16.517-16.516-16.517z" fill="rgba(149, 204, 129, 1)" stroke="none"/>
  <path d="M16.516 355.097V90.839C7.395 90.839 0 98.233 0 107.355v297.29c0 9.122 7.395 16.516 16.516 16.516h478.968c9.121 0 16.516-7.395 16.516-16.516H66.065c-27.365 0-49.549-22.183-49.549-49.548z" fill="rgba(125, 189, 128, 1)" stroke="none"/>
  <path d="M440.141 252.473L264.588 145.614a16.515 16.515 0 0 0-17.175 0L71.859 252.473c-2.643 1.609-2.643 5.446 0 7.054l175.553 106.859a16.515 16.515 0 0 0 17.175 0L440.14 259.527c2.644-1.609 2.644-5.445.001-7.054z" fill="rgba(255, 224, 125, 1)" stroke="none"/>
  <path d="M256 189.936c-24.565 0-45.998 13.407-57.382 33.302l-6.616 16.302a66.202 66.202 0 0 0-2.067 16.459c0 36.486 29.578 66.064 66.064 66.064 29.834 0 55.05-19.776 63.252-46.935l2.792-17.509c.013-.539.02-1.079.02-1.62.001-36.485-29.577-66.063-66.063-66.063z" fill="rgba(80, 85, 160, 1)" stroke="none"/>
  <path d="M192.002 239.541c45.894.372 89.785 12.681 127.25 35.589a65.88 65.88 0 0 0 2.792-17.509c-36.905-21.207-79.232-33.007-123.427-34.382a65.78 65.78 0 0 0-6.615 16.302z" fill="rgba(255, 255, 255, 1)" stroke="none"/>
</svg>
</g></svg></g></g>
<!-- /image 54116 -->

<!-- image 85395 -->
<g id="transformed-85395" data-image="85395" transform="translate(26, 22) rotate(0, 20, 20)"><g><svg version="1.1" width="40px" height="40px" viewBox="0 0 40 40"><g id="original-85395"><svg xmlns="http://www.w3.org/2000/svg" viewBox="0 0 512 512" xmlns:xlink="http://www.w3.org/1999/xlink" version="1.1" preserveAspectRatio="xMidYMid meet">
  <path d="M495.484 90.839H16.516L7.817 101v294.151c0 9.122 7.395 16.516 16.516 16.516H502l10-7.021v-297.29c0-9.123-7.395-16.517-16.516-16.517z" fill="rgba(229, 100, 110, 1)" stroke="none"/>
  <path d="M16.516 355.097V90.839C7.395 90.839 0 98.233 0 107.355v297.29c0 9.122 7.395 16.516 16.516 16.516h478.968c9.121 0 16.516-7.395 16.516-16.516H66.065c-27.365 0-49.549-22.183-49.549-49.548z" fill="rgba(219, 70, 85, 1)" stroke="none"/>
  <path d="M144.611 186.742l-26.589-.233-13.055-28.57c-1.233-3.699-6.465-3.699-7.699 0l-9.528 28.57-30.116.233c-3.899.03-5.516 5.006-2.379 7.323l24.227 17.891-9.084 28.714c-1.176 3.718 3.056 6.793 6.229 4.526l24.502-17.513 24.502 17.513c3.172 2.267 7.405-.808 6.229-4.526l-9.084-28.714 24.227-17.891c3.134-2.317 1.517-7.293-2.382-7.323z" fill="rgba(255, 224, 125, 1)" stroke="none"/>
  <path d="M176.121 133.827l-5.431-.048-3.653-7.995a5.04 5.04 0 0 0-9.367.5l-2.499 7.494-7.223.056c-4.63.036-6.55 5.944-2.825 8.695l5.81 4.291-2.179 6.886c-1.397 4.414 3.629 8.066 7.396 5.374l5.876-4.2 5.876 4.2c3.767 2.692 8.793-.959 7.396-5.374l-2.179-6.886 5.822-4.299c3.722-2.748 1.807-8.654-2.82-8.694z" fill="rgba(255, 224, 125, 1)" stroke="none"/>
  <path d="M176.121 264.924l-5.431-.048-3.653-7.995a5.04 5.04 0 0 0-9.367.5l-2.499 7.494-7.223.056c-4.63.036-6.55 5.944-2.825 8.695l5.81 4.291-2.179 6.886c-1.397 4.414 3.629 8.066 7.396 5.374l5.876-4.2 5.876 4.2c3.767 2.692 8.793-.959 7.396-5.374l-2.179-6.886 5.822-4.299c3.722-2.749 1.807-8.654-2.82-8.694z" fill="rgba(255, 224, 125, 1)" stroke="none"/>
  <path d="M214.658 224.321l-5.431-.048-3.653-7.995a5.04 5.04 0 0 0-9.367.5l-2.499 7.494-7.223.056c-4.63.036-6.55 5.944-2.825 8.695l5.81 4.291-2.179 6.886c-1.397 4.414 3.63 8.066 7.396 5.374l5.876-4.2 5.876 4.2c3.767 2.692 8.793-.959 7.396-5.374l-2.179-6.886 5.822-4.299c3.723-2.748 1.807-8.653-2.82-8.694z" fill="rgba(255, 224, 125, 1)" stroke="none"/>
  <path d="M214.658 170.644l-5.431-.048-3.653-7.995a5.04 5.04 0 0 0-9.367.5l-2.499 7.494-7.223.056c-4.63.036-6.55 5.944-2.825 8.695l5.81 4.291-2.179 6.886c-1.397 4.414 3.63 8.066 7.396 5.374l5.876-4.2 5.876 4.2c3.767 2.692 8.793-.959 7.396-5.374l-2.179-6.886 5.822-4.299c3.723-2.748 1.807-8.653-2.82-8.694z" fill="rgba(255, 224, 125, 1)" stroke="none"/>
</svg>
</g></svg></g></g>
<!-- /image 85395 -->

<!-- image 73749 -->
<g id="transformed-73749" data-image="73749" transform="translate(111, 15.000000000000004) rotate(0, 22, 21.999999999999996)"><g><svg version="1.1" width="44px" height="43.99999999999999px" viewBox="0 0 44 43.99999999999999"><g id="original-73749"><svg xmlns="http://www.w3.org/2000/svg" viewBox="0 0 64 64" data-name="Layer 2" xmlns:xlink="http://www.w3.org/1999/xlink" version="1.1" preserveAspectRatio="xMidYMid meet">
  <path d="M55.1 35.455a5.192 5.192 0 0 0-2.283-2.572 5 5 0 0 1-1.417-1.276 5.051 5.051 0 0 1-.289-1.92 5.166 5.166 0 0 0-.87-3.29 5.173 5.173 0 0 0-3.124-1.37 5.037 5.037 0 0 1-1.845-.577 5 5 0 0 1-1.047-1.607 5.189 5.189 0 0 0-2.183-2.643 5.15 5.15 0 0 0-3.386.062 5.079 5.079 0 0 1-1.944.248 4.954 4.954 0 0 1-1.592-1A5.222 5.222 0 0 0 32 18a5.222 5.222 0 0 0-3.119 1.5 4.95 4.95 0 0 1-1.593 1 5.084 5.084 0 0 1-1.944-.248 5.15 5.15 0 0 0-3.386-.062 5.182 5.182 0 0 0-2.178 2.646 5.014 5.014 0 0 1-1.047 1.607 5.037 5.037 0 0 1-1.845.577 5.176 5.176 0 0 0-3.125 1.37 5.169 5.169 0 0 0-.87 3.29 5.043 5.043 0 0 1-.289 1.919 4.984 4.984 0 0 1-1.418 1.276A5.2 5.2 0 0 0 8.9 35.456a1 1 0 0 0 .69 1.234.976.976 0 0 0 .272.038C10.3 36.729 23.268 39 32 39s21.876-2.154 22.406-2.311a1 1 0 0 0 .694-1.234z" fill="rgba(208, 210, 211, 1)" stroke="none"/>
  <path d="M46 37a1 1 0 0 1-.979-.8 6.476 6.476 0 0 0-4.262-5.227 1 1 0 1 1 .485-1.939A8.412 8.412 0 0 1 46.98 35.8a1 1 0 0 1-.78 1.18.975.975 0 0 1-.2.02z" fill="rgba(146, 148, 151, 1)" stroke="none"/>
  <path d="M28 29a1 1 0 0 1-.6-1.8c1.625-1.218 5.449-2.767 8.307.093a1 1 0 0 1-1.414 1.414c-2.359-2.358-5.557-.008-5.693.093a1 1 0 0 1-.6.2z" fill="rgba(146, 148, 151, 1)" stroke="none"/>
  <path d="M18 37a1 1 0 0 1-.971-1.242 7.862 7.862 0 0 1 4.654-5.706 1 1 0 0 1 .64 1.895 5.91 5.91 0 0 0-3.353 4.3A1 1 0 0 1 18 37z" fill="rgba(146, 148, 151, 1)" stroke="none"/>
  <path d="M21 9a1 1 0 0 1-.164-1.986l42-7a1 1 0 0 1 .329 1.973l-42 7A.958.958 0 0 1 21 9z" fill="rgba(102, 30, 10, 1)" stroke="none"/>
  <path d="M21 55.835h21V64H21z" fill="rgba(155, 13, 33, 1)" stroke="none"/>
  <path d="M24 11.5c0 1.795-2.435 2.713-3.611 3.889S18.295 19 16.5 19s-2.713-2.435-3.889-3.611S9 13.295 9 11.5s2.435-2.713 3.611-3.889S14.705 4 16.5 4s2.713 2.435 3.889 3.611S24 9.705 24 11.5z" fill="rgba(187, 189, 191, 1)" stroke="none"/>
  <path d="M16.48 6a6.386 6.386 0 0 0-1.192 1.436 11.943 11.943 0 0 1-1.263 1.593 11.838 11.838 0 0 1-1.593 1.263c-.469.329-1.342.942-1.435 1.231a6.392 6.392 0 0 0 1.435 1.192 11.8 11.8 0 0 1 1.593 1.263 11.908 11.908 0 0 1 1.263 1.593c.329.47.942 1.342 1.231 1.436a6.386 6.386 0 0 0 1.192-1.436 11.943 11.943 0 0 1 1.263-1.593 11.838 11.838 0 0 1 1.593-1.263A5.909 5.909 0 0 0 22 11.5a5.909 5.909 0 0 0-1.428-1.212 11.8 11.8 0 0 1-1.593-1.263 11.908 11.908 0 0 1-1.263-1.593C17.383 6.963 16.77 6.091 16.48 6z" fill="rgba(187, 189, 191, 1)" stroke="none"/>
  <path d="M57 36v3a18 18 0 0 1-18 18H25A18 18 0 0 1 7 39v-3z" fill="rgba(236, 28, 36, 1)" stroke="none"/>
  <path d="M57 36v3a18 18 0 0 1-18 18h-4.84c9.56-5.73 12.62-14.91 13.57-21z" fill="rgba(193, 16, 29, 1)" stroke="none"/>
  <path d="M1 28a1 1 0 0 1-1-1v-2a1 1 0 0 1 2 0v2a1 1 0 0 1-1 1z" fill="rgba(187, 189, 191, 1)" stroke="none"/>
  <path d="M6 21a1 1 0 0 1-1-1v-2a1 1 0 0 1 2 0v2a1 1 0 0 1-1 1z" fill="rgba(187, 189, 191, 1)" stroke="none"/>
  <path d="M17 14a1 1 0 0 1-.042-2l46-2a1 1 0 0 1 .087 2l-46 2z" fill="rgba(102, 30, 10, 1)" stroke="none"/>
  <path d="M19 42h-1a1 1 0 0 1 0-2h1a1 1 0 0 1 0 2z" fill="rgba(155, 13, 33, 1)" stroke="none"/>
  <path d="M14 42h-1a1 1 0 0 1 0-2h1a1 1 0 0 1 0 2z" fill="rgba(155, 13, 33, 1)" stroke="none"/>
</svg>
</g></svg></g></g>
<!-- /image 73749 -->

<!-- image 16105 -->
<g id="transformed-16105" data-image="16105" transform="translate(196, 18) rotate(0, 23, 23)"><g><svg version="1.1" width="46px" height="46px" viewBox="0 0 46 46"><g id="original-16105"><svg xmlns="http://www.w3.org/2000/svg" viewBox="0 0 512 512" xmlns:xlink="http://www.w3.org/1999/xlink" version="1.1" preserveAspectRatio="xMidYMid meet">
  <path d="M344 232a94.174 94.174 0 0 1-11.49 45.07 140.552 140.552 0 0 1-112.53 72.78l-7.91.61L192 352h-16l-6.19-.48-13.88-1.06-7.91-.61a140.516 140.516 0 0 1-112.53-72.78 94.151 94.151 0 0 1 0-90.14 140.552 140.552 0 0 1 112.53-72.78l7.91-.61L176 112h16l20.07 1.54 7.91.61a140.629 140.629 0 0 1 65.5 22.11q5.58 3.615 10.8 7.74a140.148 140.148 0 0 1 36.23 42.93A94.174 94.174 0 0 1 344 232z" fill="rgba(224, 68, 70, 1)" stroke="none"/>
  <path d="M344 232a94.174 94.174 0 0 1-11.49 45.07 140.552 140.552 0 0 1-112.53 72.78l-7.91.61L192 352h-16l-6.19-.48q-3.375-5.055-6.32-10.45a94.151 94.151 0 0 1 0-90.14 140.552 140.552 0 0 1 112.53-72.78l3.98-.31V144h16.28a140.148 140.148 0 0 1 36.23 42.93A94.174 94.174 0 0 1 344 232z" fill="rgba(214, 50, 63, 1)" stroke="none"/>
  <path d="M154.3 277.07c-.04-.39-.08-.78-.13-1.17A427.775 427.775 0 0 1 152 232a422.779 422.779 0 0 1 2.3-45.07c6.77-62.1 18.94-71.41 22.5-72.78l5.6-2.15H176l-20.07 1.54-7.91.61a140.214 140.214 0 0 0-31.6 6.14c-15.46 14.58-28.23 35.67-36.73 61.66a166.72 166.72 0 0 0 0 100.1c8.51 25.99 21.27 47.09 36.74 61.66a140.236 140.236 0 0 0 31.59 6.14l7.91.61 13.88 1.06 6.19.48h6.4l-5.6-2.15c-3.56-1.37-15.73-10.68-22.5-72.78zm-59.4 0a150.646 150.646 0 0 1 0-90.14c12.47-38.12 34.48-64.08 59.85-71.22-6.34 12.12-12.37 32.98-16.36 69.49a459.403 459.403 0 0 0 0 93.6c3.99 36.51 10.02 57.37 16.36 69.49-25.37-7.14-47.38-33.1-59.85-71.22z" fill="rgba(253, 202, 119, 1)" stroke="none"/>
  <path d="M288.31 181.95a185.555 185.555 0 0 0-8.31-21.07c-7.72-16.46-17.38-30.18-28.42-40.59a140.214 140.214 0 0 0-31.6-6.14l-7.91-.61L192 112h-6.4l5.6 2.15c3.56 1.37 15.73 10.68 22.5 72.78.38 3.47.72 7.06 1.01 10.74.85 10.91 1.29 22.59 1.29 34.33a422.779 422.779 0 0 1-2.3 45.07c-6.77 62.1-18.94 71.41-22.5 72.78l-5.6 2.15h6.4l20.07-1.54 7.91-.61a140.214 140.214 0 0 0 31.6-6.14c15.46-14.58 28.23-35.67 36.73-61.66a166.72 166.72 0 0 0 0-100.1zm-15.21 95.12c-12.47 38.12-34.48 64.08-59.85 71.22 6.34-12.12 12.37-32.98 16.36-69.49A441.981 441.981 0 0 0 232 232c0-14.58-.67-29.1-1.93-42.28-.14-1.52-.3-3.03-.46-4.52-3.99-36.51-10.02-57.37-16.36-69.49 23.5 6.61 44.12 29.38 56.94 63.01q1.53 4.005 2.91 8.21a150.646 150.646 0 0 1 0 90.14z" fill="rgba(253, 202, 119, 1)" stroke="none"/>
  <path d="M152 376h16v56h-16z" fill="rgba(253, 202, 119, 1)" stroke="none"/>
  <path d="M176 376h16v56h-16z" fill="rgba(253, 202, 119, 1)" stroke="none"/>
  <path d="M200 376h16v56h-16z" fill="rgba(253, 202, 119, 1)" stroke="none"/>
  <path d="M176-48h16V96h-16z" fill="rgba(253, 202, 119, 1)" stroke="none"/>
  <path d="M152 80h64v33.846h-64z" fill="rgba(250, 181, 63, 1)" stroke="none"/>
  <path d="M152 350.15h64V384h-64z" fill="rgba(250, 181, 63, 1)" stroke="none"/>
  <path d="M176.8 349.85l5.6 2.15H176l-6.19-.48q-3.375-5.055-6.32-10.45a94.15 94.15 0 0 1-9.32-65.17c.05.39.09.78.13 1.17 6.77 62.1 18.94 71.41 22.5 72.78z" fill="rgba(250, 181, 63, 1)" stroke="none"/>
  <path d="M296 232a163.003 163.003 0 0 1-7.69 50.05c-8.5 25.99-21.27 47.08-36.73 61.66a140.214 140.214 0 0 1-31.6 6.14l-7.91.61L192 352h-6.4l5.6-2.15c3.56-1.37 15.73-10.68 22.5-72.78A422.779 422.779 0 0 0 216 232c0-11.74-.44-23.42-1.29-34.33a135.239 135.239 0 0 1 15.36-7.95c1.26 13.18 1.93 27.7 1.93 42.28a441.981 441.981 0 0 1-2.39 46.8c-3.99 36.51-10.02 57.37-16.36 69.49 25.37-7.14 47.38-33.1 59.85-71.22a150.646 150.646 0 0 0 0-90.14q-1.38-4.2-2.91-8.21c1.93-.23 3.88-.42 5.83-.57l3.98-.31v-16.96a185.555 185.555 0 0 1 8.31 21.07A163.003 163.003 0 0 1 296 232z" fill="rgba(250, 181, 63, 1)" stroke="none"/>
  <path d="M216 376v19.11q-2.775-1.62-5.48-3.37-5.43-3.51-10.52-7.52V376z" fill="rgba(252, 165, 41, 1)" stroke="none"/>
  <path d="M216 350.15V384h-16.28a139.953 139.953 0 0 1-30.82-33.85z" fill="rgba(250, 181, 63, 1)" stroke="none"/>
  <path d="M488 296a94.174 94.174 0 0 1-11.49 45.07 140.552 140.552 0 0 1-112.53 72.78l-7.91.61L336 416h-16l-20.07-1.54-7.91-.61a140.516 140.516 0 0 1-112.53-72.78 94.151 94.151 0 0 1 0-90.14 140.552 140.552 0 0 1 112.53-72.78l7.91-.61L320 176h16l20.07 1.54 7.91.61a140.516 140.516 0 0 1 112.53 72.78A94.174 94.174 0 0 1 488 296z" fill="rgba(224, 68, 70, 1)" stroke="none"/>
  <path d="M320.8 178.15l5.6-2.15H320l-20.07 1.54-7.91.61a140.215 140.215 0 0 0-31.6 6.14c-15.46 14.58-28.23 35.67-36.73 61.66a166.72 166.72 0 0 0 0 100.1c8.51 25.99 21.27 47.09 36.74 61.66a140.237 140.237 0 0 0 31.59 6.14l7.91.61L320 416h6.4l-5.6-2.15c-3.56-1.37-15.73-10.68-22.5-72.78a442.73 442.73 0 0 1 0-90.14c6.77-62.1 18.94-71.41 22.5-72.78zM282.39 342.8c3.99 36.51 10.02 57.37 16.36 69.49-25.37-7.14-47.38-33.1-59.85-71.22a150.646 150.646 0 0 1 0-90.14c12.47-38.12 34.48-64.08 59.85-71.22-6.34 12.12-12.37 32.98-16.36 69.49a459.403 459.403 0 0 0 0 93.6z" fill="rgba(253, 202, 119, 1)" stroke="none"/>
  <path d="M432.31 245.95c-8.5-25.99-21.27-47.08-36.73-61.66a140.215 140.215 0 0 0-31.6-6.14l-7.91-.61L336 176h-6.4l5.6 2.15c3.56 1.37 15.73 10.68 22.5 72.78A422.778 422.778 0 0 1 360 296a422.778 422.778 0 0 1-2.3 45.07c-6.77 62.1-18.94 71.41-22.5 72.78l-5.6 2.15h6.4l20.07-1.54 7.91-.61a140.215 140.215 0 0 0 31.6-6.14c15.46-14.58 28.23-35.67 36.73-61.66a166.72 166.72 0 0 0 0-100.1zm-15.21 95.12c-12.47 38.12-34.48 64.08-59.85 71.22 6.34-12.12 12.37-32.98 16.36-69.49A441.997 441.997 0 0 0 376 296a441.997 441.997 0 0 0-2.39-46.8c-3.99-36.51-10.02-57.37-16.36-69.49 25.37 7.14 47.38 33.1 59.85 71.22a150.646 150.646 0 0 1 0 90.14z" fill="rgba(253, 202, 119, 1)" stroke="none"/>
  <path d="M296 440h16v56h-16z" fill="rgba(253, 202, 119, 1)" stroke="none"/>
  <path d="M320 440h16v56h-16z" fill="rgba(253, 202, 119, 1)" stroke="none"/>
  <path d="M344 440h16v56h-16z" fill="rgba(253, 202, 119, 1)" stroke="none"/>
  <path d="M320 16h16v144h-16z" fill="rgba(253, 202, 119, 1)" stroke="none"/>
  <path d="M296 144h64v33.846h-64z" fill="rgba(250, 181, 63, 1)" stroke="none"/>
  <path d="M296 414.154h64V448h-64z" fill="rgba(250, 181, 63, 1)" stroke="none"/>
</svg>
</g></svg></g></g>
<!-- /image 16105 -->

<!-- image 94431 -->
<g id="transformed-94431" data-image="94431" transform="translate(28.00000000000002, 105) rotate(0, 17.99999999999998, 18)"><g><svg version="1.1" width="35.99999999999996px" height="36px" viewBox="0 0 35.99999999999996 36"><g id="original-94431"><svg xmlns="http://www.w3.org/2000/svg" viewBox="0 0 512.001 512.001" xmlns:xlink="http://www.w3.org/1999/xlink" version="1.1" preserveAspectRatio="xMidYMid meet">
  <path d="M136.306 187.358L90.082 50.465l28.421-9.597 46.224 136.893z" fill="rgba(54, 40, 34, 1)" stroke="none"/>
  <path d="M375.702 187.362l-28.42-9.596 46.223-136.893 28.42 9.597z" fill="rgba(54, 40, 34, 1)" stroke="none"/>
  <path d="M256 127.509l-20.016 192.108L256 511.724c106.098 0 192.108-86.01 192.108-192.108S362.099 127.509 256 127.509z" fill="rgba(255, 145, 0, 1)" stroke="none"/>
  <path d="M63.892 319.616c0 106.098 86.01 192.108 192.108 192.108V127.509c-106.098 0-192.108 86.009-192.108 192.107z" fill="rgba(255, 205, 0, 1)" stroke="none"/>
  <path d="M329.833 319.616c0-40.776-33.056-73.832-73.832-73.832l-20.016 73.832L256 393.449c40.777 0 73.833-33.056 73.833-73.833z" fill="rgba(255, 205, 0, 1)" stroke="none"/>
  <path d="M182.168 319.616c0 40.776 33.056 73.832 73.832 73.832V245.784c-40.776 0-73.832 33.056-73.832 73.832z" fill="rgba(255, 230, 105, 1)" stroke="none"/>
  <path d="M447.945 512.007L330.63 394.693l21.213-21.213 117.314 117.314z" fill="rgba(54, 40, 34, 1)" stroke="none"/>
  <circle cx="325.69" cy="368.54" r="59.2" fill="rgba(137, 92, 98, 1)" stroke="none"/>
  <path d="M511.863 0H256l-20.016 31.877L256 63.754h255.863z" fill="rgba(84, 59, 26, 1)" stroke="none"/>
  <path d="M.138 0h255.86v63.754H.138z" fill="rgba(137, 92, 98, 1)" stroke="none"/>
</svg>
</g></svg></g></g>
<!-- /image 94431 -->

<!-- image 70101 -->
<g id="transformed-70101" data-image="70101" transform="translate(113, 105.00000000000001) rotate(0, 20, 19.999999999999982)"><g><svg version="1.1" width="40px" height="39.999999999999964px" viewBox="0 0 40 39.999999999999964"><g id="original-70101"><svg xmlns="http://www.w3.org/2000/svg" viewBox="0 0 512 512" xmlns:xlink="http://www.w3.org/1999/xlink" version="1.1" preserveAspectRatio="xMidYMid meet">
  <path d="M511.999 255.999c0 13.605-1.066 26.958-3.114 39.988C489.691 418.376 383.78 511.999 256 511.999S22.309 418.376 3.114 295.988A257.398 257.398 0 0 1 0 256c0-34.126 6.677-66.706 18.808-96.486a254.666 254.666 0 0 1 16.718-33.698 256.141 256.141 0 0 1 19.853-28.85 254.083 254.083 0 0 1 16.718-19.048 256.614 256.614 0 0 1 29.257-25.945 255.18 255.18 0 0 1 33.437-21.514 247.661 247.661 0 0 1 14.629-7.283 252.16 252.16 0 0 1 33.437-12.57 253.427 253.427 0 0 1 32.392-7.377 251.44 251.44 0 0 1 16.718-2.111A257.257 257.257 0 0 1 256 0c1.4 0 2.79.01 4.18.042A256.066 256.066 0 0 1 307.2 5.12a251.195 251.195 0 0 1 15.673 3.709 251.678 251.678 0 0 1 33.437 11.577 235.38 235.38 0 0 1 10.449 4.733 252.036 252.036 0 0 1 16.718 8.808 256.214 256.214 0 0 1 33.437 22.946 255.085 255.085 0 0 1 16.718 14.764 259.49 259.49 0 0 1 15.673 16.499 256.425 256.425 0 0 1 33.437 48.891c18.683 35.538 29.257 76.018 29.257 118.952z" fill="rgba(66, 122, 45, 1)" stroke="none"/>
  <path d="M508.886 295.988c-4.399 28.097-13.385 54.669-26.143 78.952a256.771 256.771 0 0 1-33.437 48.891 257.276 257.276 0 0 1-32.391 31.284 257.025 257.025 0 0 1-33.437 22.935 251.813 251.813 0 0 1-16.718 8.808 229.786 229.786 0 0 1-10.449 4.733 252.372 252.372 0 0 1-33.437 11.577 251.363 251.363 0 0 1-15.673 3.709 256.066 256.066 0 0 1-47.02 5.078c-1.39.031-2.779.042-4.18.042-8.108 0-16.123-.376-24.033-1.108a258.25 258.25 0 0 1-16.718-2.121 253.853 253.853 0 0 1-32.392-7.377 252.79 252.79 0 0 1-33.437-12.57 254.305 254.305 0 0 1-14.629-7.283 255.18 255.18 0 0 1-33.437-21.514A257.483 257.483 0 0 1 55.38 415.02a255.917 255.917 0 0 1-19.853-28.839 254.863 254.863 0 0 1-16.718-33.719 253.81 253.81 0 0 1-15.694-56.477l505.771.003z" fill="rgba(105, 175, 84, 1)" stroke="none"/>
  <path d="M482.742 137.049V374.94a256.771 256.771 0 0 1-33.437 48.891V88.158a256.287 256.287 0 0 1 33.437 48.891z" fill="rgba(76, 142, 55, 1)" stroke="none"/>
  <path d="M356.31 20.407v471.185a252.372 252.372 0 0 1-33.437 11.577V8.829a251.583 251.583 0 0 1 33.437 11.578z" fill="rgba(76, 142, 55, 1)" stroke="none"/>
  <path d="M134.792 30.459V481.54a255.18 255.18 0 0 1-33.437-21.514V51.973a255.247 255.247 0 0 1 33.437-21.514z" fill="rgba(76, 142, 55, 1)" stroke="none"/>
  <path d="M182.857 10.606v490.788a252.79 252.79 0 0 1-33.437-12.57V23.176a252.125 252.125 0 0 1 33.437-12.57z" fill="rgba(76, 142, 55, 1)" stroke="none"/>
  <path d="M433.632 71.659V440.34a255.215 255.215 0 0 1-16.718 14.775V56.895a254.791 254.791 0 0 1 16.718 14.764z" fill="rgba(76, 142, 55, 1)" stroke="none"/>
  <path d="M35.527 125.816v260.367a254.863 254.863 0 0 1-16.718-33.719v-192.95a254.666 254.666 0 0 1 16.718-33.698z" fill="rgba(76, 142, 55, 1)" stroke="none"/>
  <path d="M72.098 77.918v356.163a255.993 255.993 0 0 1-16.718-19.059V96.966a254.281 254.281 0 0 1 16.718-19.048z" fill="rgba(76, 142, 55, 1)" stroke="none"/>
  <path d="M383.477 33.949V478.05a251.813 251.813 0 0 1-16.718 8.808V25.14a251.577 251.577 0 0 1 16.718 8.809z" fill="rgba(76, 142, 55, 1)" stroke="none"/>
  <path d="M231.967 1.118v509.773a258.25 258.25 0 0 1-16.718-2.121V3.229a250.78 250.78 0 0 1 16.718-2.111z" fill="rgba(76, 142, 55, 1)" stroke="none"/>
  <path d="M307.2 5.12v501.759a256.066 256.066 0 0 1-47.02 5.078V.042A256.066 256.066 0 0 1 307.2 5.12z" fill="rgba(76, 142, 55, 1)" stroke="none"/>
  <path d="M457.728 413.633C410.864 473.516 337.93 512 256 512s-154.864-38.484-201.728-98.366c7.199-28.003 20.929-53.708 39.612-75.191 31.932-36.728 78.346-61.158 131.427-63.843a607.599 607.599 0 0 1 61.377 0c53.081 2.685 99.495 27.115 131.427 63.843 18.683 21.483 32.413 47.187 39.613 75.19z" fill="rgba(102, 91, 91, 1)" stroke="none"/>
  <circle cx="413.779" cy="82.829" r="64.784" fill="rgba(102, 91, 91, 1)" stroke="none"/>
  <circle cx="409.15" cy="87.447" r="37.012" fill="rgba(77, 68, 69, 1)" stroke="none"/>
  <circle cx="98.221" cy="82.829" r="64.784" fill="rgba(102, 91, 91, 1)" stroke="none"/>
  <circle cx="102.839" cy="87.447" r="37.012" fill="rgba(77, 68, 69, 1)" stroke="none"/>
  <path d="M418.116 338.443c-31.932-36.728-78.346-61.158-131.427-63.843a598.116 598.116 0 0 0-33.813-.752c.209-.01.408-.01.616-.021-.742.01-1.494.021-2.236.021-1.327.01-2.654.021-3.981.042-1.264.021-2.529.052-3.793.073-1.191.021-2.382.042-3.574.073l-3.96.125c-1.118.042-2.247.073-3.365.115-2.424.094-4.848.199-7.272.324-84.156 4.253-151.531 63.164-171.039 139.034a257.44 257.44 0 0 0 66.455 59.747 277.702 277.702 0 0 1 .867-40.761c3.371-35.247 34.523-60.941 69.499-58.533a6.194 6.194 0 0 1 4.686 2.674l14.286 20.883c2.911 4.256 9.25 4.067 11.903-.354l6.432-10.72c2.456-4.092 8.432-3.951 10.691.252l16.031 29.818c3.046 5.664 11.458 4.655 13.077-1.569l7.119-27.379c1.196-4.602 6.939-6.164 10.302-2.801l6.399 6.399c3.264 3.264 8.729 2.578 11.085-1.392l7.278-12.263a6.145 6.145 0 0 1 4.657-2.971 590.152 590.152 0 0 0 48.104-6.975c21.296-3.981 40.323-14.409 54.973-29.246z" fill="rgba(77, 68, 69, 1)" stroke="none"/>
  <path d="M284.951 48.852a572.999 572.999 0 0 0-57.908 0C121.784 54.176 44.327 150.122 63.045 253.841a296.819 296.819 0 0 0 3.508 16.673c9.611 40.004 41.861 70.799 82.3 78.368 71.43 13.369 142.859 13.369 214.289 0 40.44-7.569 72.689-38.364 82.3-78.368a298.09 298.09 0 0 0 3.508-16.673c18.717-103.719-58.74-199.665-163.999-204.989z" fill="rgba(230, 230, 230, 1)" stroke="none"/>
  <path d="M255.997 358.915c-35.715 0-71.429-3.344-107.144-10.031-40.437-7.565-72.693-38.358-82.296-78.367a296.283 296.283 0 0 1-3.511-16.677C44.332 150.124 121.78 54.182 227.043 48.853c8.861-.439 17.721-.69 26.593-.721a250.6 250.6 0 0 0-16.572.721c-68.827 5.329-119.473 101.271-107.238 204.988a433.507 433.507 0 0 0 2.299 16.677c6.28 40.009 27.366 70.802 53.812 78.367 23.353 6.687 46.706 10.03 70.06 10.03z" fill="rgba(204, 204, 204, 1)" stroke="none"/>
  <g>
    <path d="M318.647 191.077l-10.497 10.497c-12.634 12.634-10.792 33.449 3.653 43.966a175.857 175.857 0 0 1 34.973 33.758c13.137 16.772 37.899 18.432 52.964 3.368 15.064-15.064 13.403-39.826-3.368-52.964a175.807 175.807 0 0 1-33.759-34.973c-10.517-14.443-31.332-16.286-43.966-3.652z" fill="rgba(102, 91, 91, 1)" stroke="none"/>
    <path d="M193.347 191.077l10.497 10.497c12.634 12.634 10.792 33.449-3.653 43.966a175.857 175.857 0 0 0-34.973 33.758c-13.137 16.772-37.899 18.432-52.964 3.368-15.064-15.064-13.403-39.826 3.368-52.964a175.774 175.774 0 0 0 33.758-34.973c10.518-14.443 31.333-16.286 43.967-3.652z" fill="rgba(102, 91, 91, 1)" stroke="none"/>
  </g>
  <path d="M296.539 359.117c-27.027 4.993-54.056 4.993-81.083 0-16.794-3.102-30.328-19.763-32.924-41.374a100.922 100.922 0 0 1 0-24.167c2.596-21.609 16.13-38.271 32.924-41.374 27.023-4.991 54.047-4.993 81.07-.002 17.152 3.167 30.694 20.499 33.078 42.62a100.93 100.93 0 0 1-.142 22.922c-2.596 21.612-16.13 38.273-32.923 41.375z" fill="rgba(204, 204, 204, 1)" stroke="none"/>
  <path d="M233.328 359.117c7.083 2.33 14.167 3.584 21.251 3.73-13.043-.084-26.087-1.327-39.121-3.73-16.799-3.103-30.333-19.769-32.929-41.378a101.45 101.45 0 0 1 0-24.168c2.597-21.608 16.13-38.275 32.929-41.367 13.043-2.414 26.087-3.657 39.129-3.741-7.083.146-14.176 1.4-21.259 3.741-9.395 3.093-16.96 19.759-18.414 41.367a182.16 182.16 0 0 0 0 24.168c1.454 21.609 9.019 38.275 18.414 41.378z" fill="rgba(179, 159, 159, 1)" stroke="none"/>
  <path d="M291.243 270.638c0 12.774-15.78 30.473-35.245 30.473s-35.245-17.699-35.245-30.473 15.78-15.786 35.245-15.786 35.245 3.013 35.245 15.786z" fill="rgba(15, 15, 14, 1)" stroke="none"/>
  <circle cx="273.763" cy="269.343" r="9.404" fill="rgba(128, 114, 114, 1)" stroke="none"/>
  <g>
    <path d="M339.068 256.283c-13.828 0-25.078-11.249-25.078-25.077 0-11.319 7.628-21.275 18.55-24.213a25.171 25.171 0 0 1 6.527-.864c13.828 0 25.077 11.249 25.077 25.077 0 2.194-.29 4.389-.864 6.523-2.936 10.926-12.892 18.554-24.212 18.554z" fill="rgba(77, 68, 69, 1)" stroke="none"/>
    <path d="M172.926 256.283c-13.828 0-25.077-11.249-25.077-25.077 0-11.319 7.628-21.275 18.55-24.213a25.171 25.171 0 0 1 6.527-.864c13.828 0 25.077 11.249 25.077 25.077 0 2.194-.29 4.389-.864 6.523-2.938 10.926-12.894 18.554-24.213 18.554z" fill="rgba(77, 68, 69, 1)" stroke="none"/>
  </g>
  <g>
    <path d="M352.652 225.981c0 1.223-.167 2.414-.47 3.542-1.557 5.789-6.834 10.041-13.113 10.041-7.502 0-13.584-6.081-13.584-13.584 0-6.28 4.253-11.557 10.041-13.113 1.128-.303 2.32-.47 3.542-.47 7.502 0 13.584 6.081 13.584 13.584z" fill="rgba(15, 15, 14, 1)" stroke="none"/>
    <circle cx="172.931" cy="225.98" r="13.584" fill="rgba(15, 15, 14, 1)" stroke="none"/>
  </g>
  <g>
    <path d="M352.652 225.981c0 1.223-.167 2.414-.47 3.542a12.536 12.536 0 0 1-5.277 1.16c-6.928 0-12.539-5.611-12.539-12.539 0-1.881.418-3.678 1.16-5.277 1.128-.303 2.32-.47 3.542-.47 7.502 0 13.584 6.081 13.584 13.584z" fill="rgba(230, 230, 230, 1)" stroke="none"/>
    <path d="M186.509 225.981c0 1.223-.167 2.414-.47 3.542a12.536 12.536 0 0 1-5.277 1.16c-6.928 0-12.539-5.611-12.539-12.539 0-1.881.418-3.678 1.16-5.277 1.128-.303 2.32-.47 3.542-.47 7.503 0 13.584 6.081 13.584 13.584z" fill="rgba(230, 230, 230, 1)" stroke="none"/>
  </g>
  <g>
    <path d="M99.538 379.982c2.834-4.355 9.692-2.907 10.326 2.251 1.17 9.539-8.215 22.912-19.569 27.238-11.782 4.487 1.859-18.143 9.243-29.489z" fill="rgba(102, 91, 91, 1)" stroke="none"/>
    <path d="M102.935 413.36c1.875-4.846 8.885-4.843 10.568.072 3.113 9.093-3.312 24.115-13.529 30.689-10.604 6.823-1.924-18.135 2.961-30.761z" fill="rgba(102, 91, 91, 1)" stroke="none"/>
  </g>
</svg>
</g></svg></g></g>
<!-- /image 70101 -->

<!-- image 93257 -->
<g id="transformed-93257" data-image="93257" transform="translate(198, 101.00000000000001) rotate(0, 21, 20.99999999999999)"><g><svg version="1.1" width="42px" height="41.99999999999998px" viewBox="0 0 42 41.99999999999998"><g id="original-93257"><svg xmlns="http://www.w3.org/2000/svg" viewBox="0 0 512 512" xmlns:xlink="http://www.w3.org/1999/xlink" version="1.1" preserveAspectRatio="xMidYMid meet">
  <path d="M173.427 150.521c-14.238-9.492-22.734-25.371-22.734-42.48s8.496-32.988 22.734-42.48c5.962-3.97 9.375-13.356 9.375-20.52s-3.413-13.55-9.375-17.52c-6.885-4.585-8.76-13.901-4.16-20.801 4.585-6.899 13.857-8.774 20.801-4.16 14.238 9.492 22.734 25.371 22.734 42.48s-8.496 35.988-22.734 45.48c-5.962 3.97-9.375 10.356-9.375 17.52s3.413 13.55 9.375 17.52c6.899 4.6 8.76 13.901 4.16 20.801-4.524 6.797-13.792 8.806-20.801 4.16z" fill="rgba(202, 232, 249, 1)" stroke="none"/>
  <path d="M256 105.471c-.3.899-.3 1.8-.3 2.699 0 .901 0 1.8.3 2.701.601 6 3.9 11.4 9 14.7 6.901 4.501 8.701 13.801 4.2 20.7-2.999 4.501-8.101 6.899-13.2 6.899-2.401 0-5.4-.899-7.5-2.699-14.399-9.3-22.8-25.201-22.8-42.301s8.401-32.999 22.8-42.599c3.6-2.401 6-7.4 7.5-11 1.199-2.701 1.8-6.4 1.8-9.401 0-2.999-.601-5.999-1.8-8.699-1.5-3.6-3.9-6.599-7.5-9-6.899-4.501-8.699-13.801-4.2-20.7 2.701-3.9 7.2-6.301 11.7-6.601 3.3-.298 6.301.601 9 2.401 14.401 9.6 22.8 25.499 22.8 42.599s-8.399 36.001-22.8 45.301c-5.4 3.3-8.399 9-9 15z" fill="rgba(202, 232, 249, 1)" stroke="none"/>
  <path d="M323.427 150.521c-14.238-9.492-22.734-25.371-22.734-42.48s8.496-32.988 22.734-42.48c5.962-3.97 9.375-13.356 9.375-20.52s-3.413-13.55-9.375-17.52c-6.885-4.585-8.76-13.901-4.16-20.801 4.585-6.899 13.857-8.774 20.801-4.16 14.238 9.492 22.734 25.371 22.734 42.48s-8.496 35.988-22.734 45.48c-5.962 3.97-9.375 10.356-9.375 17.52s3.413 13.55 9.375 17.52c6.899 4.6 8.76 13.901 4.16 20.801-4.524 6.797-13.792 8.806-20.801 4.16z" fill="rgba(202, 232, 249, 1)" stroke="none"/>
  <path d="M482 436.971c0 2.401-.601 4.501-1.5 6.599l-21.901 43.5c-7.5 15.3-23.099 24.901-40.199 24.901H94.6c-17.1 0-32.699-9.6-40.199-24.901L32.5 443.57c-.899-2.098-1.5-4.199-1.5-6.599h451z" fill="rgba(153, 76, 15, 1)" stroke="none"/>
  <path d="M482 436.971c0 2.401-.601 4.501-1.5 6.599l-21.901 43.5c-7.5 15.3-23.099 24.901-40.199 24.901H256v-75h226z" fill="rgba(113, 55, 8, 1)" stroke="none"/>
  <path d="M512 436.971c0 8.401-6.599 15-15 15H15c-8.401 0-15-6.599-15-15s6.599-15 15-15h482c8.401 0 15 6.599 15 15z" fill="rgba(191, 96, 21, 1)" stroke="none"/>
  <path d="M512 436.971c0 8.401-6.599 15-15 15H256v-30h241c8.401 0 15 6.599 15 15z" fill="rgba(153, 76, 16, 1)" stroke="none"/>
  <path d="M422 241.971c0 16.5-6.599 31.5-17.701 42.299-10.8 11.102-25.8 17.701-42.299 17.701H181v-120h181c32.999 0 60 27.001 60 60z" fill="rgba(254, 168, 50, 1)" stroke="none"/>
  <path d="M422 241.971c0 16.5-6.599 31.5-17.701 42.299-10.8 11.102-25.8 17.701-42.299 17.701H181v-60h241z" fill="rgba(254, 153, 35, 1)" stroke="none"/>
  <path d="M241 241.971c0 16.5-6.599 31.5-17.701 42.299-10.8 11.102-25.8 17.701-42.299 17.701-32.999 0-60-27.001-60-60 0-16.5 6.599-31.5 17.701-42.299 10.8-11.102 25.8-17.701 42.299-17.701s31.5 6.599 42.299 17.701C234.401 210.471 241 225.471 241 241.971z" fill="rgba(254, 219, 65, 1)" stroke="none"/>
  <path d="M241 241.971c0 16.5-6.599 31.5-17.701 42.299-10.8 11.102-25.8 17.701-42.299 17.701-32.999 0-60-27.001-60-60h120z" fill="rgba(252, 191, 41, 1)" stroke="none"/>
  <path d="M196 241.971c0 8.401-6.599 15-15 15s-15-6.599-15-15 6.599-15 15-15 15 6.599 15 15z" fill="rgba(191, 96, 21, 1)" stroke="none"/>
  <path d="M196 241.971c0 8.401-6.599 15-15 15s-15-6.599-15-15h30z" fill="rgba(153, 76, 16, 1)" stroke="none"/>
  <path d="M392 361.971c0 16.5-6.599 31.5-17.701 42.299-10.8 11.102-25.8 17.701-42.299 17.701H91v-120h241c32.999 0 60 27.001 60 60z" fill="rgba(254, 168, 50, 1)" stroke="none"/>
  <path d="M392 361.971c0 16.5-6.599 31.5-17.701 42.299-10.8 11.102-25.8 17.701-42.299 17.701H91v-60h301z" fill="rgba(254, 153, 35, 1)" stroke="none"/>
  <path d="M151 361.971c0 16.5-6.599 31.5-17.701 42.299-10.8 11.102-25.8 17.701-42.299 17.701-32.999 0-60-27.001-60-60 0-16.5 6.599-31.5 17.701-42.299C59.5 308.57 74.5 301.971 91 301.971s31.5 6.599 42.299 17.701C144.401 330.471 151 345.471 151 361.971z" fill="rgba(254, 219, 65, 1)" stroke="none"/>
  <path d="M151 361.971c0 16.5-6.599 31.5-17.701 42.299-10.8 11.102-25.8 17.701-42.299 17.701-32.999 0-60-27.001-60-60h120z" fill="rgba(252, 191, 41, 1)" stroke="none"/>
  <path d="M106 361.971c0 8.401-6.599 15-15 15s-15-6.599-15-15 6.599-15 15-15 15 6.599 15 15z" fill="rgba(191, 96, 21, 1)" stroke="none"/>
  <path d="M106 361.971c0 8.401-6.599 15-15 15s-15-6.599-15-15h30z" fill="rgba(153, 76, 16, 1)" stroke="none"/>
  <path d="M482 361.971c0 16.5-6.599 31.5-17.701 42.299-10.8 11.102-25.8 17.701-42.299 17.701H271v-120h151c32.999 0 60 27.001 60 60z" fill="rgba(254, 168, 50, 1)" stroke="none"/>
  <path d="M482 361.971c0 16.5-6.599 31.5-17.701 42.299-10.8 11.102-25.8 17.701-42.299 17.701H271v-60h211z" fill="rgba(254, 153, 35, 1)" stroke="none"/>
  <path d="M332 361.971c0 16.5-6.599 31.5-17.701 42.299-10.8 11.102-26.8 17.701-43.299 17.701-32.999 0-60-27.001-60-60 0-16.5 6.599-31.5 17.701-42.299 10.8-11.102 25.8-17.701 42.299-17.701s32.5 6.599 43.299 17.701C325.401 330.471 332 345.471 332 361.971z" fill="rgba(254, 219, 65, 1)" stroke="none"/>
  <path d="M332 361.971c0 16.5-6.599 31.5-17.701 42.299-10.8 11.102-26.8 17.701-43.299 17.701-32.999 0-60-27.001-60-60h121z" fill="rgba(252, 191, 41, 1)" stroke="none"/>
  <path d="M286 361.971c0 8.401-6.599 15-15 15s-15-6.599-15-15 6.599-15 15-15 15 6.599 15 15z" fill="rgba(191, 96, 21, 1)" stroke="none"/>
  <path d="M286 361.971c0 8.401-6.599 15-15 15s-15-6.599-15-15h30z" fill="rgba(153, 76, 16, 1)" stroke="none"/>
</svg>
</g></svg></g></g>
<!-- /image 93257 -->

<!-- image 93968 -->
<g id="transformed-93968" data-image="93968" transform="translate(28.000000000000004, 186) rotate(0, 22.999999999999996, 23)"><g><svg version="1.1" width="45.99999999999999px" height="46px" viewBox="0 0 45.99999999999999 46"><g id="original-93968"><svg xmlns="http://www.w3.org/2000/svg" viewBox="0 0 512 512" xmlns:xlink="http://www.w3.org/1999/xlink" version="1.1" preserveAspectRatio="xMidYMid meet">
  <path d="M128 421h128v67H128z" fill="rgba(206, 35, 55, 1)" stroke="none"/>
  <path d="M360 296v56a104.012 104.012 0 0 1-104 104H128A103.946 103.946 0 0 1 24 352v-56z" fill="rgba(224, 68, 70, 1)" stroke="none"/>
  <path d="M360 296v56a104.012 104.012 0 0 1-104 104H128a103.54 103.54 0 0 1-55.45-16H200a103.946 103.946 0 0 0 104-104v-40z" fill="rgba(214, 50, 63, 1)" stroke="none"/>
  <path d="M72 120h416v32l-416-8z" fill="rgba(159, 118, 74, 1)" stroke="none"/>
  <path d="M101.295 45.488l372.451 185.3L488 202.138 111.985 24z" fill="rgba(186, 139, 93, 1)" stroke="none"/>
  <path d="M24 320h336v16H24z" fill="rgba(253, 202, 119, 1)" stroke="none"/>
  <path d="M128 392H96a8 8 0 0 1-8-8v-24H72v16h8v16H64a8 8 0 0 1-8-8v-32a8 8 0 0 1 8-8h32a8 8 0 0 1 8 8v24h16v-16h-8v-16h16a8 8 0 0 1 8 8v32a8 8 0 0 1-8 8z" fill="rgba(253, 202, 119, 1)" stroke="none"/>
  <path d="M224 392h-32a8 8 0 0 1-8-8v-24h-16v16h8v16h-16a8 8 0 0 1-8-8v-32a8 8 0 0 1 8-8h32a8 8 0 0 1 8 8v24h16v-16h-8v-16h16a8 8 0 0 1 8 8v32a8 8 0 0 1-8 8z" fill="rgba(253, 202, 119, 1)" stroke="none"/>
  <path d="M328 352v32a7.998 7.998 0 0 1-8 8h-32c-.11 0-.22 0-.33-.01A7.99 7.99 0 0 1 280 384v-24h-16v16h8v16h-16a7.998 7.998 0 0 1-8-8v-32a7.998 7.998 0 0 1 8-8h32a7.998 7.998 0 0 1 8 8v24h16v-16h-8v-16h16a7.998 7.998 0 0 1 8 8z" fill="rgba(253, 202, 119, 1)" stroke="none"/>
  <path d="M343.66 408a104.426 104.426 0 0 1-12.62 16H52.96a104.409 104.409 0 0 1-12.62-16z" fill="rgba(253, 202, 119, 1)" stroke="none"/>
  <path d="M275.04 408h68.62a104.426 104.426 0 0 1-12.62 16h-75.59a104.427 104.427 0 0 0 19.59-16z" fill="rgba(250, 181, 63, 1)" stroke="none"/>
  <path d="M288 392c-.11 0-.22 0-.33-.01a104.182 104.182 0 0 0 8.36-15.99H312v-16h-8v-16h16a7.998 7.998 0 0 1 8 8v32a7.998 7.998 0 0 1-8 8z" fill="rgba(250, 181, 63, 1)" stroke="none"/>
  <path d="M304 320h56v16h-56z" fill="rgba(250, 181, 63, 1)" stroke="none"/>
  <path d="M112 296H96c0-12.497 5.464-19.054 9.854-24.323 3.7-4.441 6.146-7.376 6.146-14.08s-2.445-9.638-6.146-14.08C101.464 238.248 96 231.69 96 219.194c0-12.496 5.464-19.052 9.854-24.32 3.7-4.441 6.146-7.375 6.146-14.078 0-6.703-2.445-9.637-6.146-14.078-4.39-5.268-9.854-11.825-9.854-24.321 0-12.496 5.464-19.052 9.854-24.32 3.7-4.44 6.146-7.374 6.146-14.077h16c0 12.496-5.464 19.052-9.854 24.32-3.702 4.44-6.146 7.374-6.146 14.077 0 6.704 2.445 9.637 6.146 14.078 4.39 5.269 9.854 11.825 9.854 24.321s-5.464 19.053-9.854 24.32c-3.7 4.442-6.146 7.375-6.146 14.078 0 6.704 2.445 9.639 6.146 14.08 4.39 5.269 9.854 11.826 9.854 24.323s-5.464 19.054-9.854 24.322c-3.7 4.442-6.146 7.376-6.146 14.081z" fill="rgba(253, 202, 119, 1)" stroke="none"/>
  <path d="M144 296h-16c0-12.497 5.464-19.054 9.854-24.323 3.7-4.441 6.146-7.376 6.146-14.08s-2.445-9.638-6.146-14.08c-4.39-5.269-9.854-11.826-9.854-24.323 0-12.496 5.464-19.052 9.854-24.32 3.7-4.441 6.146-7.375 6.146-14.078 0-6.703-2.445-9.637-6.146-14.078-4.39-5.268-9.854-11.825-9.854-24.321 0-12.496 5.464-19.052 9.854-24.32 3.7-4.44 6.146-7.374 6.146-14.077h16c0 12.496-5.464 19.052-9.854 24.32-3.702 4.44-6.146 7.374-6.146 14.077 0 6.704 2.445 9.637 6.146 14.078 4.39 5.269 9.854 11.825 9.854 24.321s-5.464 19.053-9.854 24.32c-3.7 4.442-6.146 7.375-6.146 14.078 0 6.704 2.445 9.639 6.146 14.08 4.39 5.269 9.854 11.826 9.854 24.323s-5.464 19.054-9.854 24.322c-3.7 4.442-6.146 7.376-6.146 14.081z" fill="rgba(253, 202, 119, 1)" stroke="none"/>
  <path d="M176 296h-16c0-12.497 5.464-19.054 9.854-24.323 3.7-4.441 6.146-7.376 6.146-14.08s-2.445-9.638-6.146-14.08c-4.39-5.269-9.854-11.826-9.854-24.323 0-12.496 5.464-19.052 9.854-24.32 3.7-4.441 6.146-7.375 6.146-14.078 0-6.703-2.445-9.637-6.146-14.078-4.39-5.268-9.854-11.825-9.854-24.321 0-12.496 5.464-19.052 9.854-24.32 3.7-4.44 6.146-7.374 6.146-14.077h16c0 12.496-5.464 19.052-9.854 24.32-3.702 4.44-6.146 7.374-6.146 14.077 0 6.704 2.445 9.637 6.146 14.078 4.39 5.269 9.854 11.825 9.854 24.321s-5.464 19.053-9.854 24.32c-3.7 4.442-6.146 7.375-6.146 14.078 0 6.704 2.445 9.639 6.146 14.08 4.39 5.269 9.854 11.826 9.854 24.323s-5.464 19.054-9.854 24.322c-3.7 4.442-6.146 7.376-6.146 14.081z" fill="rgba(253, 202, 119, 1)" stroke="none"/>
</svg>
</g></svg></g></g>
<!-- /image 93968 -->

<!-- image 31011 -->
<g id="transformed-31011" data-image="31011" transform="translate(113, 189) rotate(0, 21, 20.999999999999996)"><g><svg version="1.1" width="42px" height="41.99999999999999px" viewBox="0 0 42 41.99999999999999"><g id="original-31011"><svg xmlns="http://www.w3.org/2000/svg" viewBox="0 0 512 512" xmlns:xlink="http://www.w3.org/1999/xlink" version="1.1" preserveAspectRatio="xMidYMid meet">
  <path d="M439.723 512h-168.7l-12.177-7.36-17.888 7.36H72.256V382.701h367.468V512z" fill="rgba(237, 245, 255, 1)" stroke="none"/>
  <path d="M101.264 251.714h308.298v102.248H101.264z" fill="rgba(237, 245, 255, 1)" stroke="none"/>
  <path d="M135.214 120.815h240.44v89.214h-240.44z" fill="rgba(237, 245, 255, 1)" stroke="none"/>
  <path d="M255.99 382.701v123.115l2.857-1.175L271.023 512h168.7V382.701z" fill="rgba(214, 232, 253, 1)" stroke="none"/>
  <path d="M255.99 251.714h153.573v102.248H255.99z" fill="rgba(214, 232, 253, 1)" stroke="none"/>
  <path d="M255.99 120.815h119.664v89.214H255.99z" fill="rgba(214, 232, 253, 1)" stroke="none"/>
  <path d="M240.953 453.362h30.072V512h-30.072z" fill="rgba(94, 216, 211, 1)" stroke="none"/>
  <path d="M255.99 453.362h15.036V512H255.99z" fill="rgba(49, 190, 190, 1)" stroke="none"/>
  <path d="M240.953 294.136h30.072v44.79h-30.072z" fill="rgba(94, 216, 211, 1)" stroke="none"/>
  <path d="M255.99 294.136h15.036v44.79H255.99z" fill="rgba(49, 190, 190, 1)" stroke="none"/>
  <path d="M139.926 405.296h30.072v42.431h-30.072z" fill="rgba(214, 232, 253, 1)" stroke="none"/>
  <path d="M341.981 405.296h30.072v42.431h-30.072z" fill="rgba(188, 222, 253, 1)" stroke="none"/>
  <path d="M163.282 261.715h30.072v42.422h-30.072z" fill="rgba(214, 232, 253, 1)" stroke="none"/>
  <path d="M318.625 261.715h30.072v42.422h-30.072z" fill="rgba(188, 222, 253, 1)" stroke="none"/>
  <path d="M447.231 206.137v13.913c0 7.05-4.24 13.118-10.299 15.817L375.4 202.998H135.446l-60.405 32.866c-6.055-2.7-10.293-8.766-10.293-15.814v-13.913H34.676v13.913c0 26.13 21.258 47.388 47.388 47.388h347.853c26.13 0 47.388-21.258 47.388-47.388v-13.913z" fill="rgba(253, 124, 144, 1)" stroke="none"/>
  <path d="M477.304 220.05v-13.913h-30.072v13.913c0 7.05-4.24 13.118-10.299 15.817l-61.532-32.869H255.99v64.44h173.926c26.13 0 47.388-21.258 47.388-47.388z" fill="rgba(230, 78, 100, 1)" stroke="none"/>
  <path d="M481.678 351.031v13.913c0 7.05-4.24 13.118-10.299 15.817l-61.532-42.869H101.02l-60.405 42.866c-6.055-2.7-10.293-8.766-10.293-15.814v-13.913H.25v13.913c0 26.13 21.258 47.388 47.388 47.388h416.725c26.13 0 47.388-21.258 47.388-47.388v-13.913z" fill="rgba(253, 124, 144, 1)" stroke="none"/>
  <path d="M481.678 351.031v13.913c0 7.05-4.24 13.118-10.299 15.817l-61.532-42.869H255.99v74.441h208.373c26.13 0 47.388-21.258 47.388-47.388v-13.913h-30.073z" fill="rgba(230, 78, 100, 1)" stroke="none"/>
  <path d="M407.229 87.899v13.913c0 7.05-4.24 13.118-10.299 15.817L290.663 53.155h-69.578l-106.042 64.47c-6.055-2.7-10.293-8.766-10.293-15.814V87.899H74.678v13.913c0 26.13 21.258 47.388 47.388 47.388h267.848c26.13 0 47.388-21.258 47.388-47.388V87.899z" fill="rgba(253, 124, 144, 1)" stroke="none"/>
  <g>
    <path d="M437.301 101.812V87.899h-30.072v13.913c0 7.05-4.24 13.118-10.299 15.817L290.663 53.155H255.99V149.2h133.924c26.129 0 47.387-21.258 47.387-47.388z" fill="rgba(230, 78, 100, 1)" stroke="none"/>
  </g>
  <path d="M255.99 0c-21.993 0-39.885 17.892-39.885 39.885S233.998 79.77 255.99 79.77s39.885-17.892 39.885-39.885S277.982 0 255.99 0z" fill="rgba(255, 239, 85, 1)" stroke="none"/>
  <g>
    <path d="M255.99 0v79.77c21.993 0 39.885-17.892 39.885-39.885S277.982 0 255.99 0z" fill="rgba(254, 216, 67, 1)" stroke="none"/>
  </g>
</svg>
</g></svg></g></g>
<!-- /image 31011 -->

<!-- image 08334 -->
<g id="transformed-08334" data-image="08334" transform="translate(201, 194) rotate(0, 20.999999999999996, 21)"><g><svg version="1.1" width="41.99999999999999px" height="42px" viewBox="0 0 41.99999999999999 42"><g id="original-08334"><svg xmlns="http://www.w3.org/2000/svg" viewBox="0 0 512 512" xmlns:xlink="http://www.w3.org/1999/xlink" version="1.1" preserveAspectRatio="xMidYMid meet">
  <circle cx="256" cy="256" r="256" fill="rgba(213, 153, 237, 1)" stroke="none"/>
  <path d="M256.231.015l-3.888 511.945c66.081.941 132.492-23.532 183.296-73.57 100.731-99.212 101.962-261.298 2.749-362.028C388.351 25.557 322.319.077 256.231.015z" fill="rgba(173, 119, 227, 1)" stroke="none"/>
  <g>
    <path d="M410.745 241.486c0-163.372-119.052-179.836-150.895-180.973a105.626 105.626 0 0 0-3.85-.063c-52.234 0-101.341 20.341-138.276 57.275C80.79 154.659 60.449 203.767 60.449 256v.001c0 52.233 20.341 101.34 57.275 138.274C154.659 431.209 203.766 451.55 256 451.55c26.701 0 144.458-97.703 154.097-197.259h-1.315c1.279-4.007 1.963-8.269 1.963-12.805z" fill="rgba(237, 245, 255, 1)" stroke="none"/>
    <path d="M259.85 60.512a105.626 105.626 0 0 0-3.85-.063l-.228.003-1.876 247.102c81.067.018 156.849-17.786 156.849-66.068 0-163.373-119.053-179.836-150.895-180.974z" fill="rgba(214, 232, 253, 1)" stroke="none"/>
    <path d="M451.551 256c0-52.234-20.341-101.341-57.276-138.276-36.022-36.022-83.639-56.234-134.426-57.212 51.778 2.03 93.147 44.622 93.147 96.897v1.099c0 48.346-35.372 88.426-81.647 95.784h-.042a98.324 98.324 0 0 1-11.152 1.119c-.2.009-.401.016-.601.023-1.18.043-2.365.072-3.555.072-.579 0-1.109.008-1.618.021-52.823.865-95.379 43.948-95.379 96.977v2.014c0 53.57 43.427 96.997 96.997 96.997h2.984c51.117-.76 99.062-21.009 135.292-57.239 36.934-36.934 57.275-86.041 57.276-138.273V256z" fill="rgba(56, 72, 76, 1)" stroke="none"/>
    <path d="M254.291 255.528c-52.781.913-95.288 43.977-95.288 96.976v2.014c0 52.5 41.711 95.252 93.8 96.939z" fill="rgba(71, 90, 96, 1)" stroke="none"/>
    <circle cx="256" cy="158.689" r="38.007" fill="rgba(71, 90, 96, 1)" stroke="none"/>
    <circle cx="254" cy="355.62" r="38.007" fill="rgba(237, 245, 255, 1)" stroke="none"/>
    <path d="M256 120.682c-.23 0-.456.013-.685.017l-.577 75.964c.42.014.839.032 1.262.032 20.957 0 38.007-17.05 38.007-38.007s-17.05-38.006-38.007-38.006z" fill="rgba(56, 72, 76, 1)" stroke="none"/>
    <path d="M254 317.613c-.061 0-.12.004-.181.005l-.577 75.99c.253.005.504.019.758.019 20.957 0 38.007-17.05 38.007-38.007s-17.05-38.007-38.007-38.007z" fill="rgba(214, 232, 253, 1)" stroke="none"/>
  </g>
</svg>
</g></svg></g></g>
<!-- /image 08334 -->
</defs><rect x="0" y="0" width="250" height="250" fill="rgba(247, 176, 157, 1)"></rect><use xlink:href="#transformed-54116" transform="translate(-250, -250)"></use><use xlink:href="#transformed-54116" transform="translate(0, -250)"></use><use xlink:href="#transformed-54116" transform="translate(250, -250)"></use><use xlink:href="#transformed-54116" transform="translate(-250, 0)"></use><use xlink:href="#transformed-54116" transform="translate(0, 0)"></use><use xlink:href="#transformed-54116" transform="translate(250, 0)"></use><use xlink:href="#transformed-54116" transform="translate(-250, 250)"></use><use xlink:href="#transformed-54116" transform="translate(0, 250)"></use><use xlink:href="#transformed-54116" transform="translate(250, 250)"></use><use xlink:href="#transformed-85395" transform="translate(-250, -250)"></use><use xlink:href="#transformed-85395" transform="translate(0, -250)"></use><use xlink:href="#transformed-85395" transform="translate(250, -250)"></use><use xlink:href="#transformed-85395" transform="translate(-250, 0)"></use><use xlink:href="#transformed-85395" transform="translate(0, 0)"></use><use xlink:href="#transformed-85395" transform="translate(250, 0)"></use><use xlink:href="#transformed-85395" transform="translate(-250, 250)"></use><use xlink:href="#transformed-85395" transform="translate(0, 250)"></use><use xlink:href="#transformed-85395" transform="translate(250, 250)"></use><use xlink:href="#transformed-73749" transform="translate(-250, -250)"></use><use xlink:href="#transformed-73749" transform="translate(0, -250)"></use><use xlink:href="#transformed-73749" transform="translate(250, -250)"></use><use xlink:href="#transformed-73749" transform="translate(-250, 0)"></use><use xlink:href="#transformed-73749" transform="translate(0, 0)"></use><use xlink:href="#transformed-73749" transform="translate(250, 0)"></use><use xlink:href="#transformed-73749" transform="translate(-250, 250)"></use><use xlink:href="#transformed-73749" transform="translate(0, 250)"></use><use xlink:href="#transformed-73749" transform="translate(250, 250)"></use><use xlink:href="#transformed-16105" transform="translate(-250, -250)"></use><use xlink:href="#transformed-16105" transform="translate(0, -250)"></use><use xlink:href="#transformed-16105" transform="translate(250, -250)"></use><use xlink:href="#transformed-16105" transform="translate(-250, 0)"></use><use xlink:href="#transformed-16105" transform="translate(0, 0)"></use><use xlink:href="#transformed-16105" transform="translate(250, 0)"></use><use xlink:href="#transformed-16105" transform="translate(-250, 250)"></use><use xlink:href="#transformed-16105" transform="translate(0, 250)"></use><use xlink:href="#transformed-16105" transform="translate(250, 250)"></use><use xlink:href="#transformed-94431" transform="translate(-250, -250)"></use><use xlink:href="#transformed-94431" transform="translate(0, -250)"></use><use xlink:href="#transformed-94431" transform="translate(250, -250)"></use><use xlink:href="#transformed-94431" transform="translate(-250, 0)"></use><use xlink:href="#transformed-94431" transform="translate(0, 0)"></use><use xlink:href="#transformed-94431" transform="translate(250, 0)"></use><use xlink:href="#transformed-94431" transform="translate(-250, 250)"></use><use xlink:href="#transformed-94431" transform="translate(0, 250)"></use><use xlink:href="#transformed-94431" transform="translate(250, 250)"></use><use xlink:href="#transformed-70101" transform="translate(-250, -250)"></use><use xlink:href="#transformed-70101" transform="translate(0, -250)"></use><use xlink:href="#transformed-70101" transform="translate(250, -250)"></use><use xlink:href="#transformed-70101" transform="translate(-250, 0)"></use><use xlink:href="#transformed-70101" transform="translate(0, 0)"></use><use xlink:href="#transformed-70101" transform="translate(250, 0)"></use><use xlink:href="#transformed-70101" transform="translate(-250, 250)"></use><use xlink:href="#transformed-70101" transform="translate(0, 250)"></use><use xlink:href="#transformed-70101" transform="translate(250, 250)"></use><use xlink:href="#transformed-93257" transform="translate(-250, -250)"></use><use xlink:href="#transformed-93257" transform="translate(0, -250)"></use><use xlink:href="#transformed-93257" transform="translate(250, -250)"></use><use xlink:href="#transformed-93257" transform="translate(-250, 0)"></use><use xlink:href="#transformed-93257" transform="translate(0, 0)"></use><use xlink:href="#transformed-93257" transform="translate(250, 0)"></use><use xlink:href="#transformed-93257" transform="translate(-250, 250)"></use><use xlink:href="#transformed-93257" transform="translate(0, 250)"></use><use xlink:href="#transformed-93257" transform="translate(250, 250)"></use><use xlink:href="#transformed-93968" transform="translate(-250, -250)"></use><use xlink:href="#transformed-93968" transform="translate(0, -250)"></use><use xlink:href="#transformed-93968" transform="translate(250, -250)"></use><use xlink:href="#transformed-93968" transform="translate(-250, 0)"></use><use xlink:href="#transformed-93968" transform="translate(0, 0)"></use><use xlink:href="#transformed-93968" transform="translate(250, 0)"></use><use xlink:href="#transformed-93968" transform="translate(-250, 250)"></use><use xlink:href="#transformed-93968" transform="translate(0, 250)"></use><use xlink:href="#transformed-93968" transform="translate(250, 250)"></use><use xlink:href="#transformed-31011" transform="translate(-250, -250)"></use><use xlink:href="#transformed-31011" transform="translate(0, -250)"></use><use xlink:href="#transformed-31011" transform="translate(250, -250)"></use><use xlink:href="#transformed-31011" transform="translate(-250, 0)"></use><use xlink:href="#transformed-31011" transform="translate(0, 0)"></use><use xlink:href="#transformed-31011" transform="translate(250, 0)"></use><use xlink:href="#transformed-31011" transform="translate(-250, 250)"></use><use xlink:href="#transformed-31011" transform="translate(0, 250)"></use><use xlink:href="#transformed-31011" transform="translate(250, 250)"></use><use xlink:href="#transformed-08334" transform="translate(-250, -250)"></use><use xlink:href="#transformed-08334" transform="translate(0, -250)"></use><use xlink:href="#transformed-08334" transform="translate(250, -250)"></use><use xlink:href="#transformed-08334" transform="translate(-250, 0)"></use><use xlink:href="#transformed-08334" transform="translate(0, 0)"></use><use xlink:href="#transformed-08334" transform="translate(250, 0)"></use><use xlink:href="#transformed-08334" transform="translate(-250, 250)"></use><use xlink:href="#transformed-08334" transform="translate(0, 250)"></use><use xlink:href="#transformed-08334" transform="translate(250, 250)"></use></svg>