<svg version="1.1"
      xmlns="http://www.w3.org/2000/svg"
      xmlns:xlink="http://www.w3.org/1999/xlink"  id="snapshot-74605" width="250" height="250" viewBox="0 0 250 250"><desc>This image was made on Patterninja.com</desc><defs>
<!-- image 54116 -->
<g id="transformed-54116" data-image="54116" transform="translate(26.000000000000004, 22) rotate(0, 19.999999999999996, 20)"><g><svg version="1.1" width="39.99999999999999px" height="40px" viewBox="0 0 39.99999999999999 40"><g id="original-54116"><svg xmlns="http://www.w3.org/2000/svg" viewBox="0 0 512 512" xmlns:xlink="http://www.w3.org/1999/xlink" version="1.1" preserveAspectRatio="xMidYMid meet">
  <path d="M495.484 90.839H16.516L7.817 101v294.151c0 9.122 7.395 16.516 16.516 16.516H502l10-7.021v-297.29c0-9.123-7.395-16.517-16.516-16.517z" fill="rgba(149, 204, 129, 1)" stroke="none"/>
  <path d="M16.516 355.097V90.839C7.395 90.839 0 98.233 0 107.355v297.29c0 9.122 7.395 16.516 16.516 16.516h478.968c9.121 0 16.516-7.395 16.516-16.516H66.065c-27.365 0-49.549-22.183-49.549-49.548z" fill="rgba(125, 189, 128, 1)" stroke="none"/>
  <path d="M440.141 252.473L264.588 145.614a16.515 16.515 0 0 0-17.175 0L71.859 252.473c-2.643 1.609-2.643 5.446 0 7.054l175.553 106.859a16.515 16.515 0 0 0 17.175 0L440.14 259.527c2.644-1.609 2.644-5.445.001-7.054z" fill="rgba(255, 224, 125, 1)" stroke="none"/>
  <path d="M256 189.936c-24.565 0-45.998 13.407-57.382 33.302l-6.616 16.302a66.202 66.202 0 0 0-2.067 16.459c0 36.486 29.578 66.064 66.064 66.064 29.834 0 55.05-19.776 63.252-46.935l2.792-17.509c.013-.539.02-1.079.02-1.62.001-36.485-29.577-66.063-66.063-66.063z" fill="rgba(80, 85, 160, 1)" stroke="none"/>
  <path d="M192.002 239.541c45.894.372 89.785 12.681 127.25 35.589a65.88 65.88 0 0 0 2.792-17.509c-36.905-21.207-79.232-33.007-123.427-34.382a65.78 65.78 0 0 0-6.615 16.302z" fill="rgba(255, 255, 255, 1)" stroke="none"/>
</svg>
</g></svg></g></g>
<!-- /image 54116 -->

<!-- image 85395 -->
<g id="transformed-85395" data-image="85395" transform="translate(26, 22) rotate(0, 20, 20)"><g><svg version="1.1" width="40px" height="40px" viewBox="0 0 40 40"><g id="original-85395"><svg xmlns="http://www.w3.org/2000/svg" viewBox="0 0 512 512" xmlns:xlink="http://www.w3.org/1999/xlink" version="1.1" preserveAspectRatio="xMidYMid meet">
  <path d="M495.484 90.839H16.516L7.817 101v294.151c0 9.122 7.395 16.516 16.516 16.516H502l10-7.021v-297.29c0-9.123-7.395-16.517-16.516-16.517z" fill="rgba(229, 100, 110, 1)" stroke="none"/>
  <path d="M16.516 355.097V90.839C7.395 90.839 0 98.233 0 107.355v297.29c0 9.122 7.395 16.516 16.516 16.516h478.968c9.121 0 16.516-7.395 16.516-16.516H66.065c-27.365 0-49.549-22.183-49.549-49.548z" fill="rgba(219, 70, 85, 1)" stroke="none"/>
  <path d="M144.611 186.742l-26.589-.233-13.055-28.57c-1.233-3.699-6.465-3.699-7.699 0l-9.528 28.57-30.116.233c-3.899.03-5.516 5.006-2.379 7.323l24.227 17.891-9.084 28.714c-1.176 3.718 3.056 6.793 6.229 4.526l24.502-17.513 24.502 17.513c3.172 2.267 7.405-.808 6.229-4.526l-9.084-28.714 24.227-17.891c3.134-2.317 1.517-7.293-2.382-7.323z" fill="rgba(255, 224, 125, 1)" stroke="none"/>
  <path d="M176.121 133.827l-5.431-.048-3.653-7.995a5.04 5.04 0 0 0-9.367.5l-2.499 7.494-7.223.056c-4.63.036-6.55 5.944-2.825 8.695l5.81 4.291-2.179 6.886c-1.397 4.414 3.629 8.066 7.396 5.374l5.876-4.2 5.876 4.2c3.767 2.692 8.793-.959 7.396-5.374l-2.179-6.886 5.822-4.299c3.722-2.748 1.807-8.654-2.82-8.694z" fill="rgba(255, 224, 125, 1)" stroke="none"/>
  <path d="M176.121 264.924l-5.431-.048-3.653-7.995a5.04 5.04 0 0 0-9.367.5l-2.499 7.494-7.223.056c-4.63.036-6.55 5.944-2.825 8.695l5.81 4.291-2.179 6.886c-1.397 4.414 3.629 8.066 7.396 5.374l5.876-4.2 5.876 4.2c3.767 2.692 8.793-.959 7.396-5.374l-2.179-6.886 5.822-4.299c3.722-2.749 1.807-8.654-2.82-8.694z" fill="rgba(255, 224, 125, 1)" stroke="none"/>
  <path d="M214.658 224.321l-5.431-.048-3.653-7.995a5.04 5.04 0 0 0-9.367.5l-2.499 7.494-7.223.056c-4.63.036-6.55 5.944-2.825 8.695l5.81 4.291-2.179 6.886c-1.397 4.414 3.63 8.066 7.396 5.374l5.876-4.2 5.876 4.2c3.767 2.692 8.793-.959 7.396-5.374l-2.179-6.886 5.822-4.299c3.723-2.748 1.807-8.653-2.82-8.694z" fill="rgba(255, 224, 125, 1)" stroke="none"/>
  <path d="M214.658 170.644l-5.431-.048-3.653-7.995a5.04 5.04 0 0 0-9.367.5l-2.499 7.494-7.223.056c-4.63.036-6.55 5.944-2.825 8.695l5.81 4.291-2.179 6.886c-1.397 4.414 3.63 8.066 7.396 5.374l5.876-4.2 5.876 4.2c3.767 2.692 8.793-.959 7.396-5.374l-2.179-6.886 5.822-4.299c3.723-2.748 1.807-8.653-2.82-8.694z" fill="rgba(255, 224, 125, 1)" stroke="none"/>
</svg>
</g></svg></g></g>
<!-- /image 85395 -->

<!-- image 85587 -->
<g id="transformed-85587" data-image="85587" transform="translate(26.00000000000001, 22) rotate(0, 19.99999999999999, 20)"><g><svg version="1.1" width="39.99999999999998px" height="40px" viewBox="0 0 39.99999999999998 40"><g id="original-85587"><svg xmlns="http://www.w3.org/2000/svg" viewBox="0 0 512 512" xmlns:xlink="http://www.w3.org/1999/xlink" version="1.1" preserveAspectRatio="xMidYMid meet">
  <path d="M170.667 90.839H16.516l-6.032 16.516v289.796c0 9.121 7.395 16.516 16.516 16.516h143.667l19.269-17.283V115.616z" fill="rgba(80, 85, 160, 1)" stroke="none"/>
  <path d="M341.333 413.5h154.151L512 404.645v-297.29c0-9.121-7.395-16.516-16.516-16.516H341.333l-19.269 24.778v280.768z" fill="rgba(229, 100, 110, 1)" stroke="none"/>
  <path d="M512 404.645H328.489l12.844 16.516h154.151c9.121 0 16.516-7.394 16.516-16.516z" fill="rgba(219, 70, 85, 1)" stroke="none"/>
  <path d="M16.516 355.097V90.839C7.395 90.839 0 98.233 0 107.355v297.29c0 9.122 7.395 16.516 16.516 16.516h154.151l12.844-16.516H66.065c-27.365 0-49.549-22.183-49.549-49.548z" fill="rgba(63, 63, 143, 1)" stroke="none"/>
  <path d="M187.333 413.667h141l13-9.022V90.839H170.667v313.806z" fill="rgba(242, 242, 246, 1)" stroke="none"/>
  <path d="M170.667 404.645h170.666v16.516H170.667z" fill="rgba(225, 225, 230, 1)" stroke="none"/>
</svg>
</g></svg></g></g>
<!-- /image 85587 -->

<!-- image 93957 -->
<g id="transformed-93957" data-image="93957" transform="translate(117, 27) rotate(0, 17, 17)"><g><svg version="1.1" width="34px" height="34px" viewBox="0 0 34 34"><g id="original-93957"><svg xmlns="http://www.w3.org/2000/svg" viewBox="0 0 468.293 468.293" xmlns:xlink="http://www.w3.org/1999/xlink" version="1.1" preserveAspectRatio="xMidYMid meet">
  <path d="M452.769 89.882L88.933 453.718C58.927 483.724 7.628 464.538 4.56 422.24c-1.043-14.338-.47-30.538 2.537-48.517-7.507-11.352-8.427-30.763-1.166-50.214 2.353-6.32 5.359-12.027 8.755-17.018 6.136-9 13.664-15.627 21.293-18.879l.02-.02c.287-.164.573-.245.859-.368 7.711-15.156 17.059-31.09 28.247-47.801-5.604-13.664 1.391-34.936 18.245-51.79 6.259-6.259 13.111-11.147 19.963-14.563a59.827 59.827 0 0 1 7.829-3.237c7.193-2.375 13.741-6.33 18.885-11.891l.102-.11.02-.02a952.366 952.366 0 0 1 12.927-13.786 850.92 850.92 0 0 1 23.625-21.825c1.186-12.067 8.14-26.058 19.983-37.901 9.45-9.449 20.29-15.79 30.415-18.552 2.676-.749 5.308-1.237 7.851-1.459 11.346-.992 22.38-4.199 32.116-10.108l.184-.112c21.006-12.784 40.683-22.561 59.071-29.904 6.75-7.732 16.732-14.645 28.881-19.186 18.879-7.057 37.697-6.361 49.192.511 9.552-.634 18.552-.593 26.897.021 42.298 3.067 61.485 54.365 31.478 84.371z" fill="rgba(220, 135, 68, 1)" stroke="none"/>
  <path d="M137.082 336.394c-3.068 9.082-35.324 6.443-72.019-5.911-21.354-7.2-39.537-16.057-50.378-23.993 6.136-9 13.664-15.627 21.293-18.879l.02-.02c11.618 1.718 25.506 5.093 40.111 10.002 36.715 12.333 64.021 29.699 60.973 38.801z" fill="rgba(252, 212, 98, 1)" stroke="none"/>
  <path d="M230.005 206.449c-3.048 9.061-35.304 6.422-72.019-5.911-24.462-8.223-44.753-18.695-54.673-27.47a59.827 59.827 0 0 1 7.829-3.237c7.193-2.375 13.741-6.33 18.885-11.891l.102-.11.02-.02c11.352 1.779 24.79 5.072 38.903 9.818 36.735 12.354 64 29.719 60.953 38.821z" fill="rgba(252, 212, 98, 1)" stroke="none"/>
  <path d="M345.243 100.457c-3.069 9.082-35.284 6.443-72.019-5.911-25.752-8.652-46.86-19.779-56.126-28.799 2.672-.748 5.299-1.235 7.837-1.458 11.358-.997 22.384-4.191 32.13-10.109l.184-.112c8.448 1.861 17.59 4.377 27.04 7.568 36.716 12.373 64.022 29.739 60.954 38.821z" fill="rgba(252, 212, 98, 1)" stroke="none"/>
</svg>
</g></svg></g></g>
<!-- /image 93957 -->

<!-- image 13219 -->
<g id="transformed-13219" data-image="13219" transform="translate(197, 19) rotate(0, 21.999999999999993, 22)"><g><svg version="1.1" width="43.999999999999986px" height="44px" viewBox="0 0 43.999999999999986 44"><g id="original-13219"><svg xmlns="http://www.w3.org/2000/svg" viewBox="0 0 512 512" xmlns:xlink="http://www.w3.org/1999/xlink" version="1.1" preserveAspectRatio="xMidYMid meet">
  <path d="M377.792 440.022A688 688 0 0 1 272 73.447V64h-32v9.447a688 688 0 0 1-105.792 366.575L104 488h72a80 80 0 0 1 160 0h72zM224 344l24-72h16l24 72z" fill="rgba(246, 200, 105, 1)" stroke="none"/>
  <path d="M216 376l-24 64h.109a79.782 79.782 0 0 1 127.782 0H320l-24-64z" fill="rgba(241, 179, 85, 1)" stroke="none"/>
  <path d="M248 16h16v32h-16z" fill="rgba(246, 200, 105, 1)" stroke="none"/>
  <path d="M346.185 384c-5.339-10.553-10.445-21.208-15.224-32H181.039c-4.779 10.792-9.885 21.447-15.224 32z" fill="rgba(241, 179, 85, 1)" stroke="none"/>
  <path d="M294.6 248h-77.2q-4.225 16.111-9.229 32h37.166l2.663-8h16l2.667 8h37.166q-5-15.886-9.233-32z" fill="rgba(241, 179, 85, 1)" stroke="none"/>
  <path d="M48 448h16v40H48z" fill="rgba(140, 104, 71, 1)" stroke="none"/>
  <rect width="32" height="48" x="40" y="408" rx="16" fill="rgba(131, 180, 90, 1)" stroke="none"/>
  <path d="M416 448h16v40h-16z" fill="rgba(140, 104, 71, 1)" stroke="none"/>
  <rect width="32" height="48" x="408" y="408" rx="16" fill="rgba(131, 180, 90, 1)" stroke="none"/>
  <path d="M488 488v-16a16 16 0 0 0-16-16 16 16 0 0 0-16 16v16z" fill="rgba(170, 197, 106, 1)" stroke="none"/>
  <path d="M16 480h480v16H16z" fill="rgba(111, 84, 56, 1)" stroke="none"/>
  <path d="M240 64h32v16h-32z" fill="rgba(241, 179, 85, 1)" stroke="none"/>
  <path d="M200 240h112v32H200z" fill="rgba(140, 104, 71, 1)" stroke="none"/>
  <path d="M152 344h208v32H152z" fill="rgba(140, 104, 71, 1)" stroke="none"/>
  <path d="M299 384l-3-8h-80l-3 8z" fill="rgba(240, 156, 87, 1)" stroke="none"/>
  <path d="M232 40h48v32h-48z" fill="rgba(140, 104, 71, 1)" stroke="none"/>
</svg>
</g></svg></g></g>
<!-- /image 13219 -->

<!-- image 79716 -->
<g id="transformed-79716" data-image="79716" transform="translate(24, 92) rotate(0, 24, 24)"><g><svg version="1.1" width="48px" height="48px" viewBox="0 0 48 48"><g id="original-79716"><svg xmlns="http://www.w3.org/2000/svg" viewBox="0 0 512 512" xmlns:xlink="http://www.w3.org/1999/xlink" version="1.1" preserveAspectRatio="xMidYMid meet">
  <path d="M28.251 497l215.833-282.256c6.004-7.851 17.827-7.851 23.831 0L483.749 497z" fill="rgba(0, 95, 205, 1)" stroke="none"/>
  <path d="M267.916 214.744c-3.002-3.926-7.459-5.888-11.916-5.888V497h227.749z" fill="rgba(0, 50, 160, 1)" stroke="none"/>
  <path d="M142.126 348.081l56.937 74.455L256 348.081l-56.937-74.464z" fill="rgba(0, 140, 250, 1)" stroke="none"/>
  <path d="M256 348.081l56.937 74.455 56.937-74.455-56.937-74.464z" fill="rgba(0, 95, 205, 1)" stroke="none"/>
  <path d="M142.126 497H256l-56.937-74.464z" fill="rgba(0, 140, 250, 1)" stroke="none"/>
  <path d="M369.874 497h113.875l-56.938-74.464z" fill="rgba(0, 95, 205, 1)" stroke="none"/>
  <path d="M256 497h113.874l-56.937-74.464z" fill="rgba(0, 95, 205, 1)" stroke="none"/>
  <path d="M28.251 497h113.875l-56.937-74.464z" fill="rgba(0, 140, 250, 1)" stroke="none"/>
  <path d="M464.866 126.4h-80.333c-25.989 0-47.133-21.144-47.133-47.133 0-22.385 15.688-41.176 36.646-45.958C382.628 13.486 402.43 0 424.7 0c22.262 0 42.063 13.486 50.65 33.309C496.312 38.088 512 56.879 512 79.267c0 25.989-21.145 47.133-47.134 47.133z" fill="rgba(250, 245, 240, 1)" stroke="none"/>
  <path d="M127.467 206.733H47.134C21.145 206.733 0 185.589 0 159.6c0-22.385 15.688-41.176 36.646-45.957 8.583-19.823 28.386-33.31 50.654-33.31 22.261 0 42.063 13.486 50.65 33.309 20.96 4.779 36.649 23.571 36.649 45.958.001 25.989-21.143 47.133-47.132 47.133z" fill="rgba(250, 245, 240, 1)" stroke="none"/>
  <path d="M127.467 206.733c25.989 0 47.133-21.144 47.133-47.133 0-22.387-15.689-41.179-36.649-45.958-8.588-19.823-28.39-33.309-50.65-33.309v126.4z" fill="rgba(230, 227, 220, 1)" stroke="none"/>
  <path d="M464.866 126.4c25.989 0 47.134-21.144 47.134-47.133 0-22.387-15.688-41.179-36.649-45.958C466.763 13.486 446.962 0 424.7 0v126.4z" fill="rgba(230, 227, 220, 1)" stroke="none"/>
  <path d="M497 512H15c-8.284 0-15-6.716-15-15s6.716-15 15-15h482c8.284 0 15 6.716 15 15s-6.716 15-15 15z" fill="rgba(230, 227, 220, 1)" stroke="none"/>
  <path d="M512 497c0-8.284-6.716-15-15-15H256v30h241c8.284 0 15-6.716 15-15z" fill="rgba(210, 210, 200, 1)" stroke="none"/>
</svg>
</g></svg></g></g>
<!-- /image 79716 -->

<!-- image 73121 -->
<g id="transformed-73121" data-image="73121" transform="translate(113, 98) rotate(0, 21.999999999999993, 22)"><g><svg version="1.1" width="43.999999999999986px" height="44px" viewBox="0 0 43.999999999999986 44"><g id="original-73121"><svg xmlns="http://www.w3.org/2000/svg" viewBox="0 0 512 512" xmlns:xlink="http://www.w3.org/1999/xlink" version="1.1" preserveAspectRatio="xMidYMid meet">
  <circle cx="256" cy="256" r="256" fill="rgba(250, 234, 0, 1)" stroke="none"/>
  <path d="M512 256c0 87.11-43.52 164.07-110 210.31a256.268 256.268 0 0 1-50.82 27.41 254.47 254.47 0 0 1-58.99 15.74c-11.82 1.68-23.9 2.54-36.19 2.54s-24.37-.86-36.19-2.54a254.47 254.47 0 0 1-58.99-15.74A256.313 256.313 0 0 1 110 466.31C43.52 420.07 0 343.11 0 256c0-46.22 12.25-89.57 33.68-127C77.8 206.07 160.84 258 256 258s178.21-51.93 222.32-129C499.75 166.43 512 209.78 512 256z" fill="rgba(255, 195, 0, 1)" stroke="none"/>
  <path d="M85.24 104.71v342.02C130.54 487.31 190.39 512 256 512s125.46-24.69 170.76-65.27V104.71z" fill="rgba(244, 135, 61, 1)" stroke="none"/>
  <path d="M426.763 104.709l-51.552 51.552H136.789l-51.552-51.552z" fill="rgba(236, 120, 27, 1)" stroke="none"/>
  <path d="M256 104.71V512c65.61 0 125.46-24.69 170.76-65.27V104.71z" fill="rgba(236, 120, 27, 1)" stroke="none"/>
  <path d="M375.211 156.261v304.187H136.789V156.261z" fill="rgba(255, 255, 255, 1)" stroke="none"/>
  <path d="M389.33 474.57C350.5 498.32 304.85 512 256 512s-94.5-13.68-133.33-37.43l14.12-14.12h238.42z" fill="rgba(236, 120, 27, 1)" stroke="none"/>
  <path d="M256 156.261v304.187h119.211V156.261z" fill="rgba(253, 247, 189, 1)" stroke="none"/>
  <path d="M426.763 104.709l-51.552 51.552H256v-51.552z" fill="rgba(197, 87, 51, 1)" stroke="none"/>
  <path d="M389.33 474.57C350.5 498.32 304.85 512 256 512v-51.55h119.21z" fill="rgba(197, 87, 51, 1)" stroke="none"/>
  <path d="M375.211 407.902v52.546H128.948v-58.767l64.44-85.076a52.759 52.759 0 0 1 42.048-20.894h80.482a23.594 23.594 0 0 1 22.594 16.776z" fill="rgba(166, 57, 23, 1)" stroke="none"/>
  <path d="M338.512 312.487a23.593 23.593 0 0 0-22.594-16.776H256v164.737h119.211v-52.546z" fill="rgba(131, 37, 13, 1)" stroke="none"/>
  <path d="M317.2 224.186v128.765c-16.013 0-28.987-12.974-28.987-28.987v-28.253h-46.022c-15.826 0-28.671-12.83-28.671-28.67v-42.855c0-14.314 5.803-27.274 15.192-36.648 7.287-7.286 16.719-12.427 27.288-14.342a51.401 51.401 0 0 1 9.36-.85c28.628 0 51.84 23.213 51.84 51.84z" fill="rgba(131, 37, 13, 1)" stroke="none"/>
  <path d="M265.36 172.346c-3.197 0-6.321.288-9.36.85v122.516h32.213v28.253c0 16.013 12.974 28.987 28.987 28.987V224.186c0-28.627-23.212-51.84-51.84-51.84z" fill="rgba(83, 29, 16, 1)" stroke="none"/>
  <path d="M288.213 249.458v81.173c0 12.326-9.994 22.32-22.32 22.32h-19.699c-12.326 0-22.32-9.994-22.32-22.32 0-2.981.59-5.904 1.714-8.597a22.198 22.198 0 0 1 4.896-7.258l11.477-11.376a21.872 21.872 0 0 0 1.483-1.613 26.165 26.165 0 0 0 6.264-16.992v-35.338h38.505z" fill="rgba(247, 159, 99, 1)" stroke="none"/>
  <path d="M256 249.458v103.493h9.893c12.326 0 22.32-9.994 22.32-22.32v-81.173z" fill="rgba(244, 135, 61, 1)" stroke="none"/>
  <path d="M249.707 249.458v35.338c0 6.25-2.232 12.269-6.264 16.992A52.833 52.833 0 0 0 256 303.286c.648 0 1.296-.014 1.944-.029 11.419-.403 21.859-4.392 30.269-10.886v-42.912h-38.506z" fill="rgba(236, 120, 27, 1)" stroke="none"/>
  <path d="M256 249.458v53.827c.648 0 1.296-.014 1.944-.029 11.419-.403 21.859-4.392 30.269-10.886v-42.912z" fill="rgba(197, 87, 51, 1)" stroke="none"/>
  <path d="M288.213 222.703v26.755c0 17.453-13.565 32.314-31.003 32.933-.403.014-.806.014-1.21.014-17.755-.043-32.126-14.429-32.126-32.184v-27.519c0-4.91 2.405-9.504 6.437-12.298l17.626-12.211a18.813 18.813 0 0 0 8.107-15.495 18.831 18.831 0 0 0 8.122 15.494l17.611 12.211a14.966 14.966 0 0 1 6.436 12.3z" fill="rgba(247, 159, 99, 1)" stroke="none"/>
  <path d="M285.189 413.158v5.242a11.48 11.48 0 0 1-5.213 9.619l-17.871 11.621a24.814 24.814 0 0 1-6.106 2.866 24.485 24.485 0 0 1-7.186 1.08 24.349 24.349 0 0 1-17.251-7.142 40.369 40.369 0 0 0-28.555-11.822h-6.206a11.427 11.427 0 0 1-8.107-3.355c-2.074-2.088-3.355-4.939-3.355-8.107 0-6.336 5.126-11.477 11.463-11.477h76.925c6.336-.002 11.462 5.139 11.462 11.475z" fill="rgba(247, 159, 99, 1)" stroke="none"/>
  <path d="M281.776 210.405l-17.611-12.211a18.833 18.833 0 0 1-8.122-15.494L256 282.406c.403 0 .806 0 1.21-.014 17.438-.619 31.003-15.48 31.003-32.933v-26.755c0-4.911-2.405-9.505-6.437-12.299z" fill="rgba(244, 135, 61, 1)" stroke="none"/>
  <path d="M273.727 401.681H256v40.824a24.795 24.795 0 0 0 6.106-2.866l17.871-11.621a11.484 11.484 0 0 0 5.213-9.619v-5.242c-.001-6.335-5.127-11.476-11.463-11.476z" fill="rgba(244, 135, 61, 1)" stroke="none"/>
</svg>
</g></svg></g></g>
<!-- /image 73121 -->

<!-- image 27695 -->
<g id="transformed-27695" data-image="27695" transform="translate(196, 105.00000000000001) rotate(0, 22, 21.999999999999986)"><g><svg version="1.1" width="44px" height="43.99999999999997px" viewBox="0 0 44 43.99999999999997"><g id="original-27695"><svg xmlns="http://www.w3.org/2000/svg" viewBox="0 0 512 512" xmlns:xlink="http://www.w3.org/1999/xlink" version="1.1" preserveAspectRatio="xMidYMid meet">
  <path d="M383.33 145.145a3648.459 3648.459 0 0 0-254.642 0C67.807 147.27 18.563 195.918 16.545 256.803a663.532 663.532 0 0 0 0 43.981c2.019 60.885 51.263 109.533 112.144 111.658a3648.459 3648.459 0 0 0 254.642 0c60.881-2.125 110.125-50.773 112.144-111.658.486-14.66.486-29.32 0-43.981-2.019-60.885-51.264-109.533-112.145-111.658z" fill="rgba(231, 165, 97, 1)" stroke="none"/>
  <path d="M455.546 384.136c-19.487 16.855-44.654 27.336-72.211 28.305a3651.065 3651.065 0 0 1-254.647 0c-60.871-2.125-110.116-50.775-112.142-111.657a666.333 666.333 0 0 1 0-43.983c2.026-60.882 51.271-109.532 112.142-111.657 3.93-.132 7.861-.264 11.791-.385-23.571 20.356-38.819 50.027-39.931 83.352a666.333 666.333 0 0 0 0 43.983c2.026 60.882 51.26 109.532 112.142 111.657a3645.08 3645.08 0 0 0 242.856.385z" fill="rgba(228, 149, 66, 1)" stroke="none"/>
  <path d="M511.987 256.625c.561 17.054-17.061 28.641-32.603 21.599-7.206-3.265-15.854-5.714-28.83-5.714-38.918 0-38.918 22.019-77.825 22.019s-38.907-22.019-77.814-22.019c-38.918 0-38.918 22.019-77.825 22.019s-38.907-22.019-77.814-22.019-38.907 22.019-77.814 22.019c-25.356 0-34.187-9.354-48.034-15.867C5.065 274.728-.285 266.3.014 257.063l.026-.802c1.112-33.633 14.918-65.253 38.863-89.033 23.868-23.703 55.553-37.41 89.209-38.588a3698.538 3698.538 0 0 1 127.896-2.224c42.441 0 85.466.749 127.896 2.224 33.667 1.178 65.341 14.885 89.209 38.588 23.945 23.78 37.751 55.399 38.863 89.033l.011.364z" fill="rgba(198, 134, 92, 1)" stroke="none"/>
  <path d="M84.051 275.03c0 .066 0 .132-.011.198a28.033 28.033 0 0 0 3.611 14.708c-6.683 2.686-14.764 4.591-26.191 4.591-25.355 0-34.184-9.358-48.034-15.876-8.367-3.93-13.718-12.364-13.409-21.6 0-.264.011-.528.022-.793 1.112-33.634 14.918-65.253 38.863-89.033 23.868-23.703 55.553-37.421 89.209-38.588a3670.652 3670.652 0 0 1 89.682-2.015c-33.237 4.712-64.042 19.96-88.097 43.839-28.129 27.933-44.335 65.068-45.645 104.569z" fill="rgba(177, 110, 61, 1)" stroke="none"/>
  <path d="M112.214 226.99a16.48 16.48 0 0 1-5.628-.993c-8.574-3.109-13.005-12.58-9.896-21.154 12.312-33.955 30.942-61.477 55.373-81.802 19.437-16.171 36.834-22.81 43.412-24.914 8.684-2.78 17.981 2.012 20.76 10.699 2.778 8.687-2.012 17.981-10.699 20.76-8.769 2.804-53.734 20.158-77.796 86.516-2.435 6.714-8.774 10.888-15.526 10.888z" fill="rgba(249, 239, 218, 1)" stroke="none"/>
  <path d="M215.434 106.791a16.335 16.335 0 0 0-5.857.771c-6.573 2.103-23.978 8.741-43.41 24.914-24.43 20.323-43.058 47.847-55.377 81.8a16.423 16.423 0 0 0 .606 12.694 16.455 16.455 0 0 1-4.811-.969c-8.565-3.105-13.002-12.584-9.886-21.149 12.308-33.964 30.936-61.487 55.366-81.811 19.443-16.173 36.837-22.8 43.41-24.914 7.981-2.555 16.48 1.288 19.959 8.664z" fill="rgba(246, 228, 193, 1)" stroke="none"/>
  <path d="M211.854 226.99a16.48 16.48 0 0 1-5.628-.993c-8.574-3.109-13.005-12.58-9.896-21.154 12.312-33.955 30.942-61.477 55.373-81.802 19.437-16.171 36.834-22.81 43.412-24.914 8.684-2.78 17.981 2.012 20.76 10.699 2.778 8.687-2.012 17.981-10.699 20.76-8.769 2.804-53.734 20.158-77.796 86.516-2.435 6.714-8.774 10.888-15.526 10.888z" fill="rgba(249, 239, 218, 1)" stroke="none"/>
  <path d="M315.075 106.791a16.335 16.335 0 0 0-5.857.771c-6.573 2.103-23.978 8.741-43.41 24.914-24.43 20.323-43.058 47.847-55.377 81.8a16.423 16.423 0 0 0 .606 12.694 16.455 16.455 0 0 1-4.811-.969c-8.565-3.105-13.002-12.584-9.886-21.149 12.308-33.964 30.936-61.487 55.366-81.811 19.443-16.173 36.837-22.8 43.41-24.914 7.98-2.555 16.48 1.288 19.959 8.664z" fill="rgba(246, 228, 193, 1)" stroke="none"/>
  <g>
    <path d="M311.494 226.99a16.48 16.48 0 0 1-5.628-.993c-8.574-3.109-13.005-12.58-9.896-21.154 12.312-33.955 30.942-61.477 55.373-81.802 19.437-16.171 36.834-22.81 43.412-24.914 8.684-2.78 17.981 2.012 20.76 10.699 2.778 8.687-2.012 17.981-10.699 20.76-8.769 2.804-53.734 20.158-77.796 86.516-2.435 6.714-8.774 10.888-15.526 10.888z" fill="rgba(249, 239, 218, 1)" stroke="none"/>
    <path d="M414.715 106.791a16.335 16.335 0 0 0-5.857.771c-6.573 2.103-23.978 8.741-43.41 24.914-24.43 20.323-43.058 47.847-55.377 81.8a16.423 16.423 0 0 0 .606 12.694 16.455 16.455 0 0 1-4.811-.969c-8.565-3.105-13.002-12.584-9.886-21.149 12.308-33.964 30.936-61.487 55.366-81.811 19.443-16.173 36.837-22.8 43.41-24.914 7.981-2.555 16.48 1.288 19.959 8.664z" fill="rgba(246, 228, 193, 1)" stroke="none"/>
  </g>
  <g>
    <path d="M446.421 359.041a7.727 7.727 0 0 1-5.608-13.04l.378-.399a7.727 7.727 0 0 1 11.22 10.626l-.378.399a7.71 7.71 0 0 1-5.612 2.414z" fill="rgba(228, 149, 66, 1)" stroke="none"/>
    <path d="M453.296 334.037a7.726 7.726 0 0 1-5.604-13.043l.379-.399a7.726 7.726 0 1 1 11.212 10.634l-.379.399a7.71 7.71 0 0 1-5.608 2.409z" fill="rgba(228, 149, 66, 1)" stroke="none"/>
    <path d="M427.546 341.152a7.727 7.727 0 0 1-5.608-13.04l.378-.399a7.727 7.727 0 0 1 11.22 10.626l-.378.399a7.71 7.71 0 0 1-5.612 2.414z" fill="rgba(228, 149, 66, 1)" stroke="none"/>
    <g>
      <path d="M152.116 334.438a7.728 7.728 0 0 1-1.418-15.322l.541-.102a7.728 7.728 0 0 1 2.854 15.188l-.541.102c-.483.09-.963.134-1.436.134z" fill="rgba(228, 149, 66, 1)" stroke="none"/>
      <path d="M172.344 318.211a7.726 7.726 0 0 1-1.417-15.321l.541-.102a7.726 7.726 0 1 1 2.851 15.187l-.541.102a7.719 7.719 0 0 1-1.434.134z" fill="rgba(228, 149, 66, 1)" stroke="none"/>
      <path d="M147.311 308.88a7.727 7.727 0 0 1-1.424-15.32l.541-.102a7.727 7.727 0 0 1 2.865 15.185l-.541.102a7.795 7.795 0 0 1-1.441.135z" fill="rgba(228, 149, 66, 1)" stroke="none"/>
    </g>
  </g>
</svg>
</g></svg></g></g>
<!-- /image 27695 -->

<!-- image 52203 -->
<g id="transformed-52203" data-image="52203" transform="translate(24.000000000000004, 193) rotate(0, 22.999999999999996, 23)"><g><svg version="1.1" width="45.99999999999999px" height="46px" viewBox="0 0 45.99999999999999 46"><g id="original-52203"><svg xmlns="http://www.w3.org/2000/svg" viewBox="0 0 511.999 511.999" xmlns:xlink="http://www.w3.org/1999/xlink" version="1.1" preserveAspectRatio="xMidYMid meet">
  <path d="M142.236 334.119l-5.166-14.085c-2.457.901-4.88 1.883-7.267 2.934l-75.746-67.935-.006-.005-10.733-10.481c-.765.783-18.87 19.519-31.399 49.073-16.924 39.928-15.807 80.713 3.233 117.948 5.099 9.971 15.186 16.388 26.983 17.164.803.054 1.601.079 2.394.079 11.021 0 21.01-5.059 27.059-13.82 13.46-19.494 41.207-54.095 75.814-66.786l-5.166-14.086z" fill="rgba(255, 195, 115, 1)" stroke="none"/>
  <path d="M500.079 293.619c-12.529-29.555-30.634-48.29-31.399-49.073l-10.739 10.486-75.747 67.936a124.164 124.164 0 0 0-7.267-2.934l-5.166 14.085-5.166 14.085c34.607 12.692 62.355 47.292 75.814 66.786 6.05 8.762 16.037 13.821 27.059 13.82.793 0 1.592-.025 2.394-.079 11.797-.776 21.885-7.193 26.982-17.164 19.042-37.235 20.16-78.02 3.235-117.948z" fill="rgba(255, 182, 79, 1)" stroke="none"/>
  <path d="M194.687 327.439l-48.841-171.491-3.772-14.532c-44.534 11.561-76.926 36.45-96.258 55.295-9.966 9.714-15.516 23.27-15.226 37.189.289 13.935 6.407 27.264 16.784 36.57l106.703 95.701 47.685-25.502-7.075-13.23z" fill="rgba(255, 182, 79, 1)" stroke="none"/>
  <path d="M466.182 196.711c-19.331-18.844-51.723-43.733-96.258-55.295l-3.773 14.534-48.84 171.489-7.075 13.23 47.685 25.502 106.703-95.701c10.376-9.307 16.495-22.637 16.784-36.57.29-13.92-5.261-27.475-15.226-37.189z" fill="rgba(255, 153, 0, 1)" stroke="none"/>
  <path d="M396.567 128.884l-62.738 220.237H178.17l-62.738-220.237 6.491-6.251c38.925-37.475 129.976-39.375 133.836-39.435l.24-.01.24.01c3.86.06 94.912 1.96 133.836 39.435l6.492 6.251z" fill="rgba(255, 195, 115, 1)" stroke="none"/>
  <path d="M396.567 128.884l-62.738 220.237h-77.83V83.188l.24.01c3.86.06 94.912 1.96 133.836 39.435l6.492 6.251z" fill="rgba(255, 182, 79, 1)" stroke="none"/>
</svg>
</g></svg></g></g>
<!-- /image 52203 -->

<!-- image 71106 -->
<g id="transformed-71106" data-image="71106" transform="translate(116, 194) rotate(0, 21, 20.999999999999996)"><g><svg version="1.1" width="42px" height="41.99999999999999px" viewBox="0 0 42 41.99999999999999"><g id="original-71106"><svg xmlns="http://www.w3.org/2000/svg" viewBox="0 0 512 512" xmlns:xlink="http://www.w3.org/1999/xlink" version="1.1" preserveAspectRatio="xMidYMid meet">
  <circle cx="256" cy="256" r="256" fill="rgba(151, 204, 82, 1)" stroke="none"/>
  <path d="M424.349 448.849C478.062 401.922 512 332.927 512 256c0-2.725-.057-5.437-.142-8.142L381.879 117.879 365 113l-57.349-55.931-73.974 201.108 190.672 190.672z" fill="rgba(96, 195, 68, 1)" stroke="none"/>
  <path d="M258.002 498.417h-4.005c-62.24 0-112.696-50.456-112.696-112.696V175.536c0-62.24 50.456-112.696 112.696-112.696h4.005c62.24 0 112.696 50.456 112.696 112.696V385.72c.001 62.241-50.455 112.697-112.696 112.697z" fill="rgba(51, 51, 51, 1)" stroke="none"/>
  <path d="M256.333 62.844v435.569c63.193-.174 114.365-49.679 114.365-110.725V173.569c.001-61.047-51.172-110.551-114.365-110.725z" fill="rgba(26, 26, 26, 1)" stroke="none"/>
  <circle cx="155.86" cy="243.98" r="28.808" fill="rgba(239, 212, 143, 1)" stroke="none"/>
  <circle cx="356.14" cy="243.98" r="28.808" fill="rgba(231, 196, 107, 1)" stroke="none"/>
  <path d="M460.799 409.616l-8.525-17.542-152.978-37.523v-30.788h-86.591v30.788L59.726 392.075l-8.525 17.542C97.907 471.784 172.255 512 256 512s158.093-40.215 204.799-102.384z" fill="rgba(255, 240, 204, 1)" stroke="none"/>
  <path d="M460.799 409.616l-8.525-17.542-152.978-37.523v-30.788h-86.591v30.788L59.726 392.075l-8.525 17.542C97.907 471.784 172.255 512 256 512s158.093-40.215 204.799-102.384z" fill="rgba(255, 240, 204, 1)" stroke="none"/>
  <path d="M460.799 409.616l-8.525-17.542-152.978-37.523v-30.788h-42.962v188.234c83.608-.106 157.821-40.295 204.465-102.381z" fill="rgba(255, 236, 179, 1)" stroke="none"/>
  <path d="M334.67 363.228l-29.618-7.265c-10.49 15.948-28.536 26.483-49.052 26.483s-38.562-10.535-49.052-26.483l-29.618 7.265c14.467 28.783 44.26 48.535 78.67 48.535s64.202-19.752 78.67-48.535z" fill="rgba(241, 51, 63, 1)" stroke="none"/>
  <path d="M334.67 363.229l-29.618-7.265c-10.433 15.861-28.341 26.364-48.719 26.478v29.316c34.269-.128 63.917-19.84 78.337-48.529z" fill="rgba(174, 40, 63, 1)" stroke="none"/>
  <path d="M257.748 342.14h-3.497c-54.342 0-98.395-44.053-98.395-98.395v-75.364c0-54.342 44.053-98.395 98.395-98.395h3.497c54.342 0 98.395 44.053 98.395 98.395v75.364c0 54.342-44.053 98.395-98.395 98.395z" fill="rgba(255, 236, 179, 1)" stroke="none"/>
  <path d="M256.333 73.145V342.14h1.415c54.339 0 98.389-44.048 98.395-98.385v-73.938c0-53.285-44.656-96.499-99.81-96.672z" fill="rgba(232, 211, 160, 1)" stroke="none"/>
  <circle cx="313.02" cy="229.85" r="10.803" fill="rgba(26, 26, 26, 1)" stroke="none"/>
  <circle cx="198.98" cy="229.85" r="10.803" fill="rgba(51, 51, 51, 1)" stroke="none"/>
  <path d="M256.354 257.642h-.708c-6.156 0-11.146-4.99-11.146-11.146v-6.068h23v6.068c0 6.155-4.99 11.146-11.146 11.146z" fill="rgba(231, 175, 91, 1)" stroke="none"/>
  <path d="M256.333 240.428v17.214h.021c6.156 0 11.146-4.99 11.146-11.146v-6.068h-11.167z" fill="rgba(211, 151, 70, 1)" stroke="none"/>
  <path d="M335.108 100.655c-26.4-25.486-56.956-34.263-79.108-34.263s-52.709 8.777-79.108 34.263c-34.2 33.017-21.389 144.962-21.389 144.962s55.747-54.977 85.173-83.385c5.943-5.737 11.061-11.819 15.324-18.01 4.263 6.19 9.381 12.272 15.324 18.01 29.426 28.408 85.173 83.385 85.173 83.385s14.161-110.643-21.389-144.962z" fill="rgba(51, 51, 51, 1)" stroke="none"/>
  <path d="M335.108 100.655c-26.269-25.36-56.649-34.172-78.775-34.259v78.298c4.197 6.028 9.199 11.947 14.99 17.538 29.426 28.408 85.173 83.385 85.173 83.385s14.161-110.643-21.388-144.962z" fill="rgba(26, 26, 26, 1)" stroke="none"/>
  <path d="M167.993 86.538c-6.824 26.049 32.168 59.092 88.34 76.03V59.247c-45.818-5.05-82.571 5.272-88.34 27.291z" fill="rgba(241, 51, 63, 1)" stroke="none"/>
  <path d="M291.401 65.799c-12.021-3.149-23.816-5.312-35.068-6.552v103.322c2.97.896 5.986 1.749 9.049 2.551 60.971 15.972 116.222 6.687 123.407-20.739 7.185-27.428-36.417-62.609-97.388-78.582z" fill="rgba(174, 40, 63, 1)" stroke="none"/>
  <path d="M299.337 100.615l-19.025-6.167c7.782-24.011 26.545-36.844 27.34-37.378l5.581 8.3 5.621 8.268c-.139.095-13.927 9.731-19.517 26.977z" fill="rgba(114, 23, 42, 1)" stroke="none"/>
  <path d="M163.692 440.462L153 369.196l-93.274 22.879-8.525 17.542C97.907 471.784 172.255 512 256 512s158.093-40.215 204.799-102.384l-8.525-17.542L359 369.196l-10.692 71.265H163.692v.001z" fill="rgba(185, 234, 255, 1)" stroke="none"/>
  <path d="M460.799 409.616l-8.525-17.542L359 369.196l-10.692 71.265h-91.974v71.536c83.608-.106 157.821-40.295 204.465-102.381z" fill="rgba(53, 204, 255, 1)" stroke="none"/>
  <path d="M344.835 354.372c-9.972-5.361-22.401-1.624-27.761 8.348s-1.622 22.402 8.349 27.763c9.972 5.361 44.833.831 44.833.831s-15.449-31.58-25.421-36.942z" fill="rgba(174, 40, 63, 1)" stroke="none"/>
  <circle cx="312.32" cy="361.71" r="16.417" fill="rgba(127, 24, 46, 1)" stroke="none"/>
  <path d="M255.667 303c-16.818 0-30.5-13.682-30.5-30.5h12c0 10.201 8.299 18.5 18.5 18.5s18.5-8.299 18.5-18.5h12c0 16.818-13.682 30.5-30.5 30.5z" fill="rgba(241, 51, 63, 1)" stroke="none"/>
  <path d="M255.667 291c10.201 0 18.5-8.299 18.5-18.5h12c0 16.818-13.682 30.5-30.5 30.5v-12z" fill="rgba(174, 40, 63, 1)" stroke="none"/>
</svg>
</g></svg></g></g>
<!-- /image 71106 -->

<!-- image 74030 -->
<g id="transformed-74030" data-image="74030" transform="translate(203, 199) rotate(0, 17, 17)"><g><svg version="1.1" width="34px" height="34px" viewBox="0 0 34 34"><g id="original-74030"><svg xmlns="http://www.w3.org/2000/svg" viewBox="0 0 512 512" xmlns:xlink="http://www.w3.org/1999/xlink" version="1.1" preserveAspectRatio="xMidYMid meet">
  <path d="M477.185 7.221v118.74H34.815V7.221a5.35 5.35 0 0 1 5.35-5.35h431.67a5.35 5.35 0 0 1 5.35 5.35z" fill="rgba(232, 215, 196, 1)" stroke="none"/>
  <path d="M34.816 75.807h442.368V95.18H34.816z" fill="rgba(221, 195, 164, 1)" stroke="none"/>
  <path d="M34.815 127.092v368.495h143.153V280.184c0-43.096 34.936-78.032 78.032-78.032s78.032 34.936 78.032 78.032v215.403h143.153V127.092H34.815z" fill="rgba(224, 224, 227, 1)" stroke="none"/>
  <path d="M477.185 127.083v368.5H334.034V280.181c0-2.938-.166-5.835-.498-8.69-1.994-18.086-10.174-34.292-22.364-46.481-14.12-14.12-33.617-22.862-55.172-22.862-40.159 0-73.226 30.348-77.536 69.344a75.178 75.178 0 0 0-.498 8.69v215.403H34.815V127.083h442.37z" fill="rgba(232, 215, 196, 1)" stroke="none"/>
  <path d="M356.449 271.491v224.092h-22.415V280.181c0-2.938-.166-5.835-.498-8.69h22.913z" fill="rgba(188, 164, 138, 1)" stroke="none"/>
  <path d="M334.029 292.445h143.156v-20.952H333.538c.332 2.85.491 5.751.491 8.687v12.265z" fill="rgba(221, 195, 164, 1)" stroke="none"/>
  <path d="M178.464 271.491a75.178 75.178 0 0 0-.498 8.69v215.403h-23.142V271.491h23.64z" fill="rgba(188, 164, 138, 1)" stroke="none"/>
  <path d="M177.971 292.445V280.18c0-2.937.16-5.837.491-8.687H34.815v20.952h143.156z" fill="rgba(221, 195, 164, 1)" stroke="none"/>
  <path d="M356.449 172.007v99.484h-22.903c-1.994-18.076-10.164-34.292-22.364-46.492-14.13-14.12-33.628-22.852-55.182-22.852-40.159 0-73.237 30.338-77.546 69.344h-22.903v-99.484h200.898z" fill="rgba(165, 142, 119, 1)" stroke="none"/>
  <path d="M34.816 127.091h442.368v44.919H34.816z" fill="rgba(165, 142, 119, 1)" stroke="none"/>
  <path d="M80.798 103.207a8.025 8.025 0 0 1-8.025-8.025V49.153a8.025 8.025 0 0 1 16.05 0v46.029a8.025 8.025 0 0 1-8.025 8.025z" fill="rgba(165, 142, 119, 1)" stroke="none"/>
  <path d="M124.599 103.207a8.025 8.025 0 0 1-8.025-8.025V49.153a8.025 8.025 0 0 1 16.05 0v46.029a8.026 8.026 0 0 1-8.025 8.025z" fill="rgba(165, 142, 119, 1)" stroke="none"/>
  <path d="M168.399 103.207a8.025 8.025 0 0 1-8.025-8.025V49.153a8.025 8.025 0 0 1 16.05 0v46.029a8.026 8.026 0 0 1-8.025 8.025z" fill="rgba(165, 142, 119, 1)" stroke="none"/>
  <path d="M212.199 103.207a8.025 8.025 0 0 1-8.025-8.025V49.153a8.025 8.025 0 0 1 16.05 0v46.029a8.025 8.025 0 0 1-8.025 8.025z" fill="rgba(165, 142, 119, 1)" stroke="none"/>
  <path d="M256 103.207a8.025 8.025 0 0 1-8.025-8.025V49.153a8.025 8.025 0 0 1 16.05 0v46.029a8.026 8.026 0 0 1-8.025 8.025z" fill="rgba(165, 142, 119, 1)" stroke="none"/>
  <path d="M299.801 103.207a8.025 8.025 0 0 1-8.025-8.025V49.153a8.025 8.025 0 0 1 16.05 0v46.029a8.025 8.025 0 0 1-8.025 8.025z" fill="rgba(165, 142, 119, 1)" stroke="none"/>
  <path d="M343.601 103.207a8.025 8.025 0 0 1-8.025-8.025V49.153c0-4.432 3.592-8.025 8.025-8.025s8.025 3.593 8.025 8.025v46.029a8.025 8.025 0 0 1-8.025 8.025z" fill="rgba(165, 142, 119, 1)" stroke="none"/>
  <path d="M387.402 103.207a8.025 8.025 0 0 1-8.025-8.025V49.153c0-4.432 3.592-8.025 8.025-8.025s8.025 3.593 8.025 8.025v46.029a8.025 8.025 0 0 1-8.025 8.025z" fill="rgba(165, 142, 119, 1)" stroke="none"/>
  <path d="M431.202 103.207a8.025 8.025 0 0 1-8.025-8.025V49.153c0-4.432 3.592-8.025 8.025-8.025s8.025 3.593 8.025 8.025v46.029a8.025 8.025 0 0 1-8.025 8.025z" fill="rgba(165, 142, 119, 1)" stroke="none"/>
  <path d="M491.906 49.153H20.094a5.35 5.35 0 0 1-5.35-5.35V32.635a5.35 5.35 0 0 1 5.35-5.35h471.811a5.35 5.35 0 0 1 5.35 5.35v11.167a5.35 5.35 0 0 1-5.349 5.351z" fill="rgba(188, 164, 138, 1)" stroke="none"/>
  <path d="M491.906 127.092H20.094a5.35 5.35 0 0 1-5.35-5.35v-21.211a5.35 5.35 0 0 1 5.35-5.35h471.811a5.35 5.35 0 0 1 5.35 5.35v21.21a5.35 5.35 0 0 1-5.349 5.351z" fill="rgba(232, 215, 196, 1)" stroke="none"/>
  <path d="M45.758 115.971a8.025 8.025 0 0 1-8.025-8.025V95.181a8.025 8.025 0 0 1 16.05 0v12.764a8.025 8.025 0 0 1-8.025 8.026z" fill="rgba(221, 195, 164, 1)" stroke="none"/>
  <path d="M80.798 115.971a8.025 8.025 0 0 1-8.025-8.025V95.181a8.025 8.025 0 0 1 16.05 0v12.764a8.025 8.025 0 0 1-8.025 8.026z" fill="rgba(221, 195, 164, 1)" stroke="none"/>
  <path d="M115.838 115.971a8.025 8.025 0 0 1-8.025-8.025V95.181a8.025 8.025 0 0 1 16.05 0v12.764a8.025 8.025 0 0 1-8.025 8.026z" fill="rgba(221, 195, 164, 1)" stroke="none"/>
  <path d="M150.879 115.971a8.025 8.025 0 0 1-8.025-8.025V95.181a8.025 8.025 0 0 1 16.05 0v12.764a8.026 8.026 0 0 1-8.025 8.026z" fill="rgba(221, 195, 164, 1)" stroke="none"/>
  <path d="M185.92 115.971a8.025 8.025 0 0 1-8.025-8.025V95.181a8.025 8.025 0 0 1 16.05 0v12.764a8.026 8.026 0 0 1-8.025 8.026z" fill="rgba(221, 195, 164, 1)" stroke="none"/>
  <path d="M220.959 115.971a8.025 8.025 0 0 1-8.025-8.025V95.181a8.025 8.025 0 0 1 16.05 0v12.764a8.024 8.024 0 0 1-8.025 8.026z" fill="rgba(221, 195, 164, 1)" stroke="none"/>
  <path d="M256 115.971a8.025 8.025 0 0 1-8.025-8.025V95.181a8.025 8.025 0 0 1 16.05 0v12.764a8.025 8.025 0 0 1-8.025 8.026z" fill="rgba(221, 195, 164, 1)" stroke="none"/>
  <path d="M291.041 115.971a8.025 8.025 0 0 1-8.025-8.025V95.181c0-4.432 3.592-8.025 8.025-8.025s8.025 3.593 8.025 8.025v12.764a8.025 8.025 0 0 1-8.025 8.026z" fill="rgba(221, 195, 164, 1)" stroke="none"/>
  <path d="M326.08 115.971a8.025 8.025 0 0 1-8.025-8.025V95.181a8.025 8.025 0 0 1 16.05 0v12.764a8.023 8.023 0 0 1-8.025 8.026z" fill="rgba(221, 195, 164, 1)" stroke="none"/>
  <path d="M361.122 115.971a8.025 8.025 0 0 1-8.025-8.025V95.181c0-4.432 3.592-8.025 8.025-8.025s8.025 3.593 8.025 8.025v12.764a8.025 8.025 0 0 1-8.025 8.026z" fill="rgba(221, 195, 164, 1)" stroke="none"/>
  <path d="M396.162 115.971a8.025 8.025 0 0 1-8.025-8.025V95.181c0-4.432 3.592-8.025 8.025-8.025s8.025 3.593 8.025 8.025v12.764a8.026 8.026 0 0 1-8.025 8.026z" fill="rgba(221, 195, 164, 1)" stroke="none"/>
  <path d="M431.202 115.971a8.025 8.025 0 0 1-8.025-8.025V95.181c0-4.432 3.592-8.025 8.025-8.025s8.025 3.593 8.025 8.025v12.764a8.025 8.025 0 0 1-8.025 8.026z" fill="rgba(221, 195, 164, 1)" stroke="none"/>
  <path d="M466.242 115.971a8.025 8.025 0 0 1-8.025-8.025V95.181c0-4.432 3.592-8.025 8.025-8.025s8.025 3.593 8.025 8.025v12.764a8.024 8.024 0 0 1-8.025 8.026z" fill="rgba(221, 195, 164, 1)" stroke="none"/>
  <g>
    <path d="M490.294 180.035H21.706a8.025 8.025 0 0 1 0-16.05h468.589a8.025 8.025 0 1 1-.001 16.05z" fill="rgba(188, 164, 138, 1)" stroke="none"/>
    <path d="M503.975 103.207H8.025a8.025 8.025 0 0 1 0-16.05h495.95a8.025 8.025 0 0 1 0 16.05z" fill="rgba(188, 164, 138, 1)" stroke="none"/>
  </g>
  <g>
    <path d="M57.611 80.192h-1.039a8.025 8.025 0 0 1 0-16.05h1.039a8.025 8.025 0 0 1 0 16.05z" fill="rgba(165, 142, 119, 1)" stroke="none"/>
    <path d="M103.207 80.192h-1.039a8.025 8.025 0 0 1 0-16.05h1.039a8.025 8.025 0 0 1 0 16.05z" fill="rgba(165, 142, 119, 1)" stroke="none"/>
    <path d="M146.812 80.192h-1.039a8.025 8.025 0 0 1 0-16.05h1.039a8.025 8.025 0 0 1 0 16.05z" fill="rgba(165, 142, 119, 1)" stroke="none"/>
    <path d="M190.418 80.192h-1.039a8.025 8.025 0 0 1 0-16.05h1.039a8.025 8.025 0 0 1 0 16.05z" fill="rgba(165, 142, 119, 1)" stroke="none"/>
    <path d="M234.024 80.192h-1.039a8.025 8.025 0 0 1 0-16.05h1.039a8.025 8.025 0 0 1 0 16.05z" fill="rgba(165, 142, 119, 1)" stroke="none"/>
    <path d="M277.63 80.192h-1.039a8.025 8.025 0 0 1 0-16.05h1.039a8.025 8.025 0 0 1 0 16.05z" fill="rgba(165, 142, 119, 1)" stroke="none"/>
    <path d="M322.274 80.192h-1.039a8.025 8.025 0 0 1 0-16.05h1.039a8.025 8.025 0 0 1 0 16.05z" fill="rgba(165, 142, 119, 1)" stroke="none"/>
    <path d="M365.88 80.192h-1.039a8.025 8.025 0 0 1 0-16.05h1.039a8.025 8.025 0 0 1 0 16.05z" fill="rgba(165, 142, 119, 1)" stroke="none"/>
    <path d="M409.485 80.192h-1.038a8.025 8.025 0 0 1 0-16.05h1.038a8.025 8.025 0 0 1 8.025 8.025 8.023 8.023 0 0 1-8.025 8.025z" fill="rgba(165, 142, 119, 1)" stroke="none"/>
    <path d="M455.168 80.192h-1.039a8.025 8.025 0 0 1 0-16.05h1.039a8.025 8.025 0 0 1 0 16.05z" fill="rgba(165, 142, 119, 1)" stroke="none"/>
  </g>
  <g>
    <path d="M447.136 239.668h-57.345a5.35 5.35 0 0 1-5.35-5.35v-24.081a5.35 5.35 0 0 1 5.35-5.35h57.345a5.35 5.35 0 0 1 5.35 5.35v24.081a5.35 5.35 0 0 1-5.35 5.35z" fill="rgba(188, 164, 138, 1)" stroke="none"/>
    <path d="M122.209 239.668H64.864a5.35 5.35 0 0 1-5.35-5.35v-24.081a5.35 5.35 0 0 1 5.35-5.35h57.345a5.35 5.35 0 0 1 5.35 5.35v24.081a5.35 5.35 0 0 1-5.35 5.35z" fill="rgba(188, 164, 138, 1)" stroke="none"/>
    <path d="M155.551 454.368H24.1a8.025 8.025 0 0 1 0-16.05h131.451a8.025 8.025 0 0 1 0 16.05z" fill="rgba(188, 164, 138, 1)" stroke="none"/>
    <path d="M487.9 454.368H356.449a8.025 8.025 0 0 1 0-16.05h131.452a8.025 8.025 0 1 1-.001 16.05z" fill="rgba(188, 164, 138, 1)" stroke="none"/>
  </g>
  <g>
    <path d="M418.464 344.481a8.025 8.025 0 0 1-8.025-8.025V326.42a8.025 8.025 0 0 1 16.05 0v10.036a8.026 8.026 0 0 1-8.025 8.025z" fill="rgba(221, 195, 164, 1)" stroke="none"/>
    <path d="M93.536 344.481a8.025 8.025 0 0 1-8.025-8.025V326.42a8.025 8.025 0 0 1 16.05 0v10.036a8.024 8.024 0 0 1-8.025 8.025z" fill="rgba(221, 195, 164, 1)" stroke="none"/>
  </g>
  <path d="M433.449 347.382c-2.26-.596-3.862-3.121-3.862-6.01 0-2.716-1.76-4.916-3.931-4.916H411.27c-2.171 0-3.931 2.202-3.931 4.916 0 2.889-1.602 5.415-3.862 6.01-6.748 1.777-11.575 9.224-11.575 17.846v29.212l.001.284c.082 14.158 9.47 25.482 20.79 25.482h11.542c11.319 0 20.708-11.324 20.79-25.482l.001-.284v-29.212c-.001-8.622-4.829-16.068-11.577-17.846z" fill="rgba(188, 164, 138, 1)" stroke="none"/>
  <path d="M449.887 425.929v66.726h-62.842v-66.726a5.35 5.35 0 0 1 5.35-5.35h52.141a5.351 5.351 0 0 1 5.351 5.35z" fill="rgba(221, 195, 164, 1)" stroke="none"/>
  <g>
    <path d="M387.041 432.88h62.84v16.051h-62.84z" fill="rgba(188, 164, 138, 1)" stroke="none"/>
    <path d="M108.522 347.382c-2.26-.596-3.862-3.121-3.862-6.01 0-2.716-1.76-4.916-3.931-4.916H86.343c-2.171 0-3.931 2.202-3.931 4.916 0 2.889-1.602 5.415-3.862 6.01-6.748 1.777-11.575 9.224-11.575 17.846v29.212l.001.284c.082 14.158 9.47 25.482 20.789 25.482h11.542c11.319 0 20.708-11.324 20.789-25.482l.001-.284v-29.212c.001-8.622-4.827-16.068-11.575-17.846z" fill="rgba(188, 164, 138, 1)" stroke="none"/>
  </g>
  <path d="M124.955 425.929v66.726H62.113v-66.726a5.35 5.35 0 0 1 5.35-5.35h52.141a5.35 5.35 0 0 1 5.351 5.35z" fill="rgba(221, 195, 164, 1)" stroke="none"/>
  <path d="M62.109 432.88h62.84v16.051h-62.84z" fill="rgba(188, 164, 138, 1)" stroke="none"/>
  <g>
    <path d="M186.068 510.129H27.209a5.35 5.35 0 0 1-5.35-5.35v-11.795a5.35 5.35 0 0 1 5.35-5.35h158.859a5.35 5.35 0 0 1 5.35 5.35v11.795a5.35 5.35 0 0 1-5.35 5.35z" fill="rgba(232, 215, 196, 1)" stroke="none"/>
    <path d="M484.791 510.129H325.932a5.35 5.35 0 0 1-5.35-5.35v-11.795a5.35 5.35 0 0 1 5.35-5.35h158.859a5.35 5.35 0 0 1 5.35 5.35v11.795a5.35 5.35 0 0 1-5.35 5.35z" fill="rgba(232, 215, 196, 1)" stroke="none"/>
  </g>
  <path d="M356.453 264.688v6.805h-22.909c-1.991-18.083-10.165-34.294-22.363-46.492-14.124-14.124-33.63-22.856-55.181-22.856-40.158 0-73.232 30.335-77.544 69.348h-22.909v-6.773c8.539-47.723 50.269-83.932 100.453-83.932 28.194 0 53.704 11.418 72.184 29.885 14.412 14.415 24.535 33.108 28.269 54.015z" fill="rgba(147, 123, 101, 1)" stroke="none"/>
  <g>
    <path d="M487.9 279.521H337.648a8.025 8.025 0 0 1 0-16.05H487.9a8.025 8.025 0 0 1 0 16.05z" fill="rgba(188, 164, 138, 1)" stroke="none"/>
    <path d="M174.353 279.521H24.1a8.025 8.025 0 0 1 0-16.05h150.253a8.025 8.025 0 0 1 0 16.05z" fill="rgba(188, 164, 138, 1)" stroke="none"/>
  </g>
</svg>
</g></svg></g></g>
<!-- /image 74030 -->
</defs><rect x="0" y="0" width="250" height="250" fill="rgba(158, 157, 247, 1)"></rect><use xlink:href="#transformed-54116" transform="translate(-250, -250)"></use><use xlink:href="#transformed-54116" transform="translate(0, -250)"></use><use xlink:href="#transformed-54116" transform="translate(250, -250)"></use><use xlink:href="#transformed-54116" transform="translate(-250, 0)"></use><use xlink:href="#transformed-54116" transform="translate(0, 0)"></use><use xlink:href="#transformed-54116" transform="translate(250, 0)"></use><use xlink:href="#transformed-54116" transform="translate(-250, 250)"></use><use xlink:href="#transformed-54116" transform="translate(0, 250)"></use><use xlink:href="#transformed-54116" transform="translate(250, 250)"></use><use xlink:href="#transformed-85395" transform="translate(-250, -250)"></use><use xlink:href="#transformed-85395" transform="translate(0, -250)"></use><use xlink:href="#transformed-85395" transform="translate(250, -250)"></use><use xlink:href="#transformed-85395" transform="translate(-250, 0)"></use><use xlink:href="#transformed-85395" transform="translate(0, 0)"></use><use xlink:href="#transformed-85395" transform="translate(250, 0)"></use><use xlink:href="#transformed-85395" transform="translate(-250, 250)"></use><use xlink:href="#transformed-85395" transform="translate(0, 250)"></use><use xlink:href="#transformed-85395" transform="translate(250, 250)"></use><use xlink:href="#transformed-85587" transform="translate(-250, -250)"></use><use xlink:href="#transformed-85587" transform="translate(0, -250)"></use><use xlink:href="#transformed-85587" transform="translate(250, -250)"></use><use xlink:href="#transformed-85587" transform="translate(-250, 0)"></use><use xlink:href="#transformed-85587" transform="translate(0, 0)"></use><use xlink:href="#transformed-85587" transform="translate(250, 0)"></use><use xlink:href="#transformed-85587" transform="translate(-250, 250)"></use><use xlink:href="#transformed-85587" transform="translate(0, 250)"></use><use xlink:href="#transformed-85587" transform="translate(250, 250)"></use><use xlink:href="#transformed-93957" transform="translate(-250, -250)"></use><use xlink:href="#transformed-93957" transform="translate(0, -250)"></use><use xlink:href="#transformed-93957" transform="translate(250, -250)"></use><use xlink:href="#transformed-93957" transform="translate(-250, 0)"></use><use xlink:href="#transformed-93957" transform="translate(0, 0)"></use><use xlink:href="#transformed-93957" transform="translate(250, 0)"></use><use xlink:href="#transformed-93957" transform="translate(-250, 250)"></use><use xlink:href="#transformed-93957" transform="translate(0, 250)"></use><use xlink:href="#transformed-93957" transform="translate(250, 250)"></use><use xlink:href="#transformed-13219" transform="translate(-250, -250)"></use><use xlink:href="#transformed-13219" transform="translate(0, -250)"></use><use xlink:href="#transformed-13219" transform="translate(250, -250)"></use><use xlink:href="#transformed-13219" transform="translate(-250, 0)"></use><use xlink:href="#transformed-13219" transform="translate(0, 0)"></use><use xlink:href="#transformed-13219" transform="translate(250, 0)"></use><use xlink:href="#transformed-13219" transform="translate(-250, 250)"></use><use xlink:href="#transformed-13219" transform="translate(0, 250)"></use><use xlink:href="#transformed-13219" transform="translate(250, 250)"></use><use xlink:href="#transformed-79716" transform="translate(-250, -250)"></use><use xlink:href="#transformed-79716" transform="translate(0, -250)"></use><use xlink:href="#transformed-79716" transform="translate(250, -250)"></use><use xlink:href="#transformed-79716" transform="translate(-250, 0)"></use><use xlink:href="#transformed-79716" transform="translate(0, 0)"></use><use xlink:href="#transformed-79716" transform="translate(250, 0)"></use><use xlink:href="#transformed-79716" transform="translate(-250, 250)"></use><use xlink:href="#transformed-79716" transform="translate(0, 250)"></use><use xlink:href="#transformed-79716" transform="translate(250, 250)"></use><use xlink:href="#transformed-73121" transform="translate(-250, -250)"></use><use xlink:href="#transformed-73121" transform="translate(0, -250)"></use><use xlink:href="#transformed-73121" transform="translate(250, -250)"></use><use xlink:href="#transformed-73121" transform="translate(-250, 0)"></use><use xlink:href="#transformed-73121" transform="translate(0, 0)"></use><use xlink:href="#transformed-73121" transform="translate(250, 0)"></use><use xlink:href="#transformed-73121" transform="translate(-250, 250)"></use><use xlink:href="#transformed-73121" transform="translate(0, 250)"></use><use xlink:href="#transformed-73121" transform="translate(250, 250)"></use><use xlink:href="#transformed-27695" transform="translate(-250, -250)"></use><use xlink:href="#transformed-27695" transform="translate(0, -250)"></use><use xlink:href="#transformed-27695" transform="translate(250, -250)"></use><use xlink:href="#transformed-27695" transform="translate(-250, 0)"></use><use xlink:href="#transformed-27695" transform="translate(0, 0)"></use><use xlink:href="#transformed-27695" transform="translate(250, 0)"></use><use xlink:href="#transformed-27695" transform="translate(-250, 250)"></use><use xlink:href="#transformed-27695" transform="translate(0, 250)"></use><use xlink:href="#transformed-27695" transform="translate(250, 250)"></use><use xlink:href="#transformed-52203" transform="translate(-250, -250)"></use><use xlink:href="#transformed-52203" transform="translate(0, -250)"></use><use xlink:href="#transformed-52203" transform="translate(250, -250)"></use><use xlink:href="#transformed-52203" transform="translate(-250, 0)"></use><use xlink:href="#transformed-52203" transform="translate(0, 0)"></use><use xlink:href="#transformed-52203" transform="translate(250, 0)"></use><use xlink:href="#transformed-52203" transform="translate(-250, 250)"></use><use xlink:href="#transformed-52203" transform="translate(0, 250)"></use><use xlink:href="#transformed-52203" transform="translate(250, 250)"></use><use xlink:href="#transformed-71106" transform="translate(-250, -250)"></use><use xlink:href="#transformed-71106" transform="translate(0, -250)"></use><use xlink:href="#transformed-71106" transform="translate(250, -250)"></use><use xlink:href="#transformed-71106" transform="translate(-250, 0)"></use><use xlink:href="#transformed-71106" transform="translate(0, 0)"></use><use xlink:href="#transformed-71106" transform="translate(250, 0)"></use><use xlink:href="#transformed-71106" transform="translate(-250, 250)"></use><use xlink:href="#transformed-71106" transform="translate(0, 250)"></use><use xlink:href="#transformed-71106" transform="translate(250, 250)"></use><use xlink:href="#transformed-74030" transform="translate(-250, -250)"></use><use xlink:href="#transformed-74030" transform="translate(0, -250)"></use><use xlink:href="#transformed-74030" transform="translate(250, -250)"></use><use xlink:href="#transformed-74030" transform="translate(-250, 0)"></use><use xlink:href="#transformed-74030" transform="translate(0, 0)"></use><use xlink:href="#transformed-74030" transform="translate(250, 0)"></use><use xlink:href="#transformed-74030" transform="translate(-250, 250)"></use><use xlink:href="#transformed-74030" transform="translate(0, 250)"></use><use xlink:href="#transformed-74030" transform="translate(250, 250)"></use></svg>