<svg version="1.1"
      xmlns="http://www.w3.org/2000/svg"
      xmlns:xlink="http://www.w3.org/1999/xlink"  id="snapshot-53877" width="250" height="250" viewBox="0 0 250 250"><desc>This image was made on Patterninja.com</desc><defs>
<!-- image 54116 -->
<g id="transformed-54116" data-image="54116" transform="translate(26.000000000000004, 22) rotate(0, 19.999999999999996, 20)"><g><svg version="1.1" width="39.99999999999999px" height="40px" viewBox="0 0 39.99999999999999 40"><g id="original-54116"><svg xmlns="http://www.w3.org/2000/svg" viewBox="0 0 512 512" xmlns:xlink="http://www.w3.org/1999/xlink" version="1.1" preserveAspectRatio="xMidYMid meet">
  <path d="M495.484 90.839H16.516L7.817 101v294.151c0 9.122 7.395 16.516 16.516 16.516H502l10-7.021v-297.29c0-9.123-7.395-16.517-16.516-16.517z" fill="rgba(149, 204, 129, 1)" stroke="none"/>
  <path d="M16.516 355.097V90.839C7.395 90.839 0 98.233 0 107.355v297.29c0 9.122 7.395 16.516 16.516 16.516h478.968c9.121 0 16.516-7.395 16.516-16.516H66.065c-27.365 0-49.549-22.183-49.549-49.548z" fill="rgba(125, 189, 128, 1)" stroke="none"/>
  <path d="M440.141 252.473L264.588 145.614a16.515 16.515 0 0 0-17.175 0L71.859 252.473c-2.643 1.609-2.643 5.446 0 7.054l175.553 106.859a16.515 16.515 0 0 0 17.175 0L440.14 259.527c2.644-1.609 2.644-5.445.001-7.054z" fill="rgba(255, 224, 125, 1)" stroke="none"/>
  <path d="M256 189.936c-24.565 0-45.998 13.407-57.382 33.302l-6.616 16.302a66.202 66.202 0 0 0-2.067 16.459c0 36.486 29.578 66.064 66.064 66.064 29.834 0 55.05-19.776 63.252-46.935l2.792-17.509c.013-.539.02-1.079.02-1.62.001-36.485-29.577-66.063-66.063-66.063z" fill="rgba(80, 85, 160, 1)" stroke="none"/>
  <path d="M192.002 239.541c45.894.372 89.785 12.681 127.25 35.589a65.88 65.88 0 0 0 2.792-17.509c-36.905-21.207-79.232-33.007-123.427-34.382a65.78 65.78 0 0 0-6.615 16.302z" fill="rgba(255, 255, 255, 1)" stroke="none"/>
</svg>
</g></svg></g></g>
<!-- /image 54116 -->

<!-- image 85395 -->
<g id="transformed-85395" data-image="85395" transform="translate(26, 22) rotate(0, 20, 20)"><g><svg version="1.1" width="40px" height="40px" viewBox="0 0 40 40"><g id="original-85395"><svg xmlns="http://www.w3.org/2000/svg" viewBox="0 0 512 512" xmlns:xlink="http://www.w3.org/1999/xlink" version="1.1" preserveAspectRatio="xMidYMid meet">
  <path d="M495.484 90.839H16.516L7.817 101v294.151c0 9.122 7.395 16.516 16.516 16.516H502l10-7.021v-297.29c0-9.123-7.395-16.517-16.516-16.517z" fill="rgba(229, 100, 110, 1)" stroke="none"/>
  <path d="M16.516 355.097V90.839C7.395 90.839 0 98.233 0 107.355v297.29c0 9.122 7.395 16.516 16.516 16.516h478.968c9.121 0 16.516-7.395 16.516-16.516H66.065c-27.365 0-49.549-22.183-49.549-49.548z" fill="rgba(219, 70, 85, 1)" stroke="none"/>
  <path d="M144.611 186.742l-26.589-.233-13.055-28.57c-1.233-3.699-6.465-3.699-7.699 0l-9.528 28.57-30.116.233c-3.899.03-5.516 5.006-2.379 7.323l24.227 17.891-9.084 28.714c-1.176 3.718 3.056 6.793 6.229 4.526l24.502-17.513 24.502 17.513c3.172 2.267 7.405-.808 6.229-4.526l-9.084-28.714 24.227-17.891c3.134-2.317 1.517-7.293-2.382-7.323z" fill="rgba(255, 224, 125, 1)" stroke="none"/>
  <path d="M176.121 133.827l-5.431-.048-3.653-7.995a5.04 5.04 0 0 0-9.367.5l-2.499 7.494-7.223.056c-4.63.036-6.55 5.944-2.825 8.695l5.81 4.291-2.179 6.886c-1.397 4.414 3.629 8.066 7.396 5.374l5.876-4.2 5.876 4.2c3.767 2.692 8.793-.959 7.396-5.374l-2.179-6.886 5.822-4.299c3.722-2.748 1.807-8.654-2.82-8.694z" fill="rgba(255, 224, 125, 1)" stroke="none"/>
  <path d="M176.121 264.924l-5.431-.048-3.653-7.995a5.04 5.04 0 0 0-9.367.5l-2.499 7.494-7.223.056c-4.63.036-6.55 5.944-2.825 8.695l5.81 4.291-2.179 6.886c-1.397 4.414 3.629 8.066 7.396 5.374l5.876-4.2 5.876 4.2c3.767 2.692 8.793-.959 7.396-5.374l-2.179-6.886 5.822-4.299c3.722-2.749 1.807-8.654-2.82-8.694z" fill="rgba(255, 224, 125, 1)" stroke="none"/>
  <path d="M214.658 224.321l-5.431-.048-3.653-7.995a5.04 5.04 0 0 0-9.367.5l-2.499 7.494-7.223.056c-4.63.036-6.55 5.944-2.825 8.695l5.81 4.291-2.179 6.886c-1.397 4.414 3.63 8.066 7.396 5.374l5.876-4.2 5.876 4.2c3.767 2.692 8.793-.959 7.396-5.374l-2.179-6.886 5.822-4.299c3.723-2.748 1.807-8.653-2.82-8.694z" fill="rgba(255, 224, 125, 1)" stroke="none"/>
  <path d="M214.658 170.644l-5.431-.048-3.653-7.995a5.04 5.04 0 0 0-9.367.5l-2.499 7.494-7.223.056c-4.63.036-6.55 5.944-2.825 8.695l5.81 4.291-2.179 6.886c-1.397 4.414 3.63 8.066 7.396 5.374l5.876-4.2 5.876 4.2c3.767 2.692 8.793-.959 7.396-5.374l-2.179-6.886 5.822-4.299c3.723-2.748 1.807-8.653-2.82-8.694z" fill="rgba(255, 224, 125, 1)" stroke="none"/>
</svg>
</g></svg></g></g>
<!-- /image 85395 -->

<!-- image 85587 -->
<g id="transformed-85587" data-image="85587" transform="translate(26.00000000000001, 22) rotate(0, 19.99999999999999, 20)"><g><svg version="1.1" width="39.99999999999998px" height="40px" viewBox="0 0 39.99999999999998 40"><g id="original-85587"><svg xmlns="http://www.w3.org/2000/svg" viewBox="0 0 512 512" xmlns:xlink="http://www.w3.org/1999/xlink" version="1.1" preserveAspectRatio="xMidYMid meet">
  <path d="M170.667 90.839H16.516l-6.032 16.516v289.796c0 9.121 7.395 16.516 16.516 16.516h143.667l19.269-17.283V115.616z" fill="rgba(80, 85, 160, 1)" stroke="none"/>
  <path d="M341.333 413.5h154.151L512 404.645v-297.29c0-9.121-7.395-16.516-16.516-16.516H341.333l-19.269 24.778v280.768z" fill="rgba(229, 100, 110, 1)" stroke="none"/>
  <path d="M512 404.645H328.489l12.844 16.516h154.151c9.121 0 16.516-7.394 16.516-16.516z" fill="rgba(219, 70, 85, 1)" stroke="none"/>
  <path d="M16.516 355.097V90.839C7.395 90.839 0 98.233 0 107.355v297.29c0 9.122 7.395 16.516 16.516 16.516h154.151l12.844-16.516H66.065c-27.365 0-49.549-22.183-49.549-49.548z" fill="rgba(63, 63, 143, 1)" stroke="none"/>
  <path d="M187.333 413.667h141l13-9.022V90.839H170.667v313.806z" fill="rgba(242, 242, 246, 1)" stroke="none"/>
  <path d="M170.667 404.645h170.666v16.516H170.667z" fill="rgba(225, 225, 230, 1)" stroke="none"/>
</svg>
</g></svg></g></g>
<!-- /image 85587 -->

<!-- image 89916 -->
<g id="transformed-89916" data-image="89916" transform="translate(26, 22.000000000000018) rotate(0, 20, 19.999999999999982)"><g><svg version="1.1" width="40px" height="39.999999999999964px" viewBox="0 0 40 39.999999999999964"><g id="original-89916"><svg xmlns="http://www.w3.org/2000/svg" viewBox="0 0 512 512" xmlns:xlink="http://www.w3.org/1999/xlink" version="1.1" preserveAspectRatio="xMidYMid meet">
  <path d="M512 200.946v-93.591c0-9.122-7.395-16.516-16.516-16.516H16.516l-8.849 16.516v93.591l17.104 22.022h462.456z" fill="rgba(93, 83, 96, 1)" stroke="none"/>
  <path d="M0 107.355v93.591l16.516 14.683V90.839C7.395 90.839 0 98.233 0 107.355z" fill="rgba(75, 63, 78, 1)" stroke="none"/>
  <path d="M7.817 311.054v86.43c0 9.122 7.395 16.516 16.516 16.516h471.151L512 404.645v-93.591l-24.77-22.022H24.774z" fill="rgba(255, 224, 125, 1)" stroke="none"/>
  <path d="M16.516 355.097v-58.724L0 311.054v93.591c0 9.122 7.395 16.516 16.516 16.516h478.968c9.121 0 16.516-7.394 16.516-16.516H66.065c-27.365 0-49.549-22.183-49.549-49.548z" fill="rgba(255, 208, 100, 1)" stroke="none"/>
  <path d="M8.667 297l7.849 14.053H512V200.946H16.516l-7.849 17.387z" fill="rgba(229, 100, 110, 1)" stroke="none"/>
  <path d="M0 200.946h16.516v110.107H0z" fill="rgba(219, 70, 85, 1)" stroke="none"/>
</svg>
</g></svg></g></g>
<!-- /image 89916 -->

<!-- image 76766 -->
<g id="transformed-76766" data-image="76766" transform="translate(117, 18.596000000000004) rotate(0, 21, 19.403999999999996)"><g><svg version="1.1" width="42px" height="38.80799999999999px" viewBox="0 0 42 38.80799999999999"><g id="original-76766"><svg xmlns="http://www.w3.org/2000/svg" viewBox="-42 0 511 512" xmlns:xlink="http://www.w3.org/1999/xlink" version="1.1" preserveAspectRatio="xMidYMid meet">
  <path d="M341.832 341.336c37.703 0 68.266 30.559 68.266 68.262V512H17.566V409.598c0-37.7 30.563-68.262 68.266-68.262zm0 0" fill="rgba(201, 91, 42, 1)" stroke="none"/>
  <path d="M410.098 409.598c0-37.703-30.563-68.262-68.266-68.262h-24.719c37.696.004 68.254 30.562 68.254 68.262L385.371 512h24.727zm0 0" fill="rgba(179, 76, 30, 1)" stroke="none"/>
  <path d="M256.5 443.734c23.563 0 42.668-19.105 42.668-42.668l-34.137-59.734-.015-79.492-102.383-.004v79.496L128.5 401.066c0 23.563 19.105 42.668 42.668 42.668zm0 0" fill="rgba(247, 189, 138, 1)" stroke="none"/>
  <path d="M336.91 147.906c18.399 12.23 30.524 33.145 30.524 56.895 0 37.703-30.567 68.265-68.27 68.265-9.715 0-18.957-2.027-27.324-5.687H155.824c-8.367 3.656-17.61 5.687-27.324 5.687-37.703 0-68.266-30.562-68.266-68.265 0-23.75 12.125-44.664 30.524-56.895zm0 0" fill="rgba(253, 164, 0, 1)" stroke="none"/>
  <path d="M336.91 147.906h-20.605c18.398 12.23 30.523 33.145 30.523 56.895 0 34.191-25.137 62.508-57.937 67.488 3.355.508 6.78.777 10.273.777 37.703 0 68.27-30.562 68.27-68.265 0-23.75-12.125-44.664-30.524-56.895zm0 0" fill="rgba(253, 126, 0, 1)" stroke="none"/>
  <path d="M256.5 0h-25.602c-7.882 0-13.585 5.352-15.445 12.617-.187.73-.867 1.227-1.621 1.227s-1.43-.496-1.617-1.227C210.355 5.352 204.652 0 196.765 0h-25.6c-47.126 0-85.33 38.203-85.33 85.332V128c0 23.563 19.103 42.664 42.665 42.664h170.668c23.562 0 42.664-19.101 42.664-42.664V85.332C341.832 38.203 303.629 0 256.5 0zm0 0" fill="rgba(253, 191, 0, 1)" stroke="none"/>
  <path d="M256.5 0h-24.691c47.113.02 85.296 38.215 85.296 85.332V128c0 23.563-19.101 42.664-42.664 42.664h24.723c23.566 0 42.668-19.101 42.668-42.664V85.332C341.832 38.203 303.629 0 256.5 0zm0 0" fill="rgba(253, 164, 0, 1)" stroke="none"/>
  <path d="M299.164 110.934V204.8c0 47.129-38.203 85.332-85.332 85.332-47.125 0-85.332-38.203-85.332-85.332v-93.867l85.332-73.848zm0 0" fill="rgba(247, 212, 181, 1)" stroke="none"/>
  <path d="M213.832 37.086l-10.766 9.316 70.645 64.703v93.868c0 43.28-28.106 79.007-69.867 84.558 3.277.383 6.605.602 9.988.602 47.129 0 85.332-38.203 85.332-85.332v-93.863zm0 0" fill="rgba(247, 189, 138, 1)" stroke="none"/>
  <path d="M299.164 436.074H128.496c-4.266 0-7.723 3.457-7.723 7.727s3.457 7.726 7.723 7.726h170.668c4.27 0 7.727-3.457 7.727-7.726s-3.457-7.727-7.727-7.727zm0 0" fill="rgba(217, 231, 236, 1)" stroke="none"/>
  <path d="M102.094 477.863H6.68a6.178 6.178 0 0 0-6.18 6.18v21.777A6.178 6.178 0 0 0 6.68 512h95.41zm0 0" fill="rgba(217, 231, 236, 1)" stroke="none"/>
  <path d="M247.969 137.34a7.724 7.724 0 0 0-7.727 7.726v17.067a7.723 7.723 0 0 0 7.727 7.722 7.725 7.725 0 0 0 7.726-7.722v-17.067a7.729 7.729 0 0 0-7.726-7.726zm0 0" fill="rgba(51, 51, 51, 1)" stroke="none"/>
  <path d="M187.426 162.133v-17.067c0-4.265-3.461-7.726-7.727-7.726s-7.726 3.46-7.726 7.726v17.067c0 4.265 3.46 7.726 7.726 7.726s7.727-3.46 7.727-7.726zm0 0" fill="rgba(51, 51, 51, 1)" stroke="none"/>
  <path d="M239.43 197.074a7.729 7.729 0 0 0-7.727 7.727c0 5.152-4.187 9.34-9.336 9.34h-17.066c-5.153 0-9.34-4.188-9.34-9.34a7.726 7.726 0 1 0-15.453 0c0 13.672 11.12 24.793 24.793 24.793h17.066c13.668 0 24.79-11.121 24.79-24.793a7.726 7.726 0 0 0-7.727-7.727zm0 0" fill="rgba(232, 164, 104, 1)" stroke="none"/>
  <path d="M213.832 51.2c0 32.991-26.742 59.734-59.73 59.734h-34.133V37.086l93.863-10.129zm0 0" fill="rgba(253, 191, 0, 1)" stroke="none"/>
  <path d="M213.832 51.2c0 32.991 26.746 59.734 59.734 59.734H307.7V48.426l-93.863-21.469zm0 0" fill="rgba(253, 191, 0, 1)" stroke="none"/>
  <path d="M128.5 401c18.86 0 34.148-15.29 34.148-34.148v-42.586l-34.148 17.07zm0 0" fill="rgba(217, 231, 236, 1)" stroke="none"/>
  <path d="M299.172 401c-18.86 0-34.149-15.29-34.149-34.148v-42.586l34.153 17.07zm0 0" fill="rgba(217, 231, 236, 1)" stroke="none"/>
  <path d="M230.902 477.93c0 9.425-7.64 17.066-17.066 17.066-9.43 0-17.07-7.64-17.07-17.066 0-9.426 7.64-17.067 17.07-17.067 9.426 0 17.066 7.64 17.066 17.067zm0 0" fill="rgba(253, 191, 0, 1)" stroke="none"/>
  <path d="M316.23 303.875h8.536v6.645h-8.536zm0 0" fill="rgba(253, 191, 0, 1)" stroke="none"/>
  <path d="M316.23 338.008h8.536v6.644h-8.536zm0 0" fill="rgba(253, 191, 0, 1)" stroke="none"/>
  <path d="M324.766 307.2c9.425 0 17.066-7.641 17.066-17.067s-7.64-17.067-17.066-17.067h-8.536c-9.421 0-17.066 7.641-17.066 17.067s7.645 17.066 17.066 17.066zm0 0" fill="rgba(253, 191, 0, 1)" stroke="none"/>
  <path d="M324.766 341.332c9.425 0 17.066-7.64 17.066-17.066s-7.64-17.067-17.066-17.067h-8.536c-9.421 0-17.066 7.64-17.066 17.067s7.645 17.066 17.066 17.066zm0 0" fill="rgba(253, 191, 0, 1)" stroke="none"/>
  <path d="M299.164 358.398c0-9.421 7.645-17.062 17.066-17.062h8.536c9.425 0 17.066 7.64 17.066 17.062v27.954a6.178 6.178 0 0 1-6.18 6.18h-30.304a6.182 6.182 0 0 1-6.184-6.18zm0 0" fill="rgba(253, 191, 0, 1)" stroke="none"/>
  <path d="M324.766 341.336h-8.536c-2.125 0-4.152.406-6.035 1.117 6.446 2.438 11.032 8.649 11.032 15.945v27.954a6.178 6.178 0 0 1-6.18 6.18h20.605a6.178 6.178 0 0 0 6.18-6.18v-27.954c0-9.421-7.64-17.062-17.066-17.062zm0 0" fill="rgba(253, 164, 0, 1)" stroke="none"/>
  <path d="M324.766 273.066h-8.536a16.95 16.95 0 0 0-6.035 1.121c6.446 2.438 11.032 8.649 11.032 15.946 0 7.297-4.586 13.508-11.032 15.949 1.883.711 3.91 1.117 6.035 1.117h8.536c9.425 0 17.066-7.64 17.066-17.066 0-9.426-7.64-17.067-17.066-17.067zm0 0" fill="rgba(253, 164, 0, 1)" stroke="none"/>
  <path d="M324.766 307.2h-8.536c-2.125 0-4.152.405-6.035 1.116 6.446 2.442 11.032 8.653 11.032 15.95s-4.586 13.507-11.032 15.945a16.95 16.95 0 0 0 6.035 1.121h8.536c9.425 0 17.066-7.64 17.066-17.066s-7.64-17.067-17.066-17.067zm0 0" fill="rgba(253, 164, 0, 1)" stroke="none"/>
  <path d="M320.5 367.742a7.724 7.724 0 0 0-7.727 7.727v17.066h15.454V375.47c0-4.27-3.461-7.727-7.727-7.727zm0 0" fill="rgba(253, 126, 0, 1)" stroke="none"/>
  <path d="M94.367 485.594a7.726 7.726 0 0 1-7.726-7.727V443.73a7.729 7.729 0 0 1 7.726-7.726 7.729 7.729 0 0 1 7.727 7.726v34.137c0 4.27-3.461 7.727-7.727 7.727zm0 0" fill="rgba(158, 65, 24, 1)" stroke="none"/>
  <path d="M333.34 485.594a7.726 7.726 0 0 1-7.727-7.727V443.73a7.726 7.726 0 1 1 15.453 0v34.137a7.724 7.724 0 0 1-7.726 7.727zm0 0" fill="rgba(158, 65, 24, 1)" stroke="none"/>
  <path d="M211.578 13.844h4.703v4.183h-4.703zm0 0" fill="rgba(253, 191, 0, 1)" stroke="none"/>
  <path d="M154.102 118.66h-34.133a7.724 7.724 0 0 1-7.727-7.726 7.724 7.724 0 0 1 7.727-7.727h34.133c28.675 0 52.003-23.328 52.003-52.004 0-4.27 3.461-7.726 7.727-7.726a7.724 7.724 0 0 1 7.727 7.726c0 37.195-30.262 67.457-67.457 67.457zm0 0" fill="rgba(253, 126, 0, 1)" stroke="none"/>
  <path d="M307.7 118.66h-34.137c-37.196 0-67.458-30.262-67.458-67.457a7.724 7.724 0 0 1 7.727-7.726 7.726 7.726 0 0 1 7.727 7.726c0 28.676 23.328 52.004 52.004 52.004h34.136a7.724 7.724 0 0 1 7.727 7.727 7.724 7.724 0 0 1-7.727 7.726zm0 0" fill="rgba(253, 126, 0, 1)" stroke="none"/>
  <path d="M102.898 303.875h8.536v6.645h-8.536zm0 0" fill="rgba(253, 191, 0, 1)" stroke="none"/>
  <path d="M102.898 338.008h8.536v6.644h-8.536zm0 0" fill="rgba(253, 191, 0, 1)" stroke="none"/>
  <path d="M111.434 307.2c9.425 0 17.066-7.641 17.066-17.067s-7.64-17.067-17.066-17.067h-8.536c-9.421 0-17.062 7.641-17.062 17.067s7.64 17.066 17.062 17.066zm0 0" fill="rgba(253, 191, 0, 1)" stroke="none"/>
  <path d="M111.434 341.332c9.425 0 17.066-7.64 17.066-17.066s-7.64-17.067-17.066-17.067h-8.536c-9.421 0-17.062 7.64-17.062 17.067s7.64 17.066 17.062 17.066zm0 0" fill="rgba(253, 191, 0, 1)" stroke="none"/>
  <path d="M85.836 358.398c0-9.421 7.64-17.062 17.062-17.062h8.536c9.425 0 17.066 7.64 17.066 17.062v27.954a6.178 6.178 0 0 1-6.18 6.18H92.016a6.178 6.178 0 0 1-6.18-6.18zm0 0" fill="rgba(253, 191, 0, 1)" stroke="none"/>
  <path d="M111.434 341.336h-8.536c-2.125 0-4.152.406-6.035 1.117 6.446 2.438 11.032 8.649 11.032 15.945v27.954a6.178 6.178 0 0 1-6.18 6.18h20.605a6.178 6.178 0 0 0 6.18-6.18v-27.954c0-9.421-7.64-17.062-17.066-17.062zm0 0" fill="rgba(253, 164, 0, 1)" stroke="none"/>
  <path d="M111.434 273.066h-8.536a16.95 16.95 0 0 0-6.035 1.121c6.446 2.438 11.032 8.649 11.032 15.946 0 7.297-4.586 13.508-11.032 15.949 1.883.711 3.91 1.117 6.035 1.117h8.536c9.425 0 17.066-7.64 17.066-17.066 0-9.426-7.64-17.067-17.066-17.067zm0 0" fill="rgba(253, 164, 0, 1)" stroke="none"/>
  <path d="M111.434 307.2h-8.536c-2.125 0-4.152.405-6.035 1.116 6.446 2.442 11.032 8.653 11.032 15.95s-4.586 13.507-11.032 15.945a16.95 16.95 0 0 0 6.035 1.121h8.536c9.425 0 17.066-7.64 17.066-17.066s-7.64-17.067-17.066-17.067zm0 0" fill="rgba(253, 164, 0, 1)" stroke="none"/>
  <path d="M107.168 367.742a7.724 7.724 0 0 0-7.727 7.727v17.066h15.454V375.47c0-4.27-3.461-7.727-7.727-7.727zm0 0" fill="rgba(253, 126, 0, 1)" stroke="none"/>
  <path d="M77.367 477.93h24.727V512H77.367zm0 0" fill="rgba(170, 212, 236, 1)" stroke="none"/>
  <path d="M325.613 512h95.371a6.178 6.178 0 0 0 6.18-6.18v-21.777a6.178 6.178 0 0 0-6.18-6.18h-95.367zm0 0" fill="rgba(217, 231, 236, 1)" stroke="none"/>
  <path d="M420.984 477.863h-24.726a6.178 6.178 0 0 1 6.18 6.18v21.777a6.178 6.178 0 0 1-6.18 6.18h24.726a6.178 6.178 0 0 0 6.18-6.18v-21.777a6.178 6.178 0 0 0-6.18-6.18zm0 0" fill="rgba(170, 212, 236, 1)" stroke="none"/>
</svg>
</g></svg></g></g>
<!-- /image 76766 -->

<!-- image 63414 -->
<g id="transformed-63414" data-image="63414" transform="translate(200, 21.000000000000007) rotate(0, 19, 18.999999999999993)"><g><svg version="1.1" width="38px" height="37.999999999999986px" viewBox="0 0 38 37.999999999999986"><g id="original-63414"><svg xmlns="http://www.w3.org/2000/svg" viewBox="0 0 512 512" xmlns:xlink="http://www.w3.org/1999/xlink" version="1.1" preserveAspectRatio="xMidYMid meet">
  <path d="M512 256c0 141.387-114.613 256-256 256S0 397.387 0 256 114.613 0 256 0s256 114.613 256 256zm0 0" fill="rgba(90, 90, 90, 1)" stroke="none"/>
  <path d="M512 256c0-4.473-.117-8.914-.344-13.332L379.16 110.172l-6.578 9.242-47.375-47.379-19.082 20.836L265.258 52l-18 47 81.71 81.715-3.195 4.492L202.31 62.902l7.504 48.235 41.34 41.34-183.54 219.097 134.79 134.79A256.905 256.905 0 0 0 256 512c141.387 0 256-114.613 256-256zm0 0" fill="rgba(53, 53, 53, 1)" stroke="none"/>
  <path d="M256.258 149.918l27.262 84.305a597.53 597.53 0 0 0 27.746 70.261l44.976 95.676 88.403-28.59-19.57-103.89a596.38 596.38 0 0 0-18.653-73.203l-27.262-84.305zm0 0" fill="rgba(255, 218, 0, 1)" stroke="none"/>
  <path d="M425.074 267.68a596.38 596.38 0 0 0-18.652-73.203l-27.262-84.305-63.8 20.633 88.374 254 40.91-13.23zm0 0" fill="rgba(255, 194, 0, 1)" stroke="none"/>
  <path d="M379.16 110.172l-122.902 39.746 12.414 38.387 137.75 6.168zm0 0" fill="rgba(255, 255, 255, 1)" stroke="none"/>
  <path d="M406.422 194.473l-27.262-84.301-63.8 20.633 21.062 60.535zm0 0" fill="rgba(220, 225, 235, 1)" stroke="none"/>
  <path d="M339.578 263.2c-1.781-5.5-7.68-8.516-13.18-6.74-5.5 1.778-8.515 7.68-6.738 13.18s7.68 8.516 13.18 6.739c5.5-1.781 8.515-7.68 6.738-13.18zm0 0" fill="rgba(255, 255, 255, 1)" stroke="none"/>
  <path d="M357.2 323.496a4.345 4.345 0 0 0-5.466-2.793 4.342 4.342 0 0 0-2.793 5.465 4.338 4.338 0 0 0 5.465 2.793 4.338 4.338 0 0 0 2.793-5.465zm0 0" fill="rgba(255, 255, 255, 1)" stroke="none"/>
  <path d="M401.64 282.566c-1.82-5.636-7.863-8.726-13.495-6.902-5.637 1.82-8.727 7.863-6.903 13.5 1.82 5.633 7.863 8.723 13.5 6.902 5.633-1.824 8.723-7.867 6.899-13.5zm0 0" fill="rgba(220, 225, 235, 1)" stroke="none"/>
  <path d="M408.555 348.742a3.826 3.826 0 0 0-4.82-2.465 3.826 3.826 0 0 0-2.465 4.82 3.826 3.826 0 0 0 4.82 2.465 3.828 3.828 0 0 0 2.465-4.82zm0 0" fill="rgba(220, 225, 235, 1)" stroke="none"/>
  <path d="M256 149.918l-27.266 84.305a596.85 596.85 0 0 1-27.746 70.261l-44.972 95.676-88.403-28.59L87.18 267.68a597.086 597.086 0 0 1 18.652-73.203l27.266-84.305zm0 0" fill="rgba(255, 218, 0, 1)" stroke="none"/>
  <path d="M192.938 129.523l-78.125 257.313 41.203 13.324 44.972-95.676a596.64 596.64 0 0 0 27.746-70.265L256 149.918zm0 0" fill="rgba(255, 194, 0, 1)" stroke="none"/>
  <path d="M133.098 110.172L256 149.918l-12.414 38.387-137.754 6.168zm0 0" fill="rgba(255, 255, 255, 1)" stroke="none"/>
  <path d="M256 149.918l-63.063-20.395-18.792 61.891 69.44-3.11zm0 0" fill="rgba(220, 225, 235, 1)" stroke="none"/>
  <path d="M185.863 256.445c-5.5-1.777-11.398 1.239-13.18 6.739-1.777 5.5 1.239 11.398 6.739 13.18 5.5 1.777 11.402-1.239 13.18-6.739 1.777-5.5-1.239-11.402-6.739-13.18zm0 0" fill="rgba(220, 225, 235, 1)" stroke="none"/>
  <path d="M160.531 320.688a4.338 4.338 0 1 0-2.673 8.254 4.338 4.338 0 0 0 2.673-8.254zm0 0" fill="rgba(220, 225, 235, 1)" stroke="none"/>
  <path d="M124.121 275.645c-5.633-1.82-11.676 1.27-13.5 6.902-1.82 5.637 1.27 11.68 6.902 13.5 5.637 1.824 11.68-1.266 13.5-6.902 1.825-5.633-1.265-11.676-6.902-13.5zm0 0" fill="rgba(255, 255, 255, 1)" stroke="none"/>
  <path d="M108.531 346.258a3.826 3.826 0 0 0-4.82 2.465 3.826 3.826 0 0 0 2.465 4.82 3.828 3.828 0 1 0 2.355-7.285zm0 0" fill="rgba(255, 255, 255, 1)" stroke="none"/>
  <path d="M247.258 52h18v47h-18zm0 0" fill="rgba(255, 255, 255, 1)" stroke="none"/>
  <path d="M255.645 52h9.613v47h-9.613zm0 0" fill="rgba(220, 225, 235, 1)" stroke="none"/>
  <path d="M186.8 72.043l15.516-9.133 23.016 39.102-15.512 9.129zm0 0" fill="rgba(255, 255, 255, 1)" stroke="none"/>
  <path d="M286.672 101.988l23.02-39.101 15.511 9.133-23.02 39.101zm0 0" fill="rgba(220, 225, 235, 1)" stroke="none"/>
</svg>
</g></svg></g></g>
<!-- /image 63414 -->

<!-- image 75052 -->
<g id="transformed-75052" data-image="75052" transform="translate(22.00000000000001, 90) rotate(0, 24.99999999999999, 25)"><g><svg version="1.1" width="49.99999999999998px" height="50px" viewBox="0 0 49.99999999999998 50"><g id="original-75052"><svg xmlns="http://www.w3.org/2000/svg" viewBox="0 0 64 64" xmlns:xlink="http://www.w3.org/1999/xlink" version="1.1" preserveAspectRatio="xMidYMid meet">
  <path d="M2 50h12v12H2z" fill="rgba(205, 211, 218, 1)" stroke="none"/>
  <path d="M50 50h12v12H50z" fill="rgba(205, 211, 218, 1)" stroke="none"/>
  <path d="M14 46h36v16H14z" fill="rgba(199, 209, 193, 1)" stroke="none"/>
  <path d="M14 58h36v4H14z" fill="rgba(136, 146, 159, 1)" stroke="none"/>
  <path d="M54 62v-4a2 2 0 1 1 4 0v4z" fill="rgba(136, 146, 159, 1)" stroke="none"/>
  <path d="M6 62v-4a2 2 0 1 1 4 0v4z" fill="rgba(136, 146, 159, 1)" stroke="none"/>
  <path d="M18 50h4v4h-4z" fill="rgba(68, 114, 176, 1)" stroke="none"/>
  <path d="M26 50h4v4h-4z" fill="rgba(68, 114, 176, 1)" stroke="none"/>
  <path d="M34 50h4v4h-4z" fill="rgba(68, 114, 176, 1)" stroke="none"/>
  <path d="M42 50h4v4h-4z" fill="rgba(68, 114, 176, 1)" stroke="none"/>
  <path d="M34 25l2 21h-8l2-21z" fill="rgba(136, 146, 159, 1)" stroke="none"/>
  <path d="M29.429 31h5.142l-.19-2h-4.762z" fill="rgba(199, 209, 193, 1)" stroke="none"/>
  <circle cx="32" cy="21" r="5" fill="rgba(245, 185, 91, 1)" stroke="none"/>
  <path d="M32 16c.712 0 1.387.154 2 .422V10h-4v6.422A4.979 4.979 0 0 1 32 16z" fill="rgba(136, 146, 159, 1)" stroke="none"/>
  <path d="M31 1h2v9h-2z" fill="rgba(199, 209, 193, 1)" stroke="none"/>
  <path d="M27 21c0 .343.035.677.101 1h9.798a4.988 4.988 0 0 0 0-2h-9.798A4.988 4.988 0 0 0 27 21z" fill="rgba(247, 199, 124, 1)" stroke="none"/>
  <path d="M55 14c-.061 0-.118.014-.178.018C54.414 12.846 53.311 12 52 12s-2.414.846-2.822 2.018c-.06-.004-.117-.018-.178-.018a3 3 0 1 0 0 6c.549 0 1.057-.158 1.5-.416.443.258.951.416 1.5.416s1.057-.158 1.5-.416c.443.258.951.416 1.5.416a3 3 0 1 0 0-6z" fill="rgba(199, 226, 251, 1)" stroke="none"/>
  <path d="M15 22c-.061 0-.118.014-.178.018C14.414 20.846 13.311 20 12 20s-2.414.846-2.822 2.018C9.118 22.014 9.061 22 9 22a3 3 0 1 0 0 6c.549 0 1.057-.158 1.5-.416.443.258.951.416 1.5.416s1.057-.158 1.5-.416c.443.258.951.416 1.5.416a3 3 0 1 0 0-6z" fill="rgba(199, 226, 251, 1)" stroke="none"/>
</svg>
</g></svg></g></g>
<!-- /image 75052 -->

<!-- image 93791 -->
<g id="transformed-93791" data-image="93791" transform="translate(113, 98) rotate(0, 21.999999999999996, 22)"><g><svg version="1.1" width="43.99999999999999px" height="44px" viewBox="0 0 43.99999999999999 44"><g id="original-93791"><svg xmlns="http://www.w3.org/2000/svg" viewBox="0 0 512 512" xmlns:xlink="http://www.w3.org/1999/xlink" version="1.1" preserveAspectRatio="xMidYMid meet">
  <path d="M22.416 314.35a7.004 7.004 0 0 1-6.875-5.656 246.3 246.3 0 0 1-4.542-47.114C10.957 126.302 120.726 16.498 256.004 16.5c132.175.002 239.903 104.671 244.821 235.643.006.166.007.444.001.825-.482 34.076-28.396 61.382-62.476 61.382z" fill="rgba(117, 204, 212, 1)" stroke="none"/>
  <path d="M290 270.5c0 30.375-24.624 55-55 55-2.437 0-4.838-.159-7.191-.466C217.726 337.517 202.296 345.5 185 345.5c-30.376 0-55-24.625-55-55s24.624-55 55-55c2.437 0 4.838.159 7.191.466C202.273 223.483 217.704 215.5 235 215.5c30.376 0 55 24.624 55 55zm-225 5c-21.993 0-40.971 12.909-49.771 31.563a243.102 243.102 0 0 0 10.551 38.438C30.19 357.586 56.671 385.5 65 385.5c30.376 0 55-24.625 55-55s-24.624-55-55-55z" fill="rgba(12, 195, 60, 1)" stroke="none"/>
  <path d="M418.046 434.467c4.187 0 6.221 5.159 3.13 7.982C377.616 482.234 319.642 506.5 256 506.5c-62.031 0-118.678-23.053-161.84-61.059-4.341-3.822-1.682-10.973 4.102-10.973h319.784z" fill="rgba(201, 46, 67, 1)" stroke="none"/>
  <path d="M164.762 434.467h253.284c4.187 0 6.221 5.159 3.13 7.982-35.84 32.735-81.44 54.963-131.925 61.813-48.933-6.64-93.275-27.726-128.59-58.822-4.342-3.822-1.683-10.973 4.101-10.973z" fill="rgba(253, 67, 67, 1)" stroke="none"/>
  <path d="M192.727 305.5h-30.909v-220h30.909z" fill="rgba(206, 144, 71, 1)" stroke="none"/>
  <path d="M389.091 15.5v39.02c0 5.523-4.477 10-10 10H161.818V15.5c0-5.523 4.477-10 10-10h207.273c5.523 0 10 4.477 10 10z" fill="rgba(90, 90, 90, 1)" stroke="none"/>
  <path d="M192.727 15.5v43.476h-30.909V15.5c0-5.523 4.477-10 10-10h30.909c-5.523 0-10 4.477-10 10z" fill="rgba(68, 68, 68, 1)" stroke="none"/>
  <path d="M379.091 152.559H161.818V99.083h227.273v43.476c0 5.523-4.477 10-10 10z" fill="rgba(253, 191, 67, 1)" stroke="none"/>
  <path d="M192.727 152.559h-30.909V99.083h30.909z" fill="rgba(244, 170, 57, 1)" stroke="none"/>
  <path d="M389.091 103.539H161.818V54.52h227.273z" fill="rgba(245, 44, 44, 1)" stroke="none"/>
  <path d="M192.727 103.539h-30.909V54.52h30.909z" fill="rgba(201, 46, 67, 1)" stroke="none"/>
  <path d="M400 235.5c0 22.091-31.34 40-70 40-3.312 0-6.571-.131-9.761-.386 6.2 5.97 9.761 12.94 9.761 20.386 0 22.091-31.34 40-70 40s-70-17.909-70-40 31.34-40 70-40h.25c3.474.007 5.519-3.766 3.698-6.725-2.557-4.154-3.948-8.622-3.948-13.275 0-22.091 31.34-40 70-40s70 17.909 70 40z" fill="rgba(241, 155, 11, 1)" stroke="none"/>
  <path d="M420 295.5c0 22.091-31.34 40-70 40s-70-17.909-70-40 31.34-40 70-40 70 17.909 70 40z" fill="rgba(253, 191, 67, 1)" stroke="none"/>
  <path d="M501 261.5c0 36.626-8.037 71.375-22.444 102.579A120.083 120.083 0 0 1 460 365.5c-38.66 0-70-17.909-70-40 0-7.269 3.393-14.084 9.323-19.958C382.706 298.228 372 286.745 372 273.833c0-.552.02-1.101.059-1.647C347.305 266.021 330 251.916 330 235.5c0-22.091 31.34-40 70-40s70 17.909 70 40c0 .552-.02 1.101-.059 1.647 12.698 3.163 23.436 8.414 30.883 14.996.117 3.105.176 6.224.176 9.357z" fill="rgba(253, 237, 50, 1)" stroke="none"/>
  <path d="M63.312 154.808c-5.031 10.588-12.851 17.8-18.986 18.137-4.969 3.613-15.587 2.961-26.176-2.07C5.469 164.85-2.368 154.825.645 148.484s15.735-6.596 28.416-.57c2.987 1.419 5.705 3.06 8.076 4.823.725-2.864 1.796-5.853 3.215-8.84 6.026-12.681 16.05-20.518 22.391-17.505 6.339 3.012 6.594 15.735.569 28.416zm377.766 177.684c-3.075-2.975-7.144-5.792-11.893-8.049-2.987-1.419-5.976-2.49-8.84-3.215 1.763-2.371 3.404-5.088 4.823-8.075 6.026-12.681 5.771-25.403-.57-28.416s-16.365 4.825-22.391 17.505c-5.032 10.589-5.684 21.206-2.071 26.175.337 6.135 7.549 13.955 18.138 18.986 4.681 2.224 9.367 3.592 13.568 4.115 4.553.566 9.017-1.681 11.17-5.732l.063-.119c2.315-4.361 1.553-9.741-1.997-13.175z" fill="rgba(234, 85, 105, 1)" stroke="none"/>
  <path d="M395.64 386.943c-7.282 15.324-20.095 26.895-36.08 32.583-38.259 13.611-78.225 18.493-117.541 14.766-31.571-2.993-62.722-11.535-92.253-25.568-66.306-31.508-116.337-86.85-140.879-155.83-5.687-15.985-4.809-33.228 2.473-48.553 7.282-15.324 20.096-26.895 36.08-32.582 32.997-11.739 69.394 5.557 81.134 38.553 27.262 76.625 111.781 116.785 188.405 89.526 15.985-5.687 33.227-4.808 48.551 2.473 15.324 7.282 26.895 20.095 32.582 36.08 5.688 15.985 4.81 33.227-2.472 48.552z" fill="rgba(234, 85, 105, 1)" stroke="none"/>
  <path d="M270.783 435.481a271.08 271.08 0 0 1-28.765-1.19c-31.571-2.994-62.721-11.535-92.253-25.568C83.46 377.216 33.429 321.875 8.887 252.894c-5.687-15.985-4.809-33.228 2.473-48.553a63.798 63.798 0 0 1 9.728-14.791 14.314 14.314 0 0 1-3.455-5.427c-2.661-7.48 1.245-15.702 8.726-18.364l27.09-9.638c7.481-2.661 15.702 1.246 18.364 8.726.394 1.109.645 2.234.76 3.355a63.87 63.87 0 0 1 30.107 9.748c-15.038 5.921-27.078 17.151-34.049 31.821-7.282 15.324-8.16 32.567-2.473 48.552 24.542 68.981 74.573 124.322 140.878 155.83 20.597 9.787 41.981 16.902 63.747 21.328zm111.586-119.35l9.638 27.09c2.661 7.481 10.883 11.387 18.364 8.726 7.481-2.661 11.387-10.883 8.726-18.364l-9.638-27.09c-2.661-7.481-10.883-11.387-18.364-8.726-7.481 2.662-11.388 10.883-8.726 18.364z" fill="rgba(201, 46, 67, 1)" stroke="none"/>
  <path d="M186.97 319.035c-9.391 19.946-30.752 45.674-48.63 58.574-4.477 3.232-10.73 2.221-13.961-2.258s-2.22-10.729 2.258-13.961c15.01-10.831 34.352-34.128 42.238-50.874a9.995 9.995 0 0 1 13.307-4.787c4.997 2.352 7.14 8.309 4.788 13.306zm-36.209-28.66c2.812-4.752 1.24-10.885-3.513-13.699a9.998 9.998 0 0 0-13.699 3.513c-9.428 15.929-30.878 37.301-46.841 46.67-4.763 2.796-6.358 8.923-3.563 13.686 2.794 4.764 8.924 6.359 13.686 3.563 19.013-11.158 42.702-34.76 53.93-53.733zm-26.953-32.701c3.265-4.455 2.3-10.712-2.154-13.978a9.996 9.996 0 0 0-13.978 2.154c-10.943 14.928-34.385 34.095-51.19 41.855-5.014 2.315-7.202 8.257-4.887 13.271 2.314 5.015 8.258 7.203 13.271 4.887 20.017-9.241 45.905-30.408 58.938-48.189zm-21.267-49.652a9.998 9.998 0 0 0-14.141-.193c-13.267 12.907-39.562 27.922-57.421 32.788-5.329 1.453-8.471 6.949-7.02 12.277 1.45 5.329 6.949 8.473 12.277 7.02 21.271-5.795 50.31-22.376 66.111-37.75 3.958-3.852 4.045-10.183.194-14.142zm247.737 114.573c-2.284-5.028-8.212-7.252-13.24-4.969a9.996 9.996 0 0 0-4.969 13.24c7.654 16.853 12.882 46.678 11.415 65.13-.437 5.506 3.671 10.323 9.176 10.761 5.505.439 10.325-3.671 10.761-9.176 1.747-21.976-4.026-54.914-13.143-74.986zm-55.5.589a9.995 9.995 0 0 0-6.194 12.714c6.033 17.499 8.429 47.684 5.231 65.916-.954 5.44 2.682 10.623 8.122 11.577 5.439.956 10.624-2.682 11.578-8.121 3.809-21.715 1.164-55.05-6.023-75.892-1.801-5.221-7.493-7.994-12.714-6.194zm-42.009 1.947a10 10 0 0 0-7.41 12.046c4.289 18.006 3.715 48.28-1.254 66.111-1.482 5.32 1.628 10.835 6.948 12.318 5.32 1.484 10.836-1.628 12.318-6.948 5.919-21.237 6.553-54.67 1.444-76.116-1.281-5.373-6.673-8.69-12.046-7.411zm-35.811-5.849a9.997 9.997 0 0 0-10.643 9.313c-1.232 18.469-10.741 47.217-20.765 62.777-2.99 4.644-1.652 10.832 2.991 13.822 4.642 2.992 10.833 1.652 13.822-2.991 11.94-18.533 22.441-50.281 23.908-72.278.366-5.51-3.803-10.275-9.313-10.643z" fill="rgba(150, 36, 55, 1)" stroke="none"/>
  <path d="M337.537 223.557a7.5 7.5 0 0 1-10.594-.521c-6.942-7.659-10.531-21.054-8.348-31.159a7.5 7.5 0 0 1 14.661 3.168c-1.152 5.334 1.136 13.874 4.801 17.917a7.501 7.501 0 0 1-.52 10.595z" fill="rgba(12, 195, 60, 1)" stroke="none"/>
  <path d="M394.064 251.086c0 .124-.003.249-.009.374-.507 10.325-7.441 22.334-16.13 27.936a7.5 7.5 0 0 1-8.127-12.608c4.586-2.957 9.007-10.613 9.274-16.064a7.502 7.502 0 0 1 14.992.362z" fill="rgba(56, 114, 50, 1)" stroke="none"/>
  <path d="M443.564 182.006a7.501 7.501 0 0 1-10.368-2.24c-2.957-4.586-10.613-9.007-16.064-9.274a7.5 7.5 0 1 1 .735-14.982c10.325.507 22.334 7.441 27.936 16.13a7.498 7.498 0 0 1-2.239 10.366z" fill="rgba(80, 156, 73, 1)" stroke="none"/>
  <path d="M300 275.5c0 5.523-4.477 10-10 10s-10-4.477-10-10 4.477-10 10-10 10 4.477 10 10zm100-90c-5.523 0-10 4.477-10 10s4.477 10 10 10 10-4.477 10-10-4.477-10-10-10z" fill="rgba(245, 44, 44, 1)" stroke="none"/>
  <path d="M500 355.5a244.896 244.896 0 0 1-36.005 60.303c-15.226 18.756-38.058 29.697-62.216 29.697H94.228c-27.847-24.502-50.088-55.227-64.547-90z" fill="rgba(42, 187, 199, 1)" stroke="none"/>
  <path d="M500 355.5a244.896 244.896 0 0 1-36.005 60.303 80.847 80.847 0 0 1-4.125 4.697H207.797c-32.32 0-62.658-15.612-81.421-41.928a244.836 244.836 0 0 1-2.155-3.072H39.083a243.642 243.642 0 0 1-13.303-30H265c6.531 0 12.087 4.174 14.146 10z" fill="rgba(117, 204, 212, 1)" stroke="none"/>
  <path d="M497 375.5H97c-8.284 0-15-6.716-15-15 0-8.284 6.716-15 15-15h400c8.284 0 15 6.716 15 15 0 8.284-6.716 15-15 15z" fill="rgba(167, 221, 226, 1)" stroke="none"/>
</svg>
</g></svg></g></g>
<!-- /image 93791 -->

<!-- image 61044 -->
<g id="transformed-61044" data-image="61044" transform="translate(200, 100) rotate(0, 20, 19.999999999999996)"><g><svg version="1.1" width="40px" height="39.99999999999999px" viewBox="0 0 40 39.99999999999999"><g id="original-61044"><svg xmlns="http://www.w3.org/2000/svg" viewBox="0 0 512 512" xmlns:xlink="http://www.w3.org/1999/xlink" version="1.1" preserveAspectRatio="xMidYMid meet">
  <path d="M25.706 146.691l9.721 12.459H477.81l8.486-12.459c2.267-3.652-.359-8.374-4.658-8.374H30.363c-4.299-.001-6.925 4.722-4.657 8.374z" fill="rgba(254, 219, 168, 1)" stroke="none"/>
  <path d="M35.426 159.148h442.378v58.188H35.426z" fill="rgba(237, 195, 140, 1)" stroke="none"/>
  <path d="M35.426 159.147v14.88h72.172L48.431 202.35h34.556l58.8-28.323h228.426l58.8 28.323h33.835l-58.446-28.323h73.41v-14.88z" fill="rgba(226, 182, 129, 1)" stroke="none"/>
  <path d="M273.016 7.421a7.422 7.422 0 0 0-14.515-2.183 7.404 7.404 0 0 0-2.5-.441c-.879 0-1.718.161-2.5.441a7.422 7.422 0 0 0-14.516 2.183c0 6.72 3.926 12.525 9.594 15.288v26.055a7.422 7.422 0 0 0 14.842 0V22.71c5.669-2.764 9.595-8.569 9.595-15.289z" fill="rgba(148, 223, 186, 1)" stroke="none"/>
  <path d="M271.357 59.961c-2.317-.61-3.957-3.198-3.957-6.159 0-2.783-1.803-5.038-4.028-5.038h-14.744c-2.225 0-4.028 2.256-4.028 5.038 0 2.96-1.641 5.548-3.957 6.159-6.915 1.821-11.863 9.452-11.863 18.288v29.935l.001.292c.084 14.508 9.705 26.113 21.304 26.113h11.829c11.599 0 21.221-11.605 21.304-26.113l.001-.292V78.249c0-8.835-4.947-16.465-11.862-18.288z" fill="rgba(124, 209, 164, 1)" stroke="none"/>
  <path d="M202.134 133.179c-5.552 0-10.051-4.5-10.051-10.051V92.827c0-5.552 4.5-10.051 10.051-10.051 5.552 0 10.051 4.5 10.051 10.051v30.3c0 5.551-4.5 10.052-10.051 10.052z" fill="rgba(148, 223, 186, 1)" stroke="none"/>
  <path d="M238.044 133.179c-5.552 0-10.051-4.5-10.051-10.051V92.827c0-5.552 4.5-10.051 10.051-10.051 5.552 0 10.051 4.5 10.051 10.051v30.3c.001 5.551-4.499 10.052-10.051 10.052z" fill="rgba(148, 223, 186, 1)" stroke="none"/>
  <path d="M273.956 133.179c-5.552 0-10.051-4.5-10.051-10.051V92.827c0-5.552 4.5-10.051 10.051-10.051 5.552 0 10.051 4.5 10.051 10.051v30.3c-.001 5.551-4.501 10.052-10.051 10.052z" fill="rgba(148, 223, 186, 1)" stroke="none"/>
  <path d="M309.866 133.179c-5.552 0-10.051-4.5-10.051-10.051V92.827c0-5.552 4.5-10.051 10.051-10.051 5.552 0 10.051 4.5 10.051 10.051v30.3c0 5.551-4.5 10.052-10.051 10.052z" fill="rgba(148, 223, 186, 1)" stroke="none"/>
  <path d="M326.188 125.528v91.811H185.812v-91.811a5.486 5.486 0 0 1 5.483-5.483h129.41a5.486 5.486 0 0 1 5.483 5.483z" fill="rgba(254, 219, 168, 1)" stroke="none"/>
  <path d="M185.814 191.321h140.372v24.375H185.814z" fill="rgba(237, 195, 140, 1)" stroke="none"/>
  <path d="M21.819 285.414h34.113v208.081H21.819z" fill="rgba(254, 219, 168, 1)" stroke="none"/>
  <path d="M21.819 285.414h34.113v45.234H21.819z" fill="rgba(237, 195, 140, 1)" stroke="none"/>
  <path d="M104.469 285.414h34.113v208.081h-34.113z" fill="rgba(254, 219, 168, 1)" stroke="none"/>
  <path d="M104.469 285.414h34.113v45.234h-34.113z" fill="rgba(237, 195, 140, 1)" stroke="none"/>
  <path d="M187.131 285.414h34.101v208.081h-34.101z" fill="rgba(254, 219, 168, 1)" stroke="none"/>
  <path d="M187.131 285.414h34.101v45.234h-34.101z" fill="rgba(237, 195, 140, 1)" stroke="none"/>
  <path d="M292.07 285.414h34.113v208.081H292.07z" fill="rgba(254, 219, 168, 1)" stroke="none"/>
  <path d="M292.07 285.414h34.113v45.234H292.07z" fill="rgba(237, 195, 140, 1)" stroke="none"/>
  <path d="M374.732 285.414h34.113v208.081h-34.113z" fill="rgba(254, 219, 168, 1)" stroke="none"/>
  <path d="M374.732 285.414h34.113v45.234h-34.113z" fill="rgba(237, 195, 140, 1)" stroke="none"/>
  <path d="M457.383 285.414h34.113v208.081h-34.113z" fill="rgba(254, 219, 168, 1)" stroke="none"/>
  <path d="M457.383 285.414h34.113v45.234h-34.113z" fill="rgba(237, 195, 140, 1)" stroke="none"/>
  <path d="M21.819 480.319h34.113v17.715H21.819z" fill="rgba(237, 195, 140, 1)" stroke="none"/>
  <path d="M104.469 480.319h34.113v17.715h-34.113z" fill="rgba(237, 195, 140, 1)" stroke="none"/>
  <path d="M187.131 480.319h34.101v17.715h-34.101z" fill="rgba(237, 195, 140, 1)" stroke="none"/>
  <path d="M292.07 480.319h34.113v17.715H292.07z" fill="rgba(237, 195, 140, 1)" stroke="none"/>
  <path d="M374.732 480.319h34.113v17.715h-34.113z" fill="rgba(237, 195, 140, 1)" stroke="none"/>
  <path d="M457.383 480.319h34.113v17.715h-34.113z" fill="rgba(237, 195, 140, 1)" stroke="none"/>
  <g>
    <path d="M61.327 512H17.428c-3.504 0-6.108-3.241-5.354-6.663l1.662-7.54a5.481 5.481 0 0 1 5.354-4.302h41.021a5.483 5.483 0 0 1 5.413 4.609l1.216 7.54c.538 3.333-2.037 6.356-5.413 6.356z" fill="rgba(254, 219, 168, 1)" stroke="none"/>
    <path d="M143.668 512H99.769c-3.504 0-6.108-3.241-5.354-6.663l1.662-7.54a5.481 5.481 0 0 1 5.354-4.302h41.021a5.483 5.483 0 0 1 5.413 4.609l1.216 7.54c.538 3.333-2.037 6.356-5.413 6.356z" fill="rgba(254, 219, 168, 1)" stroke="none"/>
    <path d="M226.009 512H182.11c-3.504 0-6.108-3.241-5.354-6.663l1.662-7.54a5.481 5.481 0 0 1 5.354-4.302h41.021a5.483 5.483 0 0 1 5.413 4.609l1.216 7.54c.538 3.333-2.036 6.356-5.413 6.356z" fill="rgba(254, 219, 168, 1)" stroke="none"/>
    <path d="M331.587 512h-43.899c-3.504 0-6.108-3.241-5.354-6.663l1.662-7.54a5.481 5.481 0 0 1 5.354-4.302h41.021a5.483 5.483 0 0 1 5.413 4.609l1.216 7.54c.538 3.333-2.036 6.356-5.413 6.356z" fill="rgba(254, 219, 168, 1)" stroke="none"/>
    <path d="M413.929 512H370.03c-3.504 0-6.108-3.241-5.354-6.663l1.662-7.54a5.481 5.481 0 0 1 5.354-4.302h41.021a5.483 5.483 0 0 1 5.413 4.609l1.216 7.54c.537 3.333-2.037 6.356-5.413 6.356z" fill="rgba(254, 219, 168, 1)" stroke="none"/>
    <path d="M496.27 512h-43.899c-3.504 0-6.108-3.241-5.354-6.663l1.662-7.54a5.481 5.481 0 0 1 5.354-4.302h41.021a5.483 5.483 0 0 1 5.413 4.609l1.216 7.54c.537 3.333-2.037 6.356-5.413 6.356z" fill="rgba(254, 219, 168, 1)" stroke="none"/>
    <path d="M61.327 285.412H17.428c-3.504 0-6.108 3.241-5.354 6.663l1.662 7.54a5.481 5.481 0 0 0 5.354 4.302h41.021a5.483 5.483 0 0 0 5.413-4.609l1.216-7.54c.538-3.334-2.037-6.356-5.413-6.356z" fill="rgba(254, 219, 168, 1)" stroke="none"/>
    <path d="M143.668 285.412H99.769c-3.504 0-6.108 3.241-5.354 6.663l1.662 7.54a5.481 5.481 0 0 0 5.354 4.302h41.021a5.483 5.483 0 0 0 5.413-4.609l1.216-7.54c.538-3.334-2.037-6.356-5.413-6.356z" fill="rgba(254, 219, 168, 1)" stroke="none"/>
    <path d="M226.009 285.412H182.11c-3.504 0-6.108 3.241-5.354 6.663l1.662 7.54a5.481 5.481 0 0 0 5.354 4.302h41.021a5.483 5.483 0 0 0 5.413-4.609l1.216-7.54c.538-3.334-2.036-6.356-5.413-6.356z" fill="rgba(254, 219, 168, 1)" stroke="none"/>
    <path d="M331.587 285.412h-43.899c-3.504 0-6.108 3.241-5.354 6.663l1.662 7.54a5.481 5.481 0 0 0 5.354 4.302h41.021a5.483 5.483 0 0 0 5.413-4.609l1.216-7.54c.538-3.334-2.036-6.356-5.413-6.356z" fill="rgba(254, 219, 168, 1)" stroke="none"/>
    <path d="M413.929 285.412H370.03c-3.504 0-6.108 3.241-5.354 6.663l1.662 7.54a5.481 5.481 0 0 0 5.354 4.302h41.021a5.483 5.483 0 0 0 5.413-4.609l1.216-7.54c.537-3.334-2.037-6.356-5.413-6.356z" fill="rgba(254, 219, 168, 1)" stroke="none"/>
    <path d="M496.27 285.412h-43.899c-3.504 0-6.108 3.241-5.354 6.663l1.662 7.54a5.481 5.481 0 0 0 5.354 4.302h41.021a5.483 5.483 0 0 0 5.413-4.609l1.216-7.54c.537-3.334-2.037-6.356-5.413-6.356z" fill="rgba(254, 219, 168, 1)" stroke="none"/>
    <path d="M21.819 224.831h469.682v60.582H21.819z" fill="rgba(254, 219, 168, 1)" stroke="none"/>
  </g>
  <path d="M21.819 224.831h469.682v25.944H21.819z" fill="rgba(237, 195, 140, 1)" stroke="none"/>
  <path d="M491.497 231.604H21.819L1.182 208.982c-2.402-3.646.212-8.499 4.578-8.499h500.481c4.366 0 6.98 4.855 4.578 8.499l-19.322 22.622z" fill="rgba(254, 219, 168, 1)" stroke="none"/>
  <g>
    <path d="M21.819 276.626h469.682v8.783H21.819z" fill="rgba(237, 195, 140, 1)" stroke="none"/>
    <path d="M336.744 162.693H175.255a5.483 5.483 0 0 1-5.483-5.483v-13.411a5.483 5.483 0 0 1 5.483-5.483h161.489a5.483 5.483 0 0 1 5.483 5.483v13.41a5.483 5.483 0 0 1-5.483 5.484z" fill="rgba(237, 195, 140, 1)" stroke="none"/>
  </g>
  <g>
    <path d="M63.266 231.604v6.491c0 4.101-3.323 7.423-7.413 7.423a7.422 7.422 0 0 1-7.423-7.423v-6.491h14.836z" fill="rgba(216, 166, 111, 1)" stroke="none"/>
    <path d="M113.312 231.604v6.491a7.422 7.422 0 0 1-7.423 7.423 7.422 7.422 0 0 1-7.423-7.423v-6.491h14.846z" fill="rgba(216, 166, 111, 1)" stroke="none"/>
    <path d="M163.345 231.604v6.491a7.422 7.422 0 1 1-14.846 0v-6.491h14.846z" fill="rgba(216, 166, 111, 1)" stroke="none"/>
    <path d="M213.379 231.604v6.491c0 4.101-3.323 7.423-7.412 7.423a7.422 7.422 0 0 1-7.423-7.423v-6.491h14.835z" fill="rgba(216, 166, 111, 1)" stroke="none"/>
    <path d="M263.423 231.604v6.491a7.422 7.422 0 0 1-7.423 7.423 7.423 7.423 0 0 1-7.423-7.423v-6.491h14.846z" fill="rgba(216, 166, 111, 1)" stroke="none"/>
    <path d="M313.457 231.604v6.491a7.422 7.422 0 0 1-7.423 7.423c-4.09 0-7.413-3.323-7.413-7.423v-6.491h14.836z" fill="rgba(216, 166, 111, 1)" stroke="none"/>
    <path d="M363.501 231.604v6.491c0 4.101-3.333 7.423-7.423 7.423a7.422 7.422 0 0 1-7.423-7.423v-6.491h14.846z" fill="rgba(216, 166, 111, 1)" stroke="none"/>
    <path d="M413.535 231.604v6.491a7.422 7.422 0 0 1-7.423 7.423 7.422 7.422 0 0 1-7.423-7.423v-6.491h14.846z" fill="rgba(216, 166, 111, 1)" stroke="none"/>
    <path d="M463.569 231.604v6.491a7.422 7.422 0 0 1-7.423 7.423c-4.09 0-7.413-3.323-7.413-7.423v-6.491h14.836z" fill="rgba(216, 166, 111, 1)" stroke="none"/>
    <path d="M67.082 159.147v3.553c0 4.101-3.323 7.423-7.423 7.423s-7.423-3.323-7.423-7.423v-3.553h14.846z" fill="rgba(216, 166, 111, 1)" stroke="none"/>
    <path d="M104.101 159.147v3.553c0 4.101-3.323 7.423-7.423 7.423s-7.423-3.323-7.423-7.423v-3.553h14.846z" fill="rgba(216, 166, 111, 1)" stroke="none"/>
    <path d="M422.746 159.147v3.553c0 4.101-3.323 7.423-7.423 7.423S407.9 166.8 407.9 162.7v-3.553h14.846z" fill="rgba(216, 166, 111, 1)" stroke="none"/>
    <path d="M459.763 159.147v3.553c0 4.101-3.323 7.423-7.423 7.423s-7.423-3.323-7.423-7.423v-3.553h14.846z" fill="rgba(216, 166, 111, 1)" stroke="none"/>
  </g>
</svg>
</g></svg></g></g>
<!-- /image 61044 -->

<!-- image 66875 -->
<g id="transformed-66875" data-image="66875" transform="translate(29.000000000000004, 191) rotate(0, 18.999999999999996, 19)"><g><svg version="1.1" width="37.99999999999999px" height="38px" viewBox="0 0 37.99999999999999 38"><g id="original-66875"><svg xmlns="http://www.w3.org/2000/svg" viewBox="0 0 512 512" xmlns:xlink="http://www.w3.org/1999/xlink" version="1.1" preserveAspectRatio="xMidYMid meet">
  <path d="M496.023 240c8.774 0 15.97 7.07 15.977 15.84v.16c0 141.387-114.613 256-256 256C114.656 512 .066 397.453 0 256.125-.066 115.066 114.941 0 256 0c82.59 0 156.027 39.117 202.836 99.824A53.617 53.617 0 0 1 470 132.554v81.423c0 14.37 11.652 26.023 26.023 26.023zm0 0" fill="rgba(236, 60, 82, 1)" stroke="none"/>
  <path d="M512 256c0 2.797-.063 5.578-.148 8.355a24.702 24.702 0 0 1-5.372 4.11 24.903 24.903 0 0 1-25.035-.317 86.034 86.034 0 0 0-44.254-12.257H203.285a86.048 86.048 0 0 0-44.258 12.257 24.835 24.835 0 0 1-12.789 3.536 24.84 24.84 0 0 1-12.242-3.22 24.895 24.895 0 0 1-12.61-21.628v-8.727c0-.632.036-1.257.098-1.87 1.559-51.59 22.72-99.84 59.688-136.016 37.375-36.575 86.762-56.72 139.066-56.72 52.024 0 101.16 19.938 138.465 56.145C492.11 142.898 512 197.121 512 256zm0 0" fill="rgba(244, 159, 31, 1)" stroke="none"/>
  <path d="M512 256c0 2.797-.063 5.578-.148 8.355a24.702 24.702 0 0 1-5.372 4.11 24.903 24.903 0 0 1-25.035-.317 86.034 86.034 0 0 0-44.254-12.257H203.285a86.048 86.048 0 0 0-44.258 12.257 24.55 24.55 0 0 1-3.687 1.801 27.235 27.235 0 0 1-.465-4.93v-9.507c0-.688.035-1.371.105-2.04 1.7-56.202 24.754-108.765 65.024-148.175 34.41-33.676 78.172-54.563 125.293-60.227 42.598 5.34 82.148 24.242 113.398 54.57C492.11 142.89 512 197.118 512 256zm0 0" fill="rgba(247, 173, 59, 1)" stroke="none"/>
  <path d="M502.492 253.316c0 4.91-3.98 8.895-8.89 8.895h-24.086a85.824 85.824 0 0 0-20.66-5.524c.027-1.12.042-2.242.042-3.367 0-71.058-57.601-128.66-128.66-128.66-71.054 0-128.66 57.602-128.66 128.66 0 1.125.016 2.246.043 3.368a85.872 85.872 0 0 0-20.66 5.523h-24.086c-4.91 0-8.89-3.98-8.89-8.895a8.89 8.89 0 0 1 8.89-8.89h26.059a146.949 146.949 0 0 1 7.773-39.281l-24.035-9.958a8.89 8.89 0 0 1-4.813-11.617c1.88-4.535 7.079-6.687 11.618-4.808l24.039 9.957a147.929 147.929 0 0 1 22.277-33.274l-18.426-18.425c-3.472-3.473-3.472-9.106 0-12.575 3.473-3.472 9.102-3.472 12.57 0l18.43 18.426a147.783 147.783 0 0 1 33.274-22.273l-9.957-24.043c-1.88-4.535.273-9.739 4.808-11.618a8.892 8.892 0 0 1 11.617 4.813l9.957 24.04a146.982 146.982 0 0 1 39.282-7.778V79.953a8.89 8.89 0 0 1 17.781 0v26.059a146.949 146.949 0 0 1 39.281 7.773l9.957-24.035a8.892 8.892 0 0 1 16.43 6.805l-9.961 24.039a147.953 147.953 0 0 1 33.277 22.277l18.426-18.426a8.89 8.89 0 0 1 12.574 0 8.886 8.886 0 0 1 0 12.57l-18.43 18.43a147.667 147.667 0 0 1 22.278 33.274l24.043-9.961c4.535-1.88 9.734.277 11.613 4.812 1.88 4.54-.273 9.739-4.808 11.618l-24.04 9.957a147.105 147.105 0 0 1 7.778 39.28h26.055c4.91.005 8.89 3.981 8.89 8.891zm0 0" fill="rgba(226, 144, 42, 1)" stroke="none"/>
  <path d="M420.363 400.512v8.726a24.893 24.893 0 0 1-12.605 21.625 24.893 24.893 0 0 1-25.035-.312 86.034 86.034 0 0 0-44.254-12.258H104.562a86.048 86.048 0 0 0-44.257 12.258 24.831 24.831 0 0 1-12.785 3.535c-4.227 0-8.45-1.07-12.247-3.223a24.885 24.885 0 0 1-12.605-21.625v-8.726c0-.633.031-1.258.094-1.875C24.32 347.05 45.484 298.8 82.449 262.625c37.375-36.578 86.762-56.719 139.067-56.719 52.3 0 101.691 20.14 139.066 56.719 36.965 36.176 58.125 84.426 59.684 136.012.066.617.097 1.242.097 1.875zm0 0" fill="rgba(247, 185, 95, 1)" stroke="none"/>
  <path d="M407.758 430.863a24.893 24.893 0 0 1-25.035-.312 86.034 86.034 0 0 0-44.254-12.258H104.563a86.048 86.048 0 0 0-44.258 12.258c-1.184.71-2.422 1.3-3.688 1.8a27.244 27.244 0 0 1-.465-4.933v-9.504c0-.691.035-1.371.106-2.043 1.699-56.2 24.754-108.762 65.023-148.172 34.41-33.676 78.172-54.562 125.293-60.226 42.875 5.37 82.664 24.48 114.008 55.152 36.965 36.176 58.129 84.426 59.688 136.016.062.613.093 1.238.093 1.87v8.727a24.893 24.893 0 0 1-12.605 21.625zm0 0" fill="rgba(249, 199, 126, 1)" stroke="none"/>
  <path d="M403.77 415.719a8.89 8.89 0 0 1-8.891 8.89h-24.086a85.948 85.948 0 0 0-20.66-5.52c.027-1.12.043-2.241.043-3.37 0-71.055-57.602-128.656-128.66-128.656-71.055 0-128.66 57.601-128.66 128.656 0 1.129.015 2.25.046 3.37a86.027 86.027 0 0 0-20.664 5.52H48.152a8.89 8.89 0 0 1 0-17.78h26.055a146.952 146.952 0 0 1 7.777-39.282l-24.039-9.957c-4.535-1.88-6.687-7.078-4.808-11.617 1.879-4.536 7.078-6.688 11.613-4.813l24.043 9.961a147.667 147.667 0 0 1 22.277-33.273l-18.43-18.43c-3.468-3.473-3.468-9.102 0-12.57a8.89 8.89 0 0 1 12.575 0l18.426 18.425a147.953 147.953 0 0 1 33.277-22.277l-9.957-24.039c-1.883-4.535.273-9.738 4.809-11.617a8.89 8.89 0 0 1 11.617 4.812l9.957 24.04a146.952 146.952 0 0 1 39.281-7.778V242.36c0-4.91 3.98-8.89 8.89-8.89s8.891 3.976 8.891 8.89v26.055a146.952 146.952 0 0 1 39.281 7.777l9.958-24.039c1.878-4.535 7.082-6.691 11.617-4.812 4.535 1.879 6.687 7.082 4.808 11.617l-9.957 24.04a147.929 147.929 0 0 1 33.274 22.276l18.43-18.425a8.886 8.886 0 0 1 12.57 0c3.472 3.472 3.472 9.101 0 12.57l-18.426 18.43a147.929 147.929 0 0 1 22.277 33.273l24.04-9.96a8.892 8.892 0 0 1 6.804 16.429l-24.035 9.957a146.949 146.949 0 0 1 7.773 39.281h26.059a8.89 8.89 0 0 1 8.89 8.89zm0 0" fill="rgba(247, 173, 59, 1)" stroke="none"/>
</svg>
</g></svg></g></g>
<!-- /image 66875 -->

<!-- image 24585 -->
<g id="transformed-24585" data-image="24585" transform="translate(119, 188) rotate(0, 19, 19)"><g><svg version="1.1" width="38px" height="38px" viewBox="0 0 38 38"><g id="original-24585"><svg xmlns="http://www.w3.org/2000/svg" viewBox="0 0 512 512" xmlns:xlink="http://www.w3.org/1999/xlink" version="1.1" preserveAspectRatio="xMidYMid meet">
  <path d="M331 262V131h-60v-30h-30v30h-60v131h-15v250h75v-45c0-8.271 6.729-15 15-15s15 6.729 15 15v45h75V262h-15z" fill="rgba(232, 19, 15, 1)" stroke="none"/>
  <path d="M167.5 512H21V242h146.5v270z" fill="rgba(255, 232, 204, 1)" stroke="none"/>
  <path d="M191 512h-85.459V242H191v270z" fill="rgba(254, 219, 171, 1)" stroke="none"/>
  <path d="M21 332v150H0v30h191V332z" fill="rgba(255, 104, 73, 1)" stroke="none"/>
  <path d="M331 262V131h-60v-30h-15v351c8.271 0 15 6.729 15 15v45h75V262h-15z" fill="rgba(161, 1, 1, 1)" stroke="none"/>
  <path d="M191 302H21v-60h170v60z" fill="rgba(255, 104, 73, 1)" stroke="none"/>
  <path d="M191 302h-85.459v-60H191v60z" fill="rgba(253, 75, 45, 1)" stroke="none"/>
  <path d="M191 512h-85.459V332H191v180z" fill="rgba(253, 75, 45, 1)" stroke="none"/>
  <path d="M209.92 272H2.08L94.245 0h23.51l92.165 272z" fill="rgba(87, 86, 92, 1)" stroke="none"/>
  <path d="M21 412h170v30H21z" fill="rgba(253, 75, 45, 1)" stroke="none"/>
  <path d="M271 302h30v30h-30z" fill="rgba(62, 61, 66, 1)" stroke="none"/>
  <path d="M211 302h30v30h-30z" fill="rgba(87, 86, 92, 1)" stroke="none"/>
  <path d="M271 362h30v30h-30z" fill="rgba(62, 61, 66, 1)" stroke="none"/>
  <path d="M211 362h30v30h-30z" fill="rgba(87, 86, 92, 1)" stroke="none"/>
  <path d="M189 242h134v30H189z" fill="rgba(253, 75, 45, 1)" stroke="none"/>
  <path d="M105.541 272H209.92L117.755 0h-12.214z" fill="rgba(62, 61, 66, 1)" stroke="none"/>
  <path d="M105.54 412H191v30h-85.46z" fill="rgba(232, 19, 15, 1)" stroke="none"/>
  <path d="M491 512H321V242h170v270z" fill="rgba(255, 232, 204, 1)" stroke="none"/>
  <path d="M491 512h-85.459V242H491v270z" fill="rgba(254, 219, 171, 1)" stroke="none"/>
  <path d="M491 302H321v-60h170v60z" fill="rgba(255, 104, 73, 1)" stroke="none"/>
  <path d="M491 302h-85.459v-60H491v60z" fill="rgba(253, 75, 45, 1)" stroke="none"/>
  <path d="M491 512H321V332h170v180z" fill="rgba(255, 104, 73, 1)" stroke="none"/>
  <path d="M491 482V332h-85.459v180H512v-30z" fill="rgba(253, 75, 45, 1)" stroke="none"/>
  <path d="M321 412h170v30H321z" fill="rgba(253, 75, 45, 1)" stroke="none"/>
  <path d="M405.54 412H491v30h-85.46z" fill="rgba(232, 19, 15, 1)" stroke="none"/>
  <path d="M256 242h67v30h-67z" fill="rgba(232, 19, 15, 1)" stroke="none"/>
  <path d="M509.92 272H302.08L394.245 0h23.51l92.165 272z" fill="rgba(87, 86, 92, 1)" stroke="none"/>
  <path d="M405.541 272H509.92L417.755 0h-12.214z" fill="rgba(62, 61, 66, 1)" stroke="none"/>
</svg>
</g></svg></g></g>
<!-- /image 24585 -->

<!-- image 75079 -->
<g id="transformed-75079" data-image="75079" transform="translate(200, 190) rotate(0, 21.99999999999999, 22)"><g><svg version="1.1" width="43.99999999999998px" height="44px" viewBox="0 0 43.99999999999998 44"><g id="original-75079"><svg xmlns="http://www.w3.org/2000/svg" viewBox="0 0 128 128" xmlns:xlink="http://www.w3.org/1999/xlink" version="1.1" preserveAspectRatio="xMidYMid meet">
  <path d="M99.951 63.316c-4.915 4.915-12.034 5.763-15.9 1.9-3.868-3.868-3.02-10.987 1.895-15.9l4.822-4.822 4.154 4.154 2.584-10.898 4.283-4.284a7.225 7.225 0 0 0-5.711-2.8H78.462a7.236 7.236 0 0 0-6.468 3.993 7.237 7.237 0 0 1-6.469 3.994h-3.05a7.237 7.237 0 0 1-6.469-3.994 7.236 7.236 0 0 0-6.468-3.993H31.922a7.236 7.236 0 0 0-7.141 6.071L15.949 90.9l94.859-7.626-4.32-26.492z" fill="rgba(140, 217, 107, 1)" stroke="none"/>
  <path d="M126.3 22.96l-.35 2.83-1.64 13.17-4.88 4.88-10.89 2.58 4.15 4.16-12.74 12.74a14.007 14.007 0 0 1-9.67 4.32 9.052 9.052 0 0 1-4.86-1.33 8.084 8.084 0 0 1-2.47-2.47c-2.54-4.02-1.39-10.15 2.99-14.53l4.83-4.82 4.15 4.15 2.59-10.89 12.79-12.8 13.17-1.64z" fill="rgba(79, 76, 95, 1)" stroke="none"/>
  <path d="M75.146 75.866a1.751 1.751 0 0 1-1.238-2.988l8.9-8.9a1.75 1.75 0 0 1 2.475 2.475l-8.9 8.9a1.743 1.743 0 0 1-1.237.513z" fill="rgba(79, 76, 95, 1)" stroke="none"/>
  <path d="M123.47 23.31l-15.66 15.66a1.754 1.754 0 0 0 2.48 2.48l15.66-15.66.35-2.83z" fill="rgba(57, 55, 76, 1)" stroke="none"/>
  <path d="M90.5 56.29l-7.55 7.55a8.084 8.084 0 0 0 2.47 2.47l7.55-7.55a1.747 1.747 0 0 0-2.47-2.47z" fill="rgba(57, 55, 76, 1)" stroke="none"/>
  <path d="M113.25 105.038h-98.5a13 13 0 0 1-13-13l124.5-10.008v10.008a13 13 0 0 1-13 13z" fill="rgba(90, 178, 103, 1)" stroke="none"/>
  <path d="M15.949 90.897l94.859-7.626-1.466-8.988H18.658z" fill="rgba(255, 230, 0, 1)" stroke="none"/>
</svg>
</g></svg></g></g>
<!-- /image 75079 -->
</defs><rect x="0" y="0" width="250" height="250" fill="rgba(159, 146, 135, 1)"></rect><use xlink:href="#transformed-54116" transform="translate(-250, -250)"></use><use xlink:href="#transformed-54116" transform="translate(0, -250)"></use><use xlink:href="#transformed-54116" transform="translate(250, -250)"></use><use xlink:href="#transformed-54116" transform="translate(-250, 0)"></use><use xlink:href="#transformed-54116" transform="translate(0, 0)"></use><use xlink:href="#transformed-54116" transform="translate(250, 0)"></use><use xlink:href="#transformed-54116" transform="translate(-250, 250)"></use><use xlink:href="#transformed-54116" transform="translate(0, 250)"></use><use xlink:href="#transformed-54116" transform="translate(250, 250)"></use><use xlink:href="#transformed-85395" transform="translate(-250, -250)"></use><use xlink:href="#transformed-85395" transform="translate(0, -250)"></use><use xlink:href="#transformed-85395" transform="translate(250, -250)"></use><use xlink:href="#transformed-85395" transform="translate(-250, 0)"></use><use xlink:href="#transformed-85395" transform="translate(0, 0)"></use><use xlink:href="#transformed-85395" transform="translate(250, 0)"></use><use xlink:href="#transformed-85395" transform="translate(-250, 250)"></use><use xlink:href="#transformed-85395" transform="translate(0, 250)"></use><use xlink:href="#transformed-85395" transform="translate(250, 250)"></use><use xlink:href="#transformed-85587" transform="translate(-250, -250)"></use><use xlink:href="#transformed-85587" transform="translate(0, -250)"></use><use xlink:href="#transformed-85587" transform="translate(250, -250)"></use><use xlink:href="#transformed-85587" transform="translate(-250, 0)"></use><use xlink:href="#transformed-85587" transform="translate(0, 0)"></use><use xlink:href="#transformed-85587" transform="translate(250, 0)"></use><use xlink:href="#transformed-85587" transform="translate(-250, 250)"></use><use xlink:href="#transformed-85587" transform="translate(0, 250)"></use><use xlink:href="#transformed-85587" transform="translate(250, 250)"></use><use xlink:href="#transformed-89916" transform="translate(-250, -250)"></use><use xlink:href="#transformed-89916" transform="translate(0, -250)"></use><use xlink:href="#transformed-89916" transform="translate(250, -250)"></use><use xlink:href="#transformed-89916" transform="translate(-250, 0)"></use><use xlink:href="#transformed-89916" transform="translate(0, 0)"></use><use xlink:href="#transformed-89916" transform="translate(250, 0)"></use><use xlink:href="#transformed-89916" transform="translate(-250, 250)"></use><use xlink:href="#transformed-89916" transform="translate(0, 250)"></use><use xlink:href="#transformed-89916" transform="translate(250, 250)"></use><use xlink:href="#transformed-76766" transform="translate(-250, -250)"></use><use xlink:href="#transformed-76766" transform="translate(0, -250)"></use><use xlink:href="#transformed-76766" transform="translate(250, -250)"></use><use xlink:href="#transformed-76766" transform="translate(-250, 0)"></use><use xlink:href="#transformed-76766" transform="translate(0, 0)"></use><use xlink:href="#transformed-76766" transform="translate(250, 0)"></use><use xlink:href="#transformed-76766" transform="translate(-250, 250)"></use><use xlink:href="#transformed-76766" transform="translate(0, 250)"></use><use xlink:href="#transformed-76766" transform="translate(250, 250)"></use><use xlink:href="#transformed-63414" transform="translate(-250, -250)"></use><use xlink:href="#transformed-63414" transform="translate(0, -250)"></use><use xlink:href="#transformed-63414" transform="translate(250, -250)"></use><use xlink:href="#transformed-63414" transform="translate(-250, 0)"></use><use xlink:href="#transformed-63414" transform="translate(0, 0)"></use><use xlink:href="#transformed-63414" transform="translate(250, 0)"></use><use xlink:href="#transformed-63414" transform="translate(-250, 250)"></use><use xlink:href="#transformed-63414" transform="translate(0, 250)"></use><use xlink:href="#transformed-63414" transform="translate(250, 250)"></use><use xlink:href="#transformed-75052" transform="translate(-250, -250)"></use><use xlink:href="#transformed-75052" transform="translate(0, -250)"></use><use xlink:href="#transformed-75052" transform="translate(250, -250)"></use><use xlink:href="#transformed-75052" transform="translate(-250, 0)"></use><use xlink:href="#transformed-75052" transform="translate(0, 0)"></use><use xlink:href="#transformed-75052" transform="translate(250, 0)"></use><use xlink:href="#transformed-75052" transform="translate(-250, 250)"></use><use xlink:href="#transformed-75052" transform="translate(0, 250)"></use><use xlink:href="#transformed-75052" transform="translate(250, 250)"></use><use xlink:href="#transformed-93791" transform="translate(-250, -250)"></use><use xlink:href="#transformed-93791" transform="translate(0, -250)"></use><use xlink:href="#transformed-93791" transform="translate(250, -250)"></use><use xlink:href="#transformed-93791" transform="translate(-250, 0)"></use><use xlink:href="#transformed-93791" transform="translate(0, 0)"></use><use xlink:href="#transformed-93791" transform="translate(250, 0)"></use><use xlink:href="#transformed-93791" transform="translate(-250, 250)"></use><use xlink:href="#transformed-93791" transform="translate(0, 250)"></use><use xlink:href="#transformed-93791" transform="translate(250, 250)"></use><use xlink:href="#transformed-61044" transform="translate(-250, -250)"></use><use xlink:href="#transformed-61044" transform="translate(0, -250)"></use><use xlink:href="#transformed-61044" transform="translate(250, -250)"></use><use xlink:href="#transformed-61044" transform="translate(-250, 0)"></use><use xlink:href="#transformed-61044" transform="translate(0, 0)"></use><use xlink:href="#transformed-61044" transform="translate(250, 0)"></use><use xlink:href="#transformed-61044" transform="translate(-250, 250)"></use><use xlink:href="#transformed-61044" transform="translate(0, 250)"></use><use xlink:href="#transformed-61044" transform="translate(250, 250)"></use><use xlink:href="#transformed-66875" transform="translate(-250, -250)"></use><use xlink:href="#transformed-66875" transform="translate(0, -250)"></use><use xlink:href="#transformed-66875" transform="translate(250, -250)"></use><use xlink:href="#transformed-66875" transform="translate(-250, 0)"></use><use xlink:href="#transformed-66875" transform="translate(0, 0)"></use><use xlink:href="#transformed-66875" transform="translate(250, 0)"></use><use xlink:href="#transformed-66875" transform="translate(-250, 250)"></use><use xlink:href="#transformed-66875" transform="translate(0, 250)"></use><use xlink:href="#transformed-66875" transform="translate(250, 250)"></use><use xlink:href="#transformed-24585" transform="translate(-250, -250)"></use><use xlink:href="#transformed-24585" transform="translate(0, -250)"></use><use xlink:href="#transformed-24585" transform="translate(250, -250)"></use><use xlink:href="#transformed-24585" transform="translate(-250, 0)"></use><use xlink:href="#transformed-24585" transform="translate(0, 0)"></use><use xlink:href="#transformed-24585" transform="translate(250, 0)"></use><use xlink:href="#transformed-24585" transform="translate(-250, 250)"></use><use xlink:href="#transformed-24585" transform="translate(0, 250)"></use><use xlink:href="#transformed-24585" transform="translate(250, 250)"></use><use xlink:href="#transformed-75079" transform="translate(-250, -250)"></use><use xlink:href="#transformed-75079" transform="translate(0, -250)"></use><use xlink:href="#transformed-75079" transform="translate(250, -250)"></use><use xlink:href="#transformed-75079" transform="translate(-250, 0)"></use><use xlink:href="#transformed-75079" transform="translate(0, 0)"></use><use xlink:href="#transformed-75079" transform="translate(250, 0)"></use><use xlink:href="#transformed-75079" transform="translate(-250, 250)"></use><use xlink:href="#transformed-75079" transform="translate(0, 250)"></use><use xlink:href="#transformed-75079" transform="translate(250, 250)"></use></svg>