<svg id="Layer_3" enable-background="new 0 0 64 64" height="512" viewBox="0 0 64 64" width="512" xmlns="http://www.w3.org/2000/svg"><g><path d="m28 16h24v46h-24z" fill="#f7d881"/><path d="m39 54.705v1.295c0 3.314-6.268 6-14 6s-14-2.686-14-6v-1.295" fill="#a8b0bc"/><path d="m48 38v-14h-16v2l-.014.022c1.529.966 2.863 2.252 3.897 3.802l1.549 2.324.045-.03c6.332 1.247 10.523 3.416 10.523 5.882z" fill="#e39854"/><path d="m48 38c0 11.046-8.954 20-20 20h-6c-11.046 0-20-8.954-20-20" fill="#8892a0"/><path d="m37.477 32.118c6.332 1.247 10.523 3.416 10.523 5.882 0 3.866-10.297 7-23 7s-23-3.134-23-7c0-2.476 4.223-4.652 10.597-5.896" fill="#758190"/><path d="m43.972 41.958-8.089-12.134c-2.426-3.638-6.51-5.824-10.883-5.824-4.373 0-8.457 2.186-10.883 5.824l-8.089 12.134c4.145 1.837 11.096 3.042 18.972 3.042s14.827-1.205 18.972-3.042z" fill="#d5cec2"/><path d="m57 16v43l5 3v-46z" fill="#cbc3b6"/><path d="m57 16v43l-5 3v-46z" fill="#e7e4dd"/><path d="m52 16 5-8 5 8z" fill="#f7d881"/><path d="m28 16 7-8h22l-5 8z" fill="#f2c351"/><path d="m57 8v-6h-22v6" fill="#f7d881"/><g><path d="m28 28.999h2v1.999h-2z" fill="#e7e4dd"/></g><g><path d="m18 31.999h2v1.999h-2z" fill="#e7e4dd"/></g><g><path d="m24 37.999h2v1.999h-2z" fill="#e7e4dd"/></g><g><path d="m33 35.999h2v1.999h-2z" fill="#e7e4dd"/></g><g><path d="m13 37.999h2v1.999h-2z" fill="#e7e4dd"/></g></g></svg>