<svg version="1.1"
      xmlns="http://www.w3.org/2000/svg"
      xmlns:xlink="http://www.w3.org/1999/xlink"  id="snapshot-44908" width="250" height="250" viewBox="0 0 250 250"><desc>This image was made on Patterninja.com</desc><defs>
<!-- image 54116 -->
<g id="transformed-54116" data-image="54116" transform="translate(26.000000000000004, 22) rotate(0, 19.999999999999996, 20)"><g><svg version="1.1" width="39.99999999999999px" height="40px" viewBox="0 0 39.99999999999999 40"><g id="original-54116"><svg xmlns="http://www.w3.org/2000/svg" viewBox="0 0 512 512" xmlns:xlink="http://www.w3.org/1999/xlink" version="1.1" preserveAspectRatio="xMidYMid meet">
  <path d="M495.484 90.839H16.516L7.817 101v294.151c0 9.122 7.395 16.516 16.516 16.516H502l10-7.021v-297.29c0-9.123-7.395-16.517-16.516-16.517z" fill="rgba(149, 204, 129, 1)" stroke="none"/>
  <path d="M16.516 355.097V90.839C7.395 90.839 0 98.233 0 107.355v297.29c0 9.122 7.395 16.516 16.516 16.516h478.968c9.121 0 16.516-7.395 16.516-16.516H66.065c-27.365 0-49.549-22.183-49.549-49.548z" fill="rgba(125, 189, 128, 1)" stroke="none"/>
  <path d="M440.141 252.473L264.588 145.614a16.515 16.515 0 0 0-17.175 0L71.859 252.473c-2.643 1.609-2.643 5.446 0 7.054l175.553 106.859a16.515 16.515 0 0 0 17.175 0L440.14 259.527c2.644-1.609 2.644-5.445.001-7.054z" fill="rgba(255, 224, 125, 1)" stroke="none"/>
  <path d="M256 189.936c-24.565 0-45.998 13.407-57.382 33.302l-6.616 16.302a66.202 66.202 0 0 0-2.067 16.459c0 36.486 29.578 66.064 66.064 66.064 29.834 0 55.05-19.776 63.252-46.935l2.792-17.509c.013-.539.02-1.079.02-1.62.001-36.485-29.577-66.063-66.063-66.063z" fill="rgba(80, 85, 160, 1)" stroke="none"/>
  <path d="M192.002 239.541c45.894.372 89.785 12.681 127.25 35.589a65.88 65.88 0 0 0 2.792-17.509c-36.905-21.207-79.232-33.007-123.427-34.382a65.78 65.78 0 0 0-6.615 16.302z" fill="rgba(255, 255, 255, 1)" stroke="none"/>
</svg>
</g></svg></g></g>
<!-- /image 54116 -->

<!-- image 85395 -->
<g id="transformed-85395" data-image="85395" transform="translate(26, 22) rotate(0, 20, 20)"><g><svg version="1.1" width="40px" height="40px" viewBox="0 0 40 40"><g id="original-85395"><svg xmlns="http://www.w3.org/2000/svg" viewBox="0 0 512 512" xmlns:xlink="http://www.w3.org/1999/xlink" version="1.1" preserveAspectRatio="xMidYMid meet">
  <path d="M495.484 90.839H16.516L7.817 101v294.151c0 9.122 7.395 16.516 16.516 16.516H502l10-7.021v-297.29c0-9.123-7.395-16.517-16.516-16.517z" fill="rgba(229, 100, 110, 1)" stroke="none"/>
  <path d="M16.516 355.097V90.839C7.395 90.839 0 98.233 0 107.355v297.29c0 9.122 7.395 16.516 16.516 16.516h478.968c9.121 0 16.516-7.395 16.516-16.516H66.065c-27.365 0-49.549-22.183-49.549-49.548z" fill="rgba(219, 70, 85, 1)" stroke="none"/>
  <path d="M144.611 186.742l-26.589-.233-13.055-28.57c-1.233-3.699-6.465-3.699-7.699 0l-9.528 28.57-30.116.233c-3.899.03-5.516 5.006-2.379 7.323l24.227 17.891-9.084 28.714c-1.176 3.718 3.056 6.793 6.229 4.526l24.502-17.513 24.502 17.513c3.172 2.267 7.405-.808 6.229-4.526l-9.084-28.714 24.227-17.891c3.134-2.317 1.517-7.293-2.382-7.323z" fill="rgba(255, 224, 125, 1)" stroke="none"/>
  <path d="M176.121 133.827l-5.431-.048-3.653-7.995a5.04 5.04 0 0 0-9.367.5l-2.499 7.494-7.223.056c-4.63.036-6.55 5.944-2.825 8.695l5.81 4.291-2.179 6.886c-1.397 4.414 3.629 8.066 7.396 5.374l5.876-4.2 5.876 4.2c3.767 2.692 8.793-.959 7.396-5.374l-2.179-6.886 5.822-4.299c3.722-2.748 1.807-8.654-2.82-8.694z" fill="rgba(255, 224, 125, 1)" stroke="none"/>
  <path d="M176.121 264.924l-5.431-.048-3.653-7.995a5.04 5.04 0 0 0-9.367.5l-2.499 7.494-7.223.056c-4.63.036-6.55 5.944-2.825 8.695l5.81 4.291-2.179 6.886c-1.397 4.414 3.629 8.066 7.396 5.374l5.876-4.2 5.876 4.2c3.767 2.692 8.793-.959 7.396-5.374l-2.179-6.886 5.822-4.299c3.722-2.749 1.807-8.654-2.82-8.694z" fill="rgba(255, 224, 125, 1)" stroke="none"/>
  <path d="M214.658 224.321l-5.431-.048-3.653-7.995a5.04 5.04 0 0 0-9.367.5l-2.499 7.494-7.223.056c-4.63.036-6.55 5.944-2.825 8.695l5.81 4.291-2.179 6.886c-1.397 4.414 3.63 8.066 7.396 5.374l5.876-4.2 5.876 4.2c3.767 2.692 8.793-.959 7.396-5.374l-2.179-6.886 5.822-4.299c3.723-2.748 1.807-8.653-2.82-8.694z" fill="rgba(255, 224, 125, 1)" stroke="none"/>
  <path d="M214.658 170.644l-5.431-.048-3.653-7.995a5.04 5.04 0 0 0-9.367.5l-2.499 7.494-7.223.056c-4.63.036-6.55 5.944-2.825 8.695l5.81 4.291-2.179 6.886c-1.397 4.414 3.63 8.066 7.396 5.374l5.876-4.2 5.876 4.2c3.767 2.692 8.793-.959 7.396-5.374l-2.179-6.886 5.822-4.299c3.723-2.748 1.807-8.653-2.82-8.694z" fill="rgba(255, 224, 125, 1)" stroke="none"/>
</svg>
</g></svg></g></g>
<!-- /image 85395 -->

<!-- image 85587 -->
<g id="transformed-85587" data-image="85587" transform="translate(26.00000000000001, 22) rotate(0, 19.99999999999999, 20)"><g><svg version="1.1" width="39.99999999999998px" height="40px" viewBox="0 0 39.99999999999998 40"><g id="original-85587"><svg xmlns="http://www.w3.org/2000/svg" viewBox="0 0 512 512" xmlns:xlink="http://www.w3.org/1999/xlink" version="1.1" preserveAspectRatio="xMidYMid meet">
  <path d="M170.667 90.839H16.516l-6.032 16.516v289.796c0 9.121 7.395 16.516 16.516 16.516h143.667l19.269-17.283V115.616z" fill="rgba(80, 85, 160, 1)" stroke="none"/>
  <path d="M341.333 413.5h154.151L512 404.645v-297.29c0-9.121-7.395-16.516-16.516-16.516H341.333l-19.269 24.778v280.768z" fill="rgba(229, 100, 110, 1)" stroke="none"/>
  <path d="M512 404.645H328.489l12.844 16.516h154.151c9.121 0 16.516-7.394 16.516-16.516z" fill="rgba(219, 70, 85, 1)" stroke="none"/>
  <path d="M16.516 355.097V90.839C7.395 90.839 0 98.233 0 107.355v297.29c0 9.122 7.395 16.516 16.516 16.516h154.151l12.844-16.516H66.065c-27.365 0-49.549-22.183-49.549-49.548z" fill="rgba(63, 63, 143, 1)" stroke="none"/>
  <path d="M187.333 413.667h141l13-9.022V90.839H170.667v313.806z" fill="rgba(242, 242, 246, 1)" stroke="none"/>
  <path d="M170.667 404.645h170.666v16.516H170.667z" fill="rgba(225, 225, 230, 1)" stroke="none"/>
</svg>
</g></svg></g></g>
<!-- /image 85587 -->

<!-- image 89916 -->
<g id="transformed-89916" data-image="89916" transform="translate(26, 22.000000000000018) rotate(0, 20, 19.999999999999982)"><g><svg version="1.1" width="40px" height="39.999999999999964px" viewBox="0 0 40 39.999999999999964"><g id="original-89916"><svg xmlns="http://www.w3.org/2000/svg" viewBox="0 0 512 512" xmlns:xlink="http://www.w3.org/1999/xlink" version="1.1" preserveAspectRatio="xMidYMid meet">
  <path d="M512 200.946v-93.591c0-9.122-7.395-16.516-16.516-16.516H16.516l-8.849 16.516v93.591l17.104 22.022h462.456z" fill="rgba(93, 83, 96, 1)" stroke="none"/>
  <path d="M0 107.355v93.591l16.516 14.683V90.839C7.395 90.839 0 98.233 0 107.355z" fill="rgba(75, 63, 78, 1)" stroke="none"/>
  <path d="M7.817 311.054v86.43c0 9.122 7.395 16.516 16.516 16.516h471.151L512 404.645v-93.591l-24.77-22.022H24.774z" fill="rgba(255, 224, 125, 1)" stroke="none"/>
  <path d="M16.516 355.097v-58.724L0 311.054v93.591c0 9.122 7.395 16.516 16.516 16.516h478.968c9.121 0 16.516-7.394 16.516-16.516H66.065c-27.365 0-49.549-22.183-49.549-49.548z" fill="rgba(255, 208, 100, 1)" stroke="none"/>
  <path d="M8.667 297l7.849 14.053H512V200.946H16.516l-7.849 17.387z" fill="rgba(229, 100, 110, 1)" stroke="none"/>
  <path d="M0 200.946h16.516v110.107H0z" fill="rgba(219, 70, 85, 1)" stroke="none"/>
</svg>
</g></svg></g></g>
<!-- /image 89916 -->

<!-- image 61286 -->
<g id="transformed-61286" data-image="61286" transform="translate(26.000000000000014, 22) rotate(0, 19.999999999999986, 20)"><g><svg version="1.1" width="39.99999999999997px" height="40px" viewBox="0 0 39.99999999999997 40"><g id="original-61286"><svg xmlns="http://www.w3.org/2000/svg" viewBox="0 0 512 512" xmlns:xlink="http://www.w3.org/1999/xlink" version="1.1" preserveAspectRatio="xMidYMid meet">
  <path d="M170.667 90.839H16.516l-6.032 16.516v289.796c0 9.121 7.395 16.516 16.516 16.516h143.667l19.269-17.283V115.616z" fill="rgba(149, 204, 129, 1)" stroke="none"/>
  <path d="M341.333 413.5h154.151L512 404.645v-297.29c0-9.121-7.395-16.516-16.516-16.516H341.333l-19.269 24.778v280.768z" fill="rgba(229, 100, 110, 1)" stroke="none"/>
  <path d="M512 404.645H328.489l12.844 16.516h154.151c9.121 0 16.516-7.394 16.516-16.516z" fill="rgba(219, 70, 85, 1)" stroke="none"/>
  <path d="M16.516 355.097V90.839C7.395 90.839 0 98.233 0 107.355v297.29c0 9.122 7.395 16.516 16.516 16.516h154.151l12.844-16.516H66.065c-27.365 0-49.549-22.183-49.549-49.548z" fill="rgba(125, 189, 128, 1)" stroke="none"/>
  <path d="M187.333 413.667h141l13-9.022V90.839H170.667v313.806z" fill="rgba(242, 242, 246, 1)" stroke="none"/>
  <path d="M170.667 404.645h170.666v16.516H170.667z" fill="rgba(225, 225, 230, 1)" stroke="none"/>
</svg>
</g></svg></g></g>
<!-- /image 61286 -->

<!-- image 06966 -->
<g id="transformed-06966" data-image="06966" transform="translate(111.00000000000001, 13) rotate(0, 22.99999999999999, 25)"><g><svg version="1.1" width="45.99999999999998px" height="50px" viewBox="0 0 45.99999999999998 50"><g id="original-06966"><svg xmlns="http://www.w3.org/2000/svg" viewBox="0 -51 612 612" xmlns:xlink="http://www.w3.org/1999/xlink" version="1.1" preserveAspectRatio="xMidYMid meet">
  <path d="M581.398 499.8H30.602V285.603L306 40.8l275.398 244.8zm0 0" fill="rgba(245, 174, 69, 1)" stroke="none"/>
  <path d="M306 428.398c11.266 0 20.398 9.133 20.398 20.403v51h-40.796v-51c0-11.27 9.132-20.403 20.398-20.403zm0 0" fill="rgba(153, 110, 81, 1)" stroke="none"/>
  <path d="M306 295.8c11.266 0 20.398 9.134 20.398 20.4V357h-40.796v-40.8c0-11.266 9.132-20.4 20.398-20.4zm0 0" fill="rgba(153, 110, 81, 1)" stroke="none"/>
  <path d="M326.398 224.398h-40.796v-28.191A36.9 36.9 0 0 1 306 163.199a36.9 36.9 0 0 1 20.398 33.008zm0 0" fill="rgba(153, 110, 81, 1)" stroke="none"/>
  <path d="M132.602 428.398c11.265 0 20.398 9.133 20.398 20.403v51h-40.8v-51c0-11.27 9.132-20.403 20.402-20.403zm0 0" fill="rgba(153, 110, 81, 1)" stroke="none"/>
  <path d="M153 357h-40.8v-28.191a36.9 36.9 0 0 1 20.402-33.008A36.903 36.903 0 0 1 153 328.809zm0 0" fill="rgba(153, 110, 81, 1)" stroke="none"/>
  <path d="M499.8 499.8H459v-51c0-11.269 9.133-20.402 20.398-20.402 11.27 0 20.403 9.133 20.403 20.403zm0 0" fill="rgba(153, 110, 81, 1)" stroke="none"/>
  <path d="M459 357h40.8v-28.191a36.9 36.9 0 0 0-20.402-33.008A36.903 36.903 0 0 0 459 328.809zm0 0" fill="rgba(153, 110, 81, 1)" stroke="none"/>
  <path d="M0 489.602h612V510H0zm0 0" fill="rgba(250, 188, 95, 1)" stroke="none"/>
  <path d="M265.2 346.8h81.6v20.4h-81.6zm0 0" fill="rgba(250, 188, 95, 1)" stroke="none"/>
  <path d="M265.2 214.2h81.6v20.402h-81.6zm0 0" fill="rgba(250, 188, 95, 1)" stroke="none"/>
  <path d="M224.398 102H204V0h-20.398v499.8H244.8V0h-20.403zm0 0" fill="rgba(250, 188, 95, 1)" stroke="none"/>
  <path d="M61.2 244.8H40.8v-102H20.399v357h61.204v-357H61.199zm0 0" fill="rgba(250, 188, 95, 1)" stroke="none"/>
  <path d="M408 102h-20.398V0h-20.403v499.8h61.2V0H408zm0 0" fill="rgba(250, 188, 95, 1)" stroke="none"/>
  <path d="M571.2 142.8v102h-20.4v-102h-20.402v357h61.204v-357zm0 0" fill="rgba(250, 188, 95, 1)" stroke="none"/>
  <path d="M0 448.8h71.398v20.4H0zm0 0" fill="rgba(250, 188, 95, 1)" stroke="none"/>
  <path d="M540.602 448.8H612v20.4h-71.398zm0 0" fill="rgba(250, 188, 95, 1)" stroke="none"/>
  <path d="M316.2 122.398v-72.53L306 40.8l-10.2 9.066v72.531zm0 0" fill="rgba(240, 158, 38, 1)" stroke="none"/>
  <path d="M275.398 122.398V68.004L255 86.129v36.27zm0 0" fill="rgba(240, 158, 38, 1)" stroke="none"/>
  <path d="M357 122.398v-36.27l-20.398-18.124v54.394zm0 0" fill="rgba(240, 158, 38, 1)" stroke="none"/>
  <path d="M163.2 255v-87.27l-20.4 18.133V255zm0 0" fill="rgba(240, 158, 38, 1)" stroke="none"/>
  <path d="M122.398 255v-51L102 222.137V255zm0 0" fill="rgba(240, 158, 38, 1)" stroke="none"/>
  <path d="M469.2 255v-69.137l-20.4-18.133V255zm0 0" fill="rgba(240, 158, 38, 1)" stroke="none"/>
  <path d="M510 255v-32.863L489.602 204v51zm0 0" fill="rgba(240, 158, 38, 1)" stroke="none"/>
  <path d="M448.8 346.8H510v20.4h-61.2zm0 0" fill="rgba(250, 188, 95, 1)" stroke="none"/>
  <path d="M102 346.8h61.2v20.4H102zm0 0" fill="rgba(250, 188, 95, 1)" stroke="none"/>
  <path d="M265.2 367.2h81.6v20.402h-81.6zm0 0" fill="rgba(240, 158, 38, 1)" stroke="none"/>
  <path d="M265.2 234.602h81.6V255h-81.6zm0 0" fill="rgba(240, 158, 38, 1)" stroke="none"/>
  <path d="M448.8 367.2H510v20.402h-61.2zm0 0" fill="rgba(240, 158, 38, 1)" stroke="none"/>
  <path d="M102 367.2h61.2v20.402H102zm0 0" fill="rgba(240, 158, 38, 1)" stroke="none"/>
  <path d="M20.398 469.2h61.204v20.402H20.398zm0 0" fill="rgba(245, 174, 69, 1)" stroke="none"/>
  <path d="M183.602 469.2H244.8v20.402h-61.2zm0 0" fill="rgba(245, 174, 69, 1)" stroke="none"/>
  <path d="M530.398 469.2h61.204v20.402h-61.204zm0 0" fill="rgba(245, 174, 69, 1)" stroke="none"/>
  <path d="M20.398 275.398h61.204v20.403H20.398zm0 0" fill="rgba(245, 174, 69, 1)" stroke="none"/>
  <path d="M183.602 275.398H244.8v20.403h-61.2zm0 0" fill="rgba(245, 174, 69, 1)" stroke="none"/>
  <path d="M367.2 275.398h61.198v20.403H367.2zm0 0" fill="rgba(245, 174, 69, 1)" stroke="none"/>
  <path d="M530.398 275.398h61.204v20.403h-61.204zm0 0" fill="rgba(245, 174, 69, 1)" stroke="none"/>
  <path d="M20.398 367.2h61.204v20.402H20.398zm0 0" fill="rgba(245, 174, 69, 1)" stroke="none"/>
  <path d="M183.602 367.2H244.8v20.402h-61.2zm0 0" fill="rgba(245, 174, 69, 1)" stroke="none"/>
  <path d="M530.398 367.2h61.204v20.402h-61.204zm0 0" fill="rgba(245, 174, 69, 1)" stroke="none"/>
  <path d="M183.602 142.8H244.8v20.4h-61.2zm0 0" fill="rgba(245, 174, 69, 1)" stroke="none"/>
  <path d="M367.2 142.8h61.198v20.4H367.2zm0 0" fill="rgba(245, 174, 69, 1)" stroke="none"/>
  <path d="M367.2 367.2h61.198v20.402H367.2zm0 0" fill="rgba(245, 174, 69, 1)" stroke="none"/>
  <path d="M367.2 469.2h61.198v20.402H367.2zm0 0" fill="rgba(245, 174, 69, 1)" stroke="none"/>
</svg>
</g></svg></g></g>
<!-- /image 06966 -->

<!-- image 19784 -->
<g id="transformed-19784" data-image="19784" transform="translate(196, 17.000000000000004) rotate(0, 22, 21.999999999999996)"><g><svg version="1.1" width="44px" height="43.99999999999999px" viewBox="0 0 44 43.99999999999999"><g id="original-19784"><svg xmlns="http://www.w3.org/2000/svg" viewBox="0 0 128 128" xmlns:xlink="http://www.w3.org/1999/xlink" version="1.1" preserveAspectRatio="xMidYMid meet">
  <path d="M6.306 93.295h115.387v10.339H6.306z" fill="rgba(239, 56, 41, 1)" stroke="none"/>
  <path d="M108.453 103.634a21.475 21.475 0 0 1-19.607 12.717H39.154a21.475 21.475 0 0 1-19.607-12.717z" fill="rgba(239, 56, 41, 1)" stroke="none"/>
  <path d="M56.638 38.735h3.485a8.106 8.106 0 0 0 6.2-2.88l4.423-5.244 45.174 2.577a5.543 5.543 0 1 0 0-11.077l-45.177 2.576-4.423-5.244a8.109 8.109 0 0 0-6.2-2.88h-3.482z" fill="rgba(242, 231, 203, 1)" stroke="none"/>
  <path d="M64 68.822q-3.75 0-7.362.271V15.91a4.261 4.261 0 0 0-4.26-4.261h-18a4.261 4.261 0 0 0-4.26 4.261V75.4l.025-.006c-9.813 4.441-16.31 10.777-17.3 17.9h102.314C113.248 79.615 91.073 68.822 64 68.822z" fill="rgba(255, 222, 62, 1)" stroke="none"/>
  <path d="M49.279 11.65v58.28c-1.19.18-2.36.38-3.5.61V11.65z" fill="rgba(239, 203, 55, 1)" stroke="none"/>
  <path d="M40.979 11.65v59.98c-1.2.3-2.36.63-3.5 1V11.65z" fill="rgba(239, 203, 55, 1)" stroke="none"/>
  <path d="M23.554 93.3C26.62 84.831 44.158 78.269 64 78.269s37.379 6.562 40.446 15.026h3.681a9.495 9.495 0 0 0-.167-.551C104.844 82.325 86.376 74.769 64 74.769c-22.419 0-40.914 7.584-43.954 17.962a7.093 7.093 0 0 0-.158.564z" fill="rgba(239, 203, 55, 1)" stroke="none"/>
  <path d="M34 93.3c2.269-3.7 14.323-7.456 30-7.456s27.733 3.75 30 7.456h3.744a3.524 3.524 0 0 0-.167-.561h.013c-1.706-5-12.945-10.391-33.592-10.391S32.114 87.726 30.4 92.754a5.362 5.362 0 0 0-.139.541z" fill="rgba(239, 203, 55, 1)" stroke="none"/>
</svg>
</g></svg></g></g>
<!-- /image 19784 -->

<!-- image 86215 -->
<g id="transformed-86215" data-image="86215" transform="translate(27.000000000000004, 99) rotate(0, 22.999999999999996, 23)"><g><svg version="1.1" width="45.99999999999999px" height="46px" viewBox="0 0 45.99999999999999 46"><g id="original-86215"><svg xmlns="http://www.w3.org/2000/svg" viewBox="0 0 512 512" xmlns:xlink="http://www.w3.org/1999/xlink" version="1.1" preserveAspectRatio="xMidYMid meet">
  <path d="M512 294.406v-70.935c0-17.033-10.986-32.122-27.195-37.353l-36.509-11.783a40.945 40.945 0 0 1-18.891-12.767l-19.827-23.811a40.954 40.954 0 0 0-24.315-14.117l-28.285-5.018a40.949 40.949 0 0 1-28.477-20.137l-24.182-42.691c-7.662-13.526-21.859-22.106-37.402-22.426-3.62-.074-7.259-.112-10.917-.112C114.615 33.255 0 88.645 0 156.971v137.434h512z" fill="rgba(199, 150, 130, 1)" stroke="none"/>
  <path d="M450.467 179.099C398.006 153.746 328.944 139.784 256 139.784s-142.006 13.962-194.467 39.315C35.907 191.482 15.247 206.115 0 222.389v72.017h512v-70.935c0-.37-.012-.738-.023-1.105-15.243-16.264-35.896-30.89-61.51-43.267z" fill="rgba(148, 111, 97, 1)" stroke="none"/>
  <path d="M256 75.058c-20.649 0-37.388 16.739-37.388 37.388v83.872h74.776v-83.872c0-20.648-16.739-37.388-37.388-37.388z" fill="rgba(59, 72, 74, 1)" stroke="none"/>
  <path d="M137.091 110.368a32.98 32.98 0 0 0-17.424 29.081v68.868l50.666-17.101v-60.929c0-17.065-18.195-27.967-33.242-19.919z" fill="rgba(59, 72, 74, 1)" stroke="none"/>
  <path d="M47.07 157.009a31.678 31.678 0 0 0-16.737 27.933v66.149L79 225.06v-48.919c-.001-16.39-17.477-26.862-31.93-19.132z" fill="rgba(59, 72, 74, 1)" stroke="none"/>
  <path d="M293.388 141.03a562.5 562.5 0 0 0-37.387-1.247c-12.602 0-25.084.426-37.388 1.247v55.289h74.776V141.03z" fill="rgba(51, 62, 64, 1)" stroke="none"/>
  <path d="M170.333 146.453c-17.572 2.818-34.532 6.51-50.666 11.022v50.843l50.666-17.101v-44.764z" fill="rgba(51, 62, 64, 1)" stroke="none"/>
  <path d="M78.999 176.141c0-1.596-.17-3.134-.483-4.606a309.969 309.969 0 0 0-16.984 7.564c-11.398 5.508-21.807 11.463-31.2 17.808v54.186l48.667-26.032v-48.92z" fill="rgba(51, 62, 64, 1)" stroke="none"/>
  <path d="M0 431.839V294.406c0-68.327 114.615-123.717 256-123.717s256 55.39 256 123.717V431.84H0v-.001z" fill="rgba(174, 131, 114, 1)" stroke="none"/>
  <path d="M512 359.826c-15.247-16.274-35.908-30.908-61.535-43.291-52.461-25.353-121.523-39.316-194.465-39.316s-142.004 13.962-194.465 39.316C35.908 328.919 15.247 343.553 0 359.826v72.014h512v-72.014z" fill="rgba(148, 111, 97, 1)" stroke="none"/>
  <path d="M137.091 247.802a32.98 32.98 0 0 0-17.424 29.081v68.868l50.666-17.101v-60.93c0-17.064-18.195-27.966-33.242-19.918z" fill="rgba(59, 72, 74, 1)" stroke="none"/>
  <path d="M47.07 294.444a31.678 31.678 0 0 0-16.737 27.933v66.149L79 362.495v-48.919c-.001-16.391-17.477-26.863-31.93-19.132z" fill="rgba(59, 72, 74, 1)" stroke="none"/>
  <g>
    <path d="M170.333 283.889c-17.572 2.818-34.532 6.51-50.666 11.022v50.84l50.666-17.101v-44.761z" fill="rgba(51, 62, 64, 1)" stroke="none"/>
    <path d="M78.999 313.575c0-1.595-.17-3.133-.482-4.604a309.93 309.93 0 0 0-16.983 7.563c-11.398 5.508-21.808 11.464-31.201 17.809v54.183L79 362.494v-48.919h-.001z" fill="rgba(51, 62, 64, 1)" stroke="none"/>
  </g>
  <g>
    <path d="M374.909 247.802a32.98 32.98 0 0 1 17.424 29.081v68.868l-50.666-17.101v-60.93c0-17.064 18.195-27.966 33.242-19.918z" fill="rgba(59, 72, 74, 1)" stroke="none"/>
    <path d="M464.93 294.444a31.678 31.678 0 0 1 16.737 27.933v66.149L433 362.495v-48.919c.001-16.391 17.477-26.863 31.93-19.132z" fill="rgba(59, 72, 74, 1)" stroke="none"/>
  </g>
  <g>
    <path d="M341.667 283.889c17.572 2.818 34.532 6.51 50.666 11.022v50.84l-50.666-17.101v-44.761z" fill="rgba(51, 62, 64, 1)" stroke="none"/>
    <path d="M433.001 313.575c0-1.595.17-3.133.482-4.604a309.93 309.93 0 0 1 16.983 7.563c11.398 5.508 21.808 11.464 31.201 17.809v54.183L433 362.494v-48.919h.001z" fill="rgba(51, 62, 64, 1)" stroke="none"/>
  </g>
  <path d="M30.331 478.744H0v-46.9c0-68.33 114.62-123.72 256-123.72s256 55.39 256 123.72v46.9h-30.33l-24.335-24.733L433 478.744h-40.669l-25.33-24.733-25.33 24.733h-48.279L256 454.012l-37.39 24.733h-48.28L145 456.587l-25.33 22.157H79l-24.335-24.733-24.334 24.733z" fill="rgba(174, 131, 114, 1)" stroke="none"/>
  <g>
    <path d="M293.39 387.315v91.43h-74.78v-91.43c0-20.65 16.74-37.39 37.39-37.39 20.651-.001 37.39 16.74 37.39 37.39z" fill="rgba(59, 72, 74, 1)" stroke="none"/>
    <path d="M170.33 405.154v73.59h-50.66v-64.43c0-12.16 6.69-23.34 17.42-29.08 15.05-8.05 33.24 2.86 33.24 19.92z" fill="rgba(59, 72, 74, 1)" stroke="none"/>
    <path d="M79 451.005v27.74H30.33v-18.93c0-11.69 6.44-22.43 16.74-27.94 14.45-7.73 31.93 2.739 31.93 19.13z" fill="rgba(59, 72, 74, 1)" stroke="none"/>
    <path d="M392.33 414.315v64.43h-50.66v-73.59c0-17.06 18.19-27.97 33.24-19.92a32.975 32.975 0 0 1 17.42 29.08z" fill="rgba(59, 72, 74, 1)" stroke="none"/>
    <path d="M481.67 459.815v18.93H433v-27.74c0-16.39 17.48-26.86 31.929-19.13a31.69 31.69 0 0 1 16.741 27.94z" fill="rgba(59, 72, 74, 1)" stroke="none"/>
    <path d="M170.333 232.628a7.726 7.726 0 0 1-7.726-7.726v-15.504a7.726 7.726 0 1 1 15.452 0v15.504a7.726 7.726 0 0 1-7.726 7.726z" fill="rgba(59, 72, 74, 1)" stroke="none"/>
    <path d="M341.667 232.628a7.726 7.726 0 0 1-7.726-7.726v-15.504a7.726 7.726 0 1 1 15.452 0v15.504a7.727 7.727 0 0 1-7.726 7.726z" fill="rgba(59, 72, 74, 1)" stroke="none"/>
    <path d="M256 240.903c-10.471 0-20.298-4.372-26.961-11.996a7.726 7.726 0 1 1 11.634-10.17c3.729 4.266 9.315 6.714 15.326 6.714 6.01 0 11.597-2.447 15.326-6.713a7.725 7.725 0 0 1 10.902-.732 7.725 7.725 0 0 1 .732 10.902c-6.662 7.623-16.489 11.995-26.959 11.995z" fill="rgba(59, 72, 74, 1)" stroke="none"/>
  </g>
</svg>
</g></svg></g></g>
<!-- /image 86215 -->

<!-- image 06901 -->
<g id="transformed-06901" data-image="06901" transform="translate(114, 99.09200000000001) rotate(0, 23, 22.907999999999994)"><g><svg version="1.1" width="46px" height="45.81599999999999px" viewBox="0 0 46 45.81599999999999"><g id="original-06901"><svg xmlns="http://www.w3.org/2000/svg" viewBox="-1 0 512 512" xmlns:xlink="http://www.w3.org/1999/xlink" version="1.1" preserveAspectRatio="xMidYMid meet">
  <path d="M255.488 256H5.734c-3.992 4.46-6.066 10.39-5.691 16.363 5.05 79.969 47.395 152.551 113.562 196.696a22.356 22.356 0 0 0 16.985 3.257c0 .004 0 .008.004.012zm0 0" fill="rgba(255, 160, 0, 1)" stroke="none"/>
  <path d="M130.59 39.672c0 .004 0 .004-.004.008-5.852-1.227-12.012-.055-16.98 3.261C47.495 87.051 5.097 159.601.042 239.637c-.375 5.972 1.7 11.902 5.691 16.363h249.754zm0 0" fill="rgba(255, 160, 0, 1)" stroke="none"/>
  <path d="M380.387 39.672c-1.856-5.676-5.926-10.43-11.262-13.078-71.414-35.446-155.797-35.473-227.27 0-5.34 2.648-9.406 7.402-11.261 13.078L255.488 256zm0 0" fill="rgba(255, 160, 0, 1)" stroke="none"/>
  <path d="M130.594 472.328c1.855 5.676 5.922 10.43 11.261 13.078 71.41 35.442 155.797 35.473 227.27 0 11.574-5.742 15.832-20.156 9.375-31.347L268.477 263.5l-12.989-7.5zm0 0" fill="rgba(255, 160, 0, 1)" stroke="none"/>
  <path d="M510.934 239.637c-5.047-79.973-47.395-152.551-113.559-196.696-4.969-3.316-11.129-4.488-16.984-3.261 0-.004-.004-.008-.004-.008L255.488 256l12.989 7.5h219.996c12.957 0 23.277-10.953 22.46-23.863zm0 0" fill="rgba(255, 160, 0, 1)" stroke="none"/>
  <path d="M203.95 256L90.827 451.934a254.972 254.972 0 0 0 22.777 17.125 22.35 22.35 0 0 0 16.98 3.257c.005.004.005.008.005.012L255.488 256zm0 0" fill="rgba(245, 124, 0, 1)" stroke="none"/>
  <path d="M130.59 39.672c0 .004 0 .004-.004.008-5.852-1.227-12.012-.055-16.98 3.261a241.966 241.966 0 0 0-6.836 4.743l108.726 188.32H.328c-.094 1.21-.207 2.422-.285 3.633-.375 5.972 1.7 11.902 5.691 16.363h249.754zm0 0" fill="rgba(245, 124, 0, 1)" stroke="none"/>
  <path d="M369.125 26.594a256.181 256.181 0 0 0-32.027-13.27 22.466 22.466 0 0 1 3.297 6.348L229.719 211.367 255.489 256 380.386 39.672c-1.856-5.676-5.926-10.43-11.262-13.078zm0 0" fill="rgba(245, 124, 0, 1)" stroke="none"/>
  <path d="M378.5 454.063L268.477 263.5l-12.989-7.5-9.894 17.137 92.914 160.925c6.457 11.188 2.195 25.602-9.375 31.348-63.137 31.336-134.07 33.906-195.242 13.27 2.078 2.816 4.789 5.152 7.964 6.726 35.5 17.621 73.735 26.555 113.637 26.555 39.903 0 78.133-8.934 113.633-26.555 11.574-5.742 15.832-20.156 9.375-31.343zm0 0" fill="rgba(245, 124, 0, 1)" stroke="none"/>
  <path d="M510.934 239.637c-5.047-79.973-47.395-152.551-113.559-196.696-4.969-3.316-11.129-4.488-16.984-3.261 0-.004-.004-.008-.004-.008l-.23.398c54.136 45.617 86.417 110.407 90.784 179.57.813 12.907-9.503 23.86-22.464 23.86h-185.77l-7.219 12.5 12.989 7.5h219.996c12.957 0 23.277-10.953 22.46-23.863zm0 0" fill="rgba(245, 124, 0, 1)" stroke="none"/>
  <path d="M48.234 256c0 12.395-2.89 24.887-.82 36.691 2.125 12.137 9.145 22.891 13.266 34.211 4.195 11.528 5.765 24.262 11.828 34.739 6.12 10.578 16.398 18.28 24.21 27.582 7.837 9.324 13.653 20.777 22.977 28.609 9.301 7.813 21.575 11.566 32.149 17.684L255.488 256zm0 0" fill="rgba(255, 224, 130, 1)" stroke="none"/>
  <path d="M203.95 256l-90.087 156.04c1.809 2.07 3.73 4.026 5.832 5.792 9.301 7.813 21.575 11.566 32.149 17.684L255.488 256zm0 0" fill="rgba(255, 202, 40, 1)" stroke="none"/>
  <path d="M151.844 435.516c10.441 6.03 19.836 14.851 31.375 19.05 11.324 4.122 24.129 3.446 36.27 5.57 11.804 2.071 23.605 7.118 36 7.118 12.398 0 24.198-5.047 36.003-7.117 12.137-2.125 24.945-1.45 36.27-5.57 5.691-2.075 10.86-5.266 15.89-8.7 8.672-5.91 11.364-17.469 6.118-26.558L255.488 256zm0 0" fill="rgba(255, 224, 130, 1)" stroke="none"/>
  <path d="M255.488 256l-14.222 24.637L319.14 415.52c-13.145 8.09-20.657 15.148-31.371 19.05-11.325 4.121-24.133 3.446-36.274 5.57-11.805 2.067-23.605 7.118-36 7.118-12.394 0-24.195-5.051-36-7.117-8.129-1.422-16.558-1.594-24.637-2.79 9.297 5.891 17.95 13.426 28.36 17.215 11.324 4.121 24.133 3.446 36.273 5.575 11.801 2.066 23.602 7.113 36 7.113 12.395 0 24.196-5.047 36-7.113 12.137-2.13 24.946-1.454 36.27-5.575 5.691-2.07 10.86-5.265 15.89-8.695 8.672-5.914 11.368-17.473 6.121-26.559L255.488 256zm0 0" fill="rgba(255, 202, 40, 1)" stroke="none"/>
  <path d="M151.844 76.484c-10.574 6.118-22.848 9.871-32.149 17.684-9.328 7.832-15.144 19.285-22.976 28.613-7.813 9.301-18.094 17.004-24.211 27.578-6.063 10.477-7.633 23.215-11.828 34.739-4.121 11.324-11.14 22.074-13.266 34.21-2.07 11.805.82 24.297.82 36.692h207.254zm0 0" fill="rgba(255, 224, 130, 1)" stroke="none"/>
  <path d="M151.844 76.484c-7.067 4.086-14.89 7.125-22.082 11.02l68.418 118.504c7.695 13.332-1.926 29.996-17.32 29.996H46.95c.452 6.61 1.284 13.316 1.284 19.996h207.254zm0 0" fill="rgba(255, 202, 40, 1)" stroke="none"/>
  <path d="M327.762 57.434c-11.324-4.121-24.133-3.446-36.27-5.57-11.804-2.071-23.605-7.118-36.004-7.118-12.394 0-24.195 5.047-36 7.117-12.136 2.125-24.945 1.45-36.27 5.57-11.523 4.196-20.89 12.985-31.366 19.047-.004 0-.004.004-.004.004L255.488 256 359.133 76.484l-.004-.004c-10.477-6.062-19.844-14.851-31.367-19.046zm0 0" fill="rgba(255, 224, 130, 1)" stroke="none"/>
  <path d="M359.129 76.48c-10.477-6.062-19.844-14.851-31.367-19.046-2.575-.938-5.23-1.614-7.934-2.141l-90.11 156.074L255.489 256 359.133 76.484zm0 0" fill="rgba(255, 202, 40, 1)" stroke="none"/>
  <path d="M447.602 256c8.343 0 15.3-6.387 16.011-14.707.64-7.461 1.203-14.848-.047-21.984-2.125-12.137-9.148-22.891-13.27-34.211-4.194-11.528-5.76-24.262-11.823-34.743-6.121-10.574-16.399-18.277-24.211-27.578-7.836-9.328-13.653-20.777-22.98-28.609-9.298-7.813-21.571-11.566-32.15-17.684L255.489 256h100.985v50.055c-.004 10.234 8.293 18.527 18.527 18.527 11.836 0 19.668-9.094 19.668-19.098v-6.879c0-6.57 5.328-11.894 11.898-11.894 6.57 0 11.899 5.324 11.899 11.894v53.45c0 8.047 6.523 14.57 14.566 14.57 8.047 0 14.57-6.523 14.57-14.57zm0 0" fill="rgba(255, 224, 130, 1)" stroke="none"/>
  <path d="M463.566 219.309c-2.125-12.137-9.148-22.891-13.27-34.211-4.194-11.528-5.76-24.262-11.823-34.743-6.121-10.574-16.399-18.277-24.211-27.578-7.836-9.328-13.653-20.777-22.98-28.609-9.298-7.813-21.571-11.566-32.15-17.684l-2.007 3.48c6.215 7.106 11.074 15.595 17.14 22.817 7.813 9.301 18.094 17.004 24.212 27.578 6.062 10.477 7.632 23.215 11.828 34.739 4.12 11.324 11.144 22.074 13.27 34.214l.058.356c3.18 19.066-11.836 36.336-31.164 36.336H267.035L255.488 256H407.61v30.762c6.082.527 10.856 5.625 10.856 11.843v53.454c0 8.046 6.523 14.566 14.566 14.566 8.047 0 14.57-6.523 14.57-14.566V256c8.34 0 15.301-6.387 16.012-14.707.64-7.461 1.203-14.848-.047-21.984zm0 0" fill="rgba(255, 202, 40, 1)" stroke="none"/>
  <path d="M262.906 400.105c0 16.418-13.308 29.723-29.722 29.723-16.418 0-29.727-13.305-29.727-29.723s13.309-29.722 29.727-29.722c16.414 0 29.722 13.304 29.722 29.722zm0 0" fill="rgba(239, 83, 80, 1)" stroke="none"/>
  <path d="M170.23 352.969c0 16.418-13.304 29.726-29.722 29.726s-29.723-13.308-29.723-29.726c0-16.414 13.305-29.723 29.723-29.723s29.722 13.309 29.722 29.723zm0 0" fill="rgba(239, 83, 80, 1)" stroke="none"/>
  <path d="M194.691 199.863c0 16.418-13.308 29.727-29.726 29.727-16.414 0-29.723-13.309-29.723-29.727 0-16.414 13.309-29.722 29.723-29.722 16.418 0 29.726 13.308 29.726 29.722zm0 0" fill="rgba(239, 83, 80, 1)" stroke="none"/>
  <path d="M257.102 99.14c0 16.419-13.309 29.727-29.727 29.727s-29.723-13.308-29.723-29.726c0-16.414 13.305-29.723 29.723-29.723s29.727 13.309 29.727 29.723zm0 0" fill="rgba(239, 83, 80, 1)" stroke="none"/>
  <path d="M387.672 135.934c0 8.207-6.656 14.863-14.863 14.863s-14.864-6.656-14.864-14.863c0-8.211 6.657-14.864 14.864-14.864s14.863 6.653 14.863 14.864zm0 0" fill="rgba(255, 111, 0, 1)" stroke="none"/>
  <path d="M339.84 213.121c0 8.207-6.652 14.863-14.863 14.863-8.207 0-14.86-6.656-14.86-14.863s6.653-14.863 14.86-14.863c8.21 0 14.863 6.656 14.863 14.863zm0 0" fill="rgba(255, 111, 0, 1)" stroke="none"/>
  <path d="M322.402 91.344c0 8.21-6.652 14.863-14.863 14.863-8.207 0-14.86-6.652-14.86-14.863 0-8.207 6.653-14.86 14.86-14.86 8.211 0 14.863 6.653 14.863 14.86zm0 0" fill="rgba(255, 111, 0, 1)" stroke="none"/>
  <path d="M270.352 173.578c0 8.207-6.653 14.86-14.864 14.86-8.207 0-14.86-6.653-14.86-14.86 0-8.21 6.653-14.863 14.86-14.863 8.211 0 14.864 6.652 14.864 14.863zm0 0" fill="rgba(255, 111, 0, 1)" stroke="none"/>
  <path d="M103.809 219.121c0 8.207-6.653 14.86-14.864 14.86-8.207 0-14.86-6.653-14.86-14.86 0-8.21 6.653-14.863 14.86-14.863 8.211 0 14.864 6.652 14.864 14.863zm0 0" fill="rgba(255, 111, 0, 1)" stroke="none"/>
  <path d="M189.168 289.621c0 8.211-6.656 14.863-14.863 14.863-8.211 0-14.864-6.652-14.864-14.863 0-8.207 6.653-14.86 14.864-14.86 8.207 0 14.863 6.653 14.863 14.86zm0 0" fill="rgba(255, 111, 0, 1)" stroke="none"/>
  <path d="M154.762 124.695c-2.301-7.879-10.555-12.398-18.434-10.093-7.879 2.3-12.398 10.554-10.098 18.433 2.305 7.88 10.56 12.399 18.438 10.094 7.879-2.3 12.398-10.555 10.094-18.434zm0 0" fill="rgba(255, 111, 0, 1)" stroke="none"/>
  <path d="M109.16 300.586c0 8.21-6.652 14.863-14.86 14.863-8.21 0-14.862-6.652-14.862-14.863 0-8.207 6.652-14.863 14.863-14.863 8.207 0 14.86 6.656 14.86 14.863zm0 0" fill="rgba(255, 111, 0, 1)" stroke="none"/>
  <path d="M318.488 414.969c0 8.207-6.656 14.863-14.863 14.863s-14.863-6.656-14.863-14.863c0-8.211 6.656-14.864 14.863-14.864s14.863 6.653 14.863 14.864zm0 0" fill="rgba(255, 111, 0, 1)" stroke="none"/>
  <path d="M270.352 330.313c0 8.207-6.653 14.863-14.864 14.863-8.207 0-14.86-6.656-14.86-14.863 0-8.211 6.653-14.864 14.86-14.864 8.211 0 14.864 6.653 14.864 14.863zm0 0" fill="rgba(255, 111, 0, 1)" stroke="none"/>
  <path d="M427.793 201.863c0 16.418-13.309 29.727-29.723 29.727-16.418 0-29.726-13.309-29.726-29.727 0-16.414 13.308-29.722 29.726-29.722 16.414 0 29.723 13.308 29.723 29.722zm0 0" fill="rgba(239, 83, 80, 1)" stroke="none"/>
  <path d="M239.371 371.031a29.57 29.57 0 0 1 3.54 14.078c0 18.86-17.372 33-35.911 29.075 5.02 9.312 14.86 15.644 26.184 15.644 16.418 0 29.722-13.305 29.722-29.723 0-14.293-10.09-26.226-23.535-29.074zm0 0" fill="rgba(211, 47, 47, 1)" stroke="none"/>
  <path d="M146.695 323.895a29.593 29.593 0 0 1 3.54 14.078c0 16.414-13.31 29.722-29.723 29.722-2.121 0-4.192-.226-6.188-.648 5.02 9.316 14.86 15.648 26.184 15.648 16.418 0 29.722-13.308 29.722-29.726 0-14.293-10.09-26.227-23.535-29.074zm0 0" fill="rgba(211, 47, 47, 1)" stroke="none"/>
  <path d="M171.152 170.79a29.596 29.596 0 0 1 3.543 14.077c0 16.418-13.308 29.723-29.726 29.723-2.121 0-4.192-.227-6.188-.649 5.02 9.317 14.864 15.649 26.184 15.649 16.418 0 29.726-13.309 29.726-29.727 0-14.293-10.093-26.226-23.539-29.074zm0 0" fill="rgba(211, 47, 47, 1)" stroke="none"/>
  <path d="M233.563 70.066a29.596 29.596 0 0 1 3.542 14.079c0 16.414-13.308 29.722-29.726 29.722-2.121 0-4.191-.226-6.188-.648 5.02 9.316 14.864 15.648 26.184 15.648 16.418 0 29.727-13.308 29.727-29.726 0-14.293-10.094-26.227-23.54-29.075zm0 0" fill="rgba(211, 47, 47, 1)" stroke="none"/>
  <path d="M404.254 172.79a29.596 29.596 0 0 1 3.543 14.077c0 16.414-13.309 29.723-29.727 29.723a29.93 29.93 0 0 1-6.187-.649c5.02 9.317 14.863 15.649 26.187 15.649 16.414 0 29.723-13.309 29.723-29.727 0-14.293-10.09-26.226-23.54-29.074zm0 0" fill="rgba(211, 47, 47, 1)" stroke="none"/>
</svg>
</g></svg></g></g>
<!-- /image 06901 -->

<!-- image 46723 -->
<g id="transformed-46723" data-image="46723" transform="translate(197, 100) rotate(0, 21.999999999999996, 22)"><g><svg version="1.1" width="43.99999999999999px" height="44px" viewBox="0 0 43.99999999999999 44"><g id="original-46723"><svg xmlns="http://www.w3.org/2000/svg" viewBox="0 0 512 512" xmlns:xlink="http://www.w3.org/1999/xlink" version="1.1" preserveAspectRatio="xMidYMid meet">
  <path d="M458.912 226.354H512v-32.612c0-27.313-21.8-49.535-49.113-49.535h-22.47l-11.864 82.147 14.09 8.006z" fill="rgba(169, 116, 80, 1)" stroke="none"/>
  <path d="M437.758 252.628H512v29.975h-74.242z" fill="rgba(136, 81, 66, 1)" stroke="none"/>
  <path d="M64.814 289.409c-15.164 0-28.226-11.319-30.38-26.305l-4.748-33.416-14.839 2.108L0 233.84l.009.064.002.016 10.429 75.77c3.139 22.809 14.426 43.703 31.781 58.833s39.593 23.463 62.617 23.463h150.226l19.877-51.714L256 289.409z" fill="rgba(200, 136, 94, 1)" stroke="none"/>
  <path d="M422.967 265.092c-2.984 13.996-15.538 24.317-30.016 24.317H256v102.576h96.689a95.272 95.272 0 0 0 62.617-23.463 95.275 95.275 0 0 0 31.781-58.833l8.086-57.063-14.266-4.811-16.14 4.811z" fill="rgba(169, 116, 80, 1)" stroke="none"/>
  <path d="M0 391.985v29.975l105.881 29.265H0V481.2l256 24.989 35.664-69.131L256 379.374z" fill="rgba(180, 216, 243, 1)" stroke="none"/>
  <path d="M512 391.985l-240.46-13.377-15.54.766v126.815L315.528 512h32.73L512 482.025v-30.8h-93.763L512 421.96z" fill="rgba(142, 189, 253, 1)" stroke="none"/>
  <path d="M0 422.07h125.681v29.975H0z" fill="rgba(142, 189, 253, 1)" stroke="none"/>
  <path d="M0 512h256l10.061-16.283L256 482.025H0z" fill="rgba(142, 189, 253, 1)" stroke="none"/>
  <path d="M348.258 482.025H512V512H348.258z" fill="rgba(119, 129, 219, 1)" stroke="none"/>
  <path d="M159.32 422.07h29.977v29.975H159.32z" fill="rgba(142, 189, 253, 1)" stroke="none"/>
  <path d="M222.848 452.045H256l10.061-14.987L256 422.07h-33.152z" fill="rgba(142, 189, 253, 1)" stroke="none"/>
  <path d="M256 422.07h256v29.975H256z" fill="rgba(119, 129, 219, 1)" stroke="none"/>
  <path d="M256 482.025h59.528V512H256z" fill="rgba(119, 129, 219, 1)" stroke="none"/>
  <path d="M96.906 232.407l25.089-16.426L222.06 368.819l-25.09 16.426z" fill="rgba(230, 200, 151, 1)" stroke="none"/>
  <path d="M0 362.01v29.975h256l10.061-13.377L256 362.01z" fill="rgba(142, 189, 253, 1)" stroke="none"/>
  <path d="M256 362.01h256v29.975H256z" fill="rgba(119, 129, 219, 1)" stroke="none"/>
  <g>
    <path d="M209.303 46.697c0 25.34 20.292 46.015 45.479 46.666l18.035-46.485L254.782.031c-25.186.65-45.479 21.326-45.479 46.666z" fill="rgba(254, 241, 118, 1)" stroke="none"/>
    <path d="M256 0c-.409 0-.812.021-1.218.031v93.331c.406.01.81.031 1.218.031 25.748 0 46.696-20.948 46.696-46.697C302.697 20.948 281.748 0 256 0z" fill="rgba(254, 203, 46, 1)" stroke="none"/>
  </g>
  <path d="M428.553 226.354l-3.787 26.273h30.406l3.718-26.273z" fill="rgba(252, 68, 95, 1)" stroke="none"/>
</svg>
</g></svg></g></g>
<!-- /image 46723 -->

<!-- image 24918 -->
<g id="transformed-24918" data-image="24918" transform="translate(26.976203958371364, 187.97620395837137) rotate(2, 21.023796041628636, 21.02379604162864)"><g><svg version="1.1" width="42.04759208325727px" height="42.04759208325728px" viewBox="0 0 42.04759208325727 42.04759208325728"><g id="original-24918"><svg xmlns="http://www.w3.org/2000/svg" viewBox="0 0 512 512" xmlns:xlink="http://www.w3.org/1999/xlink" version="1.1" preserveAspectRatio="xMidYMid meet">
  <path d="M502.865 188.049C473.095 79.648 373.856 0 256 0 114.615 0 0 114.615 0 256c0 117.856 79.648 217.094 188.049 246.865l314.816-314.816z" fill="rgba(247, 46, 18, 1)" stroke="none"/>
  <path d="M512 256c0-23.529-3.191-46.309-9.135-67.951l-89.458-89.458L98.592 413.408l89.458 89.458c21.641 5.944 44.422 9.135 67.951 9.135C397.385 512 512 397.384 512 256z" fill="rgba(105, 40, 17, 1)" stroke="none"/>
  <path d="M256 33.391L144.696 256 256 478.609c122.943 0 222.609-99.665 222.609-222.609S378.943 33.391 256 33.391z" fill="rgba(201, 229, 255, 1)" stroke="none"/>
  <path d="M33.391 256c0 122.943 99.665 222.609 222.609 222.609V33.391C133.057 33.391 33.391 133.057 33.391 256z" fill="rgba(255, 255, 255, 1)" stroke="none"/>
  <path d="M256 66.783L161.391 256 256 445.217c104.501 0 189.217-84.715 189.217-189.217S360.501 66.783 256 66.783z" fill="rgba(146, 204, 255, 1)" stroke="none"/>
  <path d="M66.783 256c0 104.503 84.716 189.217 189.217 189.217V66.783C151.499 66.783 66.783 151.497 66.783 256z" fill="rgba(201, 229, 255, 1)" stroke="none"/>
  <path d="M96.075 271.138a10.963 10.963 0 0 1 5.311-1.486 11.102 11.102 0 0 1 5.206 1.159c.228-3.59 2.197-7.013 5.552-8.95s7.295-1.923 10.517-.327a11.115 11.115 0 0 1 5.542-8.944 11.142 11.142 0 0 1 10.527-.333 11.115 11.115 0 0 1 5.542-8.944 11.122 11.122 0 0 1 10.517-.327 11.138 11.138 0 0 1 5.552-8.95 11.122 11.122 0 0 1 10.517-.327 11.115 11.115 0 0 1 5.542-8.944 11.142 11.142 0 0 1 10.527-.333 11.115 11.115 0 0 1 5.542-8.944c5.32-3.072 12.127-1.257 15.204 4.074 1.937 3.355 1.923 7.295.317 10.523 3.598.223 7.018 2.182 8.954 5.536a11.125 11.125 0 0 1 .323 10.533c3.598.223 7.018 2.182 8.954 5.536 1.937 3.355 1.923 7.295.317 10.523a11.127 11.127 0 0 1 8.96 5.546l-46.706 52.669-68.966 14.113a11.125 11.125 0 0 1-.323-10.533c-3.598-.223-7.018-2.182-8.954-5.536-1.937-3.355-1.923-7.295-.317-10.523a11.127 11.127 0 0 1-8.96-5.546c-1.937-3.355-1.923-7.295-.317-10.523-3.598-.223-7.018-2.182-8.954-5.536-3.078-5.331-1.247-12.134 4.074-15.206z" fill="rgba(255, 243, 173, 1)" stroke="none"/>
  <path d="M119.827 334.54l115.671-66.783c1.937 3.355 1.923 7.295.317 10.523 3.598.223 7.018 2.182 8.954 5.536a11.125 11.125 0 0 1 .323 10.533c3.598.223 7.018 2.182 8.954 5.536a10.999 10.999 0 0 1 1.486 5.311 11.202 11.202 0 0 1-1.169 5.211 11.127 11.127 0 0 1 8.96 5.546c3.072 5.32 1.247 12.132-4.074 15.204-3.355 1.937-7.295 1.923-10.523.317a11.127 11.127 0 0 1-5.546 8.96c-3.355 1.937-7.295 1.923-10.523.317-.223 3.598-2.182 7.018-5.536 8.954a11.125 11.125 0 0 1-10.533.323c-.223 3.598-2.182 7.018-5.536 8.954s-7.295 1.923-10.523.317c-.223 3.598-2.192 7.023-5.546 8.96s-7.295 1.923-10.523.317c-.223 3.598-2.182 7.018-5.536 8.954a11.125 11.125 0 0 1-10.533.323c-.223 3.598-2.182 7.018-5.536 8.954-5.32 3.072-12.132 1.247-15.204-4.074a11.125 11.125 0 0 1-.323-10.533c-3.598-.223-7.018-2.182-8.954-5.536-1.937-3.355-1.923-7.295-.317-10.523a11.127 11.127 0 0 1-8.96-5.546c-1.937-3.355-1.923-7.295-.317-10.523a11.09 11.09 0 0 1-8.953-5.532z" fill="rgba(255, 255, 255, 1)" stroke="none"/>
  <path d="M109.242 282.815l86.753-50.087 25.043 43.377-32.246 44.321-54.507 5.766z" fill="rgba(255, 227, 118, 1)" stroke="none"/>
  <path d="M134.285 326.192l86.749-50.086 25.043 43.374-86.75 50.086z" fill="rgba(255, 243, 173, 1)" stroke="none"/>
  <path d="M162.926 125.07a10.953 10.953 0 0 1 3.942 3.857 11.095 11.095 0 0 1 1.599 5.088 11.14 11.14 0 0 1 10.527.333 11.12 11.12 0 0 1 5.542 8.944c3.222-1.597 7.162-1.609 10.517.327s5.323 5.362 5.552 8.95c3.222-1.597 7.162-1.609 10.517.327s5.314 5.356 5.542 8.944a11.14 11.14 0 0 1 10.527.333 11.12 11.12 0 0 1 5.542 8.944 11.122 11.122 0 0 1 10.517.327 11.143 11.143 0 0 1 5.552 8.95 11.122 11.122 0 0 1 10.517.327c5.32 3.072 7.151 9.874 4.074 15.204a11.101 11.101 0 0 1-8.954 5.536 11.107 11.107 0 0 1-.317 10.523 11.124 11.124 0 0 1-8.96 5.546 11.107 11.107 0 0 1-.317 10.523 11.101 11.101 0 0 1-8.954 5.536 11.125 11.125 0 0 1-.323 10.533l-68.966-14.112-46.706-52.67a11.124 11.124 0 0 1 8.96-5.546 11.107 11.107 0 0 1 .317-10.523 11.101 11.101 0 0 1 8.954-5.536c-1.606-3.228-1.614-7.178.323-10.533s5.356-5.314 8.954-5.536a11.107 11.107 0 0 1 .317-10.523c3.079-5.329 9.885-7.145 15.205-4.073z" fill="rgba(255, 243, 173, 1)" stroke="none"/>
  <path d="M119.896 177.34l115.671 66.783a11.101 11.101 0 0 1-8.954 5.536 11.107 11.107 0 0 1-.317 10.523 11.124 11.124 0 0 1-8.96 5.546 11.107 11.107 0 0 1-.317 10.523 10.984 10.984 0 0 1-3.857 3.942 11.225 11.225 0 0 1-5.098 1.594 11.125 11.125 0 0 1-.323 10.533c-3.072 5.32-9.884 7.146-15.204 4.074a11.101 11.101 0 0 1-5.536-8.954 11.125 11.125 0 0 1-10.533-.323 11.101 11.101 0 0 1-5.536-8.954 11.107 11.107 0 0 1-10.523-.317 11.124 11.124 0 0 1-5.546-8.96c-3.228 1.606-7.168 1.62-10.523-.317s-5.314-5.356-5.536-8.954a11.125 11.125 0 0 1-10.533-.323 11.101 11.101 0 0 1-5.536-8.954 11.107 11.107 0 0 1-10.523-.317 11.124 11.124 0 0 1-5.546-8.96 11.107 11.107 0 0 1-10.523-.317c-5.32-3.072-7.146-9.884-4.074-15.204a11.124 11.124 0 0 1 8.96-5.546 11.107 11.107 0 0 1 .317-10.523 11.101 11.101 0 0 1 8.954-5.536 11.125 11.125 0 0 1 .323-10.533 11.101 11.101 0 0 1 8.954-5.536c-1.604-3.231-1.618-7.171.319-10.526z" fill="rgba(255, 255, 255, 1)" stroke="none"/>
  <path d="M159.398 142.312l86.754 50.086-25.044 43.377-54.507-5.765-32.247-44.322z" fill="rgba(255, 227, 118, 1)" stroke="none"/>
  <path d="M134.36 185.695l86.75 50.086-25.044 43.375-86.749-50.086z" fill="rgba(255, 243, 173, 1)" stroke="none"/>
  <path d="M322.852 109.931c0 1.937-.49 3.762-1.369 5.343a11.109 11.109 0 0 1-3.606 3.929c2.994 1.992 4.975 5.409 4.975 9.283s-1.981 7.279-4.975 9.272c2.994 1.992 4.975 5.398 4.975 9.272s-1.981 7.29-4.975 9.283c2.994 1.992 4.975 5.398 4.975 9.272s-1.981 7.279-4.975 9.272a11.14 11.14 0 0 1 4.975 9.283c0 3.873-1.981 7.279-4.975 9.272a11.12 11.12 0 0 1 4.975 9.272c0 3.873-1.981 7.29-4.975 9.283a11.12 11.12 0 0 1 4.975 9.272c0 6.144-4.975 11.13-11.13 11.13-3.873 0-7.279-1.981-9.272-4.986a11.103 11.103 0 0 1-9.272 4.986c-3.873 0-7.29-1.981-9.283-4.986-1.992 3.005-5.398 4.986-9.272 4.986s-7.279-1.981-9.272-4.986a11.122 11.122 0 0 1-9.283 4.986l-22.261-66.783L256.069 98.8c3.873 0 7.29 1.981 9.283 4.986 1.992-3.005 5.398-4.986 9.272-4.986s7.279 1.981 9.272 4.986a11.122 11.122 0 0 1 9.283-4.986c3.873 0 7.279 1.981 9.272 4.986a11.103 11.103 0 0 1 9.272-4.986c6.153 0 11.129 4.987 11.129 11.131z" fill="rgba(255, 243, 173, 1)" stroke="none"/>
  <path d="M256.069 98.8v133.565c-3.873 0-7.279-1.981-9.272-4.986a11.103 11.103 0 0 1-9.272 4.986c-3.873 0-7.29-1.981-9.283-4.986a11.103 11.103 0 0 1-9.272 4.986c-1.937 0-3.751-.49-5.343-1.369a11.233 11.233 0 0 1-3.929-3.617 11.122 11.122 0 0 1-9.283 4.986c-6.144 0-11.13-4.986-11.13-11.13 0-3.873 1.981-7.279 4.986-9.272a11.122 11.122 0 0 1-4.986-9.283c0-3.873 1.981-7.279 4.986-9.272a11.103 11.103 0 0 1-4.986-9.272c0-3.873 1.981-7.29 4.986-9.283-3.005-1.992-4.986-5.398-4.986-9.272s1.981-7.279 4.986-9.272c-3.005-1.992-4.986-5.409-4.986-9.283s1.981-7.279 4.986-9.272a11.103 11.103 0 0 1-4.986-9.272c0-3.873 1.981-7.29 4.986-9.283a11.103 11.103 0 0 1-4.986-9.272c0-6.144 4.986-11.13 11.13-11.13 3.873 0 7.29 1.981 9.283 4.986 1.992-3.005 5.398-4.986 9.272-4.986s7.279 1.981 9.272 4.986a11.122 11.122 0 0 1 9.283-4.986c3.873 0 7.279 1.981 9.272 4.986 1.993-3.001 5.399-4.983 9.272-4.983z" fill="rgba(255, 255, 255, 1)" stroke="none"/>
  <path d="M306.156 115.496V215.67h-50.087l-22.261-50.087 22.261-50.087z" fill="rgba(255, 227, 118, 1)" stroke="none"/>
  <path d="M205.98 115.501h50.087v100.174H205.98z" fill="rgba(255, 243, 173, 1)" stroke="none"/>
  <path d="M415.925 240.861a10.963 10.963 0 0 1-5.311 1.486 11.102 11.102 0 0 1-5.206-1.159 11.138 11.138 0 0 1-5.552 8.95 11.122 11.122 0 0 1-10.517.327 11.115 11.115 0 0 1-5.542 8.944 11.142 11.142 0 0 1-10.527.333 11.115 11.115 0 0 1-5.542 8.944 11.122 11.122 0 0 1-10.517.327 11.138 11.138 0 0 1-5.552 8.95 11.122 11.122 0 0 1-10.517.327 11.115 11.115 0 0 1-5.542 8.944 11.142 11.142 0 0 1-10.527.333 11.115 11.115 0 0 1-5.542 8.944c-5.32 3.072-12.127 1.257-15.204-4.074-1.937-3.355-1.923-7.295-.317-10.523-3.598-.223-7.018-2.182-8.954-5.536a11.125 11.125 0 0 1-.323-10.533c-3.598-.223-7.018-2.182-8.954-5.536-1.937-3.355-1.923-7.295-.317-10.523a11.127 11.127 0 0 1-8.96-5.546l46.706-52.67 68.966-14.112a11.125 11.125 0 0 1 .323 10.533c3.598.223 7.018 2.182 8.954 5.536 1.937 3.355 1.923 7.295.317 10.523a11.127 11.127 0 0 1 8.96 5.546c1.937 3.355 1.923 7.295.317 10.523 3.598.223 7.018 2.182 8.954 5.536 3.078 5.332 1.248 12.134-4.074 15.206z" fill="rgba(255, 243, 173, 1)" stroke="none"/>
  <path d="M392.173 177.46l-115.671 66.783c-1.937-3.355-1.923-7.295-.317-10.523-3.598-.223-7.018-2.182-8.954-5.536a11.125 11.125 0 0 1-.323-10.533c-3.598-.223-7.018-2.182-8.954-5.536a11.002 11.002 0 0 1-1.486-5.311 11.202 11.202 0 0 1 1.169-5.211 11.127 11.127 0 0 1-8.96-5.546c-3.072-5.32-1.247-12.132 4.074-15.204 3.355-1.937 7.295-1.923 10.523-.317.223-3.598 2.192-7.023 5.546-8.96s7.295-1.923 10.523-.317c.223-3.598 2.182-7.018 5.536-8.954a11.125 11.125 0 0 1 10.533-.323c.223-3.598 2.182-7.018 5.536-8.954 3.355-1.937 7.295-1.923 10.523-.317a11.127 11.127 0 0 1 5.546-8.96c3.355-1.937 7.295-1.923 10.523-.317.223-3.598 2.182-7.018 5.536-8.954a11.125 11.125 0 0 1 10.533-.323c.223-3.598 2.182-7.018 5.536-8.954 5.32-3.072 12.132-1.247 15.204 4.074a11.125 11.125 0 0 1 .323 10.533c3.598.223 7.018 2.182 8.954 5.536 1.937 3.355 1.923 7.295.317 10.523a11.127 11.127 0 0 1 8.96 5.546c1.937 3.355 1.923 7.295.317 10.523a11.09 11.09 0 0 1 8.953 5.532z" fill="rgba(255, 255, 255, 1)" stroke="none"/>
  <path d="M402.758 229.185l-86.753 50.087-25.043-43.377 32.246-44.321 54.507-5.766z" fill="rgba(255, 227, 118, 1)" stroke="none"/>
  <path d="M377.709 185.808l-86.75 50.086-25.042-43.375 86.749-50.086z" fill="rgba(255, 243, 173, 1)" stroke="none"/>
  <path d="M349.074 386.93a10.953 10.953 0 0 1-3.942-3.857 11.095 11.095 0 0 1-1.599-5.088 11.14 11.14 0 0 1-10.527-.333 11.12 11.12 0 0 1-5.542-8.944 11.122 11.122 0 0 1-10.517-.327 11.143 11.143 0 0 1-5.552-8.95 11.122 11.122 0 0 1-10.517-.327 11.12 11.12 0 0 1-5.542-8.944 11.14 11.14 0 0 1-10.527-.333 11.12 11.12 0 0 1-5.542-8.944 11.122 11.122 0 0 1-10.517-.327 11.143 11.143 0 0 1-5.552-8.95 11.122 11.122 0 0 1-10.517-.327c-5.32-3.072-7.151-9.874-4.074-15.204a11.101 11.101 0 0 1 8.954-5.536 11.107 11.107 0 0 1 .317-10.523 11.124 11.124 0 0 1 8.96-5.546c-1.606-3.228-1.619-7.168.317-10.523s5.356-5.314 8.954-5.536a11.125 11.125 0 0 1 .323-10.533l68.966 14.112 46.706 52.669a11.124 11.124 0 0 1-8.96 5.546 11.107 11.107 0 0 1-.317 10.523 11.101 11.101 0 0 1-8.954 5.536 11.125 11.125 0 0 1-.323 10.533 11.101 11.101 0 0 1-8.954 5.536 11.107 11.107 0 0 1-.317 10.523c-3.079 5.33-9.885 7.146-15.205 4.074z" fill="rgba(255, 243, 173, 1)" stroke="none"/>
  <path d="M392.104 334.66l-115.671-66.783a11.101 11.101 0 0 1 8.954-5.536 11.107 11.107 0 0 1 .317-10.523 11.124 11.124 0 0 1 8.96-5.546 11.107 11.107 0 0 1 .317-10.523 10.984 10.984 0 0 1 3.857-3.942 11.225 11.225 0 0 1 5.098-1.594 11.125 11.125 0 0 1 .323-10.533c3.072-5.32 9.884-7.146 15.204-4.074a11.101 11.101 0 0 1 5.536 8.954 11.125 11.125 0 0 1 10.533.323 11.101 11.101 0 0 1 5.536 8.954 11.107 11.107 0 0 1 10.523.317 11.124 11.124 0 0 1 5.546 8.96 11.107 11.107 0 0 1 10.523.317 11.101 11.101 0 0 1 5.536 8.954 11.125 11.125 0 0 1 10.533.323 11.101 11.101 0 0 1 5.536 8.954 11.107 11.107 0 0 1 10.523.317 11.124 11.124 0 0 1 5.546 8.96 11.107 11.107 0 0 1 10.523.317c5.32 3.072 7.146 9.884 4.074 15.204a11.124 11.124 0 0 1-8.96 5.546 11.107 11.107 0 0 1-.317 10.523 11.101 11.101 0 0 1-8.954 5.536 11.125 11.125 0 0 1-.323 10.533 11.101 11.101 0 0 1-8.954 5.536c1.604 3.231 1.618 7.171-.319 10.526z" fill="rgba(255, 255, 255, 1)" stroke="none"/>
  <path d="M352.602 369.688l-86.754-50.086 25.044-43.377 54.507 5.765 32.247 44.322z" fill="rgba(255, 227, 118, 1)" stroke="none"/>
  <path d="M377.641 326.32l-86.749-50.086 25.043-43.374 86.75 50.086z" fill="rgba(255, 243, 173, 1)" stroke="none"/>
  <path d="M189.148 402.069c0-1.937.49-3.762 1.369-5.343a11.109 11.109 0 0 1 3.606-3.929 11.14 11.14 0 0 1-4.975-9.283c0-3.873 1.981-7.279 4.975-9.272-2.994-1.992-4.975-5.398-4.975-9.272s1.981-7.29 4.975-9.283c-2.994-1.992-4.975-5.398-4.975-9.272s1.981-7.279 4.975-9.272a11.14 11.14 0 0 1-4.975-9.283c0-3.873 1.981-7.279 4.975-9.272-2.994-1.992-4.975-5.398-4.975-9.272s1.981-7.29 4.975-9.283a11.12 11.12 0 0 1-4.975-9.272c0-6.144 4.975-11.13 11.13-11.13 3.873 0 7.279 1.981 9.272 4.986a11.103 11.103 0 0 1 9.272-4.986c3.873 0 7.29 1.981 9.283 4.986a11.103 11.103 0 0 1 9.272-4.986c3.873 0 7.279 1.981 9.272 4.986a11.122 11.122 0 0 1 9.283-4.986l22.261 66.783-22.262 66.786c-3.873 0-7.29-1.981-9.283-4.986a11.103 11.103 0 0 1-9.272 4.986c-3.873 0-7.279-1.981-9.272-4.986a11.122 11.122 0 0 1-9.283 4.986c-3.873 0-7.279-1.981-9.272-4.986a11.103 11.103 0 0 1-9.272 4.986c-6.153 0-11.129-4.987-11.129-11.131z" fill="rgba(255, 243, 173, 1)" stroke="none"/>
  <path d="M255.931 413.2V279.634c3.873 0 7.279 1.981 9.272 4.986a11.103 11.103 0 0 1 9.272-4.986c3.873 0 7.29 1.981 9.283 4.986a11.103 11.103 0 0 1 9.272-4.986c1.937 0 3.751.49 5.343 1.369a11.233 11.233 0 0 1 3.929 3.617 11.122 11.122 0 0 1 9.283-4.986c6.144 0 11.13 4.986 11.13 11.13 0 3.873-1.981 7.279-4.986 9.272 3.005 1.992 4.986 5.409 4.986 9.283s-1.981 7.279-4.986 9.272a11.103 11.103 0 0 1 4.986 9.272c0 3.873-1.981 7.29-4.986 9.283a11.103 11.103 0 0 1 4.986 9.272c0 3.873-1.981 7.279-4.986 9.272 3.005 1.992 4.986 5.409 4.986 9.283s-1.981 7.279-4.986 9.272a11.103 11.103 0 0 1 4.986 9.272c0 3.873-1.981 7.29-4.986 9.283a11.103 11.103 0 0 1 4.986 9.272c0 6.144-4.986 11.13-11.13 11.13-3.873 0-7.29-1.981-9.283-4.986a11.103 11.103 0 0 1-9.272 4.986c-3.873 0-7.279-1.981-9.272-4.986a11.122 11.122 0 0 1-9.283 4.986c-3.873 0-7.279-1.981-9.272-4.986-1.993 3.002-5.399 4.984-9.272 4.984z" fill="rgba(255, 255, 255, 1)" stroke="none"/>
  <path d="M205.844 396.504V296.33h50.087l22.261 50.087-22.261 50.087z" fill="rgba(255, 227, 118, 1)" stroke="none"/>
  <path d="M255.933 296.326h50.087V396.5h-50.087z" fill="rgba(255, 243, 173, 1)" stroke="none"/>
  <path d="M346.54 231.737c-2.214-8.282.422-18.581-3.774-25.833-4.256-7.356-14.533-10.198-20.502-16.168-5.97-5.97-8.812-16.247-16.168-20.503-7.251-4.196-17.55-1.56-25.833-3.774-8.005-2.138-15.584-9.632-24.263-9.632L211.478 256 256 356.174c8.68 0 16.258-7.494 24.263-9.633 8.282-2.214 18.581.422 25.833-3.774 7.356-4.256 10.198-14.533 16.168-20.502 5.97-5.97 16.247-8.812 20.503-16.168 4.196-7.251 1.56-17.55 3.774-25.833 2.138-8.005 9.632-15.584 9.632-24.263s-7.493-16.259-9.633-24.264z" fill="rgba(247, 46, 18, 1)" stroke="none"/>
  <path d="M231.737 165.459c-8.282 2.214-18.581-.422-25.833 3.774-7.356 4.256-10.198 14.533-16.168 20.502-5.97 5.97-16.247 8.812-20.503 16.168-4.196 7.251-1.56 17.55-3.774 25.833-2.138 8.005-9.632 15.584-9.632 24.263s7.494 16.258 9.633 24.263c2.214 8.282-.422 18.581 3.774 25.833 4.256 7.356 14.533 10.198 20.502 16.168 5.97 5.97 8.812 16.247 16.168 20.503 7.251 4.196 17.55 1.56 25.833 3.774 8.005 2.138 15.584 9.632 24.263 9.632V155.826c-8.68 0-16.258 7.494-24.263 9.633z" fill="rgba(248, 81, 58, 1)" stroke="none"/>
  <path d="M274.218 226.452L256 256c12.276 5.025 30.172 1.672 39.805-7.96 9.632-9.632 12.987-27.529 7.961-39.805l-29.548 18.217z" fill="rgba(99, 132, 44, 1)" stroke="none"/>
  <path d="M263.962 216.194C254.33 225.826 250.975 243.723 256 256l47.766-47.766c-12.276-5.026-30.172-1.672-39.804 7.96z" fill="rgba(129, 152, 45, 1)" stroke="none"/>
  <path d="M237.782 285.548L256 256c-12.276-5.025-30.172-1.672-39.805 7.96-9.632 9.632-12.987 27.529-7.96 39.805l29.547-18.217z" fill="rgba(160, 173, 47, 1)" stroke="none"/>
  <g>
    <path d="M248.038 295.806c9.632-9.632 12.987-27.529 7.962-39.806l-47.766 47.766c12.275 5.026 30.172 1.672 39.804-7.96z" fill="rgba(129, 152, 45, 1)" stroke="none"/>
    <path d="M237.782 226.452L256 256c-12.276 5.025-30.172 1.672-39.805-7.96-9.632-9.632-12.987-27.529-7.96-39.805l29.547 18.217z" fill="rgba(129, 152, 45, 1)" stroke="none"/>
  </g>
  <path d="M248.038 216.194c9.632 9.632 12.987 27.529 7.962 39.806l-47.766-47.766c12.275-5.026 30.172-1.672 39.804 7.96z" fill="rgba(160, 173, 47, 1)" stroke="none"/>
  <path d="M274.218 285.548L256 256c12.276-5.025 30.172-1.672 39.805 7.96 9.632 9.632 12.987 27.529 7.961 39.805l-29.548-18.217z" fill="rgba(129, 152, 45, 1)" stroke="none"/>
  <path d="M263.962 295.806C254.33 286.174 250.975 268.277 256 256l47.766 47.766c-12.276 5.026-30.172 1.672-39.804-7.96z" fill="rgba(99, 132, 44, 1)" stroke="none"/>
</svg>
</g></svg></g></g>
<!-- /image 24918 -->

<!-- image 46194 -->
<g id="transformed-46194" data-image="46194" transform="translate(110, 176) rotate(0, 25.999999999999993, 26)"><g><svg version="1.1" width="51.999999999999986px" height="52px" viewBox="0 0 51.999999999999986 52"><g id="original-46194"><svg xmlns="http://www.w3.org/2000/svg" viewBox="0 0 512 512" xmlns:xlink="http://www.w3.org/1999/xlink" version="1.1" preserveAspectRatio="xMidYMid meet">
  <path d="M351.401 92.361L203.695 78.588l6.981-74.963a4.005 4.005 0 0 1 4.366-3.607l139.722 13.029a3.997 3.997 0 0 1 3.618 4.345z" fill="rgba(240, 203, 172, 1)" stroke="none"/>
  <path d="M327.98 10.549l-7.351 78.943 30.772 2.87 6.98-74.957a4.002 4.002 0 0 0-3.612-4.357z" fill="rgba(228, 181, 145, 1)" stroke="none"/>
  <path d="M347.115 505.044L131.71 484.957l38.436-412.758a4.005 4.005 0 0 1 4.366-3.607l207.421 19.342a3.997 3.997 0 0 1 3.618 4.345z" fill="rgba(253, 230, 205, 1)" stroke="none"/>
  <path d="M355.15 85.436l-38.807 416.738 30.772 2.87 38.436-412.752a4.002 4.002 0 0 0-3.612-4.357z" fill="rgba(240, 203, 172, 1)" stroke="none"/>
  <path d="M158.162 201.529l2.877-30.803 215.473 20.12-2.876 30.802z" fill="rgba(228, 181, 145, 1)" stroke="none"/>
  <path d="M342.884 218.761l2.877-30.803 30.782 2.874-2.876 30.804z" fill="rgba(210, 157, 119, 1)" stroke="none"/>
  <path d="M221.206 176.42l-32.824-3.061 4.402-47.277c.841-9.035 8.88-15.677 17.949-14.831 9.059.845 15.717 8.84 14.877 17.864z" fill="rgba(69, 90, 100, 1)" stroke="none"/>
  <path d="M285.079 182.376l-32.824-3.061 4.402-47.277c.841-9.035 8.88-15.677 17.949-14.831 9.059.845 15.717 8.84 14.877 17.864z" fill="rgba(69, 90, 100, 1)" stroke="none"/>
  <path d="M266.293 77.15l-32.824-3.061 2.579-27.693c.841-9.035 8.88-15.677 17.949-14.831 9.059.845 15.717 8.84 14.877 17.864z" fill="rgba(69, 90, 100, 1)" stroke="none"/>
  <path d="M322.971 82.436l-32.824-3.061 2.579-27.693c.841-9.035 8.88-15.677 17.949-14.831 9.059.845 15.717 8.84 14.877 17.864z" fill="rgba(69, 90, 100, 1)" stroke="none"/>
  <path d="M348.952 188.332l-32.824-3.061 4.402-47.277c.841-9.035 8.88-15.677 17.949-14.831 9.059.845 15.717 8.84 14.877 17.864z" fill="rgba(69, 90, 100, 1)" stroke="none"/>
  <path d="M145.873 333.965l2.876-30.803 215.474 20.12-2.876 30.802z" fill="rgba(228, 181, 145, 1)" stroke="none"/>
  <path d="M330.592 351.215l2.876-30.803 30.783 2.874-2.877 30.804z" fill="rgba(210, 157, 119, 1)" stroke="none"/>
  <path d="M208.876 308.832l-32.824-3.061 4.402-47.277c.841-9.035 8.88-15.677 17.949-14.831 9.059.845 15.717 8.84 14.877 17.864z" fill="rgba(69, 90, 100, 1)" stroke="none"/>
  <path d="M272.749 314.788l-32.824-3.061 4.402-47.277c.841-9.035 8.88-15.677 17.949-14.831 9.059.845 15.717 8.84 14.877 17.864z" fill="rgba(69, 90, 100, 1)" stroke="none"/>
  <path d="M336.622 320.744l-32.824-3.061 4.402-47.277c.841-9.035 8.88-15.677 17.949-14.831 9.059.845 15.717 8.84 14.877 17.864z" fill="rgba(69, 90, 100, 1)" stroke="none"/>
  <path d="M191.952 490.575l-32.824-3.061 10.227-109.821c.841-9.035 8.88-15.677 17.949-14.831 9.059.845 15.717 8.84 14.877 17.864z" fill="rgba(69, 90, 100, 1)" stroke="none"/>
  <path d="M255.825 496.531l-32.824-3.061 10.227-109.821c.841-9.035 8.88-15.677 17.949-14.831 9.059.845 15.717 8.84 14.877 17.864z" fill="rgba(69, 90, 100, 1)" stroke="none"/>
  <path d="M319.697 502.487l-32.824-3.061 10.227-109.82c.841-9.035 8.88-15.677 17.949-14.831 9.059.845 15.717 8.84 14.877 17.864z" fill="rgba(69, 90, 100, 1)" stroke="none"/>
  <path d="M496.542 512H15.458C6.921 512 0 505.079 0 496.542v-.011c0-8.537 6.921-15.458 15.458-15.458h481.084c8.537 0 15.458 6.921 15.458 15.458v.011c0 8.537-6.921 15.458-15.458 15.458z" fill="rgba(214, 123, 66, 1)" stroke="none"/>
  <path d="M496.547 481.073h-30.905c8.534 0 15.453 6.923 15.453 15.463s-6.918 15.463-15.453 15.463h30.905c8.534 0 15.453-6.923 15.453-15.463s-6.918-15.463-15.453-15.463z" fill="rgba(190, 101, 43, 1)" stroke="none"/>
</svg>
</g></svg></g></g>
<!-- /image 46194 -->

<!-- image 81231 -->
<g id="transformed-81231" data-image="81231" transform="translate(195, 182) rotate(0, 22.999999999999996, 23)"><g><svg version="1.1" width="45.99999999999999px" height="46px" viewBox="0 0 45.99999999999999 46"><g id="original-81231"><svg xmlns="http://www.w3.org/2000/svg" viewBox="0 0 512 512" xmlns:xlink="http://www.w3.org/1999/xlink" version="1.1" preserveAspectRatio="xMidYMid meet">
  <path d="M421.01 205.194a7.723 7.723 0 0 0-7.723 7.723v65.304a7.723 7.723 0 0 0 15.446 0v-65.304a7.722 7.722 0 0 0-7.723-7.723z" fill="rgba(222, 222, 222, 1)" stroke="none"/>
  <path d="M394.605 178.788a7.723 7.723 0 0 0-7.723 7.723v65.304a7.723 7.723 0 0 0 15.446 0v-65.304a7.723 7.723 0 0 0-7.723-7.723z" fill="rgba(222, 222, 222, 1)" stroke="none"/>
  <path d="M90.99 205.194a7.723 7.723 0 0 0-7.723 7.723v65.304a7.723 7.723 0 0 0 15.446 0v-65.304a7.723 7.723 0 0 0-7.723-7.723z" fill="rgba(222, 222, 222, 1)" stroke="none"/>
  <path d="M117.394 178.788a7.723 7.723 0 0 0-7.723 7.723v65.304a7.723 7.723 0 0 0 15.446 0v-65.304a7.723 7.723 0 0 0-7.723-7.723z" fill="rgba(222, 222, 222, 1)" stroke="none"/>
  <path d="M276.278 22.904h-12.555V7.723a7.723 7.723 0 1 0-15.446 0v15.181h-12.556a7.723 7.723 0 0 0 0 15.446h12.556v85.801a7.723 7.723 0 0 0 15.446 0V38.35h12.555a7.723 7.723 0 1 0 0-15.446z" fill="rgba(189, 189, 189, 1)" stroke="none"/>
  <path d="M191.75 40.482a7.723 7.723 0 0 0-7.723 7.723v78.375a7.723 7.723 0 0 0 15.446 0V48.205a7.722 7.722 0 0 0-7.723-7.723z" fill="rgba(189, 189, 189, 1)" stroke="none"/>
  <path d="M156.618 73.8a7.723 7.723 0 0 0-7.723 7.723v75.044a7.723 7.723 0 0 0 15.446 0V81.523a7.723 7.723 0 0 0-7.723-7.723z" fill="rgba(222, 222, 222, 1)" stroke="none"/>
  <path d="M320.249 40.482a7.723 7.723 0 0 0-7.723 7.723v78.375a7.723 7.723 0 0 0 15.446 0V48.205a7.723 7.723 0 0 0-7.723-7.723z" fill="rgba(189, 189, 189, 1)" stroke="none"/>
  <path d="M355.382 73.8a7.723 7.723 0 0 0-7.723 7.723v75.044a7.723 7.723 0 0 0 15.446 0V81.523a7.723 7.723 0 0 0-7.723-7.723z" fill="rgba(222, 222, 222, 1)" stroke="none"/>
  <path d="M256 88.343l-67.544 68.822v212.108L256 387.265l67.544-17.997V157.165z" fill="rgba(163, 163, 163, 1)" stroke="none"/>
  <path d="M372.948 207.504l68.669 69.97 17.57 76.801-17.57 14.998-34.334 17.271-34.335-17.271-26.35-49.983z" fill="rgba(163, 163, 163, 1)" stroke="none"/>
  <path d="M372.948 386.544l-26.35 41.659L372.948 512h68.669l17.57-83.797-17.57-41.659z" fill="rgba(163, 163, 163, 1)" stroke="none"/>
  <path d="M139.052 207.504l-68.67 69.97-17.569 76.801 17.569 14.998 34.335 17.271 34.335-17.271 26.35-49.983z" fill="rgba(163, 163, 163, 1)" stroke="none"/>
  <path d="M139.052 386.544l26.35 41.659L139.052 512h-68.67l-17.569-83.797 17.569-41.659z" fill="rgba(163, 163, 163, 1)" stroke="none"/>
  <path d="M237.498 512h-28.177l-17.573-76.967 17.573-47.768h93.359l20.86 45.77L302.68 512h-28.178L256 492.009z" fill="rgba(163, 163, 163, 1)" stroke="none"/>
  <g>
    <path d="M52.815 369.27h103.807v34.552H52.815z" fill="rgba(189, 189, 189, 1)" stroke="none"/>
    <path d="M355.379 369.27h103.807v34.552H355.379z" fill="rgba(189, 189, 189, 1)" stroke="none"/>
    <path d="M204.102 369.27h103.807v34.552H204.102z" fill="rgba(189, 189, 189, 1)" stroke="none"/>
  </g>
  <g>
    <path d="M499.529 230.307c-1.653-5.027-8.765-5.027-10.418 0a247.026 247.026 0 0 0-12.358 77.151l-17.566 46.816L476.754 512h35.133V307.458c0-26.21-4.172-52.253-12.358-77.151z" fill="rgba(222, 222, 222, 1)" stroke="none"/>
    <path d="M360.59 130.351c-1.653-5.027-8.765-5.027-10.418 0a247.026 247.026 0 0 0-12.358 77.151l-17.566 146.772 17.566 157.725h35.133V207.502a246.962 246.962 0 0 0-12.357-77.151z" fill="rgba(222, 222, 222, 1)" stroke="none"/>
    <path d="M12.471 230.307c1.653-5.027 8.765-5.027 10.418 0a247.026 247.026 0 0 1 12.358 77.151l17.566 46.816L35.246 512H.113V307.458c0-26.21 4.172-52.253 12.358-77.151z" fill="rgba(222, 222, 222, 1)" stroke="none"/>
    <path d="M151.409 130.351c1.653-5.027 8.765-5.027 10.418 0a247.026 247.026 0 0 1 12.358 77.151l17.566 146.772L174.184 512h-35.133V207.502a247.05 247.05 0 0 1 12.358-77.151z" fill="rgba(222, 222, 222, 1)" stroke="none"/>
  </g>
  <g>
    <path d="M464.396 200.32c-1.653-5.027-8.765-5.027-10.418 0a247.026 247.026 0 0 0-12.358 77.151V512h35.133V277.472a246.988 246.988 0 0 0-12.357-77.152z" fill="rgba(189, 189, 189, 1)" stroke="none"/>
    <path d="M191.755 177.514h128.499v34.552H191.755z" fill="rgba(189, 189, 189, 1)" stroke="none"/>
    <path d="M325.457 100.364c-1.653-5.027-8.765-5.027-10.418 0a247.026 247.026 0 0 0-12.358 77.151V512h35.133V177.515a246.996 246.996 0 0 0-12.357-77.151z" fill="rgba(189, 189, 189, 1)" stroke="none"/>
    <path d="M47.603 200.32c1.653-5.027 8.765-5.027 10.418 0a247.026 247.026 0 0 1 12.358 77.151V512H35.246V277.472c0-26.211 4.172-52.254 12.357-77.152z" fill="rgba(189, 189, 189, 1)" stroke="none"/>
    <path d="M186.542 100.364c1.653-5.027 8.765-5.027 10.418 0a247.026 247.026 0 0 1 12.358 77.151V512h-35.133V177.515a246.996 246.996 0 0 1 12.357-77.151z" fill="rgba(189, 189, 189, 1)" stroke="none"/>
  </g>
  <g>
    <path d="M274.502 450.567v61.432h-37.003v-61.432c0-10.216 8.286-18.492 18.502-18.492s18.501 8.277 18.501 18.492z" fill="rgba(59, 72, 74, 1)" stroke="none"/>
    <path d="M274.502 269.105v61.432h-37.003v-61.432c0-10.216 8.286-18.492 18.502-18.492 10.216.001 18.501 8.276 18.501 18.492z" fill="rgba(59, 72, 74, 1)" stroke="none"/>
  </g>
</svg>
</g></svg></g></g>
<!-- /image 81231 -->
</defs><rect x="0" y="0" width="250" height="250" fill="rgba(129, 228, 115, 1)"></rect><use xlink:href="#transformed-54116" transform="translate(-250, -250)"></use><use xlink:href="#transformed-54116" transform="translate(0, -250)"></use><use xlink:href="#transformed-54116" transform="translate(250, -250)"></use><use xlink:href="#transformed-54116" transform="translate(-250, 0)"></use><use xlink:href="#transformed-54116" transform="translate(0, 0)"></use><use xlink:href="#transformed-54116" transform="translate(250, 0)"></use><use xlink:href="#transformed-54116" transform="translate(-250, 250)"></use><use xlink:href="#transformed-54116" transform="translate(0, 250)"></use><use xlink:href="#transformed-54116" transform="translate(250, 250)"></use><use xlink:href="#transformed-85395" transform="translate(-250, -250)"></use><use xlink:href="#transformed-85395" transform="translate(0, -250)"></use><use xlink:href="#transformed-85395" transform="translate(250, -250)"></use><use xlink:href="#transformed-85395" transform="translate(-250, 0)"></use><use xlink:href="#transformed-85395" transform="translate(0, 0)"></use><use xlink:href="#transformed-85395" transform="translate(250, 0)"></use><use xlink:href="#transformed-85395" transform="translate(-250, 250)"></use><use xlink:href="#transformed-85395" transform="translate(0, 250)"></use><use xlink:href="#transformed-85395" transform="translate(250, 250)"></use><use xlink:href="#transformed-85587" transform="translate(-250, -250)"></use><use xlink:href="#transformed-85587" transform="translate(0, -250)"></use><use xlink:href="#transformed-85587" transform="translate(250, -250)"></use><use xlink:href="#transformed-85587" transform="translate(-250, 0)"></use><use xlink:href="#transformed-85587" transform="translate(0, 0)"></use><use xlink:href="#transformed-85587" transform="translate(250, 0)"></use><use xlink:href="#transformed-85587" transform="translate(-250, 250)"></use><use xlink:href="#transformed-85587" transform="translate(0, 250)"></use><use xlink:href="#transformed-85587" transform="translate(250, 250)"></use><use xlink:href="#transformed-89916" transform="translate(-250, -250)"></use><use xlink:href="#transformed-89916" transform="translate(0, -250)"></use><use xlink:href="#transformed-89916" transform="translate(250, -250)"></use><use xlink:href="#transformed-89916" transform="translate(-250, 0)"></use><use xlink:href="#transformed-89916" transform="translate(0, 0)"></use><use xlink:href="#transformed-89916" transform="translate(250, 0)"></use><use xlink:href="#transformed-89916" transform="translate(-250, 250)"></use><use xlink:href="#transformed-89916" transform="translate(0, 250)"></use><use xlink:href="#transformed-89916" transform="translate(250, 250)"></use><use xlink:href="#transformed-61286" transform="translate(-250, -250)"></use><use xlink:href="#transformed-61286" transform="translate(0, -250)"></use><use xlink:href="#transformed-61286" transform="translate(250, -250)"></use><use xlink:href="#transformed-61286" transform="translate(-250, 0)"></use><use xlink:href="#transformed-61286" transform="translate(0, 0)"></use><use xlink:href="#transformed-61286" transform="translate(250, 0)"></use><use xlink:href="#transformed-61286" transform="translate(-250, 250)"></use><use xlink:href="#transformed-61286" transform="translate(0, 250)"></use><use xlink:href="#transformed-61286" transform="translate(250, 250)"></use><use xlink:href="#transformed-06966" transform="translate(-250, -250)"></use><use xlink:href="#transformed-06966" transform="translate(0, -250)"></use><use xlink:href="#transformed-06966" transform="translate(250, -250)"></use><use xlink:href="#transformed-06966" transform="translate(-250, 0)"></use><use xlink:href="#transformed-06966" transform="translate(0, 0)"></use><use xlink:href="#transformed-06966" transform="translate(250, 0)"></use><use xlink:href="#transformed-06966" transform="translate(-250, 250)"></use><use xlink:href="#transformed-06966" transform="translate(0, 250)"></use><use xlink:href="#transformed-06966" transform="translate(250, 250)"></use><use xlink:href="#transformed-19784" transform="translate(-250, -250)"></use><use xlink:href="#transformed-19784" transform="translate(0, -250)"></use><use xlink:href="#transformed-19784" transform="translate(250, -250)"></use><use xlink:href="#transformed-19784" transform="translate(-250, 0)"></use><use xlink:href="#transformed-19784" transform="translate(0, 0)"></use><use xlink:href="#transformed-19784" transform="translate(250, 0)"></use><use xlink:href="#transformed-19784" transform="translate(-250, 250)"></use><use xlink:href="#transformed-19784" transform="translate(0, 250)"></use><use xlink:href="#transformed-19784" transform="translate(250, 250)"></use><use xlink:href="#transformed-86215" transform="translate(-250, -250)"></use><use xlink:href="#transformed-86215" transform="translate(0, -250)"></use><use xlink:href="#transformed-86215" transform="translate(250, -250)"></use><use xlink:href="#transformed-86215" transform="translate(-250, 0)"></use><use xlink:href="#transformed-86215" transform="translate(0, 0)"></use><use xlink:href="#transformed-86215" transform="translate(250, 0)"></use><use xlink:href="#transformed-86215" transform="translate(-250, 250)"></use><use xlink:href="#transformed-86215" transform="translate(0, 250)"></use><use xlink:href="#transformed-86215" transform="translate(250, 250)"></use><use xlink:href="#transformed-06901" transform="translate(-250, -250)"></use><use xlink:href="#transformed-06901" transform="translate(0, -250)"></use><use xlink:href="#transformed-06901" transform="translate(250, -250)"></use><use xlink:href="#transformed-06901" transform="translate(-250, 0)"></use><use xlink:href="#transformed-06901" transform="translate(0, 0)"></use><use xlink:href="#transformed-06901" transform="translate(250, 0)"></use><use xlink:href="#transformed-06901" transform="translate(-250, 250)"></use><use xlink:href="#transformed-06901" transform="translate(0, 250)"></use><use xlink:href="#transformed-06901" transform="translate(250, 250)"></use><use xlink:href="#transformed-46723" transform="translate(-250, -250)"></use><use xlink:href="#transformed-46723" transform="translate(0, -250)"></use><use xlink:href="#transformed-46723" transform="translate(250, -250)"></use><use xlink:href="#transformed-46723" transform="translate(-250, 0)"></use><use xlink:href="#transformed-46723" transform="translate(0, 0)"></use><use xlink:href="#transformed-46723" transform="translate(250, 0)"></use><use xlink:href="#transformed-46723" transform="translate(-250, 250)"></use><use xlink:href="#transformed-46723" transform="translate(0, 250)"></use><use xlink:href="#transformed-46723" transform="translate(250, 250)"></use><use xlink:href="#transformed-24918" transform="translate(-250, -250)"></use><use xlink:href="#transformed-24918" transform="translate(0, -250)"></use><use xlink:href="#transformed-24918" transform="translate(250, -250)"></use><use xlink:href="#transformed-24918" transform="translate(-250, 0)"></use><use xlink:href="#transformed-24918" transform="translate(0, 0)"></use><use xlink:href="#transformed-24918" transform="translate(250, 0)"></use><use xlink:href="#transformed-24918" transform="translate(-250, 250)"></use><use xlink:href="#transformed-24918" transform="translate(0, 250)"></use><use xlink:href="#transformed-24918" transform="translate(250, 250)"></use><use xlink:href="#transformed-46194" transform="translate(-250, -250)"></use><use xlink:href="#transformed-46194" transform="translate(0, -250)"></use><use xlink:href="#transformed-46194" transform="translate(250, -250)"></use><use xlink:href="#transformed-46194" transform="translate(-250, 0)"></use><use xlink:href="#transformed-46194" transform="translate(0, 0)"></use><use xlink:href="#transformed-46194" transform="translate(250, 0)"></use><use xlink:href="#transformed-46194" transform="translate(-250, 250)"></use><use xlink:href="#transformed-46194" transform="translate(0, 250)"></use><use xlink:href="#transformed-46194" transform="translate(250, 250)"></use><use xlink:href="#transformed-81231" transform="translate(-250, -250)"></use><use xlink:href="#transformed-81231" transform="translate(0, -250)"></use><use xlink:href="#transformed-81231" transform="translate(250, -250)"></use><use xlink:href="#transformed-81231" transform="translate(-250, 0)"></use><use xlink:href="#transformed-81231" transform="translate(0, 0)"></use><use xlink:href="#transformed-81231" transform="translate(250, 0)"></use><use xlink:href="#transformed-81231" transform="translate(-250, 250)"></use><use xlink:href="#transformed-81231" transform="translate(0, 250)"></use><use xlink:href="#transformed-81231" transform="translate(250, 250)"></use></svg>