<svg version="1.1"
      xmlns="http://www.w3.org/2000/svg"
      xmlns:xlink="http://www.w3.org/1999/xlink"  id="snapshot-35647" width="250" height="250" viewBox="0 0 250 250"><desc>This image was made on Patterninja.com</desc><defs>
<!-- image 54116 -->
<g id="transformed-54116" data-image="54116" transform="translate(26.000000000000004, 22) rotate(0, 19.999999999999996, 20)"><g><svg version="1.1" width="39.99999999999999px" height="40px" viewBox="0 0 39.99999999999999 40"><g id="original-54116"><svg xmlns="http://www.w3.org/2000/svg" viewBox="0 0 512 512" xmlns:xlink="http://www.w3.org/1999/xlink" version="1.1" preserveAspectRatio="xMidYMid meet">
  <path d="M495.484 90.839H16.516L7.817 101v294.151c0 9.122 7.395 16.516 16.516 16.516H502l10-7.021v-297.29c0-9.123-7.395-16.517-16.516-16.517z" fill="rgba(149, 204, 129, 1)" stroke="none"/>
  <path d="M16.516 355.097V90.839C7.395 90.839 0 98.233 0 107.355v297.29c0 9.122 7.395 16.516 16.516 16.516h478.968c9.121 0 16.516-7.395 16.516-16.516H66.065c-27.365 0-49.549-22.183-49.549-49.548z" fill="rgba(125, 189, 128, 1)" stroke="none"/>
  <path d="M440.141 252.473L264.588 145.614a16.515 16.515 0 0 0-17.175 0L71.859 252.473c-2.643 1.609-2.643 5.446 0 7.054l175.553 106.859a16.515 16.515 0 0 0 17.175 0L440.14 259.527c2.644-1.609 2.644-5.445.001-7.054z" fill="rgba(255, 224, 125, 1)" stroke="none"/>
  <path d="M256 189.936c-24.565 0-45.998 13.407-57.382 33.302l-6.616 16.302a66.202 66.202 0 0 0-2.067 16.459c0 36.486 29.578 66.064 66.064 66.064 29.834 0 55.05-19.776 63.252-46.935l2.792-17.509c.013-.539.02-1.079.02-1.62.001-36.485-29.577-66.063-66.063-66.063z" fill="rgba(80, 85, 160, 1)" stroke="none"/>
  <path d="M192.002 239.541c45.894.372 89.785 12.681 127.25 35.589a65.88 65.88 0 0 0 2.792-17.509c-36.905-21.207-79.232-33.007-123.427-34.382a65.78 65.78 0 0 0-6.615 16.302z" fill="rgba(255, 255, 255, 1)" stroke="none"/>
</svg>
</g></svg></g></g>
<!-- /image 54116 -->

<!-- image 85395 -->
<g id="transformed-85395" data-image="85395" transform="translate(26, 22) rotate(0, 20, 20)"><g><svg version="1.1" width="40px" height="40px" viewBox="0 0 40 40"><g id="original-85395"><svg xmlns="http://www.w3.org/2000/svg" viewBox="0 0 512 512" xmlns:xlink="http://www.w3.org/1999/xlink" version="1.1" preserveAspectRatio="xMidYMid meet">
  <path d="M495.484 90.839H16.516L7.817 101v294.151c0 9.122 7.395 16.516 16.516 16.516H502l10-7.021v-297.29c0-9.123-7.395-16.517-16.516-16.517z" fill="rgba(229, 100, 110, 1)" stroke="none"/>
  <path d="M16.516 355.097V90.839C7.395 90.839 0 98.233 0 107.355v297.29c0 9.122 7.395 16.516 16.516 16.516h478.968c9.121 0 16.516-7.395 16.516-16.516H66.065c-27.365 0-49.549-22.183-49.549-49.548z" fill="rgba(219, 70, 85, 1)" stroke="none"/>
  <path d="M144.611 186.742l-26.589-.233-13.055-28.57c-1.233-3.699-6.465-3.699-7.699 0l-9.528 28.57-30.116.233c-3.899.03-5.516 5.006-2.379 7.323l24.227 17.891-9.084 28.714c-1.176 3.718 3.056 6.793 6.229 4.526l24.502-17.513 24.502 17.513c3.172 2.267 7.405-.808 6.229-4.526l-9.084-28.714 24.227-17.891c3.134-2.317 1.517-7.293-2.382-7.323z" fill="rgba(255, 224, 125, 1)" stroke="none"/>
  <path d="M176.121 133.827l-5.431-.048-3.653-7.995a5.04 5.04 0 0 0-9.367.5l-2.499 7.494-7.223.056c-4.63.036-6.55 5.944-2.825 8.695l5.81 4.291-2.179 6.886c-1.397 4.414 3.629 8.066 7.396 5.374l5.876-4.2 5.876 4.2c3.767 2.692 8.793-.959 7.396-5.374l-2.179-6.886 5.822-4.299c3.722-2.748 1.807-8.654-2.82-8.694z" fill="rgba(255, 224, 125, 1)" stroke="none"/>
  <path d="M176.121 264.924l-5.431-.048-3.653-7.995a5.04 5.04 0 0 0-9.367.5l-2.499 7.494-7.223.056c-4.63.036-6.55 5.944-2.825 8.695l5.81 4.291-2.179 6.886c-1.397 4.414 3.629 8.066 7.396 5.374l5.876-4.2 5.876 4.2c3.767 2.692 8.793-.959 7.396-5.374l-2.179-6.886 5.822-4.299c3.722-2.749 1.807-8.654-2.82-8.694z" fill="rgba(255, 224, 125, 1)" stroke="none"/>
  <path d="M214.658 224.321l-5.431-.048-3.653-7.995a5.04 5.04 0 0 0-9.367.5l-2.499 7.494-7.223.056c-4.63.036-6.55 5.944-2.825 8.695l5.81 4.291-2.179 6.886c-1.397 4.414 3.63 8.066 7.396 5.374l5.876-4.2 5.876 4.2c3.767 2.692 8.793-.959 7.396-5.374l-2.179-6.886 5.822-4.299c3.723-2.748 1.807-8.653-2.82-8.694z" fill="rgba(255, 224, 125, 1)" stroke="none"/>
  <path d="M214.658 170.644l-5.431-.048-3.653-7.995a5.04 5.04 0 0 0-9.367.5l-2.499 7.494-7.223.056c-4.63.036-6.55 5.944-2.825 8.695l5.81 4.291-2.179 6.886c-1.397 4.414 3.63 8.066 7.396 5.374l5.876-4.2 5.876 4.2c3.767 2.692 8.793-.959 7.396-5.374l-2.179-6.886 5.822-4.299c3.723-2.748 1.807-8.653-2.82-8.694z" fill="rgba(255, 224, 125, 1)" stroke="none"/>
</svg>
</g></svg></g></g>
<!-- /image 85395 -->

<!-- image 85587 -->
<g id="transformed-85587" data-image="85587" transform="translate(26.00000000000001, 22) rotate(0, 19.99999999999999, 20)"><g><svg version="1.1" width="39.99999999999998px" height="40px" viewBox="0 0 39.99999999999998 40"><g id="original-85587"><svg xmlns="http://www.w3.org/2000/svg" viewBox="0 0 512 512" xmlns:xlink="http://www.w3.org/1999/xlink" version="1.1" preserveAspectRatio="xMidYMid meet">
  <path d="M170.667 90.839H16.516l-6.032 16.516v289.796c0 9.121 7.395 16.516 16.516 16.516h143.667l19.269-17.283V115.616z" fill="rgba(80, 85, 160, 1)" stroke="none"/>
  <path d="M341.333 413.5h154.151L512 404.645v-297.29c0-9.121-7.395-16.516-16.516-16.516H341.333l-19.269 24.778v280.768z" fill="rgba(229, 100, 110, 1)" stroke="none"/>
  <path d="M512 404.645H328.489l12.844 16.516h154.151c9.121 0 16.516-7.394 16.516-16.516z" fill="rgba(219, 70, 85, 1)" stroke="none"/>
  <path d="M16.516 355.097V90.839C7.395 90.839 0 98.233 0 107.355v297.29c0 9.122 7.395 16.516 16.516 16.516h154.151l12.844-16.516H66.065c-27.365 0-49.549-22.183-49.549-49.548z" fill="rgba(63, 63, 143, 1)" stroke="none"/>
  <path d="M187.333 413.667h141l13-9.022V90.839H170.667v313.806z" fill="rgba(242, 242, 246, 1)" stroke="none"/>
  <path d="M170.667 404.645h170.666v16.516H170.667z" fill="rgba(225, 225, 230, 1)" stroke="none"/>
</svg>
</g></svg></g></g>
<!-- /image 85587 -->

<!-- image 89916 -->
<g id="transformed-89916" data-image="89916" transform="translate(26, 22.000000000000018) rotate(0, 20, 19.999999999999982)"><g><svg version="1.1" width="40px" height="39.999999999999964px" viewBox="0 0 40 39.999999999999964"><g id="original-89916"><svg xmlns="http://www.w3.org/2000/svg" viewBox="0 0 512 512" xmlns:xlink="http://www.w3.org/1999/xlink" version="1.1" preserveAspectRatio="xMidYMid meet">
  <path d="M512 200.946v-93.591c0-9.122-7.395-16.516-16.516-16.516H16.516l-8.849 16.516v93.591l17.104 22.022h462.456z" fill="rgba(93, 83, 96, 1)" stroke="none"/>
  <path d="M0 107.355v93.591l16.516 14.683V90.839C7.395 90.839 0 98.233 0 107.355z" fill="rgba(75, 63, 78, 1)" stroke="none"/>
  <path d="M7.817 311.054v86.43c0 9.122 7.395 16.516 16.516 16.516h471.151L512 404.645v-93.591l-24.77-22.022H24.774z" fill="rgba(255, 224, 125, 1)" stroke="none"/>
  <path d="M16.516 355.097v-58.724L0 311.054v93.591c0 9.122 7.395 16.516 16.516 16.516h478.968c9.121 0 16.516-7.394 16.516-16.516H66.065c-27.365 0-49.549-22.183-49.549-49.548z" fill="rgba(255, 208, 100, 1)" stroke="none"/>
  <path d="M8.667 297l7.849 14.053H512V200.946H16.516l-7.849 17.387z" fill="rgba(229, 100, 110, 1)" stroke="none"/>
  <path d="M0 200.946h16.516v110.107H0z" fill="rgba(219, 70, 85, 1)" stroke="none"/>
</svg>
</g></svg></g></g>
<!-- /image 89916 -->

<!-- image 61286 -->
<g id="transformed-61286" data-image="61286" transform="translate(26.000000000000014, 22) rotate(0, 19.999999999999986, 20)"><g><svg version="1.1" width="39.99999999999997px" height="40px" viewBox="0 0 39.99999999999997 40"><g id="original-61286"><svg xmlns="http://www.w3.org/2000/svg" viewBox="0 0 512 512" xmlns:xlink="http://www.w3.org/1999/xlink" version="1.1" preserveAspectRatio="xMidYMid meet">
  <path d="M170.667 90.839H16.516l-6.032 16.516v289.796c0 9.121 7.395 16.516 16.516 16.516h143.667l19.269-17.283V115.616z" fill="rgba(149, 204, 129, 1)" stroke="none"/>
  <path d="M341.333 413.5h154.151L512 404.645v-297.29c0-9.121-7.395-16.516-16.516-16.516H341.333l-19.269 24.778v280.768z" fill="rgba(229, 100, 110, 1)" stroke="none"/>
  <path d="M512 404.645H328.489l12.844 16.516h154.151c9.121 0 16.516-7.394 16.516-16.516z" fill="rgba(219, 70, 85, 1)" stroke="none"/>
  <path d="M16.516 355.097V90.839C7.395 90.839 0 98.233 0 107.355v297.29c0 9.122 7.395 16.516 16.516 16.516h154.151l12.844-16.516H66.065c-27.365 0-49.549-22.183-49.549-49.548z" fill="rgba(125, 189, 128, 1)" stroke="none"/>
  <path d="M187.333 413.667h141l13-9.022V90.839H170.667v313.806z" fill="rgba(242, 242, 246, 1)" stroke="none"/>
  <path d="M170.667 404.645h170.666v16.516H170.667z" fill="rgba(225, 225, 230, 1)" stroke="none"/>
</svg>
</g></svg></g></g>
<!-- /image 61286 -->

<!-- image 00229 -->
<g id="transformed-00229" data-image="00229" transform="translate(26, 22.000000000000025) rotate(0, 20, 19.999999999999975)"><g><svg version="1.1" width="40px" height="39.99999999999995px" viewBox="0 0 40 39.99999999999995"><g id="original-00229"><svg xmlns="http://www.w3.org/2000/svg" viewBox="0 0 512 512" xmlns:xlink="http://www.w3.org/1999/xlink" version="1.1" preserveAspectRatio="xMidYMid meet">
  <path d="M495.484 90.839H16.516L7.817 101v294.151c0 9.122 7.395 16.516 16.516 16.516H502l10-7.021v-297.29c0-9.123-7.395-16.517-16.516-16.517z" fill="rgba(242, 242, 246, 1)" stroke="none"/>
  <path d="M16.516 355.097V90.839C7.395 90.839 0 98.233 0 107.355v297.29c0 9.122 7.395 16.516 16.516 16.516h478.968c9.121 0 16.516-7.395 16.516-16.516H66.065c-27.365 0-49.549-22.183-49.549-49.548z" fill="rgba(225, 225, 230, 1)" stroke="none"/>
  <circle cx="256" cy="256" r="82.581" fill="rgba(229, 100, 110, 1)" stroke="none"/>
</svg>
</g></svg></g></g>
<!-- /image 00229 -->

<!-- image 30126 -->
<g id="transformed-30126" data-image="30126" transform="translate(110, 21) rotate(0, 20, 20)"><g><svg version="1.1" width="40px" height="40px" viewBox="0 0 40 40"><g id="original-30126"><svg xmlns="http://www.w3.org/2000/svg" viewBox="0 0 512 512" xmlns:xlink="http://www.w3.org/1999/xlink" version="1.1" preserveAspectRatio="xMidYMid meet">
  <path d="M406 241c-8.291 0-15 6.709-15 15 0 25.327-18.003 44.414-41.895 44.414-18.545 0-36.226-11.777-49.805-33.164C286.396 246.889 271 207.602 271 136c0-8.291-6.709-15-15-15s-15 6.709-15 15c0 67.778-26.631 105.103-75 105.103-38.628 0-75-25.4-75-45.103 0-8.291-6.709-15-15-15s-15 6.709-15 15c0 38.613 51.035 75.103 105 75.103 12.323 0 38.582-2.439 61.756-20.555-9.789 34.353-22.82 50.452-31.653 50.452-62.153 0-106.245 55.796-106.245 73.579 0 3.97 2.153 8.496 4.966 11.323C97.636 388.715 102.016 391 106 391h150c1.685 0 41.572-.337 58.447-29.927 5.874-10.298 8.027-22.427 6.46-36.284 9.067 3.691 18.56 5.625 28.198 5.625C389.418 330.414 421 297.733 421 256c0-8.291-6.709-15-15-15z" fill="rgba(153, 92, 92, 1)" stroke="none"/>
  <path d="M314.447 361.073c5.874-10.298 8.027-22.427 6.46-36.284 9.067 3.691 18.56 5.625 28.198 5.625C389.418 330.414 421 297.733 421 256c0-8.291-6.709-15-15-15s-15 6.709-15 15c0 25.327-18.003 44.414-41.895 44.414-18.545 0-36.226-11.777-49.805-33.164C286.396 246.889 271 207.602 271 136c0-8.291-6.709-15-15-15v270c1.685 0 41.572-.337 58.447-29.927z" fill="rgba(89, 31, 31, 1)" stroke="none"/>
  <path d="M467 271h-91c-24.814 0-45-20.186-45-45 0-20.273 13.477-37.456 31.934-43.066C368.544 164.477 385.727 151 406 151h30c20.273 0 38.456 13.477 44.066 31.934C498.523 188.544 512 205.727 512 226c0 24.814-20.186 45-45 45zm15-75h.293z" fill="rgba(38, 191, 166, 1)" stroke="none"/>
  <path d="M323.075 30.542C312.631 12.026 292.855 0 271 0c-5.151 0-10.162.775-15 2.043-15.591 4.089-29.073 14.302-37.09 28.513-17.109 2.725-31.025 16.117-35.977 32.377C164.477 68.544 151 85.727 151 106c0 24.814 20.186 45 45 45h135c33.091 0 60-26.909 60-60 0-35.742-32.578-65.438-67.925-60.458z" fill="rgba(101, 214, 169, 1)" stroke="none"/>
  <path d="M391 91c0-35.742-32.578-65.438-67.925-60.458C312.631 12.026 292.855 0 271 0c-5.151 0-10.162.775-15 2.043V151h75c33.091 0 60-26.909 60-60z" fill="rgba(38, 191, 166, 1)" stroke="none"/>
  <path d="M106 211H46c-24.814 0-46-20.186-46-45 0-20.273 14.477-37.456 32.934-43.066C38.544 104.477 55.727 91 76 91s37.456 13.477 43.066 31.934C137.523 128.544 151 145.727 151 166c0 24.814-20.186 45-45 45zm15-75h.293z" fill="rgba(101, 214, 169, 1)" stroke="none"/>
  <path d="M450.637 376H61.363c-.002.989-.266 1.957-.07 2.944.645 3.237 16.436 80.995 64.102 128.661A14.986 14.986 0 0 0 136 512h240c3.984 0 7.793-1.582 10.605-4.395 47.666-47.666 63.457-125.424 64.102-128.661.196-.987-.068-1.955-.07-2.944z" fill="rgba(213, 232, 254, 1)" stroke="none"/>
  <path d="M386.605 507.605c47.666-47.666 63.457-125.424 64.102-128.661.196-.987-.068-1.956-.07-2.944H256v136h120c3.984 0 7.793-1.582 10.605-4.395z" fill="rgba(181, 219, 255, 1)" stroke="none"/>
  <path d="M466 361H46c-8.291 0-15 6.709-15 15s6.709 15 15 15h420c8.291 0 15-6.709 15-15s-6.709-15-15-15z" fill="rgba(237, 245, 255, 1)" stroke="none"/>
  <path d="M481 376c0-8.291-6.709-15-15-15H256v30h210c8.291 0 15-6.709 15-15z" fill="rgba(213, 232, 254, 1)" stroke="none"/>
</svg>
</g></svg></g></g>
<!-- /image 30126 -->

<!-- image 49453 -->
<g id="transformed-49453" data-image="49453" transform="translate(110, 95) rotate(0, 22.999999999999996, 23)"><g><svg version="1.1" width="45.99999999999999px" height="46px" viewBox="0 0 45.99999999999999 46"><g id="original-49453"><svg xmlns="http://www.w3.org/2000/svg" viewBox="0 0 512 512" xmlns:xlink="http://www.w3.org/1999/xlink" version="1.1" preserveAspectRatio="xMidYMid meet">
  <rect width="368" height="368" x="24" y="24" rx="184" fill="rgba(249, 39, 20, 1)" stroke="none"/>
  <path d="M24 448l88.8-50.745A220.213 220.213 0 0 0 216 264h80a220.213 220.213 0 0 0 103.2 133.255L488 448v40H24z" fill="rgba(0, 113, 188, 1)" stroke="none"/>
  <path d="M460 184H300a20 20 0 0 1-20-20 20 20 0 0 1 20-20h28a40 40 0 0 1 40-40h16v-4a36 36 0 0 1 36-36 36 36 0 0 1 36 36v28h4a28 28 0 0 1 28 28 28 28 0 0 1-28 28z" fill="rgba(234, 234, 234, 1)" stroke="none"/>
  <path d="M240 312l24 88 16-72 24 40 16-40h5.086A220.137 220.137 0 0 1 296 264h-80a220.177 220.177 0 0 1-47.546 88H216z" fill="rgba(234, 234, 234, 1)" stroke="none"/>
  <path d="M399.2 397.255a220.124 220.124 0 0 1-46.62-35.655A400.891 400.891 0 0 1 176.776 488H488v-40z" fill="rgba(0, 82, 137, 1)" stroke="none"/>
</svg>
</g></svg></g></g>
<!-- /image 49453 -->

<!-- image 11552 -->
<g id="transformed-11552" data-image="11552" transform="translate(197, 19.00000000000001) rotate(0, 22, 21.99999999999999)"><g><svg version="1.1" width="44px" height="43.99999999999998px" viewBox="0 0 44 43.99999999999998"><g id="original-11552"><svg xmlns="http://www.w3.org/2000/svg" viewBox="0 0 512 512" xmlns:xlink="http://www.w3.org/1999/xlink" version="1.1" preserveAspectRatio="xMidYMid meet">
  <path d="M88 56h408v32H88z" fill="rgba(161, 118, 74, 1)" stroke="none"/>
  <path d="M254.245 419.318c34.665-26.666 44.42-13.984 79.086-40.65 34.667-26.667 24.912-39.349 59.58-66.016S437.332 298.667 472 272l-40-72c-34.667 26.667-44.423 13.985-79.09 40.652s-24.912 39.35-59.579 66.016c-34.665 26.666-44.42 13.984-79.086 40.65z" fill="rgba(122, 181, 85, 1)" stroke="none"/>
  <path d="M376 288a56 56 0 1 1-56-56 55.953 55.953 0 0 1 56 56z" fill="rgba(220, 146, 101, 1)" stroke="none"/>
  <path d="M352 288v40a32.255 32.255 0 0 1-.64 6.41A55.807 55.807 0 0 1 320 344a16.021 16.021 0 0 0 16-16v-40a16 16 0 1 0-16 16v16a32 32 0 1 1 32-32z" fill="rgba(173, 105, 61, 1)" stroke="none"/>
  <path d="M136 472c0-21.203-16-21.203-16-42.406s16-21.203 16-42.405c0-21.2-16-21.2-16-42.4s16-21.2 16-42.401c0-21.2-16-21.2-16-42.4 0-21.199 16-21.199 16-42.398 0-21.197-16-21.197-16-42.394 0-21.199 16-21.199 16-42.398 0-21.2-16-21.2-16-42.4C120 69.2 136 69.2 136 48v-4a20 20 0 0 1 20-20 20 20 0 0 1 20 20v4c0 21.2-16 21.2-16 42.399 0 21.2 16 21.2 16 42.4 0 21.198-16 21.198-16 42.397 0 21.197 16 21.197 16 42.394 0 21.2-16 21.2-16 42.398 0 21.2 16 21.2 16 42.4s-16 21.2-16 42.4 16 21.2 16 42.4c0 21.203-16 21.203-16 42.406s16 21.203 16 42.406" fill="rgba(242, 227, 104, 1)" stroke="none"/>
  <path d="M176 472c0-21.203-16-21.203-16-42.406s16-21.203 16-42.405c0-21.2-16-21.2-16-42.4s16-21.2 16-42.401c0-21.2-16-21.2-16-42.4 0-21.199 16-21.199 16-42.398 0-21.197-16-21.197-16-42.394 0-21.199 16-21.199 16-42.398 0-21.2-16-21.2-16-42.4C160 69.2 176 69.2 176 48v-4a20 20 0 0 1 20-20 20 20 0 0 1 20 20v4c0 21.2-16 21.2-16 42.399 0 21.2 16 21.2 16 42.4 0 21.198-16 21.198-16 42.397 0 21.197 16 21.197 16 42.394 0 21.2-16 21.2-16 42.398 0 21.2 16 21.2 16 42.4s-16 21.2-16 42.4 16 21.2 16 42.4c0 21.203-16 21.203-16 42.406s16 21.203 16 42.406" fill="rgba(234, 207, 77, 1)" stroke="none"/>
  <path d="M216 472c0-21.203-16-21.203-16-42.406s16-21.203 16-42.405c0-21.2-16-21.2-16-42.4s16-21.2 16-42.401c0-21.2-16-21.2-16-42.4 0-21.199 16-21.199 16-42.398 0-21.197-16-21.197-16-42.394 0-21.199 16-21.199 16-42.398 0-21.2-16-21.2-16-42.4C200 69.2 216 69.2 216 48v-4a20 20 0 0 1 20-20 20 20 0 0 1 20 20v4c0 21.2-16 21.2-16 42.399 0 21.2 16 21.2 16 42.4 0 21.198-16 21.198-16 42.397 0 21.197 16 21.197 16 42.394 0 21.2-16 21.2-16 42.398 0 21.2 16 21.2 16 42.4s-16 21.2-16 42.4 16 21.2 16 42.4c0 21.203-16 21.203-16 42.406s16 21.203 16 42.406" fill="rgba(242, 227, 104, 1)" stroke="none"/>
  <path d="M256 472c0-21.203-16-21.203-16-42.406s16-21.203 16-42.405c0-21.2-16-21.2-16-42.4s16-21.2 16-42.401c0-21.2-16-21.2-16-42.4 0-21.199 16-21.199 16-42.398 0-21.197-16-21.197-16-42.394 0-21.199 16-21.199 16-42.398 0-21.2-16-21.2-16-42.4C240 69.2 256 69.2 256 48v-4a20 20 0 0 1 20-20 20 20 0 0 1 20 20v4c0 21.2-16 21.2-16 42.399 0 21.2 16 21.2 16 42.4 0 21.198-16 21.198-16 42.397 0 21.197 16 21.197 16 42.394 0 21.2-16 21.2-16 42.398 0 21.2 16 21.2 16 42.4s-16 21.2-16 42.4 16 21.2 16 42.4c0 21.203-16 21.203-16 42.406s16 21.203 16 42.406" fill="rgba(234, 207, 77, 1)" stroke="none"/>
  <path d="M136 248h-4.775a100.419 100.419 0 0 1-62.731-22.005A33.29 33.29 0 0 1 56 200a33.29 33.29 0 0 1 12.494-25.995A100.419 100.419 0 0 1 131.225 152H136a48 48 0 0 1 48 48 48 48 0 0 1-48 48z" fill="rgba(230, 230, 230, 1)" stroke="none"/>
  <circle cx="136" cy="200" r="16" fill="rgba(255, 204, 119, 1)" stroke="none"/>
  <path d="M360 144a56 56 0 1 1-56-56 55.953 55.953 0 0 1 56 56z" fill="rgba(220, 146, 101, 1)" stroke="none"/>
  <path d="M336 144v40a32.255 32.255 0 0 1-.64 6.41A55.807 55.807 0 0 1 304 200a16.021 16.021 0 0 0 16-16v-40a16 16 0 1 0-16 16v16a32 32 0 1 1 32-32z" fill="rgba(173, 105, 61, 1)" stroke="none"/>
  <path d="M136 456h224v32H136z" fill="rgba(199, 22, 31, 1)" stroke="none"/>
  <path d="M472 312v32c0 2.51-.08 5-.26 7.47a108.232 108.232 0 0 1-2.19 15.91 111.826 111.826 0 0 1-16.52 39v.01A111.889 111.889 0 0 1 360 456H136A111.885 111.885 0 0 1 24.05 347.15c-.04-1.05-.05-2.1-.05-3.15v-32z" fill="rgba(235, 53, 47, 1)" stroke="none"/>
  <path d="M471.74 351.47a108.232 108.232 0 0 1-2.19 15.91c-7.99-1.56-12.86-5.8-16.93-9.35-4.16-3.63-6.92-6.03-13.1-6.03s-8.93 2.4-13.09 6.03c-5.1 4.44-11.44 9.97-23.61 9.97-12.18 0-18.52-5.53-23.61-9.97-4.17-3.63-6.92-6.03-13.1-6.03-6.17 0-8.92 2.4-13.09 6.03-5.09 4.44-11.43 9.97-23.61 9.97-12.17 0-18.51-5.53-23.61-9.97-4.16-3.63-6.91-6.03-13.09-6.03s-8.93 2.4-13.1 6.03c-5.09 4.44-11.44 9.97-23.61 9.97s-18.51-5.53-23.61-9.97c-4.16-3.63-6.92-6.03-13.09-6.03-6.18 0-8.93 2.4-13.1 6.03-5.09 4.44-11.43 9.97-23.61 9.97-12.17 0-18.51-5.53-23.61-9.97-4.16-3.63-6.91-6.03-13.09-6.03s-8.93 2.4-13.1 6.03c-5.09 4.44-11.43 9.97-23.61 9.97-12.17 0-18.51-5.53-23.6-9.97-4.17-3.63-6.92-6.03-13.1-6.03s-8.93 2.4-13.09 6.03c-5.1 4.44-11.44 9.97-23.61 9.97a32.465 32.465 0 0 1-9.47-1.31 111.131 111.131 0 0 1-2.26-19.54c3.47 2.96 6.25 4.85 11.73 4.85 6.18 0 8.93-2.4 13.09-6.03 5.1-4.44 11.44-9.97 23.61-9.97 12.18 0 18.52 5.53 23.61 9.97 4.17 3.63 6.92 6.03 13.09 6.03 6.18 0 8.93-2.4 13.1-6.03 5.09-4.44 11.44-9.97 23.61-9.97s18.51 5.53 23.61 9.97c4.16 3.63 6.91 6.03 13.09 6.03s8.93-2.4 13.1-6.03c5.09-4.44 11.43-9.97 23.61-9.97 12.17 0 18.51 5.53 23.61 9.97 4.16 3.63 6.91 6.03 13.09 6.03s8.93-2.4 13.1-6.03c5.09-4.44 11.43-9.97 23.61-9.97 12.17 0 18.51 5.53 23.61 9.97 4.16 3.63 6.91 6.03 13.09 6.03s8.93-2.4 13.1-6.03c5.09-4.44 11.43-9.97 23.6-9.97 12.18 0 18.52 5.53 23.61 9.97 4.17 3.63 6.92 6.03 13.1 6.03s8.93-2.4 13.09-6.03c5.1-4.44 11.44-9.97 23.61-9.97 12.18 0 18.52 5.53 23.61 9.97 3 2.61 5.27 4.59 8.61 5.5z" fill="rgba(199, 22, 31, 1)" stroke="none"/>
  <path d="M461.1 392.23a109.525 109.525 0 0 1-8.07 14.15c-.14-.11-.27-.23-.41-.35-4.16-3.63-6.92-6.03-13.1-6.03s-8.93 2.4-13.09 6.03c-5.1 4.44-11.44 9.97-23.61 9.97-12.18 0-18.52-5.53-23.61-9.97-4.17-3.63-6.92-6.03-13.1-6.03-6.17 0-8.92 2.4-13.09 6.03-5.09 4.44-11.43 9.97-23.61 9.97-12.17 0-18.51-5.53-23.61-9.97-4.16-3.63-6.91-6.03-13.09-6.03s-8.93 2.4-13.1 6.03c-5.09 4.44-11.44 9.97-23.61 9.97s-18.51-5.53-23.61-9.97c-4.16-3.63-6.92-6.03-13.09-6.03-6.18 0-8.93 2.4-13.1 6.03-5.09 4.44-11.43 9.97-23.61 9.97-12.17 0-18.51-5.53-23.61-9.97-4.16-3.63-6.91-6.03-13.09-6.03s-8.93 2.4-13.1 6.03c-5.09 4.44-11.43 9.97-23.61 9.97-12.17 0-18.51-5.53-23.6-9.97-4.17-3.63-6.92-6.03-13.1-6.03s-8.93 2.4-13.09 6.03c-2.98 2.6-6.39 5.56-11.13 7.58a110.96 110.96 0 0 1-9.41-13.85c4.16-.68 6.62-2.82 10.02-5.79 5.1-4.44 11.44-9.97 23.61-9.97 12.18 0 18.52 5.53 23.61 9.97 4.17 3.63 6.92 6.03 13.09 6.03 6.18 0 8.93-2.4 13.1-6.03 5.09-4.44 11.44-9.97 23.61-9.97s18.51 5.53 23.61 9.97c4.16 3.63 6.91 6.03 13.09 6.03s8.93-2.4 13.1-6.03c5.09-4.44 11.43-9.97 23.61-9.97 12.17 0 18.51 5.53 23.61 9.97 4.16 3.63 6.91 6.03 13.09 6.03s8.93-2.4 13.1-6.03c5.09-4.44 11.43-9.97 23.61-9.97 12.17 0 18.51 5.53 23.61 9.97 4.16 3.63 6.91 6.03 13.09 6.03s8.93-2.4 13.1-6.03c5.09-4.44 11.43-9.97 23.6-9.97 12.18 0 18.52 5.53 23.61 9.97 4.17 3.63 6.92 6.03 13.1 6.03s8.93-2.4 13.09-6.03c5.1-4.44 11.44-9.97 23.61-9.97 10.62 0 16.8 4.2 21.58 8.23z" fill="rgba(199, 22, 31, 1)" stroke="none"/>
  <path d="M88 24h408v32H88z" fill="rgba(188, 141, 93, 1)" stroke="none"/>
</svg>
</g></svg></g></g>
<!-- /image 11552 -->

<!-- image 11639 -->
<g id="transformed-11639" data-image="11639" transform="translate(195, 96) rotate(0, 22, 22)"><g><svg version="1.1" width="44px" height="44px" viewBox="0 0 44 44"><g id="original-11639"><svg xmlns="http://www.w3.org/2000/svg" viewBox="0 0 512.001 512.001" xmlns:xlink="http://www.w3.org/1999/xlink" version="1.1" preserveAspectRatio="xMidYMid meet">
  <path d="M509.385 419.037v92.961h-235.62v-92.961c0-30.664 14.874-57.855 37.801-74.761a91.921 91.921 0 0 1 14.358-8.695 89.393 89.393 0 0 1 7.274-3.169 91.558 91.558 0 0 1 17.79-4.884h81.182a92.47 92.47 0 0 1 17.801 4.884 92.78 92.78 0 0 1 7.263 3.169 92.313 92.313 0 0 1 14.358 8.706c22.929 16.895 37.793 44.086 37.793 74.75z" fill="rgba(223, 20, 13, 1)" stroke="none"/>
  <path d="M394.279 327.528h-43.295c-43.834 7.421-77.219 45.563-77.219 91.511v92.963h43.294v-92.964c.001-45.949 33.386-84.089 77.22-91.51z" fill="rgba(191, 12, 12, 1)" stroke="none"/>
  <path d="M391.575 477.25a7.895 7.895 0 0 1-7.895-7.895V315.233c0-4.36 3.534-7.895 7.895-7.895s7.895 3.535 7.895 7.895v154.122a7.895 7.895 0 0 1-7.895 7.895z" fill="rgba(250, 202, 60, 1)" stroke="none"/>
  <path d="M431.731 425.039l34.21 7.895-34.21 7.895a8.103 8.103 0 0 1-3.644-15.79 8.237 8.237 0 0 1 3.644 0z" fill="rgba(191, 12, 12, 1)" stroke="none"/>
  <path d="M351.418 440.829l-34.21-7.895 34.21-7.895a8.103 8.103 0 0 1 3.644 15.79 8.237 8.237 0 0 1-3.644 0z" fill="rgba(191, 12, 12, 1)" stroke="none"/>
  <path d="M238.237 419.037v92.961H2.617v-92.961c0-39.486 24.654-73.213 59.413-86.624a92.238 92.238 0 0 1 24.011-5.727h68.761a91.989 91.989 0 0 1 24.001 5.727c34.77 13.401 59.434 47.128 59.434 86.624z" fill="rgba(0, 142, 226, 1)" stroke="none"/>
  <path d="M178.803 332.413c-10.495 10.527-22.854 18.274-36.38 22.338-.011 0-.011 0-.021.011a75.891 75.891 0 0 1-21.98 3.253c-22.117 0-42.423-9.59-58.392-25.601a92.238 92.238 0 0 1 24.011-5.727h68.761c8.38.842 16.433 2.8 24.001 5.726z" fill="rgba(2, 129, 193, 1)" stroke="none"/>
  <path d="M123.127 327.528H79.832c-43.834 7.421-77.219 45.563-77.219 91.511v92.963h43.294v-92.964c.002-45.949 33.386-84.089 77.22-91.51z" fill="rgba(2, 129, 193, 1)" stroke="none"/>
  <path d="M120.423 413.022a7.895 7.895 0 0 1-7.895-7.895v-86.385c0-4.36 3.534-7.895 7.895-7.895s7.895 3.535 7.895 7.895v86.385a7.894 7.894 0 0 1-7.895 7.895z" fill="rgba(223, 20, 13, 1)" stroke="none"/>
  <path d="M150.816 398.5l44.582 38.271-53.164-25.017-7.208-3.393 9.745-15.051z" fill="rgba(2, 129, 193, 1)" stroke="none"/>
  <path d="M98.613 411.754L45.45 436.771 90.03 398.5l6.046-5.19 9.745 15.051z" fill="rgba(2, 129, 193, 1)" stroke="none"/>
  <path d="M106.162 469.355h-1.572c-7.877 0-14.263-6.386-14.263-14.263v-50.019c0-7.877 6.386-14.263 14.263-14.263h1.572c7.877 0 14.263 6.386 14.263 14.263v50.019c-.001 7.878-6.386 14.263-14.263 14.263z" fill="rgba(255, 217, 187, 1)" stroke="none"/>
  <path d="M104.293 455.04v-49.914c0-5.662 3.296-10.541 8.066-12.864a14.237 14.237 0 0 0-6.25-1.452h-1.465c-7.906 0-14.315 6.409-14.315 14.315v49.914c0 7.906 6.409 14.315 14.315 14.315h1.465a14.24 14.24 0 0 0 6.25-1.452c-4.77-2.321-8.066-7.2-8.066-12.862z" fill="rgba(234, 194, 167, 1)" stroke="none"/>
  <path d="M134.39 455.04v-49.914c0-5.662 3.296-10.541 8.066-12.864a14.24 14.24 0 0 0-6.25-1.452h-1.465c-7.906 0-14.315 6.409-14.315 14.315v49.914c0 7.906 6.409 14.315 14.315 14.315h1.465a14.24 14.24 0 0 0 6.25-1.452c-4.771-2.321-8.066-7.2-8.066-12.862z" fill="rgba(234, 194, 167, 1)" stroke="none"/>
  <path d="M136.257 469.355h-1.572c-7.877 0-14.263-6.386-14.263-14.263v-50.019c0-7.877 6.386-14.263 14.263-14.263h1.572c7.877 0 14.263 6.386 14.263 14.263v50.019c0 7.878-6.385 14.263-14.263 14.263z" fill="rgba(255, 217, 187, 1)" stroke="none"/>
  <path d="M134.39 455.04v-49.914c0-5.662 3.296-10.541 8.066-12.864a14.24 14.24 0 0 0-6.25-1.452h-1.465c-7.906 0-14.315 6.409-14.315 14.315v49.914c0 7.906 6.409 14.315 14.315 14.315h1.465a14.24 14.24 0 0 0 6.25-1.452c-4.771-2.321-8.066-7.2-8.066-12.862z" fill="rgba(234, 194, 167, 1)" stroke="none"/>
  <path d="M391.579 392.774v76.58H351.42v-36.42c0-11.093 4.494-21.127 11.763-28.397a40.223 40.223 0 0 1 8.317-6.39 40.01 40.01 0 0 1 20.079-5.373z" fill="rgba(255, 217, 187, 1)" stroke="none"/>
  <path d="M431.727 432.934v36.42h-40.149v-76.58a40.098 40.098 0 0 1 17.628 4.064 40.528 40.528 0 0 1 10.757 7.699c7.271 7.27 11.764 17.304 11.764 28.397z" fill="rgba(255, 217, 187, 1)" stroke="none"/>
  <path d="M371.498 398.147v71.206h-20.08v-36.42c0-11.093 4.494-21.127 11.763-28.397a40.306 40.306 0 0 1 8.317-6.389z" fill="rgba(234, 194, 167, 1)" stroke="none"/>
  <path d="M409.207 396.839v72.515h-17.628v-76.58a40.102 40.102 0 0 1 17.628 4.065z" fill="rgba(234, 194, 167, 1)" stroke="none"/>
  <path d="M2.613 469.355h235.62V512H2.613z" fill="rgba(223, 20, 13, 1)" stroke="none"/>
  <path d="M36.375 469.355h33.619V512H36.375z" fill="rgba(250, 202, 60, 1)" stroke="none"/>
  <path d="M103.614 469.355h33.619V512h-33.619z" fill="rgba(250, 202, 60, 1)" stroke="none"/>
  <path d="M170.859 469.355h33.619V512h-33.619z" fill="rgba(250, 202, 60, 1)" stroke="none"/>
  <path d="M273.768 469.355h235.62V512h-235.62z" fill="rgba(0, 142, 226, 1)" stroke="none"/>
  <path d="M307.527 469.355h33.619V512h-33.619z" fill="rgba(250, 202, 60, 1)" stroke="none"/>
  <path d="M374.761 469.355h33.619V512h-33.619z" fill="rgba(250, 202, 60, 1)" stroke="none"/>
  <path d="M442.006 469.355h33.619V512h-33.619z" fill="rgba(250, 202, 60, 1)" stroke="none"/>
  <path d="M433.532 110.912C446.679 99.306 454.97 82.317 454.97 63.4c0-35.014-28.385-63.4-63.4-63.4s-63.4 28.386-63.4 63.4c0 18.927 8.291 35.917 21.449 47.523" fill="rgba(48, 45, 54, 1)" stroke="none"/>
  <path d="M364.305 63.4c0-28.735 19.123-52.992 45.332-60.773A63.383 63.383 0 0 0 391.569 0c-35.014 0-63.4 28.385-63.4 63.4 0 18.927 8.291 35.917 21.449 47.523l36.13-.004c-13.154-11.607-21.443-28.594-21.443-47.519z" fill="rgba(31, 28, 38, 1)" stroke="none"/>
  <circle cx="391.573" cy="218.966" r="115.889" fill="rgba(48, 45, 54, 1)" stroke="none"/>
  <path d="M324.394 218.965c0-55.647 39.226-102.125 91.532-113.313a116.291 116.291 0 0 0-24.353-2.572c-64.001 0-115.885 51.883-115.885 115.885S327.572 334.85 391.574 334.85c8.354 0 16.5-.892 24.353-2.572-52.307-11.188-91.533-57.666-91.533-113.313z" fill="rgba(31, 28, 38, 1)" stroke="none"/>
  <path d="M76.045 117.067h-.011c-23.42-11.22-38.978-31.061-38.978-53.666 0-35.014 37.327-63.4 83.374-63.4 46.037 0 83.362 28.385 83.362 63.4 0 22.605-15.558 42.447-38.978 53.656" fill="rgba(48, 45, 54, 1)" stroke="none"/>
  <path d="M82.617 63.4c0-29.005 25.624-53.443 60.591-60.983A107.999 107.999 0 0 0 120.429 0C74.382 0 37.056 28.385 37.056 63.4c0 22.605 15.558 42.447 38.978 53.666h.011l45.54-.005C98.171 105.84 82.617 86.001 82.617 63.4z" fill="rgba(31, 28, 38, 1)" stroke="none"/>
  <ellipse cx="120.425" cy="218.966" rx="93.14" ry="115.889" fill="rgba(48, 45, 54, 1)" stroke="none"/>
  <path d="M71.275 218.965c0-54.573 30.321-100.326 71.145-112.625a76.038 76.038 0 0 0-21.996-3.259c-51.44 0-93.14 51.883-93.14 115.885s41.701 115.885 93.14 115.885a76.082 76.082 0 0 0 21.996-3.259c-40.824-12.301-71.145-58.054-71.145-112.627z" fill="rgba(31, 28, 38, 1)" stroke="none"/>
  <path d="M209.867 251.399v.011c-9.259 39.594-35.048 70.431-67.446 80.182-.011 0-.011 0-.021.011a75.875 75.875 0 0 1-21.976 3.247c-42.39 0-78.161-35.226-89.442-83.44v-.011c5.499-23.484 16.801-43.878 31.853-58.625a18.634 18.634 0 0 1 11.931-5.3c3.404-.231 6.902.472 10.097 2.116 10.956 5.635 22.97 8.747 35.561 8.747s24.605-3.111 35.561-8.747c7.301-3.76 16.163-2.566 22.028 3.184 15.052 14.748 26.365 35.141 31.854 58.625z" fill="rgba(255, 217, 187, 1)" stroke="none"/>
  <path d="M449.972 332.413a114.77 114.77 0 0 1-34.117 13.211 115.442 115.442 0 0 1-24.285 2.558c-21.285 0-41.233-5.737-58.371-15.769a91.558 91.558 0 0 1 17.79-4.884h81.182a92.398 92.398 0 0 1 17.801 4.884z" fill="rgba(191, 12, 12, 1)" stroke="none"/>
  <path d="M470.316 303.971l.011.011c-15.01 13.91-33.707 23.892-54.467 28.313a116.035 116.035 0 0 1-24.29 2.556c-30.408 0-58.081-11.711-78.747-30.879-3.027-8.62-4.661-17.89-4.661-27.538 0-18.655 6.128-35.875 16.487-49.764a83.87 83.87 0 0 1 14.361-14.989c14.361 11.669 32.639 18.655 52.572 18.655 19.923 0 38.211-6.987 52.561-18.655 18.812 15.293 30.837 38.619 30.837 64.753-.003 9.647-1.638 18.916-4.664 27.537z" fill="rgba(255, 217, 187, 1)" stroke="none"/>
  <path d="M457.235 335.582a107.506 107.506 0 0 1-43.023 19.874 108.586 108.586 0 0 1-22.643 2.379c-23.917 0-46.875-7.842-65.645-22.253a91.875 91.875 0 0 0-14.358 8.695c22.338 18.969 50.539 29.349 80.003 29.349 8.737 0 17.474-.916 25.938-2.726 19.917-4.242 38.517-13.411 54.086-26.612a92.113 92.113 0 0 0-14.358-8.706z" fill="rgba(250, 202, 60, 1)" stroke="none"/>
  <g>
    <path d="M142.421 331.593c-.011 0-.011 0-.021.011a75.875 75.875 0 0 1-21.976 3.247c-42.39 0-78.161-35.226-89.442-83.44v-.011c5.499-23.484 16.801-43.878 31.853-58.625a18.634 18.634 0 0 1 11.931-5.3c-2.273 10.014-3.488 20.572-3.488 31.486 0 54.581 30.323 100.335 71.143 112.632z" fill="rgba(234, 194, 167, 1)" stroke="none"/>
    <path d="M415.931 332.273c-.021.011-.053.011-.074.021a116.035 116.035 0 0 1-24.29 2.556c-30.408 0-58.081-11.711-78.747-30.879-3.027-8.62-4.661-17.89-4.661-27.538 0-18.655 6.128-35.875 16.487-49.764 3.425 52.194 41.416 94.941 91.285 105.604z" fill="rgba(234, 194, 167, 1)" stroke="none"/>
  </g>
  <g>
    <path d="M366.257 269.22a6.294 6.294 0 0 1-4.465-1.85c-4.836-4.835-12.705-4.836-17.541 0a6.316 6.316 0 1 1-8.931-8.932c9.759-9.761 25.643-9.76 35.403 0a6.316 6.316 0 0 1-4.466 10.782z" fill="rgba(48, 45, 54, 1)" stroke="none"/>
    <path d="M443.356 269.22a6.294 6.294 0 0 1-4.465-1.85c-4.837-4.836-12.706-4.835-17.541 0a6.316 6.316 0 1 1-8.931-8.932c9.759-9.76 25.643-9.761 35.403 0a6.316 6.316 0 0 1-4.466 10.782z" fill="rgba(48, 45, 54, 1)" stroke="none"/>
    <path d="M391.575 314.686c-6.411 0-12.822-2.44-17.701-7.32a6.316 6.316 0 1 1 8.931-8.932c4.836 4.836 12.705 4.835 17.541 0a6.316 6.316 0 1 1 8.931 8.932c-4.881 4.88-11.291 7.32-17.702 7.32z" fill="rgba(48, 45, 54, 1)" stroke="none"/>
    <path d="M95.112 256.657a6.294 6.294 0 0 1-4.465-1.85c-4.835-4.835-12.704-4.837-17.541 0a6.316 6.316 0 0 1-8.931-8.932c9.759-9.759 25.643-9.761 35.403 0a6.315 6.315 0 0 1-4.466 10.782z" fill="rgba(48, 45, 54, 1)" stroke="none"/>
    <path d="M145.738 256.657a6.316 6.316 0 0 1-4.466-10.782c4.728-4.729 11.015-7.333 17.702-7.333 6.687 0 12.973 2.604 17.701 7.333a6.316 6.316 0 0 1-8.931 8.932 12.326 12.326 0 0 0-8.77-3.633c-3.313 0-6.427 1.29-8.769 3.633a6.294 6.294 0 0 1-4.467 1.85z" fill="rgba(48, 45, 54, 1)" stroke="none"/>
    <path d="M120.429 296.885c-6.412 0-12.823-2.44-17.702-7.32a6.316 6.316 0 0 1 8.931-8.932c4.836 4.836 12.705 4.835 17.541 0a6.316 6.316 0 0 1 8.931 8.932c-4.879 4.88-11.29 7.32-17.701 7.32z" fill="rgba(48, 45, 54, 1)" stroke="none"/>
  </g>
</svg>
</g></svg></g></g>
<!-- /image 11639 -->

<!-- image 99720 -->
<g id="transformed-99720" data-image="99720" transform="translate(20.000000000000004, 96) rotate(0, 27.999999999999996, 28)"><g><svg version="1.1" width="55.99999999999999px" height="56px" viewBox="0 0 55.99999999999999 56"><g id="original-99720"><svg xmlns="http://www.w3.org/2000/svg" viewBox="0 0 512 512" xmlns:xlink="http://www.w3.org/1999/xlink" version="1.1" preserveAspectRatio="xMidYMid meet">
  <g data-name="04 copy 4">
    <path d="M440 352v40H64v-40" fill="rgba(153, 70, 53, 1)" stroke="none"/>
    <path d="M488 272a43.5 43.5 0 0 0-4.98-20c-8.447 16.448-27.03 29.952-51.02 37.487V288H80v1.487C56.01 281.952 37.427 268.448 28.98 252A43.5 43.5 0 0 0 24 272c0 25.242 22.833 47.07 56 57.488V336h352v-6.512c33.167-10.418 56-32.246 56-57.488z" fill="rgba(99, 197, 33, 1)" stroke="none"/>
    <path d="M401.968 328h-147.38c-30.911 0-49.233-35.8-31.876-62.289l82.146-125.359a28 28 0 0 1 46.84 0l82.146 125.359C451.2 292.2 432.879 328 401.968 328z" fill="rgba(204, 204, 204, 1)" stroke="none"/>
    <path d="M280.297 248h96v80h-96z" fill="rgba(77, 77, 77, 1)" stroke="none"/>
    <path d="M24 328h464v12a20 20 0 0 1-20 20H44a20 20 0 0 1-20-20v-12z" fill="rgba(215, 107, 76, 1)" stroke="none"/>
    <path d="M257.968 328h-147.38c-30.911 0-49.233-35.8-31.876-62.289l82.146-125.359a28 28 0 0 1 46.84 0l82.146 125.359C307.2 292.2 288.879 328 257.968 328z" fill="rgba(235, 235, 235, 1)" stroke="none"/>
    <path d="M136.297 248h96v80h-96z" fill="rgba(128, 128, 128, 1)" stroke="none"/>
    <path d="M144 208h16v16h-16z" fill="rgba(204, 204, 204, 1)" stroke="none"/>
    <path d="M176 168h16v16h-16z" fill="rgba(204, 204, 204, 1)" stroke="none"/>
    <path d="M200 200h16v16h-16z" fill="rgba(204, 204, 204, 1)" stroke="none"/>
    <g>
      <path d="M288 208h16v16h-16z" fill="rgba(235, 235, 235, 1)" stroke="none"/>
      <path d="M320 168h16v16h-16z" fill="rgba(235, 235, 235, 1)" stroke="none"/>
      <path d="M344 200h16v16h-16z" fill="rgba(235, 235, 235, 1)" stroke="none"/>
    </g>
  </g>
</svg>
</g></svg></g></g>
<!-- /image 99720 -->

<!-- image 19769 -->
<g id="transformed-19769" data-image="19769" transform="translate(27, 186) rotate(0, 23, 23)"><g><svg version="1.1" width="46px" height="46px" viewBox="0 0 46 46"><g id="original-19769"><svg xmlns="http://www.w3.org/2000/svg" viewBox="0 0 512 512" xmlns:xlink="http://www.w3.org/1999/xlink" version="1.1" preserveAspectRatio="xMidYMid meet">
  <path d="M264 344h32l64 88H239.556z" fill="rgba(235, 53, 47, 1)" stroke="none"/>
  <path d="M136 416l-40-8-72-152 176 128z" fill="rgba(199, 22, 31, 1)" stroke="none"/>
  <path d="M176 488V224h48v232z" fill="rgba(199, 22, 31, 1)" stroke="none"/>
  <path d="M224 224v264l40-144z" fill="rgba(242, 75, 63, 1)" stroke="none"/>
  <path d="M296 344l80-320-40.662 374.09z" fill="rgba(242, 75, 63, 1)" stroke="none"/>
  <path d="M488 280L384 408l-24 24-8 56-56-24 8-32z" fill="rgba(181, 9, 18, 1)" stroke="none"/>
  <path d="M488 280L304 432l-8 32-72 24 26.67-96z" fill="rgba(199, 22, 31, 1)" stroke="none"/>
  <path d="M136 416l40 72V352z" fill="rgba(235, 53, 47, 1)" stroke="none"/>
  <path d="M176 224l-24 72 72-72z" fill="rgba(242, 75, 63, 1)" stroke="none"/>
  <path d="M224 288l-72 8 72-72z" fill="rgba(235, 53, 47, 1)" stroke="none"/>
</svg>
</g></svg></g></g>
<!-- /image 19769 -->

<!-- image 23943 -->
<g id="transformed-23943" data-image="23943" transform="translate(110, 185) rotate(0, 22, 22)"><g><svg version="1.1" width="44px" height="44px" viewBox="0 0 44 44"><g id="original-23943"><svg xmlns="http://www.w3.org/2000/svg" viewBox="0 0 511.956 511.956" xmlns:xlink="http://www.w3.org/1999/xlink" version="1.1" preserveAspectRatio="xMidYMid meet">
  <path d="M255.978 330.956v90h-210v91h420v-181z" fill="rgba(185, 201, 217, 1)" stroke="none"/>
  <path d="M255.978 330.956h210v181h-210z" fill="rgba(154, 201, 239, 1)" stroke="none"/>
  <path d="M435.978 240.956v-45c0-126.035-77.681-186.903-80.991-189.379L346.271 0l-8.936 6.299c-3.003 2.124-73.74 54.276-80.801 172.899l-.586 9.814 102.338 51.943h77.692z" fill="rgba(185, 201, 217, 1)" stroke="none"/>
  <path d="M153.67 240.956l102.338-51.943-.586-9.814c-7.061-118.624-77.798-170.776-80.801-172.9L165.685 0l-8.716 6.577c-3.311 2.476-80.991 63.344-80.991 189.379v45z" fill="rgba(207, 223, 230, 1)" stroke="none"/>
  <path d="M166.154 38.452c-18.721 18.428-60.176 70.111-60.176 157.504v35.566l118.74-60.264c-7.046-74.018-41.953-116.824-58.564-132.806z" fill="rgba(255, 128, 128, 1)" stroke="none"/>
  <path d="M287.223 171.244l118.755 60.278v-35.566c0-86.88-41.675-139.018-60.264-157.504-16.728 15.982-51.445 58.481-58.491 132.792z" fill="rgba(255, 67, 91, 1)" stroke="none"/>
  <path d="M255.978 330.956h-120v65.647c26.512 15.39 57.197 24.353 90 24.353h60c10.256 0 20.213-1.143 30-2.802v-87.198z" fill="rgba(255, 128, 128, 1)" stroke="none"/>
  <path d="M315.978 418.155v-87.198h-60v90h30c10.256-.001 20.213-1.144 30-2.802z" fill="rgba(255, 67, 91, 1)" stroke="none"/>
  <path d="M315.978 330.956h89.321c18.992-25.129 30.679-56.072 30.679-90 0-82.842-67.158-150-150-150h-60c-82.842 0-150 67.158-150 150s67.158 150 150 150h60a150.66 150.66 0 0 0 30-3.023z" fill="rgba(230, 238, 242, 1)" stroke="none"/>
  <path d="M315.978 330.956h89.321c18.992-25.129 30.679-56.072 30.679-90 0-82.842-67.158-150-150-150h-30v300h30a150.66 150.66 0 0 0 30-3.023z" fill="rgba(207, 223, 230, 1)" stroke="none"/>
  <path d="M375.978 225.956h-30c0-8.276-6.724-15-15-15s-15 6.724-15 15h-30c0-24.814 20.186-45 45-45s45 20.186 45 45z" fill="rgba(77, 23, 41, 1)" stroke="none"/>
  <path d="M225.978 225.956h-30c0-8.276-6.724-15-15-15s-15 6.724-15 15h-30c0-24.814 20.186-45 45-45s45 20.186 45 45z" fill="rgba(102, 40, 61, 1)" stroke="none"/>
  <path d="M300.978 285.956c0 8.276-6.724 15-15 15s-15-6.724-15-15v-30h-30v30c0 8.276-6.724 15-15 15s-15-6.724-15-15h-30c0 24.814 20.186 45 45 45 11.567 0 22.02-4.508 30-11.704 7.98 7.196 18.433 11.704 30 11.704 24.814 0 45-20.186 45-45z" fill="rgba(255, 128, 128, 1)" stroke="none"/>
  <path d="M330.978 285.956h-30c0 8.276-6.724 15-15 15s-15-6.724-15-15v-30h-15v63.296c7.98 7.196 18.433 11.704 30 11.704 24.814 0 45-20.185 45-45z" fill="rgba(255, 67, 91, 1)" stroke="none"/>
  <path d="M255.978 420.956c-24.853 0-45 20.147-45 45s20.147 46 45 46 45-21.147 45-46-20.147-45-45-45z" fill="rgba(255, 230, 102, 1)" stroke="none"/>
  <path d="M300.978 465.956c0-24.853-20.147-45-45-45v91c24.853 0 45-21.147 45-46z" fill="rgba(250, 190, 44, 1)" stroke="none"/>
  <path d="M390.978 240.956c-57.891 0-105 47.109-105 105v15h60l15-30 15 30h30l15-30 15 30h60v-15c0-57.891-47.109-105-105-105z" fill="rgba(185, 201, 217, 1)" stroke="none"/>
  <path d="M345.978 300.956h30v60h-30z" fill="rgba(255, 67, 91, 1)" stroke="none"/>
  <path d="M405.978 300.956h30v60h-30z" fill="rgba(255, 67, 91, 1)" stroke="none"/>
  <path d="M120.978 330.956c-57.891 0-105 47.109-105 105v15h60l15-30 15 30h30l15-30 15 30h60v-15c0-57.891-47.109-105-105-105z" fill="rgba(207, 223, 230, 1)" stroke="none"/>
  <path d="M75.978 390.956h30v60h-30z" fill="rgba(255, 67, 91, 1)" stroke="none"/>
  <path d="M135.978 390.956h30v60h-30z" fill="rgba(255, 67, 91, 1)" stroke="none"/>
</svg>
</g></svg></g></g>
<!-- /image 23943 -->

<!-- image 91591 -->
<g id="transformed-91591" data-image="91591" transform="translate(193, 172.00000000000003) rotate(0, 29, 28.99999999999998)"><g><svg version="1.1" width="58px" height="57.99999999999996px" viewBox="0 0 58 57.99999999999996"><g id="original-91591"><svg xmlns="http://www.w3.org/2000/svg" viewBox="0 0 512 512" xmlns:xlink="http://www.w3.org/1999/xlink" version="1.1" preserveAspectRatio="xMidYMid meet">
  <path d="M96 456h128v32H96z" fill="rgba(77, 77, 77, 1)" stroke="none"/>
  <path d="M224 456H96L24 328h272z" fill="rgba(128, 128, 128, 1)" stroke="none"/>
  <path d="M40 328l81.6-108.8a48 48 0 0 1 76.8 0L280 328z" fill="rgba(122, 181, 85, 1)" stroke="none"/>
  <path d="M152 224h16v16h-16z" fill="rgba(105, 155, 73, 1)" stroke="none"/>
  <path d="M120 256h16v16h-16z" fill="rgba(105, 155, 73, 1)" stroke="none"/>
  <path d="M176 256h16v16h-16z" fill="rgba(105, 155, 73, 1)" stroke="none"/>
  <path d="M96 288h16v16H96z" fill="rgba(105, 155, 73, 1)" stroke="none"/>
  <path d="M152 288h16v16h-16z" fill="rgba(105, 155, 73, 1)" stroke="none"/>
  <path d="M208 288h16v16h-16z" fill="rgba(105, 155, 73, 1)" stroke="none"/>
  <path d="M399.14 296l77.2-162.121A37.68 37.68 0 0 0 442.32 80H293.68a37.68 37.68 0 0 0-34.02 53.88l78.935 165.762-17.785-.133-75.596-158.751A53.68 53.68 0 0 1 293.68 64h148.642a53.68 53.68 0 0 1 48.465 76.757L415.36 299.14z" fill="rgba(234, 207, 77, 1)" stroke="none"/>
  <path d="M390.073 331.864l-15.385-4.395 55.73-195.052A41.12 41.12 0 0 0 390.878 80h-45.758a41.12 41.12 0 0 0-39.539 52.416l55.73 195.053-15.385 4.395-55.73-195.051A57.12 57.12 0 0 1 345.122 64h45.758a57.12 57.12 0 0 1 54.923 72.813z" fill="rgba(242, 227, 104, 1)" stroke="none"/>
  <path d="M379.541 330.701l-11.558-1.507-11.814 1.442-23.506-192.549a114.606 114.606 0 0 1 5.955-52.604l.16-.44a31.894 31.894 0 0 1 59.984.006 114.538 114.538 0 0 1 5.838 53.535zM368.77 80a15.937 15.937 0 0 0-14.947 10.49l-.16.44a98.522 98.522 0 0 0-5.118 45.218l19.454 159.35 20.737-158.983a98.473 98.473 0 0 0-5.02-46.025A15.937 15.937 0 0 0 368.77 80z" fill="rgba(255, 242, 158, 1)" stroke="none"/>
  <path d="M408 488h-80V344l80-16z" fill="rgba(234, 207, 77, 1)" stroke="none"/>
  <path d="M408 296h-80v48l80-16z" fill="rgba(242, 227, 104, 1)" stroke="none"/>
  <path d="M327.992 352.001a8 8 0 0 1-1.56-15.846l80-16a8 8 0 1 1 3.137 15.69l-80 16a8.034 8.034 0 0 1-1.577.156z" fill="rgba(224, 184, 47, 1)" stroke="none"/>
  <path d="M408 304h-80a8 8 0 0 1 0-16h80a8 8 0 0 1 0 16z" fill="rgba(224, 184, 47, 1)" stroke="none"/>
</svg>
</g></svg></g></g>
<!-- /image 91591 -->
</defs><rect x="0" y="0" width="250" height="250" fill="rgba(238, 162, 162, 1)"></rect><use xlink:href="#transformed-54116" transform="translate(-250, -250)"></use><use xlink:href="#transformed-54116" transform="translate(0, -250)"></use><use xlink:href="#transformed-54116" transform="translate(250, -250)"></use><use xlink:href="#transformed-54116" transform="translate(-250, 0)"></use><use xlink:href="#transformed-54116" transform="translate(0, 0)"></use><use xlink:href="#transformed-54116" transform="translate(250, 0)"></use><use xlink:href="#transformed-54116" transform="translate(-250, 250)"></use><use xlink:href="#transformed-54116" transform="translate(0, 250)"></use><use xlink:href="#transformed-54116" transform="translate(250, 250)"></use><use xlink:href="#transformed-85395" transform="translate(-250, -250)"></use><use xlink:href="#transformed-85395" transform="translate(0, -250)"></use><use xlink:href="#transformed-85395" transform="translate(250, -250)"></use><use xlink:href="#transformed-85395" transform="translate(-250, 0)"></use><use xlink:href="#transformed-85395" transform="translate(0, 0)"></use><use xlink:href="#transformed-85395" transform="translate(250, 0)"></use><use xlink:href="#transformed-85395" transform="translate(-250, 250)"></use><use xlink:href="#transformed-85395" transform="translate(0, 250)"></use><use xlink:href="#transformed-85395" transform="translate(250, 250)"></use><use xlink:href="#transformed-85587" transform="translate(-250, -250)"></use><use xlink:href="#transformed-85587" transform="translate(0, -250)"></use><use xlink:href="#transformed-85587" transform="translate(250, -250)"></use><use xlink:href="#transformed-85587" transform="translate(-250, 0)"></use><use xlink:href="#transformed-85587" transform="translate(0, 0)"></use><use xlink:href="#transformed-85587" transform="translate(250, 0)"></use><use xlink:href="#transformed-85587" transform="translate(-250, 250)"></use><use xlink:href="#transformed-85587" transform="translate(0, 250)"></use><use xlink:href="#transformed-85587" transform="translate(250, 250)"></use><use xlink:href="#transformed-89916" transform="translate(-250, -250)"></use><use xlink:href="#transformed-89916" transform="translate(0, -250)"></use><use xlink:href="#transformed-89916" transform="translate(250, -250)"></use><use xlink:href="#transformed-89916" transform="translate(-250, 0)"></use><use xlink:href="#transformed-89916" transform="translate(0, 0)"></use><use xlink:href="#transformed-89916" transform="translate(250, 0)"></use><use xlink:href="#transformed-89916" transform="translate(-250, 250)"></use><use xlink:href="#transformed-89916" transform="translate(0, 250)"></use><use xlink:href="#transformed-89916" transform="translate(250, 250)"></use><use xlink:href="#transformed-61286" transform="translate(-250, -250)"></use><use xlink:href="#transformed-61286" transform="translate(0, -250)"></use><use xlink:href="#transformed-61286" transform="translate(250, -250)"></use><use xlink:href="#transformed-61286" transform="translate(-250, 0)"></use><use xlink:href="#transformed-61286" transform="translate(0, 0)"></use><use xlink:href="#transformed-61286" transform="translate(250, 0)"></use><use xlink:href="#transformed-61286" transform="translate(-250, 250)"></use><use xlink:href="#transformed-61286" transform="translate(0, 250)"></use><use xlink:href="#transformed-61286" transform="translate(250, 250)"></use><use xlink:href="#transformed-00229" transform="translate(-250, -250)"></use><use xlink:href="#transformed-00229" transform="translate(0, -250)"></use><use xlink:href="#transformed-00229" transform="translate(250, -250)"></use><use xlink:href="#transformed-00229" transform="translate(-250, 0)"></use><use xlink:href="#transformed-00229" transform="translate(0, 0)"></use><use xlink:href="#transformed-00229" transform="translate(250, 0)"></use><use xlink:href="#transformed-00229" transform="translate(-250, 250)"></use><use xlink:href="#transformed-00229" transform="translate(0, 250)"></use><use xlink:href="#transformed-00229" transform="translate(250, 250)"></use><use xlink:href="#transformed-30126" transform="translate(-250, -250)"></use><use xlink:href="#transformed-30126" transform="translate(0, -250)"></use><use xlink:href="#transformed-30126" transform="translate(250, -250)"></use><use xlink:href="#transformed-30126" transform="translate(-250, 0)"></use><use xlink:href="#transformed-30126" transform="translate(0, 0)"></use><use xlink:href="#transformed-30126" transform="translate(250, 0)"></use><use xlink:href="#transformed-30126" transform="translate(-250, 250)"></use><use xlink:href="#transformed-30126" transform="translate(0, 250)"></use><use xlink:href="#transformed-30126" transform="translate(250, 250)"></use><use xlink:href="#transformed-49453" transform="translate(-250, -250)"></use><use xlink:href="#transformed-49453" transform="translate(0, -250)"></use><use xlink:href="#transformed-49453" transform="translate(250, -250)"></use><use xlink:href="#transformed-49453" transform="translate(-250, 0)"></use><use xlink:href="#transformed-49453" transform="translate(0, 0)"></use><use xlink:href="#transformed-49453" transform="translate(250, 0)"></use><use xlink:href="#transformed-49453" transform="translate(-250, 250)"></use><use xlink:href="#transformed-49453" transform="translate(0, 250)"></use><use xlink:href="#transformed-49453" transform="translate(250, 250)"></use><use xlink:href="#transformed-11552" transform="translate(-250, -250)"></use><use xlink:href="#transformed-11552" transform="translate(0, -250)"></use><use xlink:href="#transformed-11552" transform="translate(250, -250)"></use><use xlink:href="#transformed-11552" transform="translate(-250, 0)"></use><use xlink:href="#transformed-11552" transform="translate(0, 0)"></use><use xlink:href="#transformed-11552" transform="translate(250, 0)"></use><use xlink:href="#transformed-11552" transform="translate(-250, 250)"></use><use xlink:href="#transformed-11552" transform="translate(0, 250)"></use><use xlink:href="#transformed-11552" transform="translate(250, 250)"></use><use xlink:href="#transformed-11639" transform="translate(-250, -250)"></use><use xlink:href="#transformed-11639" transform="translate(0, -250)"></use><use xlink:href="#transformed-11639" transform="translate(250, -250)"></use><use xlink:href="#transformed-11639" transform="translate(-250, 0)"></use><use xlink:href="#transformed-11639" transform="translate(0, 0)"></use><use xlink:href="#transformed-11639" transform="translate(250, 0)"></use><use xlink:href="#transformed-11639" transform="translate(-250, 250)"></use><use xlink:href="#transformed-11639" transform="translate(0, 250)"></use><use xlink:href="#transformed-11639" transform="translate(250, 250)"></use><use xlink:href="#transformed-99720" transform="translate(-250, -250)"></use><use xlink:href="#transformed-99720" transform="translate(0, -250)"></use><use xlink:href="#transformed-99720" transform="translate(250, -250)"></use><use xlink:href="#transformed-99720" transform="translate(-250, 0)"></use><use xlink:href="#transformed-99720" transform="translate(0, 0)"></use><use xlink:href="#transformed-99720" transform="translate(250, 0)"></use><use xlink:href="#transformed-99720" transform="translate(-250, 250)"></use><use xlink:href="#transformed-99720" transform="translate(0, 250)"></use><use xlink:href="#transformed-99720" transform="translate(250, 250)"></use><use xlink:href="#transformed-19769" transform="translate(-250, -250)"></use><use xlink:href="#transformed-19769" transform="translate(0, -250)"></use><use xlink:href="#transformed-19769" transform="translate(250, -250)"></use><use xlink:href="#transformed-19769" transform="translate(-250, 0)"></use><use xlink:href="#transformed-19769" transform="translate(0, 0)"></use><use xlink:href="#transformed-19769" transform="translate(250, 0)"></use><use xlink:href="#transformed-19769" transform="translate(-250, 250)"></use><use xlink:href="#transformed-19769" transform="translate(0, 250)"></use><use xlink:href="#transformed-19769" transform="translate(250, 250)"></use><use xlink:href="#transformed-23943" transform="translate(-250, -250)"></use><use xlink:href="#transformed-23943" transform="translate(0, -250)"></use><use xlink:href="#transformed-23943" transform="translate(250, -250)"></use><use xlink:href="#transformed-23943" transform="translate(-250, 0)"></use><use xlink:href="#transformed-23943" transform="translate(0, 0)"></use><use xlink:href="#transformed-23943" transform="translate(250, 0)"></use><use xlink:href="#transformed-23943" transform="translate(-250, 250)"></use><use xlink:href="#transformed-23943" transform="translate(0, 250)"></use><use xlink:href="#transformed-23943" transform="translate(250, 250)"></use><use xlink:href="#transformed-91591" transform="translate(-250, -250)"></use><use xlink:href="#transformed-91591" transform="translate(0, -250)"></use><use xlink:href="#transformed-91591" transform="translate(250, -250)"></use><use xlink:href="#transformed-91591" transform="translate(-250, 0)"></use><use xlink:href="#transformed-91591" transform="translate(0, 0)"></use><use xlink:href="#transformed-91591" transform="translate(250, 0)"></use><use xlink:href="#transformed-91591" transform="translate(-250, 250)"></use><use xlink:href="#transformed-91591" transform="translate(0, 250)"></use><use xlink:href="#transformed-91591" transform="translate(250, 250)"></use></svg>