<svg version="1.1"
      xmlns="http://www.w3.org/2000/svg"
      xmlns:xlink="http://www.w3.org/1999/xlink"  id="snapshot-60998" width="250" height="250" viewBox="0 0 250 250"><desc>This image was made on Patterninja.com</desc><defs>
<!-- image 54116 -->
<g id="transformed-54116" data-image="54116" transform="translate(26.000000000000004, 22) rotate(0, 19.999999999999996, 20)"><g><svg version="1.1" width="39.99999999999999px" height="40px" viewBox="0 0 39.99999999999999 40"><g id="original-54116"><svg xmlns="http://www.w3.org/2000/svg" viewBox="0 0 512 512" xmlns:xlink="http://www.w3.org/1999/xlink" version="1.1" preserveAspectRatio="xMidYMid meet">
  <path d="M495.484 90.839H16.516L7.817 101v294.151c0 9.122 7.395 16.516 16.516 16.516H502l10-7.021v-297.29c0-9.123-7.395-16.517-16.516-16.517z" fill="rgba(149, 204, 129, 1)" stroke="none"/>
  <path d="M16.516 355.097V90.839C7.395 90.839 0 98.233 0 107.355v297.29c0 9.122 7.395 16.516 16.516 16.516h478.968c9.121 0 16.516-7.395 16.516-16.516H66.065c-27.365 0-49.549-22.183-49.549-49.548z" fill="rgba(125, 189, 128, 1)" stroke="none"/>
  <path d="M440.141 252.473L264.588 145.614a16.515 16.515 0 0 0-17.175 0L71.859 252.473c-2.643 1.609-2.643 5.446 0 7.054l175.553 106.859a16.515 16.515 0 0 0 17.175 0L440.14 259.527c2.644-1.609 2.644-5.445.001-7.054z" fill="rgba(255, 224, 125, 1)" stroke="none"/>
  <path d="M256 189.936c-24.565 0-45.998 13.407-57.382 33.302l-6.616 16.302a66.202 66.202 0 0 0-2.067 16.459c0 36.486 29.578 66.064 66.064 66.064 29.834 0 55.05-19.776 63.252-46.935l2.792-17.509c.013-.539.02-1.079.02-1.62.001-36.485-29.577-66.063-66.063-66.063z" fill="rgba(80, 85, 160, 1)" stroke="none"/>
  <path d="M192.002 239.541c45.894.372 89.785 12.681 127.25 35.589a65.88 65.88 0 0 0 2.792-17.509c-36.905-21.207-79.232-33.007-123.427-34.382a65.78 65.78 0 0 0-6.615 16.302z" fill="rgba(255, 255, 255, 1)" stroke="none"/>
</svg>
</g></svg></g></g>
<!-- /image 54116 -->

<!-- image 85395 -->
<g id="transformed-85395" data-image="85395" transform="translate(26, 22) rotate(0, 20, 20)"><g><svg version="1.1" width="40px" height="40px" viewBox="0 0 40 40"><g id="original-85395"><svg xmlns="http://www.w3.org/2000/svg" viewBox="0 0 512 512" xmlns:xlink="http://www.w3.org/1999/xlink" version="1.1" preserveAspectRatio="xMidYMid meet">
  <path d="M495.484 90.839H16.516L7.817 101v294.151c0 9.122 7.395 16.516 16.516 16.516H502l10-7.021v-297.29c0-9.123-7.395-16.517-16.516-16.517z" fill="rgba(229, 100, 110, 1)" stroke="none"/>
  <path d="M16.516 355.097V90.839C7.395 90.839 0 98.233 0 107.355v297.29c0 9.122 7.395 16.516 16.516 16.516h478.968c9.121 0 16.516-7.395 16.516-16.516H66.065c-27.365 0-49.549-22.183-49.549-49.548z" fill="rgba(219, 70, 85, 1)" stroke="none"/>
  <path d="M144.611 186.742l-26.589-.233-13.055-28.57c-1.233-3.699-6.465-3.699-7.699 0l-9.528 28.57-30.116.233c-3.899.03-5.516 5.006-2.379 7.323l24.227 17.891-9.084 28.714c-1.176 3.718 3.056 6.793 6.229 4.526l24.502-17.513 24.502 17.513c3.172 2.267 7.405-.808 6.229-4.526l-9.084-28.714 24.227-17.891c3.134-2.317 1.517-7.293-2.382-7.323z" fill="rgba(255, 224, 125, 1)" stroke="none"/>
  <path d="M176.121 133.827l-5.431-.048-3.653-7.995a5.04 5.04 0 0 0-9.367.5l-2.499 7.494-7.223.056c-4.63.036-6.55 5.944-2.825 8.695l5.81 4.291-2.179 6.886c-1.397 4.414 3.629 8.066 7.396 5.374l5.876-4.2 5.876 4.2c3.767 2.692 8.793-.959 7.396-5.374l-2.179-6.886 5.822-4.299c3.722-2.748 1.807-8.654-2.82-8.694z" fill="rgba(255, 224, 125, 1)" stroke="none"/>
  <path d="M176.121 264.924l-5.431-.048-3.653-7.995a5.04 5.04 0 0 0-9.367.5l-2.499 7.494-7.223.056c-4.63.036-6.55 5.944-2.825 8.695l5.81 4.291-2.179 6.886c-1.397 4.414 3.629 8.066 7.396 5.374l5.876-4.2 5.876 4.2c3.767 2.692 8.793-.959 7.396-5.374l-2.179-6.886 5.822-4.299c3.722-2.749 1.807-8.654-2.82-8.694z" fill="rgba(255, 224, 125, 1)" stroke="none"/>
  <path d="M214.658 224.321l-5.431-.048-3.653-7.995a5.04 5.04 0 0 0-9.367.5l-2.499 7.494-7.223.056c-4.63.036-6.55 5.944-2.825 8.695l5.81 4.291-2.179 6.886c-1.397 4.414 3.63 8.066 7.396 5.374l5.876-4.2 5.876 4.2c3.767 2.692 8.793-.959 7.396-5.374l-2.179-6.886 5.822-4.299c3.723-2.748 1.807-8.653-2.82-8.694z" fill="rgba(255, 224, 125, 1)" stroke="none"/>
  <path d="M214.658 170.644l-5.431-.048-3.653-7.995a5.04 5.04 0 0 0-9.367.5l-2.499 7.494-7.223.056c-4.63.036-6.55 5.944-2.825 8.695l5.81 4.291-2.179 6.886c-1.397 4.414 3.63 8.066 7.396 5.374l5.876-4.2 5.876 4.2c3.767 2.692 8.793-.959 7.396-5.374l-2.179-6.886 5.822-4.299c3.723-2.748 1.807-8.653-2.82-8.694z" fill="rgba(255, 224, 125, 1)" stroke="none"/>
</svg>
</g></svg></g></g>
<!-- /image 85395 -->

<!-- image 85587 -->
<g id="transformed-85587" data-image="85587" transform="translate(26.00000000000001, 22) rotate(0, 19.99999999999999, 20)"><g><svg version="1.1" width="39.99999999999998px" height="40px" viewBox="0 0 39.99999999999998 40"><g id="original-85587"><svg xmlns="http://www.w3.org/2000/svg" viewBox="0 0 512 512" xmlns:xlink="http://www.w3.org/1999/xlink" version="1.1" preserveAspectRatio="xMidYMid meet">
  <path d="M170.667 90.839H16.516l-6.032 16.516v289.796c0 9.121 7.395 16.516 16.516 16.516h143.667l19.269-17.283V115.616z" fill="rgba(80, 85, 160, 1)" stroke="none"/>
  <path d="M341.333 413.5h154.151L512 404.645v-297.29c0-9.121-7.395-16.516-16.516-16.516H341.333l-19.269 24.778v280.768z" fill="rgba(229, 100, 110, 1)" stroke="none"/>
  <path d="M512 404.645H328.489l12.844 16.516h154.151c9.121 0 16.516-7.394 16.516-16.516z" fill="rgba(219, 70, 85, 1)" stroke="none"/>
  <path d="M16.516 355.097V90.839C7.395 90.839 0 98.233 0 107.355v297.29c0 9.122 7.395 16.516 16.516 16.516h154.151l12.844-16.516H66.065c-27.365 0-49.549-22.183-49.549-49.548z" fill="rgba(63, 63, 143, 1)" stroke="none"/>
  <path d="M187.333 413.667h141l13-9.022V90.839H170.667v313.806z" fill="rgba(242, 242, 246, 1)" stroke="none"/>
  <path d="M170.667 404.645h170.666v16.516H170.667z" fill="rgba(225, 225, 230, 1)" stroke="none"/>
</svg>
</g></svg></g></g>
<!-- /image 85587 -->

<!-- image 89916 -->
<g id="transformed-89916" data-image="89916" transform="translate(26, 22.000000000000018) rotate(0, 20, 19.999999999999982)"><g><svg version="1.1" width="40px" height="39.999999999999964px" viewBox="0 0 40 39.999999999999964"><g id="original-89916"><svg xmlns="http://www.w3.org/2000/svg" viewBox="0 0 512 512" xmlns:xlink="http://www.w3.org/1999/xlink" version="1.1" preserveAspectRatio="xMidYMid meet">
  <path d="M512 200.946v-93.591c0-9.122-7.395-16.516-16.516-16.516H16.516l-8.849 16.516v93.591l17.104 22.022h462.456z" fill="rgba(93, 83, 96, 1)" stroke="none"/>
  <path d="M0 107.355v93.591l16.516 14.683V90.839C7.395 90.839 0 98.233 0 107.355z" fill="rgba(75, 63, 78, 1)" stroke="none"/>
  <path d="M7.817 311.054v86.43c0 9.122 7.395 16.516 16.516 16.516h471.151L512 404.645v-93.591l-24.77-22.022H24.774z" fill="rgba(255, 224, 125, 1)" stroke="none"/>
  <path d="M16.516 355.097v-58.724L0 311.054v93.591c0 9.122 7.395 16.516 16.516 16.516h478.968c9.121 0 16.516-7.394 16.516-16.516H66.065c-27.365 0-49.549-22.183-49.549-49.548z" fill="rgba(255, 208, 100, 1)" stroke="none"/>
  <path d="M8.667 297l7.849 14.053H512V200.946H16.516l-7.849 17.387z" fill="rgba(229, 100, 110, 1)" stroke="none"/>
  <path d="M0 200.946h16.516v110.107H0z" fill="rgba(219, 70, 85, 1)" stroke="none"/>
</svg>
</g></svg></g></g>
<!-- /image 89916 -->

<!-- image 61286 -->
<g id="transformed-61286" data-image="61286" transform="translate(26.000000000000014, 22) rotate(0, 19.999999999999986, 20)"><g><svg version="1.1" width="39.99999999999997px" height="40px" viewBox="0 0 39.99999999999997 40"><g id="original-61286"><svg xmlns="http://www.w3.org/2000/svg" viewBox="0 0 512 512" xmlns:xlink="http://www.w3.org/1999/xlink" version="1.1" preserveAspectRatio="xMidYMid meet">
  <path d="M170.667 90.839H16.516l-6.032 16.516v289.796c0 9.121 7.395 16.516 16.516 16.516h143.667l19.269-17.283V115.616z" fill="rgba(149, 204, 129, 1)" stroke="none"/>
  <path d="M341.333 413.5h154.151L512 404.645v-297.29c0-9.121-7.395-16.516-16.516-16.516H341.333l-19.269 24.778v280.768z" fill="rgba(229, 100, 110, 1)" stroke="none"/>
  <path d="M512 404.645H328.489l12.844 16.516h154.151c9.121 0 16.516-7.394 16.516-16.516z" fill="rgba(219, 70, 85, 1)" stroke="none"/>
  <path d="M16.516 355.097V90.839C7.395 90.839 0 98.233 0 107.355v297.29c0 9.122 7.395 16.516 16.516 16.516h154.151l12.844-16.516H66.065c-27.365 0-49.549-22.183-49.549-49.548z" fill="rgba(125, 189, 128, 1)" stroke="none"/>
  <path d="M187.333 413.667h141l13-9.022V90.839H170.667v313.806z" fill="rgba(242, 242, 246, 1)" stroke="none"/>
  <path d="M170.667 404.645h170.666v16.516H170.667z" fill="rgba(225, 225, 230, 1)" stroke="none"/>
</svg>
</g></svg></g></g>
<!-- /image 61286 -->

<!-- image 00229 -->
<g id="transformed-00229" data-image="00229" transform="translate(26, 22.000000000000025) rotate(0, 20, 19.999999999999975)"><g><svg version="1.1" width="40px" height="39.99999999999995px" viewBox="0 0 40 39.99999999999995"><g id="original-00229"><svg xmlns="http://www.w3.org/2000/svg" viewBox="0 0 512 512" xmlns:xlink="http://www.w3.org/1999/xlink" version="1.1" preserveAspectRatio="xMidYMid meet">
  <path d="M495.484 90.839H16.516L7.817 101v294.151c0 9.122 7.395 16.516 16.516 16.516H502l10-7.021v-297.29c0-9.123-7.395-16.517-16.516-16.517z" fill="rgba(242, 242, 246, 1)" stroke="none"/>
  <path d="M16.516 355.097V90.839C7.395 90.839 0 98.233 0 107.355v297.29c0 9.122 7.395 16.516 16.516 16.516h478.968c9.121 0 16.516-7.395 16.516-16.516H66.065c-27.365 0-49.549-22.183-49.549-49.548z" fill="rgba(225, 225, 230, 1)" stroke="none"/>
  <circle cx="256" cy="256" r="82.581" fill="rgba(229, 100, 110, 1)" stroke="none"/>
</svg>
</g></svg></g></g>
<!-- /image 00229 -->

<!-- image 82391 -->
<g id="transformed-82391" data-image="82391" transform="translate(26, 22.000000000000004) rotate(0, 20, 19.999999999999996)"><g><svg version="1.1" width="40px" height="39.99999999999999px" viewBox="0 0 40 39.99999999999999"><g id="original-82391"><svg xmlns="http://www.w3.org/2000/svg" viewBox="0 0 512 512" xmlns:xlink="http://www.w3.org/1999/xlink" version="1.1" preserveAspectRatio="xMidYMid meet">
  <path d="M170.667 90.839H16.516l-6.032 16.516v289.796c0 9.121 7.395 16.516 16.516 16.516h143.667l19.269-17.283V115.616z" fill="rgba(149, 204, 129, 1)" stroke="none"/>
  <path d="M341.333 413.5h154.151L512 404.645v-297.29c0-9.121-7.395-16.516-16.516-16.516H341.333l-19.269 24.778v280.768z" fill="rgba(229, 100, 110, 1)" stroke="none"/>
  <path d="M512 404.645H328.489l12.844 16.516h154.151c9.121 0 16.516-7.394 16.516-16.516z" fill="rgba(219, 70, 85, 1)" stroke="none"/>
  <path d="M16.516 355.097V90.839C7.395 90.839 0 98.233 0 107.355v297.29c0 9.122 7.395 16.516 16.516 16.516h154.151l12.844-16.516H66.065c-27.365 0-49.549-22.183-49.549-49.548z" fill="rgba(125, 189, 128, 1)" stroke="none"/>
  <path d="M187.333 413.667h141l13-9.022V90.839H170.667v313.806z" fill="rgba(242, 242, 246, 1)" stroke="none"/>
  <path d="M170.667 404.645h170.666v16.516H170.667z" fill="rgba(225, 225, 230, 1)" stroke="none"/>
  <path d="M256 313.806c-31.871 0-57.806-25.931-57.806-57.806 0-4.56 3.694-8.258 8.258-8.258s8.258 3.698 8.258 8.258c0 22.766 18.524 41.29 41.29 41.29s41.29-18.524 41.29-41.29a8.256 8.256 0 0 1 8.258-8.258 8.256 8.256 0 0 1 8.258 8.258c0 31.875-25.935 57.806-57.806 57.806z" fill="rgba(149, 204, 129, 1)" stroke="none"/>
  <path d="M239.57 214.71h8.172c13.682 0 24.774 11.092 24.774 24.774v24.774l-11.546 8.258c-12.329 0-22.782-9.066-24.525-21.271z" fill="rgba(150, 106, 91, 1)" stroke="none"/>
  <path d="M272.516 264.258h-11.545a16.516 16.516 0 0 1-16.351-14.181l-5.051-35.367h-7.107c-5.018 0-8.877 4.439-8.178 9.409l3.981 28.293c2.306 16.169 16.371 28.363 32.702 28.363h3.29a8.258 8.258 0 0 0 8.258-8.258v-8.259z" fill="rgba(120, 83, 83, 1)" stroke="none"/>
</svg>
</g></svg></g></g>
<!-- /image 82391 -->

<!-- image 20986 -->
<g id="transformed-20986" data-image="20986" transform="translate(196, 23) rotate(0, 19.999999999999986, 20)"><g><svg version="1.1" width="39.99999999999997px" height="40px" viewBox="0 0 39.99999999999997 40"><g id="original-20986"><svg xmlns="http://www.w3.org/2000/svg" viewBox="0 0 512 512" xmlns:xlink="http://www.w3.org/1999/xlink" version="1.1" preserveAspectRatio="xMidYMid meet">
  <path d="M19.861 269.696c0-16.528 9.816-36.829 14.356-52.174 4.59-15.513.191-35.335 8.845-49.154 8.479-13.538 28.307-18.424 40.138-29.874 11.423-11.055 16.731-30.728 30.78-39.418 13.502-8.351 33.521-4.468 49.006-10.261 14.86-5.559 27.293-21.733 43.587-24.607 15.604-2.752 32.851 8.069 49.427 8.069 16.575 0 33.822-10.821 49.426-8.069 16.295 2.874 28.728 19.048 43.588 24.607 15.485 5.793 35.504 1.91 49.006 10.261 14.049 8.689 19.358 28.363 30.78 39.418 11.831 11.45 31.659 16.337 40.138 29.875 8.655 13.819 4.255 33.641 8.845 49.153 4.54 15.344 14.356 35.646 14.356 52.173-32.548 8.024-35.002-12.182-68.524-12.182s-33.522 12.362-67.044 12.362c-33.521 0-33.521-12.362-67.041-12.362-33.522 0-33.522 12.362-67.044 12.362-33.523 0-33.523-12.362-67.046-12.362-33.525 0-32.997 7.784-66.216 12.306-34.539 4.702-36.813 7.901-69.363-.123z" fill="rgba(101, 226, 129, 1)" stroke="none"/>
  <path d="M477.783 217.523c-4.59-15.513-.19-35.334-8.845-49.153-8.479-13.538-28.307-18.425-40.138-29.875-11.423-11.055-16.731-30.728-30.78-39.418-13.502-8.351-33.521-4.468-49.006-10.261-14.86-5.559-27.294-21.733-43.589-24.607-15.604-2.753-32.851 8.069-49.426 8.069s-33.823-10.821-49.427-8.069c-10.146 1.79-18.796 8.736-27.466 15.065 14.677-.837 30.62 8.456 45.987 8.456 16.575 0 33.822-10.821 49.426-8.069 16.295 2.874 28.728 19.048 43.589 24.607 15.485 5.793 35.504 1.91 49.006 10.261 14.05 8.69 19.358 28.363 30.78 39.418 11.831 11.45 31.659 16.337 40.138 29.875 8.654 13.819 4.255 33.64 8.845 49.153 2.936 9.923 8.066 21.916 11.333 33.624 8.883 4.055 17.635 7.113 33.929 3.097 0-16.527-9.816-36.829-14.356-52.173z" fill="rgba(49, 191, 81, 1)" stroke="none"/>
  <circle cx="92.716" cy="255.08" r="77.264" fill="rgba(225, 127, 133, 1)" stroke="none"/>
  <circle cx="419.284" cy="255.08" r="77.264" fill="rgba(225, 127, 133, 1)" stroke="none"/>
  <path d="M419.284 177.816c-5.292 0-10.46.535-15.453 1.549 35.266 7.159 61.811 38.336 61.811 75.715s-26.545 68.556-61.811 75.715a77.578 77.578 0 0 0 15.453 1.548c42.672 0 77.264-34.592 77.264-77.264s-34.593-77.263-77.264-77.263z" fill="rgba(222, 100, 110, 1)" stroke="none"/>
  <path d="M382.722 203.275a68.705 68.705 0 0 1-25.47-4.857c-20.893-8.276-31.996-24.157-36.755-32.886-4.085-7.494-1.321-16.879 6.172-20.964 7.491-4.086 16.878-1.323 20.964 6.171 2.759 5.062 9.157 14.255 21.002 18.946 18.689 7.406 36.113-2.785 38.038-3.972 7.265-4.477 16.785-2.215 21.262 5.05s2.216 16.785-5.05 21.262c-3.856 2.375-19.648 11.25-40.163 11.25z" fill="rgba(198, 133, 91, 1)" stroke="none"/>
  <path d="M491.655 352.941a68.704 68.704 0 0 0 14.575-21.444c8.922-20.625 5.543-39.706 2.736-49.244-2.411-8.187-11.001-12.87-19.188-10.459-8.186 2.408-12.87 10.999-10.46 19.187 1.629 5.531 3.605 16.554-1.454 28.247-7.978 18.452-27.505 23.567-29.706 24.089-8.302 1.971-13.435 10.302-11.463 18.605s10.302 13.435 18.605 11.463c4.406-1.047 21.848-5.937 36.355-20.444z" fill="rgba(198, 133, 91, 1)" stroke="none"/>
  <path d="M20.345 346.208A68.704 68.704 0 0 1 5.77 324.764c-8.922-20.625-5.543-39.706-2.736-49.244 2.411-8.187 11.001-12.87 19.188-10.459 8.186 2.408 12.87 10.999 10.46 19.187-1.629 5.531-3.605 16.554 1.454 28.247 7.978 18.452 27.505 23.567 29.706 24.089 8.302 1.971 13.435 10.302 11.463 18.605S65.003 368.624 56.7 366.652c-4.406-1.046-21.848-5.937-36.355-20.444z" fill="rgba(198, 133, 91, 1)" stroke="none"/>
  <path d="M154.164 220.022a68.71 68.71 0 0 1-23.985-9.85c-18.817-12.285-26.521-30.065-29.44-39.57-2.504-8.159 2.079-16.803 10.238-19.307 8.157-2.506 16.802 2.078 19.307 10.237 1.691 5.512 6.123 15.797 16.791 22.761 16.831 10.993 35.941 4.49 38.064 3.712 8.013-2.934 16.889 1.185 19.823 9.198 2.934 8.014-1.184 16.889-9.198 19.823-4.252 1.558-21.499 7.097-41.6 2.996z" fill="rgba(198, 133, 91, 1)" stroke="none"/>
  <circle cx="256" cy="193.269" r="77.264" fill="rgba(225, 127, 133, 1)" stroke="none"/>
  <path d="M256 116.006c-5.292 0-10.46.535-15.453 1.549 35.266 7.159 61.811 38.336 61.811 75.715s-26.545 68.556-61.811 75.715A77.578 77.578 0 0 0 256 270.533c42.672 0 77.264-34.592 77.264-77.264S298.672 116.006 256 116.006z" fill="rgba(222, 100, 110, 1)" stroke="none"/>
  <path d="M485.729 448.239H26.271C11.762 448.239 0 436.477 0 421.968 0 283.429 112.308 171.12 250.848 171.12h10.305C399.692 171.12 512 283.429 512 421.968c0 14.509-11.762 26.271-26.271 26.271z" fill="rgba(242, 213, 156, 1)" stroke="none"/>
  <path d="M261.152 171.12h-10.304c-3.452 0-6.883.089-10.301.227 133.761 5.405 240.547 115.533 240.547 250.621 0 14.509-11.762 26.271-26.271 26.271h30.905c14.509 0 26.271-11.762 26.271-26.271C512 283.429 399.692 171.12 261.152 171.12z" fill="rgba(236, 195, 114, 1)" stroke="none"/>
  <path d="M98.693 331.4a7.728 7.728 0 0 1-7.389-5.48c-5.289-17.39 4.557-35.842 21.947-41.132a7.728 7.728 0 0 1 4.497 14.785c-9.239 2.81-14.47 12.612-11.66 21.85a7.727 7.727 0 0 1-7.395 9.977z" fill="rgba(249, 240, 217, 1)" stroke="none"/>
  <path d="M55.044 413.2a7.73 7.73 0 0 1-7.389-5.48c-2.562-8.425-1.69-17.343 2.455-25.112s11.068-13.458 19.492-16.02a7.727 7.727 0 0 1 4.496 14.785 17.4 17.4 0 0 0-10.356 8.51 17.4 17.4 0 0 0-1.304 13.34 7.727 7.727 0 0 1-7.394 9.977z" fill="rgba(249, 240, 217, 1)" stroke="none"/>
  <g>
    <path d="M117.769 394.125a7.728 7.728 0 0 1-7.389-5.48c-2.562-8.425-1.69-17.343 2.455-25.112s11.068-13.458 19.492-16.02a7.727 7.727 0 0 1 4.496 14.785 17.4 17.4 0 0 0-10.356 8.51 17.4 17.4 0 0 0-1.304 13.34 7.727 7.727 0 0 1-7.394 9.977z" fill="rgba(249, 240, 217, 1)" stroke="none"/>
  </g>
</svg>
</g></svg></g></g>
<!-- /image 20986 -->

<!-- image 26210 -->
<g id="transformed-26210" data-image="26210" transform="translate(23.000000000000004, 101) rotate(0, 21.999999999999996, 22)"><g><svg version="1.1" width="43.99999999999999px" height="44px" viewBox="0 0 43.99999999999999 44"><g id="original-26210"><svg xmlns="http://www.w3.org/2000/svg" viewBox="0 0 512 512" xmlns:xlink="http://www.w3.org/1999/xlink" version="1.1" preserveAspectRatio="xMidYMid meet">
  <path d="M399.092 103.393c-12.338-42.311 53.662-26.17 23.189 5.671 30.473-31.841 49.494 33.388 6.683 22.918 42.811 10.47-4.168 59.558-16.507 17.247 12.338 42.311-53.662 26.17-23.189-5.671-30.473 31.841-49.494-33.388-6.683-22.918-42.81-10.471 4.17-59.558 16.507-17.247z" fill="rgba(255, 228, 119, 1)" stroke="none"/>
  <path d="M112.908 103.421c12.338-42.311-53.662-26.17-23.189 5.671-30.473-31.841-49.494 33.388-6.683 22.918-42.811 10.47 4.168 59.558 16.507 17.247-12.338 42.311 53.662 26.17 23.189-5.671 30.473 31.841 49.494-33.388 6.684-22.918 42.809-10.47-4.171-59.558-16.508-17.247z" fill="rgba(255, 228, 119, 1)" stroke="none"/>
  <path d="M129.413 120.668c5.731-1.402 9.84-3.5 12.652-5.973-3.545-10.917-11.933-19.648-22.633-23.654-2.596 2.7-4.873 6.714-6.525 12.38 1.652-5.665 1.889-10.272 1.153-13.944a37.814 37.814 0 0 0-7.836-.821 37.534 37.534 0 0 0-23.964 8.6c1.04 3.597 3.378 7.575 7.457 11.837-4.077-4.261-7.947-6.77-11.494-7.968-6.018 6.679-9.684 15.518-9.684 25.216 0 2.117.183 4.191.519 6.212 3.636.896 8.247.86 13.975-.541-5.731 1.402-9.84 3.5-12.652 5.973 3.545 10.917 11.933 19.648 22.633 23.653 2.596-2.7 4.873-6.714 6.525-12.38-1.652 5.665-1.889 10.272-1.153 13.943 2.528.535 5.149.821 7.836.821 9.103 0 17.45-3.228 23.964-8.6-1.04-3.597-3.378-7.574-7.457-11.837 4.077 4.261 7.947 6.77 11.494 7.968 6.018-6.679 9.684-15.518 9.684-25.216 0-2.117-.183-4.191-.519-6.213-3.635-.893-8.246-.857-13.975.544z" fill="rgba(255, 212, 34, 1)" stroke="none"/>
  <path d="M382.586 120.639c-5.731-1.402-9.84-3.5-12.652-5.973 3.545-10.917 11.933-19.648 22.633-23.654 2.596 2.7 4.873 6.714 6.525 12.38-1.652-5.665-1.889-10.272-1.153-13.944a37.814 37.814 0 0 1 7.836-.821c9.103 0 17.45 3.228 23.964 8.6-1.04 3.597-3.378 7.575-7.457 11.837 4.077-4.261 7.947-6.77 11.494-7.968 6.018 6.679 9.684 15.518 9.684 25.216 0 2.117-.183 4.191-.519 6.212-3.635.896-8.247.86-13.975-.541 5.731 1.402 9.84 3.5 12.652 5.973-3.545 10.917-11.933 19.648-22.633 23.653-2.596-2.7-4.873-6.714-6.525-12.38 1.652 5.665 1.889 10.272 1.153 13.944a37.814 37.814 0 0 1-7.836.821 37.534 37.534 0 0 1-23.964-8.6c1.04-3.597 3.378-7.574 7.457-11.837-4.077 4.261-7.947 6.77-11.494 7.968-6.018-6.679-9.684-15.518-9.684-25.216 0-2.117.183-4.191.519-6.213 3.636-.894 8.247-.857 13.975.543z" fill="rgba(255, 212, 34, 1)" stroke="none"/>
  <path d="M175.183 58.788c15.612-41.862-42.157-39.797-23.596.844-18.561-40.641-57.951 1.669-16.088 17.281-41.862-15.612-39.797 42.157.844 23.596-40.641 18.561 1.669 57.951 17.281 16.088-15.612 41.862 42.157 39.797 23.596-.844 18.561 40.641 57.951-1.669 16.088-17.281 41.862 15.612 39.797-42.157-.844-23.596 40.641-18.56-1.668-57.949-17.281-16.088z" fill="rgba(0, 221, 194, 1)" stroke="none"/>
  <path d="M336.798 58.788c-15.612-41.862 42.157-39.797 23.596.844 18.561-40.641 57.951 1.669 16.088 17.281 41.861-15.612 39.797 42.157-.844 23.596 40.641 18.561-1.669 57.951-17.281 16.088 15.612 41.862-42.157 39.797-23.596-.844-18.561 40.641-57.951-1.669-16.088-17.281-41.862 15.612-39.797-42.157.844-23.596-40.641-18.56 1.669-57.949 17.281-16.088z" fill="rgba(0, 221, 194, 1)" stroke="none"/>
  <path d="M204.575 104.674c-2.809-2.305-6.509-4.427-11.268-6.202 4.757 1.774 8.941 2.593 12.571 2.691a43.435 43.435 0 0 0 2.139-13.471 43.367 43.367 0 0 0-3.21-16.397c-3.613.357-7.726 1.473-12.343 3.582 4.613-2.107 8.148-4.483 10.784-6.977-4.656-9.1-12.405-16.365-21.864-20.378-2.305 2.809-4.427 6.508-6.202 11.268 1.774-4.756 2.593-8.94 2.691-12.571a43.435 43.435 0 0 0-13.471-2.139 43.367 43.367 0 0 0-16.397 3.21c.359 3.613 1.473 7.726 3.582 12.343-2.107-4.613-4.483-8.148-6.977-10.783-9.1 4.656-16.365 12.405-20.379 21.862 2.809 2.305 6.508 4.427 11.268 6.202-4.757-1.774-8.941-2.593-12.571-2.691a43.412 43.412 0 0 0-2.139 13.472 43.367 43.367 0 0 0 3.21 16.397c3.613-.357 7.726-1.473 12.344-3.582-4.613 2.107-8.148 4.483-10.784 6.977 4.656 9.1 12.405 16.365 21.864 20.378 2.305-2.809 4.427-6.508 6.202-11.268-1.774 4.757-2.593 8.941-2.691 12.571a43.412 43.412 0 0 0 13.472 2.139 43.367 43.367 0 0 0 16.397-3.21c-.357-3.613-1.473-7.726-3.582-12.343 2.107 4.613 4.483 8.148 6.977 10.784 9.099-4.657 16.365-12.406 20.377-21.864z" fill="rgba(0, 204, 179, 1)" stroke="none"/>
  <path d="M307.406 104.674c2.809-2.305 6.509-4.427 11.268-6.202-4.757 1.774-8.941 2.593-12.571 2.691a43.406 43.406 0 0 1-2.139-13.471 43.367 43.367 0 0 1 3.21-16.397c3.613.357 7.726 1.473 12.343 3.582-4.613-2.107-8.148-4.483-10.784-6.977 4.656-9.1 12.405-16.365 21.864-20.378 2.305 2.809 4.427 6.508 6.202 11.268-1.774-4.756-2.593-8.94-2.691-12.571a43.435 43.435 0 0 1 13.471-2.139 43.367 43.367 0 0 1 16.397 3.21c-.359 3.613-1.473 7.726-3.582 12.343 2.107-4.613 4.483-8.148 6.977-10.783 9.1 4.656 16.365 12.405 20.379 21.862-2.809 2.305-6.508 4.427-11.268 6.202 4.757-1.774 8.941-2.593 12.571-2.691a43.412 43.412 0 0 1 2.139 13.472 43.367 43.367 0 0 1-3.21 16.397c-3.613-.357-7.726-1.473-12.344-3.582 4.613 2.107 8.148 4.483 10.784 6.977-4.656 9.1-12.405 16.365-21.864 20.378-2.305-2.809-4.427-6.508-6.202-11.268 1.774 4.757 2.593 8.941 2.691 12.571a43.412 43.412 0 0 1-13.472 2.139 43.367 43.367 0 0 1-16.397-3.21c.357-3.613 1.473-7.726 3.582-12.343-2.107 4.613-4.483 8.148-6.977 10.784-9.099-4.657-16.364-12.406-20.377-21.864z" fill="rgba(0, 204, 179, 1)" stroke="none"/>
  <path d="M268.83 26.629c11.536-35.505-37.214-35.505-25.677 0-11.536-35.505-50.976-6.851-20.774 15.093-30.203-21.944-45.267 24.42-7.934 24.42-37.333 0-22.267 46.364 7.934 24.42-30.203 21.944 9.238 50.598 20.774 15.093-11.536 35.505 37.214 35.505 25.677 0 11.536 35.505 50.976 6.851 20.774-15.093 30.203 21.944 45.267-24.42 7.934-24.42 37.333 0 22.267-46.364-7.934-24.42 30.201-21.944-9.238-50.598-20.774-15.093z" fill="rgba(255, 63, 98, 1)" stroke="none"/>
  <path d="M304.74 66.817c-2.145-.431-4.535-.675-7.201-.675 2.666 0 5.056-.243 7.201-.675a48.463 48.463 0 0 0-8.931-27.425c-1.984.912-4.055 2.117-6.206 3.68 2.155-1.566 3.944-3.166 5.425-4.774a48.98 48.98 0 0 0-23.331-16.962c-1.073 1.908-2.044 4.106-2.868 6.643.826-2.542 1.334-4.895 1.585-7.073a48.604 48.604 0 0 0-14.425-2.179c-5.02 0-9.864.763-14.425 2.179.252 2.178.76 4.532 1.585 7.073-.824-2.536-1.795-4.735-2.868-6.643a48.962 48.962 0 0 0-23.331 16.962c1.481 1.608 3.27 3.208 5.425 4.774-2.151-1.563-4.223-2.768-6.206-3.68a48.478 48.478 0 0 0-8.931 27.425c2.145.432 4.535.675 7.202.675-2.666 0-5.056.243-7.202.675a48.455 48.455 0 0 0 8.931 27.425c1.984-.912 4.055-2.117 6.206-3.68-2.155 1.566-3.944 3.166-5.425 4.774a48.97 48.97 0 0 0 23.331 16.961c1.073-1.907 2.044-4.105 2.868-6.642-.826 2.541-1.334 4.895-1.585 7.073a48.604 48.604 0 0 0 14.425 2.179c5.02 0 9.864-.763 14.425-2.179-.252-2.178-.76-4.532-1.585-7.073.824 2.536 1.795 4.735 2.868 6.642a48.973 48.973 0 0 0 23.331-16.962c-1.481-1.608-3.27-3.208-5.425-4.774 2.151 1.563 4.222 2.768 6.206 3.68a48.467 48.467 0 0 0 8.931-27.424z" fill="rgba(216, 0, 39, 1)" stroke="none"/>
  <circle cx="255.99" cy="66.137" r="28.162" fill="rgba(255, 235, 153, 1)" stroke="none"/>
  <path d="M255.991 512c-51.044 0-92.809-41.764-92.809-92.808v-49.015c0-51.044 41.764-92.808 92.808-92.808 51.044 0 92.808 41.764 92.808 92.808v49.015C348.8 470.236 307.035 512 255.991 512z" fill="rgba(185, 216, 244, 1)" stroke="none"/>
  <path d="M241.619 445.933l1.306-167.635c-44.916 6.401-79.742 45.266-79.742 91.878v49.015c0 51.044 41.764 92.809 92.808 92.809 1.987 0 3.958-.071 5.914-.196-27.41-40.382-20.286-65.871-20.286-65.871z" fill="rgba(150, 200, 239, 1)" stroke="none"/>
  <path d="M414.523 308.895c-3.263-6.507-3.556-14.083-1.198-20.968 5.815-16.975 8.964-35.188 8.936-54.141-.132-90.922-43.087-166.014-166.271-166.014S89.851 142.863 89.718 233.786c-.028 18.953 3.12 37.166 8.936 54.141 2.359 6.886 2.064 14.462-1.198 20.968-4.948 9.867-7.739 21-7.739 32.79 0 54.476 37.919 68.594 62.677 71.95 6.653.901 12.798 3.972 17.722 8.537 10.134 9.396 34.264 24.15 85.872 24.15s75.738-14.753 85.872-24.15c4.923-4.565 11.068-7.635 17.722-8.537 24.758-3.356 62.677-17.474 62.677-71.95.003-11.789-2.788-22.923-7.736-32.79z" fill="rgba(209, 231, 248, 1)" stroke="none"/>
  <path d="M236.572 68.468C128.266 76.04 89.845 147.841 89.719 233.808c-.028 18.953 3.12 37.166 8.936 54.141 2.359 6.886 2.064 14.462-1.198 20.968-4.948 9.867-7.739 21-7.739 32.79 0 54.511 37.968 68.612 62.726 71.956a31.52 31.52 0 0 1 17.405 8.279c9.005 8.471 29.535 21.535 71.769 23.991-31.858-14.392-35.52-38.369-33.48-54.987 1.701-13.853-1.243-27.905-8.079-40.073-89.283-158.948 8.83-258.683 36.513-282.405z" fill="rgba(185, 216, 244, 1)" stroke="none"/>
  <path d="M193.236 454.504c-4.249 0-7.726-3.477-7.726-7.726v-20.053c0-4.25 3.477-7.726 7.726-7.726 4.249 0 7.726 3.477 7.726 7.726v20.053c0 4.249-3.476 7.726-7.726 7.726z" fill="rgba(150, 200, 239, 1)" stroke="none"/>
  <path d="M185.51 446.778c0 4.25 3.477 7.726 7.726 7.726s7.726-3.477 7.726-7.726v-7.853c-6.013-1.917-11.126-4.066-15.453-6.275v14.128z" fill="rgba(120, 185, 235, 1)" stroke="none"/>
  <path d="M318.745 454.504c-4.25 0-7.726-3.477-7.726-7.726v-20.053c0-4.25 3.477-7.726 7.726-7.726 4.249 0 7.726 3.477 7.726 7.726v20.053c0 4.249-3.476 7.726-7.726 7.726z" fill="rgba(185, 216, 244, 1)" stroke="none"/>
  <path d="M326.471 446.778c0 4.25-3.477 7.726-7.726 7.726-4.25 0-7.726-3.477-7.726-7.726v-7.853c6.013-1.917 11.126-4.066 15.453-6.275v14.128z" fill="rgba(150, 200, 239, 1)" stroke="none"/>
  <path d="M280.199 385.241c0 13.37-10.839 16.139-24.208 16.139-13.37 0-24.208-2.769-24.208-16.139s10.839-45.188 24.208-45.188c13.369 0 24.208 31.818 24.208 45.188z" fill="rgba(87, 86, 92, 1)" stroke="none"/>
  <path d="M255.991 387.024c0-9.213 5.147-27.183 12.722-37.469-3.697-5.618-8.054-9.502-12.722-9.502-13.37 0-24.208 31.818-24.208 45.188 0 13.37 10.839 16.139 24.208 16.139 3.051 0 5.968-.147 8.658-.528-5.292-2.224-8.658-6.379-8.658-13.828z" fill="rgba(62, 61, 66, 1)" stroke="none"/>
  <path d="M184.975 354.226c-20.358 7.209-42.706-3.451-49.915-23.81-7.209-20.358 3.451-42.706 23.81-49.915s60.519-2.856 67.728 17.503c7.209 20.359-21.265 49.014-41.623 56.222z" fill="rgba(87, 86, 92, 1)" stroke="none"/>
  <path d="M327.009 354.226c20.358 7.209 42.706-3.451 49.915-23.81 7.209-20.358-3.451-42.706-23.81-49.915s-60.519-2.856-67.728 17.503c-7.208 20.359 21.265 49.014 41.623 56.222z" fill="rgba(87, 86, 92, 1)" stroke="none"/>
  <path d="M170.218 277.919c-4.156.541-8.019 1.404-11.347 2.583-20.358 7.209-31.019 29.556-23.811 49.915 7.209 20.358 29.557 31.019 49.915 23.811 4.163-1.474 8.664-3.856 13.131-6.869-50.917-14.693-27.888-69.439-27.888-69.44z" fill="rgba(62, 61, 66, 1)" stroke="none"/>
  <path d="M327.009 354.22a39.388 39.388 0 0 0 6.689 1.716c-21.294-41.825 1.873-78.575 1.873-78.575-20.349-1.019-44.723 5.212-50.185 20.637-7.208 20.358 21.265 49.013 41.623 56.222z" fill="rgba(62, 61, 66, 1)" stroke="none"/>
  <path d="M255.991 446.322c17.149 0 31.248-1.635 42.824-4.155-21.207-27.031-42.824-13.62-42.824-13.62s-21.616-13.411-42.824 13.62c11.575 2.52 25.674 4.155 42.824 4.155z" fill="rgba(255, 63, 98, 1)" stroke="none"/>
  <path d="M222.119 433.045c-2.934 2.35-5.921 5.35-8.901 9.146 8.152 1.775 17.56 3.107 28.399 3.742-8.278-3.747-14.636-8.143-19.498-12.888z" fill="rgba(255, 12, 56, 1)" stroke="none"/>
  <path d="M222.183 443.863c.015.156 2.213 21.284 33.807 21.284 31.596 0 33.792-21.129 33.807-21.284-9.688 1.534-20.886 2.459-33.807 2.459-12.921 0-24.119-.926-33.807-2.459z" fill="rgba(255, 12, 56, 1)" stroke="none"/>
  <path d="M241.418 463.27c-1.531-11.13.201-17.336.201-17.336v-.022c-7.067-.411-13.536-1.116-19.435-2.05.013.127 1.489 14.237 19.234 19.408z" fill="rgba(216, 0, 39, 1)" stroke="none"/>
  <circle cx="114.69" cy="347.779" r="7.726" fill="rgba(0, 136, 119, 1)" stroke="none"/>
  <circle cx="136.2" cy="372.503" r="7.726" fill="rgba(0, 170, 149, 1)" stroke="none"/>
  <circle cx="170.175" cy="381.156" r="7.726" fill="rgba(0, 204, 179, 1)" stroke="none"/>
  <circle cx="397.289" cy="347.779" r="7.726" fill="rgba(0, 170, 149, 1)" stroke="none"/>
  <circle cx="375.779" cy="372.503" r="7.726" fill="rgba(0, 204, 179, 1)" stroke="none"/>
  <circle cx="341.804" cy="381.156" r="7.726" fill="rgba(0, 221, 194, 1)" stroke="none"/>
  <path d="M273.138 205.75h-9.421v-13.488a7.725 7.725 0 0 0-7.726-7.726 7.725 7.725 0 0 0-7.726 7.726v13.488h-9.421a7.725 7.725 0 0 0-7.726 7.726 7.725 7.725 0 0 0 7.726 7.726h9.421v23.519a7.725 7.725 0 0 0 7.726 7.726 7.725 7.725 0 0 0 7.726-7.726v-23.519h9.421a7.725 7.725 0 0 0 7.726-7.726 7.725 7.725 0 0 0-7.726-7.726z" fill="rgba(255, 63, 98, 1)" stroke="none"/>
  <path d="M126.171 275.983a7.726 7.726 0 0 1-1.269-10.853c.893-1.13 22.286-27.589 57.722-19.76 19.031 4.202 25.341-1.734 27.171-4.479a7.726 7.726 0 0 1 12.862 8.563c-10.783 16.196-33.92 13.092-43.367 11.004-26.089-5.761-42.097 14.064-42.267 14.255-4.216 4.724-9.433 2.392-10.852 1.27z" fill="rgba(145, 220, 90, 1)" stroke="none"/>
  <path d="M164.319 244.181c-24.392 2.344-38.691 20.029-39.417 20.948a7.726 7.726 0 0 0 1.269 10.853c1.419 1.122 6.635 3.454 10.853-1.269.14-.157 10.99-13.572 29.339-15.144a219.848 219.848 0 0 1-2.044-15.388z" fill="rgba(109, 200, 42, 1)" stroke="none"/>
  <path d="M385.811 276.073a7.726 7.726 0 0 0 1.269-10.853c-.893-1.13-22.286-27.589-57.722-19.76-19.031 4.202-25.341-1.734-27.171-4.479a7.726 7.726 0 0 0-12.862 8.563c10.783 16.196 33.92 13.092 43.367 11.004 26.089-5.761 42.097 14.064 42.267 14.255 4.215 4.724 9.432 2.392 10.852 1.27z" fill="rgba(145, 220, 90, 1)" stroke="none"/>
  <path d="M255.991 67.773s-29.872 74.602 52.061 112.838 105.273 107.317 105.273 107.317 48.353-110.731-23.34-178.326-133.994-41.829-133.994-41.829z" fill="rgba(106, 86, 61, 1)" stroke="none"/>
  <path d="M255.983 67.77s-20.726 51.794 19.758 91.189c9.727-15.833 14.015-31.854 15.627-45.474 2.616-22.09-1.551-40.894-4.429-50.532-19.187-.045-30.956 4.817-30.956 4.817z" fill="rgba(85, 68, 49, 1)" stroke="none"/>
  <path d="M255.991 67.773s29.872 74.602-52.061 112.838S98.656 287.927 98.656 287.927s-48.353-110.73 23.339-178.325 133.996-41.829 133.996-41.829z" fill="rgba(128, 103, 73, 1)" stroke="none"/>
  <path d="M164.333 204.308c8.328-83.013 66.76-131.839 77.412-140.099-22.426-3.532-68.704-2.737-119.749 45.392-71.692 67.596-23.34 178.326-23.34 178.326s15.524-45.932 65.677-83.619z" fill="rgba(106, 86, 61, 1)" stroke="none"/>
</svg>
</g></svg></g></g>
<!-- /image 26210 -->

<!-- image 74674 -->
<g id="transformed-74674" data-image="74674" transform="translate(112, 104) rotate(0, 19, 19)"><g><svg version="1.1" width="38px" height="38px" viewBox="0 0 38 38"><g id="original-74674"><svg xmlns="http://www.w3.org/2000/svg" viewBox="0 0 512 512" xmlns:xlink="http://www.w3.org/1999/xlink" version="1.1" preserveAspectRatio="xMidYMid meet">
  <path d="M384.869 77.476V512H127.133V77.476C127.133 34.685 161.818 0 204.61 0h102.783c21.396 0 40.759 8.677 54.785 22.691s22.691 33.39 22.691 54.785z" fill="rgba(252, 200, 84, 1)" stroke="none"/>
  <path d="M370.632 80.895v.014a264.932 264.932 0 0 0-39.642 22.485l-28.664 9.89-60.968 22.805c-8.927-6.849-9.248-31.873-21.355-31.873-16.403 0-31.049-13.697-40.758-2.009a262.899 262.899 0 0 0-37.87-21.299c27.952-31.817 68.947-51.874 114.628-51.874s86.663 20.059 114.629 51.861z" fill="rgba(249, 188, 67, 1)" stroke="none"/>
  <path d="M353.688 89.054v.012a225.733 225.733 0 0 0-33.782 19.161l-24.427 8.428-51.956 19.434c-7.607-5.836-7.881-27.161-18.198-27.161-13.979 0-26.459-11.673-34.732-1.712a224.156 224.156 0 0 0-32.272-18.151c23.821-27.113 58.755-44.206 97.683-44.206s73.852 17.094 97.684 44.195z" fill="rgba(34, 181, 115, 1)" stroke="none"/>
  <path d="M353.275 89.256c.135-.063.269-.128.404-.19a224.582 224.582 0 0 1 31.19-11.589V512a224.585 224.585 0 0 1-31.594-11.789V89.256z" fill="rgba(249, 188, 67, 1)" stroke="none"/>
  <path d="M319.907 108.227a227.259 227.259 0 0 0-63.902 66.683 188.517 188.517 0 0 0-2.33-3.649c-13.01-23.815-10.151-20.956-10.151-35.172 0-14.62 20.029-27.624 9.26-35.874L295.48 83.8l24.427 24.427z" fill="rgba(252, 219, 117, 1)" stroke="none"/>
  <path d="M252.784 100.215c10.769 8.249 17.723 21.253 17.723 35.874 0 14.216-6.573 26.899-16.831 35.172a227.15 227.15 0 0 0-63.082-64.045c8.273-9.961 20.754-16.308 34.732-16.308a44.988 44.988 0 0 1 27.458 9.307z" fill="rgba(247, 88, 62, 1)" stroke="none"/>
  <path d="M198.997 260.858c-11.161 0-20.24-9.08-20.24-20.242 0-11.16 9.08-20.24 20.24-20.24a5.35 5.35 0 0 1 0 10.698c-5.262 0-9.542 4.282-9.542 9.542 0 5.262 4.282 9.544 9.542 9.544s9.542-4.282 9.542-9.544a5.35 5.35 0 0 1 10.698 0c0 11.162-9.08 20.242-20.24 20.242z" fill="rgba(249, 188, 67, 1)" stroke="none"/>
  <path d="M320.234 191.325c-11.161 0-20.24-9.08-20.24-20.242 0-11.16 9.08-20.24 20.24-20.24a5.35 5.35 0 0 1 0 10.698c-5.262 0-9.543 4.282-9.543 9.542 0 5.262 4.282 9.544 9.543 9.544 5.261 0 9.543-4.282 9.543-9.544a5.35 5.35 0 0 1 10.698 0c-.001 11.162-9.081 20.242-20.241 20.242z" fill="rgba(249, 188, 67, 1)" stroke="none"/>
  <path d="M279.226 320.067c-11.161 0-20.24-9.08-20.24-20.242 0-11.16 9.08-20.24 20.24-20.24a5.35 5.35 0 0 1 0 10.698c-5.262 0-9.542 4.282-9.542 9.543 0 5.262 4.282 9.544 9.542 9.544 5.261 0 9.543-4.282 9.543-9.544a5.35 5.35 0 0 1 10.698 0c.001 11.161-9.079 20.241-20.241 20.241z" fill="rgba(249, 188, 67, 1)" stroke="none"/>
  <path d="M206.128 412.404c-11.161 0-20.24-9.08-20.24-20.242 0-11.16 9.08-20.24 20.24-20.24a5.35 5.35 0 0 1 0 10.698c-5.262 0-9.543 4.282-9.543 9.543 0 5.262 4.282 9.544 9.543 9.544 5.261 0 9.542-4.282 9.542-9.544a5.35 5.35 0 0 1 10.698 0c.001 11.161-9.079 20.241-20.24 20.241z" fill="rgba(249, 188, 67, 1)" stroke="none"/>
  <path d="M306.285 294.738c0 44.016-12.576 85.096-34.328 119.828-29.17 46.607-74.861 81.815-128.874 97.434v-5.266c47.035-17.509 86.677-50.221 112.922-92.168 21.752-34.732 34.328-75.812 34.328-119.828s-12.576-85.096-34.328-119.828a222.714 222.714 0 0 1 7.976-11.887 218.918 218.918 0 0 1 7.976 11.886c21.752 34.734 34.328 75.813 34.328 119.829z" fill="rgba(249, 188, 67, 1)" stroke="none"/>
  <path d="M384.867 512H127.131c54.012-15.619 99.704-50.827 128.874-97.434a224.684 224.684 0 0 0 4.334 6.661C289.6 464.523 333.47 497.135 384.867 512z" fill="rgba(249, 188, 67, 1)" stroke="none"/>
</svg>
</g></svg></g></g>
<!-- /image 74674 -->

<!-- image 54097 -->
<g id="transformed-54097" data-image="54097" transform="translate(192, 97) rotate(0, 24, 24)"><g><svg version="1.1" width="48px" height="48px" viewBox="0 0 48 48"><g id="original-54097"><svg xmlns="http://www.w3.org/2000/svg" viewBox="0 0 512 512" xmlns:xlink="http://www.w3.org/1999/xlink" version="1.1" preserveAspectRatio="xMidYMid meet">
  <path d="M383.08 358.245h-62.943v26.757c0 .763-.368 1.218-.983 1.218a1.74 1.74 0 0 1-.588-.112l-5.57-1.996a1 1 0 0 0-1.044 1.648l18.094 18.095c3.625 3.627 3.625 9.528 0 13.155l-5.1 5.099c-1.75 1.749-4.086 2.713-6.578 2.713s-4.828-.964-6.578-2.713l-50.26-50.262a.997.997 0 0 0-.707-.293h-9.645a.997.997 0 0 0-.707.293l-50.262 50.262a9.236 9.236 0 0 1-6.577 2.713 9.236 9.236 0 0 1-6.578-2.713l-5.1-5.1c-3.626-3.626-3.626-9.527.001-13.155l18.095-18.095a1 1 0 0 0-1.044-1.648l-5.57 1.997a1.739 1.739 0 0 1-.587.112c-.616 0-.984-.455-.984-1.218v-26.757h-62.944c-8.499 0-15.453 6.954-15.453 15.453v128c0 5.666 4.636 10.302 10.302 10.302h264.463c5.666 0 10.302-4.636 10.302-10.302v-128c-.002-8.499-6.956-15.453-15.455-15.453z" fill="rgba(230, 233, 237, 1)" stroke="none"/>
  <path d="M261.529 371.847a.997.997 0 0 0-.707-.293h-9.645a.997.997 0 0 0-.707.293l-1.971 1.971V512h15V373.817l-1.97-1.97z" fill="rgba(197, 204, 211, 1)" stroke="none"/>
  <path d="M200.209 422.108a9.236 9.236 0 0 1-6.577 2.713 9.236 9.236 0 0 1-6.578-2.713l-5.1-5.1c-3.626-3.626-3.626-9.527.001-13.155l18.095-18.095a1 1 0 0 0-1.044-1.648l-5.57 1.997a1.739 1.739 0 0 1-.587.112c-.616 0-.984-.455-.984-1.218v-26.757h-62.944c-8.499 0-15.453 6.954-15.453 15.453v116.41h3.585c49.694 0 90.928-36.189 98.805-83.648l-15.649 15.649z" fill="rgba(49, 47, 86, 1)" stroke="none"/>
  <path d="M215.857 406.46c-7.877 47.46-49.111 83.648-98.805 83.648h-3.585v11.59c0 5.666 4.636 10.302 10.302 10.302h11.459c55.322 0 100.169-44.848 100.169-100.169v-24.91l-19.54 19.539z" fill="rgba(255, 197, 2, 1)" stroke="none"/>
  <path d="M205.844 416.474c-11.439 38.207-46.912 66.135-88.792 66.135h-3.585v15h3.585c56.694 0 103.292-44.048 107.375-99.718l-18.583 18.583z" fill="rgba(255, 255, 255, 1)" stroke="none"/>
  <path d="M143.342 501.698v-128c0-8.499 6.954-15.453 15.453-15.453h-29.876c-8.499 0-15.453 6.954-15.453 15.453v128c0 5.666 4.636 10.302 10.302 10.302h11.459c4.771 0 9.463-.342 14.057-.986-3.499-1.652-5.942-5.207-5.942-9.316z" fill="rgba(68, 0, 117, 0.15)" stroke="none"/>
  <path d="M383.08 358.245h-62.943v26.757c0 .763-.368 1.218-.983 1.218a1.74 1.74 0 0 1-.588-.112l-5.57-1.996a1 1 0 0 0-1.044 1.648l18.094 18.095c3.625 3.627 3.625 9.528 0 13.155l-5.1 5.099c-1.75 1.749-4.086 2.713-6.578 2.713s-4.828-.964-6.578-2.713l-15.646-15.647c7.877 47.459 49.111 83.647 98.805 83.647h3.586v-116.41c-.002-8.5-6.956-15.454-15.455-15.454z" fill="rgba(49, 47, 86, 1)" stroke="none"/>
  <path d="M394.947 490.108c-49.693 0-90.928-36.189-98.805-83.647l-19.539-19.539v24.909c0 55.321 44.848 100.169 100.169 100.169h11.459c5.666 0 10.302-4.636 10.302-10.302v-11.59h-3.586z" fill="rgba(255, 197, 2, 1)" stroke="none"/>
  <path d="M394.947 482.608c-41.879 0-77.352-27.927-88.791-66.133l-18.584-18.585c4.084 55.671 50.68 99.718 107.375 99.718h3.586v-15h-3.586z" fill="rgba(255, 255, 255, 1)" stroke="none"/>
  <path d="M372.497 188.008h-13.224v51.283c0 8.229-.973 16.234-2.801 23.912h16.024c13.454 0 24.358-10.906 24.358-24.359v-26.477c.001-13.453-10.903-24.359-24.357-24.359z" fill="rgba(178, 118, 47, 1)" stroke="none"/>
  <path d="M152.726 239.291v-51.283h-13.223c-13.454 0-24.359 10.906-24.359 24.359v26.477c0 13.453 10.905 24.359 24.359 24.359h16.023a103.183 103.183 0 0 1-2.8-23.912z" fill="rgba(178, 118, 47, 1)" stroke="none"/>
  <path d="M373.451 217.544h-14.178v15h14.178c4.143 0 7.5-3.357 7.5-7.5s-3.357-7.5-7.5-7.5z" fill="rgba(119, 84, 54, 1)" stroke="none"/>
  <path d="M152.726 217.544h-14.177c-4.142 0-7.5 3.357-7.5 7.5s3.358 7.5 7.5 7.5h14.177v-15z" fill="rgba(119, 84, 54, 1)" stroke="none"/>
  <path d="M151.726 184v55.291c0 34.312 16.576 64.752 42.153 83.754l39.995 14.336a.992.992 0 0 0 .337.059h43.578c.115 0 .23-.02.338-.059l39.993-14.336c25.578-19.002 42.153-49.441 42.153-83.754V184H151.726z" fill="rgba(209, 149, 70, 1)" stroke="none"/>
  <path d="M233.873 337.381a.992.992 0 0 0 .337.059h7.787C201.771 322.978 173 284.498 173 239.291V184h-21.274v55.291c0 34.312 16.576 64.752 42.153 83.754l39.994 14.336z" fill="rgba(68, 0, 117, 0.15)" stroke="none"/>
  <path d="M321.699 277.571a2.702 2.702 0 0 0-1.695-1.835l-39.112-14.043c-2.394 4.221-8.234 6.987-15.62 6.987h-10.185c-6.872 0-12.785-4.151-15.385-10.073l-47.705 17.129a2.699 2.699 0 0 0-1.694 1.835 2.698 2.698 0 0 0 .531 2.439c.585.703 14.651 17.196 42.635 17.196 9.347 0 17.061-3.549 22.532-10.317 5.471 6.769 13.185 10.317 22.532 10.317 27.982 0 42.05-16.493 42.635-17.196a2.706 2.706 0 0 0 .531-2.439z" fill="rgba(49, 47, 86, 1)" stroke="none"/>
  <path d="M310.858 35.378a23.559 23.559 0 0 1-1.373 1.546l-12.05 12.17a3.061 3.061 0 0 1-4.348 0l-15.283-15.435a3.061 3.061 0 0 0-4.348 0l-15.283 15.435a3.063 3.063 0 0 1-4.349 0l-15.281-15.435a3.063 3.063 0 0 0-4.349 0l-15.281 15.435a3.063 3.063 0 0 1-4.349 0l-12.048-12.169a19.898 19.898 0 0 0-1.507-1.344C186.397 57.629 176.306 88.314 173.435 123h165.129c-2.879-34.791-13.022-65.56-27.706-87.622z" fill="rgba(93, 198, 71, 1)" stroke="none"/>
  <path d="M214.564 50.967a3.063 3.063 0 0 0 4.349 0l15.281-15.435a3.063 3.063 0 0 1 4.349 0l15.281 15.435a3.063 3.063 0 0 0 4.349 0l15.283-15.435a3.061 3.061 0 0 1 4.348 0l15.283 15.435a3.061 3.061 0 0 0 4.348 0l12.05-12.17c.611-.618 1.352-1.49 2.05-2.389C296.788 13.768 277.331 0 256 0c-21.458 0-41.019 13.935-55.797 36.816.878.668 1.719 1.381 2.313 1.982l12.048 12.169z" fill="rgba(255, 197, 2, 1)" stroke="none"/>
  <path d="M338.561 123c-.794-9.586-2.133-18.871-3.972-27.75-.793-.369-1.519-.829-2.032-1.336l-15.466-15.249a3.105 3.105 0 0 0-4.374.026l-15.282 15.435a3.061 3.061 0 0 1-4.348 0l-15.283-15.435a3.06 3.06 0 0 0-4.348 0l-15.283 15.435a3.063 3.063 0 0 1-4.349 0l-15.281-15.435a3.06 3.06 0 0 0-4.349 0l-15.281 15.435a3.063 3.063 0 0 1-4.349 0l-15.281-15.435a3.106 3.106 0 0 0-4.375-.026l-15.464 15.249c-.513.506-1.239.962-2.031 1.327-1.841 8.881-3.18 18.169-3.974 27.759h165.122z" fill="rgba(4, 102, 153, 1)" stroke="none"/>
  <path d="M194.539 123C199.804 59.392 229.35 9.231 266.534 1.148A49.495 49.495 0 0 0 256 0c-42.044 0-76.81 53.469-82.565 123h21.104z" fill="rgba(68, 0, 117, 0.15)" stroke="none"/>
  <path d="M265.271 269.681h-10.185c-9.816 0-17.802-7.985-17.802-17.802v-29.221c0-4.143 3.358-7.5 7.5-7.5s7.5 3.357 7.5 7.5v29.221c0 1.519 1.283 2.802 2.802 2.802h10.185c1.163 0 2.104-.138 2.802-.303v-2.026c0-4.143 3.357-7.5 7.5-7.5s7.5 3.357 7.5 7.5v4.915c0 7.193-7.486 12.414-17.802 12.414z" fill="rgba(119, 84, 54, 1)" stroke="none"/>
  <path d="M117.956 185.765c-17.618 0-34.851-6.09-48.524-17.147-13.468-10.893-22.987-26.146-26.802-42.949a3.091 3.091 0 0 1 3.014-3.774h420.712a3.09 3.09 0 0 1 3.014 3.774c-3.814 16.804-13.333 32.057-26.802 42.949-13.673 11.058-30.905 17.147-48.525 17.147H117.956z" fill="rgba(19, 86, 147, 1)" stroke="none"/>
  <path d="M50.357 145.844h411.285c3.495-6.313 6.122-13.104 7.727-20.176a3.088 3.088 0 0 0-3.014-3.774H45.644a3.09 3.09 0 0 0-3.014 3.774c1.605 7.072 4.233 13.863 7.727 20.176z" fill="rgba(255, 197, 2, 1)" stroke="none"/>
  <path d="M353.85 178.477l-19.314-19.314-19.314 19.314-19.314-19.314-19.315 19.314-19.314-19.314-19.314 19.314-19.314-19.314-19.314 19.314-19.315-19.314-19.314 19.314-19.314-19.314-19.314 19.314-19.314-19.314-18.729 18.73c10.501 5.127 22.122 7.871 33.923 7.871h276.088c12.441 0 24.684-3.05 35.622-8.728l-17.873-17.874-19.315 19.314-19.313-19.314-19.319 19.315z" fill="rgba(239, 80, 80, 1)" stroke="none"/>
  <path d="M221.174 229.148a7.5 7.5 0 0 1-7.5-7.5c0-4.757-3.871-8.627-8.628-8.627-4.758 0-8.629 3.87-8.629 8.627 0 4.143-3.358 7.5-7.5 7.5s-7.5-3.357-7.5-7.5c0-13.028 10.6-23.627 23.629-23.627 13.029 0 23.628 10.599 23.628 23.627a7.5 7.5 0 0 1-7.5 7.5z" fill="rgba(119, 84, 54, 1)" stroke="none"/>
  <path d="M323.084 229.148a7.499 7.499 0 0 1-7.5-7.5c0-4.757-3.871-8.627-8.629-8.627s-8.628 3.87-8.628 8.627c0 4.143-3.357 7.5-7.5 7.5s-7.5-3.357-7.5-7.5c0-13.028 10.6-23.627 23.628-23.627 13.029 0 23.629 10.599 23.629 23.627 0 4.143-3.357 7.5-7.5 7.5z" fill="rgba(119, 84, 54, 1)" stroke="none"/>
  <g>
    <path d="M234.211 371.554a.992.992 0 0 0-.337.059l-32.875 11.784-19.75 19.75c-4.006 4.008-4.007 10.563 0 14.569l5.1 5.1c4.006 4.008 10.563 4.008 14.569 0l51.262-51.262h-17.969z" fill="rgba(150, 11, 21, 1)" stroke="none"/>
    <path d="M330.752 403.147l-19.751-19.752-32.874-11.783a.998.998 0 0 0-.338-.059h-17.967l51.26 51.262c4.008 4.008 10.563 4.008 14.57 0l5.1-5.099c4.006-4.006 4.006-10.561 0-14.569z" fill="rgba(150, 11, 21, 1)" stroke="none"/>
  </g>
  <path d="M318.227 321.944l-40.438 14.495h-43.578l-40.438-14.495c-1.6-.574-2.909.348-2.909 2.048v61.01c0 1.7 1.31 2.622 2.909 2.047l40.438-14.495h43.578l40.438 14.495c1.601.575 2.909-.347 2.909-2.047v-61.01c.001-1.7-1.308-2.622-2.909-2.048z" fill="rgba(192, 39, 45, 1)" stroke="none"/>
  <path d="M234.21 336.44h43.578v36.11H234.21z" fill="rgba(239, 80, 80, 1)" stroke="none"/>
</svg>
</g></svg></g></g>
<!-- /image 54097 -->

<!-- image 52863 -->
<g id="transformed-52863" data-image="52863" transform="translate(20, 179) rotate(0, 24, 24)"><g><svg version="1.1" width="48px" height="48px" viewBox="0 0 48 48"><g id="original-52863"><svg xmlns="http://www.w3.org/2000/svg" viewBox="0 0 512 512" xmlns:xlink="http://www.w3.org/1999/xlink" version="1.1" preserveAspectRatio="xMidYMid meet">
  <path d="M273.655 211.878l-35.22-201.813a8.858 8.858 0 0 1 10.91-9.803l132.091 28.977a8.58 8.58 0 0 1 5.32 13.447l-104.273 142.71" fill="rgba(236, 145, 48, 1)" stroke="none"/>
  <path d="M282.483 52.982a9.295 9.295 0 0 1-6.268-2.56 10.203 10.203 0 0 1-1.854-2.914 7.333 7.333 0 0 1-.706-3.354 8.785 8.785 0 0 1 15.008-6.268 8.855 8.855 0 0 1 0 12.534 8.662 8.662 0 0 1-1.328 1.056c-.45.351-.958.62-1.5.797a5.493 5.493 0 0 1-1.681.53 10.89 10.89 0 0 1-1.671.179z" fill="rgba(220, 108, 51, 1)" stroke="none"/>
  <path d="M317.793 79.464a8.897 8.897 0 0 1-8.828-8.828 8.824 8.824 0 0 1 12.181-8.211 12.895 12.895 0 0 1 2.914 1.944 9.127 9.127 0 0 1 2.56 6.268 10.05 10.05 0 0 1-.181 1.677 5.205 5.205 0 0 1-.526 1.677 4.968 4.968 0 0 1-.793 1.5 8.6 8.6 0 0 1-1.06 1.323 8.95 8.95 0 0 1-2.914 1.944 8.82 8.82 0 0 1-3.353.706z" fill="rgba(220, 108, 51, 1)" stroke="none"/>
  <path d="M291.311 114.775a8.743 8.743 0 0 1-8.827-8.827 9.087 9.087 0 0 1 2.56-6.268 9.24 9.24 0 0 1 12.534 0 9.128 9.128 0 0 1 2.561 6.268 8.743 8.743 0 0 1-8.828 8.827z" fill="rgba(220, 108, 51, 1)" stroke="none"/>
  <path d="M423.724 308.982l-7.437 90.622C410.5 463.26 357.128 512 293.208 512h-74.417c-63.918 0-117.291-48.74-123.078-112.397l-7.437-90.622" fill="rgba(160, 199, 231, 1)" stroke="none"/>
  <path d="M326.621 317.794h97.103c9.722-.07 17.585-7.934 17.655-17.655-.029-9.739-7.916-17.627-17.655-17.655H88.276c-9.722.07-17.585 7.934-17.655 17.655.029 9.739 7.916 17.627 17.655 17.655h61.793" fill="rgba(84, 150, 206, 1)" stroke="none"/>
  <path d="M406.069 282.483a35.262 35.262 0 0 0-53.848-30.014c-5.67-40.131-37.942-71.243-78.253-75.441s-78.302 19.596-92.119 57.698a52.452 52.452 0 0 0-22.952-5.208c-29.243.023-52.943 23.723-52.966 52.966l26.483.016a17.637 17.637 0 0 1 17.655 17.64v104.858a18.426 18.426 0 0 0 14.64 18.475 17.7 17.7 0 0 0 20.671-17.401v-34.237a18.428 18.428 0 0 1 14.64-18.475 17.7 17.7 0 0 1 20.671 17.401v7.754a18.426 18.426 0 0 0 14.64 18.475 17.7 17.7 0 0 0 20.671-17.401v-43.064a18.428 18.428 0 0 1 14.64-18.475 17.7 17.7 0 0 1 20.671 17.401v7.754a18.426 18.426 0 0 0 14.64 18.475 17.7 17.7 0 0 0 20.671-17.401v-44.138c0-9.751 7.905-17.655 17.655-17.655h61.79z" fill="rgba(244, 205, 30, 1)" stroke="none"/>
</svg>
</g></svg></g></g>
<!-- /image 52863 -->

<!-- image 02630 -->
<g id="transformed-02630" data-image="02630" transform="translate(108, 183) rotate(0, 23, 22.999999999999996)"><g><svg version="1.1" width="46px" height="45.99999999999999px" viewBox="0 0 46 45.99999999999999"><g id="original-02630"><svg xmlns="http://www.w3.org/2000/svg" viewBox="0 0 512 512" xmlns:xlink="http://www.w3.org/1999/xlink" version="1.1" preserveAspectRatio="xMidYMid meet">
  <path d="M232.389 197.756L206.841 94.683a43.149 43.149 0 0 0-13.655-22.255l-62.223-53.814a13.757 13.757 0 0 0-8.999-3.352h-11.432c-8.591 0-15.08 7.787-13.531 16.237l6.54 35.674a13.756 13.756 0 0 1-7.283 14.736l-82.319 41.966a25.536 25.536 0 0 0-13.938 22.75V163.4a25.535 25.535 0 0 0 15.91 23.652l69.624 28.336a5.952 5.952 0 0 1 3.678 4.921l26.266 263.634c.724 7.264 6.836 12.797 14.136 12.797h34.375a14.206 14.206 0 0 0 14.116-12.61l10.581-93.599a14.206 14.206 0 0 1 14.116-12.61h119.378c7.182 0 13.234 5.36 14.102 12.489l11.424 93.841a14.206 14.206 0 0 0 14.102 12.489h36.215c7.44 0 13.62-5.741 14.167-13.161l6.531-88.526a663.183 663.183 0 0 0 1.797-48.796V233.748c-1.753-17.859-16.77-31.474-34.714-31.474H238.164a5.95 5.95 0 0 1-5.775-4.518z" fill="rgba(255, 226, 105, 1)" stroke="none"/>
  <path d="M420.524 233.745v112.519l-.113 12.205a674.13 674.13 0 0 1-.588 18.308 619.363 619.363 0 0 1-.309 6.092 691.777 691.777 0 0 1-.794 12.185l-1.103 14.937-.34 4.598-5.082 68.986c-.546 7.422-6.732 13.164-14.174 13.164h-36.214c-.237 0-.485-.01-.722-.021 7.113-.371 12.896-5.969 13.422-13.144l5.742-77.789.794-10.731a664.26 664.26 0 0 0 1.794-48.801V233.745c-1.752-17.855-16.772-31.472-34.709-31.472h37.678c1.67 0 3.319.113 4.928.351 1.072.144 2.134.351 3.185.598a34.503 34.503 0 0 1 2.927.845c.557.175 1.103.371 1.639.588.474.186.938.381 1.402.588.041.01.093.031.134.052a34.32 34.32 0 0 1 2.752 1.381c.454.247.907.515 1.35.794a34.875 34.875 0 0 1 7.237 5.948c.278.289.536.588.794.887a27.54 27.54 0 0 1 1.691 2.113c.206.268.402.526.588.804.299.433.598.866.876 1.32.278.443.557.897.814 1.361.227.392.454.794.66 1.206.175.33.34.67.495 1.01.155.289.289.588.413.897.185.392.35.783.515 1.186.258.66.505 1.34.732 2.031.113.32.206.629.309.959.041.155.093.32.124.484.114.361.206.722.299 1.082.041.186.083.361.124.546.082.35.165.701.227 1.052.041.175.072.35.093.536.083.371.144.742.196 1.113.031.186.051.371.072.557.052.32.093.639.113.969.019.07.019.142.029.214z" fill="rgba(247, 212, 67, 1)" stroke="none"/>
  <path d="M420.521 233.748s61.516-4.442 91.019 65.544c1.237 2.935-.11 6.326-3 7.666l-42.451 19.684c-3.601 1.67-7.791-.58-8.384-4.505-2.328-15.412-10.38-49.258-37.185-66.136v-22.253h.001z" fill="rgba(0, 221, 194, 1)" stroke="none"/>
  <path d="M497.027 218.523c-16.767-1.955-54.918-3.861-76.508 15.226a34.753 34.753 0 0 0-12.982-23.87s25.062-42.554 82.499-39.937c2.69.123 4.961 2.061 5.53 4.692l7.946 36.719c.863 3.983-2.438 7.642-6.485 7.17z" fill="rgba(49, 161, 244, 1)" stroke="none"/>
  <path d="M480.149 320.122l-14.061 6.515c-3.598 1.67-7.793-.577-8.381-4.495-2.33-15.422-10.381-49.265-37.183-66.14v-22.256s4.494-.33 11.638.588v.969c32.421 20.411 42.152 61.347 44.966 79.995a7.142 7.142 0 0 0 3.021 4.824z" fill="rgba(0, 188, 161, 1)" stroke="none"/>
  <path d="M497.025 218.519c-16.762-1.948-54.914-3.855-76.501 15.226-.742-7.484-3.794-14.216-8.443-19.514 26.328-19.607 68.749-17.422 87.891-15.195.299.031.598.052.887.052l2.649 12.267c.867 3.979-2.432 7.639-6.483 7.164z" fill="rgba(7, 129, 229, 1)" stroke="none"/>
  <path d="M67.79 176.23l-8.628 28.421-43.245-17.597A25.549 25.549 0 0 1 0 163.395v-16.772a25.553 25.553 0 0 1 13.937-22.751l18.267-9.309 22.823 19.009A40.266 40.266 0 0 1 67.79 176.23z" fill="rgba(160, 96, 71, 1)" stroke="none"/>
  <path d="M420.521 340.766v5.495c0 16.277-.598 32.555-1.794 48.791l-1.598 21.586-4.518 2.102a5.151 5.151 0 0 1-4.346.001l-26.725-12.414a5.152 5.152 0 0 0-4.343 0l-26.728 12.415a5.153 5.153 0 0 1-4.342 0l-6.777-3.146-3.062-25.184c-.876-7.134-6.927-12.494-14.102-12.494H202.802c-7.226 0-13.298 5.433-14.113 12.607l-2 17.721-22.6 10.496a5.156 5.156 0 0 1-4.343 0l-26.717-12.414a5.154 5.154 0 0 0-4.344 0l-20.012 9.299-7.082-71.016 27.094-12.588a5.154 5.154 0 0 1 4.344 0l26.716 12.414c1.377.64 2.967.64 4.344 0l26.716-12.414a5.152 5.152 0 0 1 4.343 0l26.727 12.415c1.377.64 2.966.64 4.343 0l26.717-12.414a5.154 5.154 0 0 1 4.344 0l26.716 12.414c1.377.64 2.966.64 4.343 0l26.727-12.415a5.152 5.152 0 0 1 4.343 0l26.717 12.414c1.377.64 2.966.64 4.343 0l26.727-12.415a5.152 5.152 0 0 1 4.343 0l28.899 13.424 10.084-4.68z" fill="rgba(0, 221, 194, 1)" stroke="none"/>
  <path d="M420.521 277.131v62.023c0 .984-.571 1.878-1.463 2.292l-7.555 3.507a2.529 2.529 0 0 1-2.128 0l-27.835-12.929a5.152 5.152 0 0 0-4.343 0l-27.834 12.929a2.524 2.524 0 0 1-2.129 0l-28.931-13.443a2.524 2.524 0 0 0-2.129 0l-28.941 13.443a2.524 2.524 0 0 1-2.129 0l-28.931-13.443a2.524 2.524 0 0 0-2.129 0l-28.931 13.443a2.524 2.524 0 0 1-2.129 0l-28.941-13.443a2.524 2.524 0 0 0-2.129 0l-28.931 13.443a2.524 2.524 0 0 1-2.129 0l-28.931-13.443a2.524 2.524 0 0 0-2.129 0l-24.976 11.604a2.527 2.527 0 0 1-3.579-2.041L95.145 279.9c-.194-1.947 1.804-3.366 3.579-2.542a2.524 2.524 0 0 0 2.129 0l28.941-13.443a2.524 2.524 0 0 1 2.129 0l28.931 13.443a2.524 2.524 0 0 0 2.129 0l28.931-13.443a2.524 2.524 0 0 1 2.129 0l28.941 13.443a2.524 2.524 0 0 0 2.129 0l28.931-13.443a2.524 2.524 0 0 1 2.129 0l28.931 13.443a2.524 2.524 0 0 0 2.129 0l28.941-13.443a2.524 2.524 0 0 1 2.129 0l28.931 13.443a2.524 2.524 0 0 0 2.129 0l28.941-13.443a2.524 2.524 0 0 1 2.129 0l28.942 13.443a2.525 2.525 0 0 0 2.128 0l5.427-2.519c1.675-.777 3.591.446 3.591 2.292z" fill="rgba(49, 161, 244, 1)" stroke="none"/>
  <path d="M420.521 234.059v35.824a5.154 5.154 0 0 1-2.984 4.675l-4.927 2.287a5.153 5.153 0 0 1-4.342-.001l-26.728-12.415a5.152 5.152 0 0 0-4.343 0l-26.727 12.415a5.152 5.152 0 0 1-4.343 0L319.41 264.43a5.152 5.152 0 0 0-4.343 0l-26.727 12.415a5.152 5.152 0 0 1-4.343 0L257.28 264.43a5.154 5.154 0 0 0-4.344 0l-26.717 12.414a5.152 5.152 0 0 1-4.343 0l-26.727-12.415a5.152 5.152 0 0 0-4.343 0l-26.716 12.414a5.154 5.154 0 0 1-4.344 0l-26.716-12.414a5.152 5.152 0 0 0-4.343 0l-26.727 12.415a5.152 5.152 0 0 1-4.343 0l-.244-.113a5.156 5.156 0 0 1-2.958-4.164l-4.427-44.494a5.154 5.154 0 0 1 2.474-4.928l23.393-14.057a5.154 5.154 0 0 1 4.248-.484l28.611 9.299c1.42.461 2.97.285 4.249-.485l25.785-15.505a5.156 5.156 0 0 1 4.249-.485l28.62 9.299c1.42.461 2.97.284 4.249-.485l14.337-8.623c1.596-.96 3.547-.894 5.197-.028.83.436 1.771.678 2.76.678h147.641c17.845 0 32.795 13.462 34.688 31.177.022.203.032.408.032.613z" fill="rgba(232, 70, 97, 1)" stroke="none"/>
  <path d="M172.577 54.598l-.536.804-18.318-6.482a5.153 5.153 0 0 0-6.016 2.013l-8.502 12.835a5.153 5.153 0 0 1-6.017 2.012l-14.513-5.138a5.153 5.153 0 0 0-6.017 2.013l-10.715 16.179-1.289-.454a13.738 13.738 0 0 0 2.886-11.206l-6.536-35.678c-1.548-8.45 4.941-16.236 13.532-16.236h11.425c3.309 0 6.505 1.196 8.999 3.35l41.617 35.988z" fill="rgba(232, 70, 97, 1)" stroke="none"/>
  <circle cx="109.93" cy="123.73" r="7.661" fill="rgba(160, 96, 71, 1)" stroke="none"/>
  <path d="M420.524 273.176v67.594l-4.897 2.268-3.711 1.722-1.474.691-1.485-.691-26.122-12.133v-67.594l25.431 11.814.009.004a5.132 5.132 0 0 0 4.331-.004l4.928-2.289 2.99-1.382z" fill="rgba(7, 129, 229, 1)" stroke="none"/>
  <path d="M420.524 340.77l-4.897 2.268-4.649 2.154c-.938.433-1.082 0-2.021-.433l-26.122-12.133v13.628a664.26 664.26 0 0 1-1.794 48.801l-.794 10.731c.206.052.402.124.598.216l28.112 13.061.416.193a2.527 2.527 0 0 0 2.129-.001l.41-.191.003-.001 3.35-1.557.032-.017 1.831-.852.216-2.968.272-3.677 1.113-14.937a682.182 682.182 0 0 0 1.092-18.277c.278-6.103.474-12.205.588-18.308l.113-12.205v-.01c0-.047-.007-.091-.009-.136l.011-5.349z" fill="rgba(0, 188, 161, 1)" stroke="none"/>
  <path d="M420.226 234.086c-1.482-12.456-8.458-22.969-20.208-28.794a.796.796 0 0 0-.132-.051 34.536 34.536 0 0 0-1.402-.588 22.598 22.598 0 0 0-1.639-.588c-3.725-1.173-7.091-1.794-11.04-1.794h-37.679c17.937 0 32.957 13.618 34.709 31.472v31.287l25.436 11.816a5.157 5.157 0 0 0 4.342.001l7.911-3.672V239.18c0-1.728-.1-3.428-.298-5.094z" fill="rgba(206, 29, 76, 1)" stroke="none"/>
</svg>
</g></svg></g></g>
<!-- /image 02630 -->

<!-- image 93271 -->
<g id="transformed-93271" data-image="93271" transform="translate(194, 182) rotate(0, 22, 21.99999999999999)"><g><svg version="1.1" width="44px" height="43.99999999999998px" viewBox="0 0 44 43.99999999999998"><g id="original-93271"><svg xmlns="http://www.w3.org/2000/svg" viewBox="0 0 512 512" xmlns:xlink="http://www.w3.org/1999/xlink" version="1.1" preserveAspectRatio="xMidYMid meet">
  <path d="M313.096 344.835h-4.18v-95.752c0-4.143-3.357-7.5-7.5-7.5h-90.831a7.499 7.499 0 0 0-7.5 7.5v95.752h-4.181c-48.963 0-88.797 39.834-88.797 88.797V504.5c0 4.143 3.357 7.5 7.5 7.5h276.785c4.143 0 7.5-3.357 7.5-7.5v-70.868c.001-48.963-39.834-88.797-88.796-88.797z" fill="rgba(180, 95, 74, 1)" stroke="none"/>
  <path d="M313.096 344.835h-4.18v-95.752c0-4.143-3.357-7.5-7.5-7.5h-27.333c4.143 0 7.5 3.357 7.5 7.5v95.752h4.18c48.963 0 88.797 39.834 88.797 88.797V504.5c0 4.143-3.357 7.5-7.5 7.5h27.333c4.143 0 7.5-3.357 7.5-7.5v-70.868c0-48.963-39.835-88.797-88.797-88.797z" fill="rgba(161, 81, 61, 1)" stroke="none"/>
  <path d="M269.393 0h-26.785C168.622 0 108.43 60.191 108.43 134.177v56.754c0 81.37 66.199 147.569 147.569 147.569s147.569-66.199 147.569-147.569v-56.754C403.568 60.191 343.378 0 269.393 0z" fill="rgba(251, 64, 63, 1)" stroke="none"/>
  <path d="M269.393 0h-26.785c-.341 0-.68.01-1.021.013 73.516.552 133.156 60.52 133.156 134.164v56.754c0 76.507-58.525 139.596-133.156 146.864 4.744.462 9.551.705 14.414.705 81.37 0 147.569-66.199 147.569-147.569v-56.754C403.568 60.191 343.378 0 269.393 0z" fill="rgba(194, 28, 28, 1)" stroke="none"/>
  <path d="M399.628 224.851a147.422 147.422 0 0 0 3.94-33.92v-51.718c-35.183-23.861-76.987-21.393-86.477-15.918 2.679-6.431 5.091-39.389-18.756-61.628 4.287 26.259-12.862 64.308-42.336 77.705-29.474-13.397-46.623-51.446-42.336-77.705-23.847 22.24-21.436 55.197-18.756 61.628-9.49-5.475-51.294-7.943-86.477 15.918v51.718c0 11.67 1.368 23.025 3.94 33.92 30.574 1.486 63.511 15.481 43.676 74.54 26.309 24.263 61.427 39.109 99.953 39.109s73.644-14.846 99.952-39.109c-19.834-59.06 13.104-73.055 43.677-74.54z" fill="rgba(240, 238, 238, 1)" stroke="none"/>
  <path d="M260.961 338.408c.808-.027 1.617-.052 2.422-.092.503-.025 1.003-.061 1.504-.091.718-.043 1.436-.084 2.151-.137.539-.04 1.075-.09 1.613-.136.673-.057 1.346-.113 2.016-.18.56-.056 1.118-.12 1.676-.182.642-.071 1.285-.141 1.925-.221.576-.071 1.149-.151 1.723-.229.616-.084 1.232-.168 1.846-.259.588-.088 1.174-.182 1.76-.277a150.05 150.05 0 0 0 1.78-.296c.598-.104 1.193-.214 1.789-.325a140.839 140.839 0 0 0 8.623-1.882c.63-.158 1.26-.318 1.887-.484a158.723 158.723 0 0 0 3.435-.952c.469-.137.936-.278 1.404-.418.666-.201 1.332-.403 1.994-.613.431-.137.86-.279 1.289-.419.693-.227 1.386-.454 2.074-.691.379-.13.754-.266 1.132-.399.733-.259 1.466-.519 2.194-.789.302-.112.602-.23.903-.344a152.45 152.45 0 0 0 2.385-.92c.172-.069.343-.141.515-.211a147.167 147.167 0 0 0 20.702-10.306l.1-.059c.899-.54 1.79-1.092 2.676-1.651l.232-.145c.86-.545 1.713-1.1 2.561-1.661l.298-.196c.835-.556 1.663-1.121 2.485-1.693l.321-.223c.817-.572 1.628-1.153 2.434-1.741l.319-.232a144.58 144.58 0 0 0 2.403-1.802l.291-.223a148.565 148.565 0 0 0 5.015-4.036l.191-.161a146.33 146.33 0 0 0 2.39-2.059l.113-.1a151.51 151.51 0 0 0 2.419-2.181c-3.453-10.282-5.303-19.195-5.848-26.917-23.954 35.99-63.274 60.915-108.518 65.321a148.652 148.652 0 0 0 18.118.658c.42-.011.839-.033 1.258-.046z" fill="rgba(217, 212, 212, 1)" stroke="none"/>
  <path d="M374.742 134.177v56.754c0 14.449-2.09 28.418-5.979 41.625 8.962-5.088 20.06-7.18 30.866-7.705.948-4.015 1.73-8.094 2.342-12.226.038-.254.071-.51.107-.765.152-1.066.294-2.135.423-3.208.046-.38.088-.761.131-1.142a142.588 142.588 0 0 0 .615-6.96c.03-.461.062-.922.088-1.384.053-.956.092-1.915.126-2.875.015-.415.036-.829.047-1.245.038-1.367.06-2.739.06-4.115v-51.718c-9.485-6.433-19.449-10.938-29.134-14 .197 2.963.308 5.951.308 8.964z" fill="rgba(217, 212, 212, 1)" stroke="none"/>
  <path d="M285.919 227.061h-59.837c-22.525 0-39.409 20.623-34.962 42.705l4.996 24.807a45.189 45.189 0 0 1-1.187 22.443c18.456 8.957 39.175 13.984 61.07 13.984 21.894 0 42.613-5.027 61.071-13.984a45.199 45.199 0 0 1-1.186-22.443l4.996-24.807c4.448-22.082-12.437-42.705-34.961-42.705z" fill="rgba(180, 95, 74, 1)" stroke="none"/>
  <path d="M317.071 317.016a45.272 45.272 0 0 1-1.704-7.866 147.424 147.424 0 0 1-36.453 19.972 139.114 139.114 0 0 0 38.157-12.106z" fill="rgba(161, 81, 61, 1)" stroke="none"/>
  <path d="M279.872 182.01c4.372 14.864 18.109 26.941 35.902 29.534 21.885 3.19 42.637-9.521 47.268-29.011a33.3 33.3 0 0 0 .099-.43c2.359-10.492-4.351-21.192-15.524-25.096a66.25 66.25 0 0 0-11.115-2.827c-20.63-3.391-40.358 3.162-53.363 15.882-3.236 3.164-4.525 7.672-3.267 11.948z" fill="rgba(180, 95, 74, 1)" stroke="none"/>
  <path d="M232.128 182.01c-4.372 14.864-18.109 26.941-35.902 29.534-21.885 3.19-42.637-9.521-47.268-29.011l-.1-.43c-2.359-10.492 4.351-21.192 15.524-25.096a66.25 66.25 0 0 1 11.115-2.827c20.63-3.391 40.358 3.162 53.363 15.882 3.236 3.164 4.525 7.672 3.268 11.948z" fill="rgba(180, 95, 74, 1)" stroke="none"/>
  <path d="M319.25 193.963a7.499 7.499 0 0 1-7.5-7.5v-2.219c0-4.143 3.357-7.5 7.5-7.5s7.5 3.357 7.5 7.5v2.219a7.5 7.5 0 0 1-7.5 7.5z" fill="rgba(25, 48, 63, 1)" stroke="none"/>
  <path d="M192.749 193.963a7.499 7.499 0 0 1-7.5-7.5v-2.219c0-4.143 3.357-7.5 7.5-7.5s7.5 3.357 7.5 7.5v2.219c0 4.142-3.356 7.5-7.5 7.5z" fill="rgba(25, 48, 63, 1)" stroke="none"/>
  <path d="M255.999 275.979a44.85 44.85 0 0 1-36.86-19.327 7.5 7.5 0 0 1 12.332-8.54 29.847 29.847 0 0 0 24.528 12.866 29.85 29.85 0 0 0 24.528-12.866 7.5 7.5 0 0 1 12.333 8.54 44.85 44.85 0 0 1-36.861 19.327z" fill="rgba(25, 48, 63, 1)" stroke="none"/>
  <g>
    <path d="M321.596 474.967c-15.022 0-30.044-4.058-42.578-12.171a7.499 7.499 0 0 1-2.221-10.371 7.498 7.498 0 0 1 10.371-2.221c20.272 13.121 48.584 13.121 68.854 0a7.5 7.5 0 0 1 10.371 2.221 7.499 7.499 0 0 1-2.221 10.371c-12.534 8.113-27.555 12.171-42.576 12.171z" fill="rgba(161, 81, 61, 1)" stroke="none"/>
    <path d="M190.404 474.967c-15.021 0-30.043-4.058-42.577-12.171a7.499 7.499 0 0 1-2.221-10.371 7.498 7.498 0 0 1 10.371-2.221c20.271 13.121 48.582 13.121 68.855 0a7.499 7.499 0 0 1 10.371 2.221 7.499 7.499 0 0 1-2.221 10.371c-12.535 8.113-27.556 12.171-42.578 12.171z" fill="rgba(161, 81, 61, 1)" stroke="none"/>
  </g>
  <path d="M261.954 76.828c13.561-21.739 22.071-47.736 23.613-75.85-5.304-.64-10.7-.978-16.174-.978h-26.785c-5.475 0-10.871.338-16.176.978 1.543 28.114 10.053 54.111 23.613 75.85 2.747 4.405 9.163 4.405 11.909 0z" fill="rgba(240, 238, 238, 1)" stroke="none"/>
</svg>
</g></svg></g></g>
<!-- /image 93271 -->

<!-- image 64835 -->
<g id="transformed-64835" data-image="64835" transform="translate(114, 28.000000000000004) rotate(0, 17, 16.999999999999996)"><g><svg version="1.1" width="34px" height="33.99999999999999px" viewBox="0 0 34 33.99999999999999"><g id="original-64835"><svg xmlns="http://www.w3.org/2000/svg" viewBox="0 0 512 512" xmlns:xlink="http://www.w3.org/1999/xlink" version="1.1" preserveAspectRatio="xMidYMid meet">
  <circle cx="338.433" cy="125.066" r="89.007" fill="rgba(251, 74, 89, 1)" stroke="none"/>
  <path d="M427.437 125.064c0 46.398-35.48 84.496-80.789 88.63 28.151-14.946 47.317-44.561 47.317-78.652 0-49.165-39.849-89.015-89.004-89.015-2.767 0-5.502.128-8.205.374 12.436-6.602 26.623-10.342 41.676-10.342 49.155 0 89.005 39.85 89.005 89.005z" fill="rgba(248, 47, 64, 1)" stroke="none"/>
  <path d="M169.422 64.139c6.008 20.738-1.202 42.497-16.979 57.885a10.714 10.714 0 0 1-9.69 2.81c-21.558-4.561-39.302-19.104-45.31-39.842s1.214-42.514 16.994-57.893a10.712 10.712 0 0 1 9.691-2.805c21.56 4.574 39.286 19.107 45.294 39.845z" fill="rgba(163, 228, 64, 1)" stroke="none"/>
  <path d="M144.16 119.335a7.73 7.73 0 0 1-7.418-5.578L123.76 68.948a7.726 7.726 0 0 1 5.271-9.571 7.725 7.725 0 0 1 9.571 5.271l12.982 44.809a7.726 7.726 0 0 1-7.424 9.878z" fill="rgba(153, 213, 59, 1)" stroke="none"/>
  <path d="M45.303 176.071L218.241 3.133c4.172-4.172 10.937-4.172 15.109 0l172.938 172.938z" fill="rgba(253, 221, 69, 1)" stroke="none"/>
  <path d="M406.283 176.066h-47.445L209.633 26.85c-4.177-4.166-10.94-4.166-15.106 0l23.717-23.717c4.167-4.177 10.929-4.177 15.107 0z" fill="rgba(248, 197, 45, 1)" stroke="none"/>
  <circle cx="115.918" cy="146.238" r="63.974" fill="rgba(251, 74, 89, 1)" stroke="none"/>
  <path d="M179.89 146.238c0 32.147-23.717 58.759-54.614 63.289 14.765-11.72 24.241-29.818 24.241-50.138 0-35.33-28.642-63.973-63.973-63.973-3.184 0-6.303.235-9.359.684 10.918-8.664 24.711-13.835 39.732-13.835 35.33.001 63.973 28.643 63.973 63.973z" fill="rgba(248, 47, 64, 1)" stroke="none"/>
  <g>
    <path d="M435.803 199.419l-249.465-33.701c7.61-34.867 34.716-62.044 69.953-73.879a11.904 11.904 0 0 1 10.409 1.405c13.958 9.389 25.474 21.378 33.728 34.993.486.801 1.714.574 1.887-.346 1.243-6.6 3.345-13.142 6.274-19.45 1.709-3.68 5.123-6.307 9.124-6.982 22.511-3.802 45.11 1.668 61.453 15.905.497.433 1.251.3 1.569-.277 8.59-15.566 23.262-27.601 41.036-34.085 3.804-1.388 8.065-.79 11.364 1.557 22.361 15.912 35.346 41.382 31.749 68.004-2.608 19.31-13.474 35.709-29.081 46.856z" fill="rgba(163, 228, 64, 1)" stroke="none"/>
    <path d="M421.815 161.31a7.727 7.727 0 0 1-7.682-8.642l3.739-31.366a7.727 7.727 0 0 1 15.345 1.829l-3.739 31.366a7.729 7.729 0 0 1-7.663 6.813z" fill="rgba(153, 213, 59, 1)" stroke="none"/>
  </g>
  <path d="M483.305 169.037c-146.648-52.684-307.964-52.684-454.612 0-6.633 2.383-9.232 10.378-5.212 16.166l223.743 322.204c4.25 6.12 13.301 6.12 17.55 0l223.743-322.204c4.02-5.788 1.421-13.783-5.212-16.166z" fill="rgba(252, 202, 159, 1)" stroke="none"/>
  <path d="M488.52 185.205L264.776 507.403c-4.255 6.129-13.3 6.129-17.554 0l-13.65-19.656c3.492.299 7.108-1.174 9.344-4.399l216.667-312.009c2.153-3.111 2.339-6.871.979-10.003a640.84 640.84 0 0 1 22.746 7.706c6.634 2.379 9.23 10.373 5.212 16.163z" fill="rgba(252, 185, 130, 1)" stroke="none"/>
  <g>
    <path d="M236.727 427.781a7.728 7.728 0 0 1-6.34-12.134L392.239 182.56a7.728 7.728 0 0 1 12.694 8.814L243.081 424.461a7.719 7.719 0 0 1-6.354 3.32z" fill="rgba(252, 185, 130, 1)" stroke="none"/>
    <path d="M192.379 363.921a7.727 7.727 0 0 1-6.339-12.134l126.619-182.341a7.727 7.727 0 1 1 12.692 8.814L198.732 360.601a7.719 7.719 0 0 1-6.353 3.32z" fill="rgba(252, 185, 130, 1)" stroke="none"/>
    <path d="M148.03 300.05a7.728 7.728 0 0 1-6.34-12.134l84.114-121.139a7.728 7.728 0 0 1 12.694 8.814L154.383 296.73a7.719 7.719 0 0 1-6.353 3.32z" fill="rgba(252, 185, 130, 1)" stroke="none"/>
    <path d="M103.681 236.189a7.726 7.726 0 0 1-6.34-12.133l32.11-46.255a7.726 7.726 0 1 1 12.694 8.812l-32.11 46.255a7.719 7.719 0 0 1-6.354 3.321z" fill="rgba(252, 185, 130, 1)" stroke="none"/>
  </g>
</svg>
</g></svg></g></g>
<!-- /image 64835 -->
</defs><rect x="0" y="0" width="250" height="250" fill="rgba(151, 228, 138, 1)"></rect><use xlink:href="#transformed-54116" transform="translate(-250, -250)"></use><use xlink:href="#transformed-54116" transform="translate(0, -250)"></use><use xlink:href="#transformed-54116" transform="translate(250, -250)"></use><use xlink:href="#transformed-54116" transform="translate(-250, 0)"></use><use xlink:href="#transformed-54116" transform="translate(0, 0)"></use><use xlink:href="#transformed-54116" transform="translate(250, 0)"></use><use xlink:href="#transformed-54116" transform="translate(-250, 250)"></use><use xlink:href="#transformed-54116" transform="translate(0, 250)"></use><use xlink:href="#transformed-54116" transform="translate(250, 250)"></use><use xlink:href="#transformed-85395" transform="translate(-250, -250)"></use><use xlink:href="#transformed-85395" transform="translate(0, -250)"></use><use xlink:href="#transformed-85395" transform="translate(250, -250)"></use><use xlink:href="#transformed-85395" transform="translate(-250, 0)"></use><use xlink:href="#transformed-85395" transform="translate(0, 0)"></use><use xlink:href="#transformed-85395" transform="translate(250, 0)"></use><use xlink:href="#transformed-85395" transform="translate(-250, 250)"></use><use xlink:href="#transformed-85395" transform="translate(0, 250)"></use><use xlink:href="#transformed-85395" transform="translate(250, 250)"></use><use xlink:href="#transformed-85587" transform="translate(-250, -250)"></use><use xlink:href="#transformed-85587" transform="translate(0, -250)"></use><use xlink:href="#transformed-85587" transform="translate(250, -250)"></use><use xlink:href="#transformed-85587" transform="translate(-250, 0)"></use><use xlink:href="#transformed-85587" transform="translate(0, 0)"></use><use xlink:href="#transformed-85587" transform="translate(250, 0)"></use><use xlink:href="#transformed-85587" transform="translate(-250, 250)"></use><use xlink:href="#transformed-85587" transform="translate(0, 250)"></use><use xlink:href="#transformed-85587" transform="translate(250, 250)"></use><use xlink:href="#transformed-89916" transform="translate(-250, -250)"></use><use xlink:href="#transformed-89916" transform="translate(0, -250)"></use><use xlink:href="#transformed-89916" transform="translate(250, -250)"></use><use xlink:href="#transformed-89916" transform="translate(-250, 0)"></use><use xlink:href="#transformed-89916" transform="translate(0, 0)"></use><use xlink:href="#transformed-89916" transform="translate(250, 0)"></use><use xlink:href="#transformed-89916" transform="translate(-250, 250)"></use><use xlink:href="#transformed-89916" transform="translate(0, 250)"></use><use xlink:href="#transformed-89916" transform="translate(250, 250)"></use><use xlink:href="#transformed-61286" transform="translate(-250, -250)"></use><use xlink:href="#transformed-61286" transform="translate(0, -250)"></use><use xlink:href="#transformed-61286" transform="translate(250, -250)"></use><use xlink:href="#transformed-61286" transform="translate(-250, 0)"></use><use xlink:href="#transformed-61286" transform="translate(0, 0)"></use><use xlink:href="#transformed-61286" transform="translate(250, 0)"></use><use xlink:href="#transformed-61286" transform="translate(-250, 250)"></use><use xlink:href="#transformed-61286" transform="translate(0, 250)"></use><use xlink:href="#transformed-61286" transform="translate(250, 250)"></use><use xlink:href="#transformed-00229" transform="translate(-250, -250)"></use><use xlink:href="#transformed-00229" transform="translate(0, -250)"></use><use xlink:href="#transformed-00229" transform="translate(250, -250)"></use><use xlink:href="#transformed-00229" transform="translate(-250, 0)"></use><use xlink:href="#transformed-00229" transform="translate(0, 0)"></use><use xlink:href="#transformed-00229" transform="translate(250, 0)"></use><use xlink:href="#transformed-00229" transform="translate(-250, 250)"></use><use xlink:href="#transformed-00229" transform="translate(0, 250)"></use><use xlink:href="#transformed-00229" transform="translate(250, 250)"></use><use xlink:href="#transformed-82391" transform="translate(-250, -250)"></use><use xlink:href="#transformed-82391" transform="translate(0, -250)"></use><use xlink:href="#transformed-82391" transform="translate(250, -250)"></use><use xlink:href="#transformed-82391" transform="translate(-250, 0)"></use><use xlink:href="#transformed-82391" transform="translate(0, 0)"></use><use xlink:href="#transformed-82391" transform="translate(250, 0)"></use><use xlink:href="#transformed-82391" transform="translate(-250, 250)"></use><use xlink:href="#transformed-82391" transform="translate(0, 250)"></use><use xlink:href="#transformed-82391" transform="translate(250, 250)"></use><use xlink:href="#transformed-20986" transform="translate(-250, -250)"></use><use xlink:href="#transformed-20986" transform="translate(0, -250)"></use><use xlink:href="#transformed-20986" transform="translate(250, -250)"></use><use xlink:href="#transformed-20986" transform="translate(-250, 0)"></use><use xlink:href="#transformed-20986" transform="translate(0, 0)"></use><use xlink:href="#transformed-20986" transform="translate(250, 0)"></use><use xlink:href="#transformed-20986" transform="translate(-250, 250)"></use><use xlink:href="#transformed-20986" transform="translate(0, 250)"></use><use xlink:href="#transformed-20986" transform="translate(250, 250)"></use><use xlink:href="#transformed-26210" transform="translate(-250, -250)"></use><use xlink:href="#transformed-26210" transform="translate(0, -250)"></use><use xlink:href="#transformed-26210" transform="translate(250, -250)"></use><use xlink:href="#transformed-26210" transform="translate(-250, 0)"></use><use xlink:href="#transformed-26210" transform="translate(0, 0)"></use><use xlink:href="#transformed-26210" transform="translate(250, 0)"></use><use xlink:href="#transformed-26210" transform="translate(-250, 250)"></use><use xlink:href="#transformed-26210" transform="translate(0, 250)"></use><use xlink:href="#transformed-26210" transform="translate(250, 250)"></use><use xlink:href="#transformed-74674" transform="translate(-250, -250)"></use><use xlink:href="#transformed-74674" transform="translate(0, -250)"></use><use xlink:href="#transformed-74674" transform="translate(250, -250)"></use><use xlink:href="#transformed-74674" transform="translate(-250, 0)"></use><use xlink:href="#transformed-74674" transform="translate(0, 0)"></use><use xlink:href="#transformed-74674" transform="translate(250, 0)"></use><use xlink:href="#transformed-74674" transform="translate(-250, 250)"></use><use xlink:href="#transformed-74674" transform="translate(0, 250)"></use><use xlink:href="#transformed-74674" transform="translate(250, 250)"></use><use xlink:href="#transformed-54097" transform="translate(-250, -250)"></use><use xlink:href="#transformed-54097" transform="translate(0, -250)"></use><use xlink:href="#transformed-54097" transform="translate(250, -250)"></use><use xlink:href="#transformed-54097" transform="translate(-250, 0)"></use><use xlink:href="#transformed-54097" transform="translate(0, 0)"></use><use xlink:href="#transformed-54097" transform="translate(250, 0)"></use><use xlink:href="#transformed-54097" transform="translate(-250, 250)"></use><use xlink:href="#transformed-54097" transform="translate(0, 250)"></use><use xlink:href="#transformed-54097" transform="translate(250, 250)"></use><use xlink:href="#transformed-52863" transform="translate(-250, -250)"></use><use xlink:href="#transformed-52863" transform="translate(0, -250)"></use><use xlink:href="#transformed-52863" transform="translate(250, -250)"></use><use xlink:href="#transformed-52863" transform="translate(-250, 0)"></use><use xlink:href="#transformed-52863" transform="translate(0, 0)"></use><use xlink:href="#transformed-52863" transform="translate(250, 0)"></use><use xlink:href="#transformed-52863" transform="translate(-250, 250)"></use><use xlink:href="#transformed-52863" transform="translate(0, 250)"></use><use xlink:href="#transformed-52863" transform="translate(250, 250)"></use><use xlink:href="#transformed-02630" transform="translate(-250, -250)"></use><use xlink:href="#transformed-02630" transform="translate(0, -250)"></use><use xlink:href="#transformed-02630" transform="translate(250, -250)"></use><use xlink:href="#transformed-02630" transform="translate(-250, 0)"></use><use xlink:href="#transformed-02630" transform="translate(0, 0)"></use><use xlink:href="#transformed-02630" transform="translate(250, 0)"></use><use xlink:href="#transformed-02630" transform="translate(-250, 250)"></use><use xlink:href="#transformed-02630" transform="translate(0, 250)"></use><use xlink:href="#transformed-02630" transform="translate(250, 250)"></use><use xlink:href="#transformed-93271" transform="translate(-250, -250)"></use><use xlink:href="#transformed-93271" transform="translate(0, -250)"></use><use xlink:href="#transformed-93271" transform="translate(250, -250)"></use><use xlink:href="#transformed-93271" transform="translate(-250, 0)"></use><use xlink:href="#transformed-93271" transform="translate(0, 0)"></use><use xlink:href="#transformed-93271" transform="translate(250, 0)"></use><use xlink:href="#transformed-93271" transform="translate(-250, 250)"></use><use xlink:href="#transformed-93271" transform="translate(0, 250)"></use><use xlink:href="#transformed-93271" transform="translate(250, 250)"></use><use xlink:href="#transformed-64835" transform="translate(-250, -250)"></use><use xlink:href="#transformed-64835" transform="translate(0, -250)"></use><use xlink:href="#transformed-64835" transform="translate(250, -250)"></use><use xlink:href="#transformed-64835" transform="translate(-250, 0)"></use><use xlink:href="#transformed-64835" transform="translate(0, 0)"></use><use xlink:href="#transformed-64835" transform="translate(250, 0)"></use><use xlink:href="#transformed-64835" transform="translate(-250, 250)"></use><use xlink:href="#transformed-64835" transform="translate(0, 250)"></use><use xlink:href="#transformed-64835" transform="translate(250, 250)"></use></svg>