<svg version="1.1"
      xmlns="http://www.w3.org/2000/svg"
      xmlns:xlink="http://www.w3.org/1999/xlink"  id="snapshot-80515" width="250" height="250" viewBox="0 0 250 250"><desc>This image was made on Patterninja.com</desc><defs>
<!-- image 54116 -->
<g id="transformed-54116" data-image="54116" transform="translate(26.000000000000004, 22) rotate(0, 19.999999999999996, 20)"><g><svg version="1.1" width="39.99999999999999px" height="40px" viewBox="0 0 39.99999999999999 40"><g id="original-54116"><svg xmlns="http://www.w3.org/2000/svg" viewBox="0 0 512 512" xmlns:xlink="http://www.w3.org/1999/xlink" version="1.1" preserveAspectRatio="xMidYMid meet">
  <path d="M495.484 90.839H16.516L7.817 101v294.151c0 9.122 7.395 16.516 16.516 16.516H502l10-7.021v-297.29c0-9.123-7.395-16.517-16.516-16.517z" fill="rgba(149, 204, 129, 1)" stroke="none"/>
  <path d="M16.516 355.097V90.839C7.395 90.839 0 98.233 0 107.355v297.29c0 9.122 7.395 16.516 16.516 16.516h478.968c9.121 0 16.516-7.395 16.516-16.516H66.065c-27.365 0-49.549-22.183-49.549-49.548z" fill="rgba(125, 189, 128, 1)" stroke="none"/>
  <path d="M440.141 252.473L264.588 145.614a16.515 16.515 0 0 0-17.175 0L71.859 252.473c-2.643 1.609-2.643 5.446 0 7.054l175.553 106.859a16.515 16.515 0 0 0 17.175 0L440.14 259.527c2.644-1.609 2.644-5.445.001-7.054z" fill="rgba(255, 224, 125, 1)" stroke="none"/>
  <path d="M256 189.936c-24.565 0-45.998 13.407-57.382 33.302l-6.616 16.302a66.202 66.202 0 0 0-2.067 16.459c0 36.486 29.578 66.064 66.064 66.064 29.834 0 55.05-19.776 63.252-46.935l2.792-17.509c.013-.539.02-1.079.02-1.62.001-36.485-29.577-66.063-66.063-66.063z" fill="rgba(80, 85, 160, 1)" stroke="none"/>
  <path d="M192.002 239.541c45.894.372 89.785 12.681 127.25 35.589a65.88 65.88 0 0 0 2.792-17.509c-36.905-21.207-79.232-33.007-123.427-34.382a65.78 65.78 0 0 0-6.615 16.302z" fill="rgba(255, 255, 255, 1)" stroke="none"/>
</svg>
</g></svg></g></g>
<!-- /image 54116 -->

<!-- image 85395 -->
<g id="transformed-85395" data-image="85395" transform="translate(26, 22) rotate(0, 20, 20)"><g><svg version="1.1" width="40px" height="40px" viewBox="0 0 40 40"><g id="original-85395"><svg xmlns="http://www.w3.org/2000/svg" viewBox="0 0 512 512" xmlns:xlink="http://www.w3.org/1999/xlink" version="1.1" preserveAspectRatio="xMidYMid meet">
  <path d="M495.484 90.839H16.516L7.817 101v294.151c0 9.122 7.395 16.516 16.516 16.516H502l10-7.021v-297.29c0-9.123-7.395-16.517-16.516-16.517z" fill="rgba(229, 100, 110, 1)" stroke="none"/>
  <path d="M16.516 355.097V90.839C7.395 90.839 0 98.233 0 107.355v297.29c0 9.122 7.395 16.516 16.516 16.516h478.968c9.121 0 16.516-7.395 16.516-16.516H66.065c-27.365 0-49.549-22.183-49.549-49.548z" fill="rgba(219, 70, 85, 1)" stroke="none"/>
  <path d="M144.611 186.742l-26.589-.233-13.055-28.57c-1.233-3.699-6.465-3.699-7.699 0l-9.528 28.57-30.116.233c-3.899.03-5.516 5.006-2.379 7.323l24.227 17.891-9.084 28.714c-1.176 3.718 3.056 6.793 6.229 4.526l24.502-17.513 24.502 17.513c3.172 2.267 7.405-.808 6.229-4.526l-9.084-28.714 24.227-17.891c3.134-2.317 1.517-7.293-2.382-7.323z" fill="rgba(255, 224, 125, 1)" stroke="none"/>
  <path d="M176.121 133.827l-5.431-.048-3.653-7.995a5.04 5.04 0 0 0-9.367.5l-2.499 7.494-7.223.056c-4.63.036-6.55 5.944-2.825 8.695l5.81 4.291-2.179 6.886c-1.397 4.414 3.629 8.066 7.396 5.374l5.876-4.2 5.876 4.2c3.767 2.692 8.793-.959 7.396-5.374l-2.179-6.886 5.822-4.299c3.722-2.748 1.807-8.654-2.82-8.694z" fill="rgba(255, 224, 125, 1)" stroke="none"/>
  <path d="M176.121 264.924l-5.431-.048-3.653-7.995a5.04 5.04 0 0 0-9.367.5l-2.499 7.494-7.223.056c-4.63.036-6.55 5.944-2.825 8.695l5.81 4.291-2.179 6.886c-1.397 4.414 3.629 8.066 7.396 5.374l5.876-4.2 5.876 4.2c3.767 2.692 8.793-.959 7.396-5.374l-2.179-6.886 5.822-4.299c3.722-2.749 1.807-8.654-2.82-8.694z" fill="rgba(255, 224, 125, 1)" stroke="none"/>
  <path d="M214.658 224.321l-5.431-.048-3.653-7.995a5.04 5.04 0 0 0-9.367.5l-2.499 7.494-7.223.056c-4.63.036-6.55 5.944-2.825 8.695l5.81 4.291-2.179 6.886c-1.397 4.414 3.63 8.066 7.396 5.374l5.876-4.2 5.876 4.2c3.767 2.692 8.793-.959 7.396-5.374l-2.179-6.886 5.822-4.299c3.723-2.748 1.807-8.653-2.82-8.694z" fill="rgba(255, 224, 125, 1)" stroke="none"/>
  <path d="M214.658 170.644l-5.431-.048-3.653-7.995a5.04 5.04 0 0 0-9.367.5l-2.499 7.494-7.223.056c-4.63.036-6.55 5.944-2.825 8.695l5.81 4.291-2.179 6.886c-1.397 4.414 3.63 8.066 7.396 5.374l5.876-4.2 5.876 4.2c3.767 2.692 8.793-.959 7.396-5.374l-2.179-6.886 5.822-4.299c3.723-2.748 1.807-8.653-2.82-8.694z" fill="rgba(255, 224, 125, 1)" stroke="none"/>
</svg>
</g></svg></g></g>
<!-- /image 85395 -->

<!-- image 85587 -->
<g id="transformed-85587" data-image="85587" transform="translate(26.00000000000001, 22) rotate(0, 19.99999999999999, 20)"><g><svg version="1.1" width="39.99999999999998px" height="40px" viewBox="0 0 39.99999999999998 40"><g id="original-85587"><svg xmlns="http://www.w3.org/2000/svg" viewBox="0 0 512 512" xmlns:xlink="http://www.w3.org/1999/xlink" version="1.1" preserveAspectRatio="xMidYMid meet">
  <path d="M170.667 90.839H16.516l-6.032 16.516v289.796c0 9.121 7.395 16.516 16.516 16.516h143.667l19.269-17.283V115.616z" fill="rgba(80, 85, 160, 1)" stroke="none"/>
  <path d="M341.333 413.5h154.151L512 404.645v-297.29c0-9.121-7.395-16.516-16.516-16.516H341.333l-19.269 24.778v280.768z" fill="rgba(229, 100, 110, 1)" stroke="none"/>
  <path d="M512 404.645H328.489l12.844 16.516h154.151c9.121 0 16.516-7.394 16.516-16.516z" fill="rgba(219, 70, 85, 1)" stroke="none"/>
  <path d="M16.516 355.097V90.839C7.395 90.839 0 98.233 0 107.355v297.29c0 9.122 7.395 16.516 16.516 16.516h154.151l12.844-16.516H66.065c-27.365 0-49.549-22.183-49.549-49.548z" fill="rgba(63, 63, 143, 1)" stroke="none"/>
  <path d="M187.333 413.667h141l13-9.022V90.839H170.667v313.806z" fill="rgba(242, 242, 246, 1)" stroke="none"/>
  <path d="M170.667 404.645h170.666v16.516H170.667z" fill="rgba(225, 225, 230, 1)" stroke="none"/>
</svg>
</g></svg></g></g>
<!-- /image 85587 -->

<!-- image 89916 -->
<g id="transformed-89916" data-image="89916" transform="translate(26, 22.000000000000018) rotate(0, 20, 19.999999999999982)"><g><svg version="1.1" width="40px" height="39.999999999999964px" viewBox="0 0 40 39.999999999999964"><g id="original-89916"><svg xmlns="http://www.w3.org/2000/svg" viewBox="0 0 512 512" xmlns:xlink="http://www.w3.org/1999/xlink" version="1.1" preserveAspectRatio="xMidYMid meet">
  <path d="M512 200.946v-93.591c0-9.122-7.395-16.516-16.516-16.516H16.516l-8.849 16.516v93.591l17.104 22.022h462.456z" fill="rgba(93, 83, 96, 1)" stroke="none"/>
  <path d="M0 107.355v93.591l16.516 14.683V90.839C7.395 90.839 0 98.233 0 107.355z" fill="rgba(75, 63, 78, 1)" stroke="none"/>
  <path d="M7.817 311.054v86.43c0 9.122 7.395 16.516 16.516 16.516h471.151L512 404.645v-93.591l-24.77-22.022H24.774z" fill="rgba(255, 224, 125, 1)" stroke="none"/>
  <path d="M16.516 355.097v-58.724L0 311.054v93.591c0 9.122 7.395 16.516 16.516 16.516h478.968c9.121 0 16.516-7.394 16.516-16.516H66.065c-27.365 0-49.549-22.183-49.549-49.548z" fill="rgba(255, 208, 100, 1)" stroke="none"/>
  <path d="M8.667 297l7.849 14.053H512V200.946H16.516l-7.849 17.387z" fill="rgba(229, 100, 110, 1)" stroke="none"/>
  <path d="M0 200.946h16.516v110.107H0z" fill="rgba(219, 70, 85, 1)" stroke="none"/>
</svg>
</g></svg></g></g>
<!-- /image 89916 -->

<!-- image 61286 -->
<g id="transformed-61286" data-image="61286" transform="translate(26.000000000000014, 22) rotate(0, 19.999999999999986, 20)"><g><svg version="1.1" width="39.99999999999997px" height="40px" viewBox="0 0 39.99999999999997 40"><g id="original-61286"><svg xmlns="http://www.w3.org/2000/svg" viewBox="0 0 512 512" xmlns:xlink="http://www.w3.org/1999/xlink" version="1.1" preserveAspectRatio="xMidYMid meet">
  <path d="M170.667 90.839H16.516l-6.032 16.516v289.796c0 9.121 7.395 16.516 16.516 16.516h143.667l19.269-17.283V115.616z" fill="rgba(149, 204, 129, 1)" stroke="none"/>
  <path d="M341.333 413.5h154.151L512 404.645v-297.29c0-9.121-7.395-16.516-16.516-16.516H341.333l-19.269 24.778v280.768z" fill="rgba(229, 100, 110, 1)" stroke="none"/>
  <path d="M512 404.645H328.489l12.844 16.516h154.151c9.121 0 16.516-7.394 16.516-16.516z" fill="rgba(219, 70, 85, 1)" stroke="none"/>
  <path d="M16.516 355.097V90.839C7.395 90.839 0 98.233 0 107.355v297.29c0 9.122 7.395 16.516 16.516 16.516h154.151l12.844-16.516H66.065c-27.365 0-49.549-22.183-49.549-49.548z" fill="rgba(125, 189, 128, 1)" stroke="none"/>
  <path d="M187.333 413.667h141l13-9.022V90.839H170.667v313.806z" fill="rgba(242, 242, 246, 1)" stroke="none"/>
  <path d="M170.667 404.645h170.666v16.516H170.667z" fill="rgba(225, 225, 230, 1)" stroke="none"/>
</svg>
</g></svg></g></g>
<!-- /image 61286 -->

<!-- image 00229 -->
<g id="transformed-00229" data-image="00229" transform="translate(26, 22.000000000000025) rotate(0, 20, 19.999999999999975)"><g><svg version="1.1" width="40px" height="39.99999999999995px" viewBox="0 0 40 39.99999999999995"><g id="original-00229"><svg xmlns="http://www.w3.org/2000/svg" viewBox="0 0 512 512" xmlns:xlink="http://www.w3.org/1999/xlink" version="1.1" preserveAspectRatio="xMidYMid meet">
  <path d="M495.484 90.839H16.516L7.817 101v294.151c0 9.122 7.395 16.516 16.516 16.516H502l10-7.021v-297.29c0-9.123-7.395-16.517-16.516-16.517z" fill="rgba(242, 242, 246, 1)" stroke="none"/>
  <path d="M16.516 355.097V90.839C7.395 90.839 0 98.233 0 107.355v297.29c0 9.122 7.395 16.516 16.516 16.516h478.968c9.121 0 16.516-7.395 16.516-16.516H66.065c-27.365 0-49.549-22.183-49.549-49.548z" fill="rgba(225, 225, 230, 1)" stroke="none"/>
  <circle cx="256" cy="256" r="82.581" fill="rgba(229, 100, 110, 1)" stroke="none"/>
</svg>
</g></svg></g></g>
<!-- /image 00229 -->

<!-- image 82391 -->
<g id="transformed-82391" data-image="82391" transform="translate(26, 22.000000000000004) rotate(0, 20, 19.999999999999996)"><g><svg version="1.1" width="40px" height="39.99999999999999px" viewBox="0 0 40 39.99999999999999"><g id="original-82391"><svg xmlns="http://www.w3.org/2000/svg" viewBox="0 0 512 512" xmlns:xlink="http://www.w3.org/1999/xlink" version="1.1" preserveAspectRatio="xMidYMid meet">
  <path d="M170.667 90.839H16.516l-6.032 16.516v289.796c0 9.121 7.395 16.516 16.516 16.516h143.667l19.269-17.283V115.616z" fill="rgba(149, 204, 129, 1)" stroke="none"/>
  <path d="M341.333 413.5h154.151L512 404.645v-297.29c0-9.121-7.395-16.516-16.516-16.516H341.333l-19.269 24.778v280.768z" fill="rgba(229, 100, 110, 1)" stroke="none"/>
  <path d="M512 404.645H328.489l12.844 16.516h154.151c9.121 0 16.516-7.394 16.516-16.516z" fill="rgba(219, 70, 85, 1)" stroke="none"/>
  <path d="M16.516 355.097V90.839C7.395 90.839 0 98.233 0 107.355v297.29c0 9.122 7.395 16.516 16.516 16.516h154.151l12.844-16.516H66.065c-27.365 0-49.549-22.183-49.549-49.548z" fill="rgba(125, 189, 128, 1)" stroke="none"/>
  <path d="M187.333 413.667h141l13-9.022V90.839H170.667v313.806z" fill="rgba(242, 242, 246, 1)" stroke="none"/>
  <path d="M170.667 404.645h170.666v16.516H170.667z" fill="rgba(225, 225, 230, 1)" stroke="none"/>
  <path d="M256 313.806c-31.871 0-57.806-25.931-57.806-57.806 0-4.56 3.694-8.258 8.258-8.258s8.258 3.698 8.258 8.258c0 22.766 18.524 41.29 41.29 41.29s41.29-18.524 41.29-41.29a8.256 8.256 0 0 1 8.258-8.258 8.256 8.256 0 0 1 8.258 8.258c0 31.875-25.935 57.806-57.806 57.806z" fill="rgba(149, 204, 129, 1)" stroke="none"/>
  <path d="M239.57 214.71h8.172c13.682 0 24.774 11.092 24.774 24.774v24.774l-11.546 8.258c-12.329 0-22.782-9.066-24.525-21.271z" fill="rgba(150, 106, 91, 1)" stroke="none"/>
  <path d="M272.516 264.258h-11.545a16.516 16.516 0 0 1-16.351-14.181l-5.051-35.367h-7.107c-5.018 0-8.877 4.439-8.178 9.409l3.981 28.293c2.306 16.169 16.371 28.363 32.702 28.363h3.29a8.258 8.258 0 0 0 8.258-8.258v-8.259z" fill="rgba(120, 83, 83, 1)" stroke="none"/>
</svg>
</g></svg></g></g>
<!-- /image 82391 -->

<!-- image 92483 -->
<g id="transformed-92483" data-image="92483" transform="translate(25.000000000000004, 22) rotate(0, 19.999999999999996, 20)"><g><svg version="1.1" width="39.99999999999999px" height="40px" viewBox="0 0 39.99999999999999 40"><g id="original-92483"><svg xmlns="http://www.w3.org/2000/svg" viewBox="0 0 512 512" xmlns:xlink="http://www.w3.org/1999/xlink" version="1.1" preserveAspectRatio="xMidYMid meet">
  <path d="M495.484 90.839H189.935c-9.122 0-16.516 7.395-16.516 16.516V415h322.065L512 404.645v-297.29c0-9.122-7.395-16.516-16.516-16.516z" fill="rgba(229, 100, 110, 1)" stroke="none"/>
  <path d="M189.935 90.839H16.516l-8.032 16.516v288.462c0 9.121 7.395 16.516 16.516 16.516h152l12.936-7.688V90.839z" fill="rgba(149, 204, 129, 1)" stroke="none"/>
  <circle cx="189.935" cy="256" r="74.323" fill="rgba(255, 224, 125, 1)" stroke="none"/>
  <path d="M181.333 404.645l8.602 16.516h305.548c9.121 0 16.516-7.395 16.516-16.516z" fill="rgba(219, 70, 85, 1)" stroke="none"/>
  <path d="M189.936 297.29c-18.243 0-33.032-14.789-33.032-33.032v-33.032a8.258 8.258 0 0 1 8.258-8.258h49.548a8.258 8.258 0 0 1 8.258 8.258v33.032c0 18.243-14.789 33.032-33.032 33.032z" fill="rgba(229, 100, 110, 1)" stroke="none"/>
  <path d="M0 107.355v297.29c0 9.121 7.395 16.516 16.516 16.516h173.419v-16.516H66.065c-27.365 0-49.548-22.183-49.548-49.548V90.839C7.395 90.839 0 98.233 0 107.355z" fill="rgba(125, 189, 128, 1)" stroke="none"/>
  <path d="M189.936 280.774c-9.122 0-16.516-7.395-16.516-16.516v-24.774h33.032v24.774c0 9.122-7.395 16.516-16.516 16.516z" fill="rgba(255, 255, 255, 1)" stroke="none"/>
</svg>
</g></svg></g></g>
<!-- /image 92483 -->

<!-- image 63411 -->
<g id="transformed-63411" data-image="63411" transform="translate(111, 18) rotate(0, 24, 24)"><g><svg version="1.1" width="48px" height="48px" viewBox="0 0 48 48"><g id="original-63411"><svg xmlns="http://www.w3.org/2000/svg" viewBox="0 0 490.667 490.667" xmlns:xlink="http://www.w3.org/1999/xlink" version="1.1" preserveAspectRatio="xMidYMid meet">
  <path d="M100.626 132.866c-1.15-25.19-20.114-39.328-32.337-45.864-4.63-2.476-10.227.856-10.227 6.107v110.386l42.563-60.412v-10.217z" fill="rgba(149, 76, 53, 1)" stroke="none"/>
  <path d="M378.202 130.422H130.041c-33.882 0-62.954 20.571-75.421 49.904a8.19 8.19 0 0 1-7.535 4.998h-7.237c-12.09 0-21.892 9.801-21.892 21.892v12.116c0 12.09 9.801 21.892 21.892 21.892H47.9a8.19 8.19 0 0 1 7.46 4.826s3.631 25.804 11.52 38.995c5.63 9.413 12.796 17.805 20.999 25.087h335.787l31.041-70.016a62.939 62.939 0 0 0 6.117-27.069c0-45.633-36.99-82.625-82.622-82.625z" fill="rgba(201, 126, 103, 1)" stroke="none"/>
  <path d="M122.883 310.133h-35c-8.21-7.28-15.37-15.68-21-25.09-7.89-13.19-11.52-38.99-11.52-38.99a8.188 8.188 0 0 0-7.46-4.83h-8.06c-12.09 0-21.89-9.8-21.89-21.89v-12.12c0-12.09 9.8-21.89 21.89-21.89h7.24c3.29 0 6.25-1.97 7.54-5 12.46-29.33 41.54-49.9 75.42-49.9h35c-33.88 0-62.96 20.57-75.42 49.9-1.29 3.03-4.25 5-7.54 5h-7.24c-12.09 0-21.89 9.8-21.89 21.89v12.12c0 12.09 9.8 21.89 21.89 21.89h8.06c3.22 0 6.13 1.89 7.46 4.83 0 0 3.63 25.8 11.52 38.99 5.63 9.41 12.79 17.81 21 25.09z" fill="rgba(192, 105, 78, 1)" stroke="none"/>
  <path d="M327.173 286.635l17.24-42.867c2.281-5.672-3.692-11.108-9.146-8.347-5.805 2.939-9.81 6.924-20.671 6.924-17.205 0-17.205-10-34.411-10-17.203 0-17.203 10-34.406 10-17.202 0-17.202-10-34.404-10-17.196 0-17.196 10-34.392 10-11.683 0-15.431-4.613-22.022-7.573-5.191-2.331-10.652 2.765-8.856 8.165l13.59 40.856 18.139 68.487h129z" fill="rgba(93, 179, 58, 1)" stroke="none"/>
  <path d="M19.077 312.901L8.616 271.135c-1.383-5.52 4.448-10.188 9.448-7.472 6.349 3.45 9.737 8.333 21.387 9.217 17.147 1.301 17.903-8.671 35.05-7.37 17.153 1.301 16.397 11.272 33.55 12.573 17.154 1.301 17.91-8.67 35.064-7.369 17.156 1.301 16.4 11.273 33.556 12.574 10.83.821 15.125-2.849 21.135-5.34 5.647-2.341 11.192 3.532 8.489 9.015l-20.433 41.44" fill="rgba(109, 197, 74, 1)" stroke="none"/>
  <path d="M301.657 321.217l-17.702-39.249c-2.34-5.187 2.571-10.816 7.974-9.029 6.86 2.269 11.061 6.474 22.682 5.278 17.106-1.761 16.082-11.708 33.188-13.469 17.112-1.762 18.136 8.186 35.248 6.424 17.113-1.762 16.089-11.709 33.201-13.471 17.115-1.762 18.139 8.186 35.254 6.424 10.804-1.112 14.38-5.486 19.853-9.004 5.143-3.305 11.641 1.491 9.953 7.367l-12.76 44.407" fill="rgba(109, 197, 74, 1)" stroke="none"/>
  <path d="M118.861 181.595a7.5 7.5 0 0 0-7.5 7.5c0 3.805-3.096 6.9-6.901 6.9s-6.901-3.096-6.901-6.9c0-4.143-3.358-7.5-7.5-7.5s-7.5 3.357-7.5 7.5c0 12.076 9.825 21.9 21.901 21.9 21.743 0 28.672-29.4 14.401-29.4z" fill="rgba(149, 76, 53, 1)" stroke="none"/>
  <path d="M460.824 344.548l-27.303 39.904a20.064 20.064 0 0 1-8.037 6.852c-13.831 6.485-67.861 12.151-180.151 13.194-112.291-1.043-166.321-6.709-180.151-13.194a20.079 20.079 0 0 1-8.037-6.852l-27.303-39.904L14.333 322.5h460z" fill="rgba(202, 206, 239, 1)" stroke="none"/>
  <path d="M436.313 380.373l-2.79 4.08a20.058 20.058 0 0 1-8.04 6.85c-13.83 6.49-67.86 12.15-180.15 13.19-112.29-1.04-166.32-6.7-180.15-13.19a20.058 20.058 0 0 1-8.04-6.85l-27.3-39.91-15.51-22.04h46.61l3.9 5.54 27.3 39.91c2.03 2.96 4.79 5.33 8.04 6.85 13.83 6.49 67.86 12.15 180.15 13.19 78.24-.72 128.2-3.69 155.98-7.62z" fill="rgba(184, 190, 234, 1)" stroke="none"/>
  <path d="M490.667 303.874v25.499c0 3.884-2.706 7.252-6.507 8.055-41.482 8.763-132.819 14.85-238.827 14.85S47.989 346.19 6.506 337.428c-3.8-.803-6.506-4.171-6.506-8.055v-25.499c0-5.187 4.728-9.079 9.818-8.083 42.896 8.4 132.244 14.177 235.515 14.177s192.619-5.777 235.515-14.177c5.091-.996 9.819 2.896 9.819 8.083z" fill="rgba(113, 126, 214, 1)" stroke="none"/>
</svg>
</g></svg></g></g>
<!-- /image 63411 -->

<!-- image 74801 -->
<g id="transformed-74801" data-image="74801" transform="translate(196, 13.951999999999991) rotate(0, 26, 22.04800000000001)"><g><svg version="1.1" width="52px" height="44.09600000000002px" viewBox="0 0 52 44.09600000000002"><g id="original-74801"><svg xmlns="http://www.w3.org/2000/svg" viewBox="-91 0 512 512" xmlns:xlink="http://www.w3.org/1999/xlink" version="1.1" preserveAspectRatio="xMidYMid meet">
  <path d="M150 0h30v46h-30zm0 0" fill="rgba(255, 100, 26, 1)" stroke="none"/>
  <path d="M165 0h15v46h-15zm0 0" fill="rgba(240, 56, 0, 1)" stroke="none"/>
  <path d="M210 69.7V106h-90V69.7l45-46zm0 0" fill="rgba(255, 100, 26, 1)" stroke="none"/>
  <path d="M210 69.7V106h-45V23.7zm0 0" fill="rgba(240, 56, 0, 1)" stroke="none"/>
  <path d="M201.598 106L165 157.598l-15 21.3-37.8 1.5L120 106zm0 0" fill="rgba(255, 245, 245, 1)" stroke="none"/>
  <path d="M201.598 106L165 157.598V106zm0 0" fill="rgba(239, 226, 221, 1)" stroke="none"/>
  <path d="M219 191.5l-54 72.3-5.098 6.9-59.402 19.5 11.7-109.802 52.8-43.796L201.598 106H210zm0 0" fill="rgba(255, 100, 26, 1)" stroke="none"/>
  <path d="M219 191.5l-54 72.3V136.603L201.598 106H210zm0 0" fill="rgba(240, 56, 0, 1)" stroke="none"/>
  <path d="M228.602 283.3l-38.7 57.602L165 355l-70.8 40.2L90 391l10.5-100.8 64.5-53.7 54-45zm0 0" fill="rgba(255, 245, 245, 1)" stroke="none"/>
  <path d="M219 191.5l9.602 91.8-38.7 57.602L165 355V236.5zm0 0" fill="rgba(239, 226, 221, 1)" stroke="none"/>
  <path d="M240 391l-30 30h-90l-25.8-25.8 70.8-58.802 63.602-53.097 3.898 36zm0 0" fill="rgba(255, 100, 26, 1)" stroke="none"/>
  <path d="M240 391l-30 30h-45v-84.602l63.602-53.097 3.898 36zm0 0" fill="rgba(240, 56, 0, 1)" stroke="none"/>
  <path d="M30 421L0 391v-30h30zm0 0" fill="rgba(239, 226, 221, 1)" stroke="none"/>
  <path d="M0 391v121h90l30-31v-60l-30-30zm0 0" fill="rgba(239, 226, 221, 1)" stroke="none"/>
  <path d="M330 391l-30 30v-60h30zm0 0" fill="rgba(225, 211, 206, 1)" stroke="none"/>
  <path d="M240 391l-30 30v60l30 31h90V391zm0 0" fill="rgba(225, 211, 206, 1)" stroke="none"/>
  <path d="M240 391v121h-60l-15-31-15 31H90V391zm0 0" fill="rgba(255, 245, 245, 1)" stroke="none"/>
  <path d="M240 391v121h-60l-15-31v-90zm0 0" fill="rgba(239, 226, 221, 1)" stroke="none"/>
  <path d="M90 91h150v30H90zm0 0" fill="rgba(118, 110, 110, 1)" stroke="none"/>
  <path d="M165 91h75v30h-75zm0 0" fill="rgba(91, 85, 85, 1)" stroke="none"/>
  <path d="M150 451h30v61h-30zm0 0" fill="rgba(118, 110, 110, 1)" stroke="none"/>
  <path d="M165 451h15v61h-15zm0 0" fill="rgba(91, 85, 85, 1)" stroke="none"/>
</svg>
</g></svg></g></g>
<!-- /image 74801 -->

<!-- image 69713 -->
<g id="transformed-69713" data-image="69713" transform="translate(29, 101) rotate(0, 21, 20.999999999999993)"><g><svg version="1.1" width="42px" height="41.999999999999986px" viewBox="0 0 42 41.999999999999986"><g id="original-69713"><svg xmlns="http://www.w3.org/2000/svg" viewBox="0 0 512 512" xmlns:xlink="http://www.w3.org/1999/xlink" version="1.1" preserveAspectRatio="xMidYMid meet">
  <path d="M54.166 75.549a8.09 8.09 0 0 1-8.09-8.09V52.097a8.09 8.09 0 1 1 16.18 0V67.46a8.088 8.088 0 0 1-8.09 8.089z" fill="rgba(199, 197, 204, 1)" stroke="none"/>
  <path d="M73.631 75.549a8.09 8.09 0 0 1-8.09-8.09V52.097a8.09 8.09 0 1 1 16.18 0V67.46a8.09 8.09 0 0 1-8.09 8.089z" fill="rgba(199, 197, 204, 1)" stroke="none"/>
  <path d="M93.095 75.549a8.09 8.09 0 0 1-8.09-8.09V52.097a8.09 8.09 0 1 1 16.18 0V67.46a8.09 8.09 0 0 1-8.09 8.089z" fill="rgba(199, 197, 204, 1)" stroke="none"/>
  <path d="M183.668 247.946l37.712 9.775a5.393 5.393 0 0 1 4.04 5.22v64.974a5.395 5.395 0 0 1-4.381 5.298l-37.371 7.143v-92.41z" fill="rgba(224, 224, 227, 1)" stroke="none"/>
  <path d="M204.432 253.327l-20.764-5.381v92.409l20.764-3.969z" fill="rgba(206, 205, 209, 1)" stroke="none"/>
  <path d="M225.42 280.11h-29.552a8.09 8.09 0 1 1 0-16.18h29.552a8.09 8.09 0 1 1 0 16.18z" fill="rgba(199, 197, 204, 1)" stroke="none"/>
  <path d="M225.42 325.674h-30.134a8.09 8.09 0 1 1 0-16.18h30.134a8.09 8.09 0 1 1 0 16.18z" fill="rgba(199, 197, 204, 1)" stroke="none"/>
  <path d="M21.707 67.459h178.155v105.305H21.707z" fill="rgba(214, 214, 214, 1)" stroke="none"/>
  <path d="M21.707 95.441h178.155v20.198H21.707z" fill="rgba(199, 197, 204, 1)" stroke="none"/>
  <path d="M21.707 67.459h178.155V95.45H21.707z" fill="rgba(206, 205, 209, 1)" stroke="none"/>
  <path d="M102.431 67.459h58.182v93.497h-58.182z" fill="rgba(199, 197, 204, 1)" stroke="none"/>
  <path d="M21.917 147.602h177.821v13.358H21.917z" fill="rgba(199, 197, 204, 1)" stroke="none"/>
  <path d="M112.327 38.033h38.386v122.922h-38.386z" fill="rgba(214, 214, 214, 1)" stroke="none"/>
  <path d="M110.943 38.033c0-9.792 9.213-17.73 20.577-17.73s20.577 7.938 20.577 17.73h-41.154z" fill="rgba(206, 205, 209, 1)" stroke="none"/>
  <path d="M26.227 172.763h169.127v309.321H26.227z" fill="rgba(214, 214, 214, 1)" stroke="none"/>
  <path d="M26.216 420.686h169.127v22.406H26.216z" fill="rgba(199, 197, 204, 1)" stroke="none"/>
  <path d="M138.742 436.099h55.411v36.968h-55.411z" fill="rgba(199, 197, 204, 1)" stroke="none"/>
  <path d="M26.216 172.763h169.127v30.658H26.216z" fill="rgba(199, 197, 204, 1)" stroke="none"/>
  <path d="M45.535 206.205a8.09 8.09 0 0 1-8.09-8.09v-13.278a8.09 8.09 0 1 1 16.18 0v13.278a8.09 8.09 0 0 1-8.09 8.09z" fill="rgba(178, 177, 181, 1)" stroke="none"/>
  <path d="M64.124 206.205a8.09 8.09 0 0 1-8.09-8.09v-13.278a8.09 8.09 0 1 1 16.18 0v13.278a8.09 8.09 0 0 1-8.09 8.09z" fill="rgba(178, 177, 181, 1)" stroke="none"/>
  <path d="M82.715 206.205a8.09 8.09 0 0 1-8.09-8.09v-13.278a8.09 8.09 0 1 1 16.18 0v13.278a8.09 8.09 0 0 1-8.09 8.09z" fill="rgba(178, 177, 181, 1)" stroke="none"/>
  <path d="M101.305 206.205a8.09 8.09 0 0 1-8.09-8.09v-13.278a8.09 8.09 0 1 1 16.18 0v13.278a8.09 8.09 0 0 1-8.09 8.09z" fill="rgba(178, 177, 181, 1)" stroke="none"/>
  <path d="M119.895 206.205a8.09 8.09 0 0 1-8.09-8.09v-13.278a8.09 8.09 0 1 1 16.18 0v13.278a8.09 8.09 0 0 1-8.09 8.09z" fill="rgba(178, 177, 181, 1)" stroke="none"/>
  <path d="M138.484 206.205a8.09 8.09 0 0 1-8.09-8.09v-13.278a8.09 8.09 0 1 1 16.18 0v13.278a8.09 8.09 0 0 1-8.09 8.09z" fill="rgba(178, 177, 181, 1)" stroke="none"/>
  <path d="M157.074 206.205a8.09 8.09 0 0 1-8.09-8.09v-13.278a8.09 8.09 0 1 1 16.18 0v13.278a8.09 8.09 0 0 1-8.09 8.09z" fill="rgba(178, 177, 181, 1)" stroke="none"/>
  <path d="M175.665 206.205a8.09 8.09 0 0 1-8.09-8.09v-13.278a8.09 8.09 0 1 1 16.18 0v13.278a8.09 8.09 0 0 1-8.09 8.09z" fill="rgba(178, 177, 181, 1)" stroke="none"/>
  <path d="M212.972 44.592V95.45l-6.116 13.27a5.394 5.394 0 0 1-4.898 3.136h-4.388a5.395 5.395 0 0 1-4.898-3.136l-6.116-13.27V44.592h26.416z" fill="rgba(224, 224, 227, 1)" stroke="none"/>
  <path d="M185.601 44.595c0-9.341 6.339-16.914 14.16-16.914s14.16 7.572 14.16 16.914h-28.32z" fill="rgba(206, 205, 209, 1)" stroke="none"/>
  <path d="M212.972 58.603v16.179h-5.145a8.086 8.086 0 0 1-8.09-8.09 8.093 8.093 0 0 1 8.09-8.09h5.145z" fill="rgba(199, 197, 204, 1)" stroke="none"/>
  <path d="M34.779 44.592V95.45l-6.116 13.27a5.394 5.394 0 0 1-4.898 3.136h-4.388a5.395 5.395 0 0 1-4.898-3.136L8.363 95.45V44.592h26.416z" fill="rgba(224, 224, 227, 1)" stroke="none"/>
  <path d="M35.736 44.595c0-9.341-6.339-16.914-14.16-16.914s-14.16 7.572-14.16 16.914h28.32z" fill="rgba(206, 205, 209, 1)" stroke="none"/>
  <path d="M21.599 66.693a8.087 8.087 0 0 1-8.09 8.09H8.363v-16.18h5.145a8.094 8.094 0 0 1 8.091 8.09z" fill="rgba(199, 197, 204, 1)" stroke="none"/>
  <path d="M41.953 363.017v57.696l-7.13 15.48a5.393 5.393 0 0 1-4.898 3.137h-5.907a5.392 5.392 0 0 1-4.898-3.137l-7.13-15.48v-57.696h29.963z" fill="rgba(224, 224, 227, 1)" stroke="none"/>
  <path d="M43.038 363.018c0-10.599-7.194-19.192-16.067-19.192s-16.067 8.592-16.067 19.192h32.134z" fill="rgba(206, 205, 209, 1)" stroke="none"/>
  <path d="M26.226 388.096a8.093 8.093 0 0 1-8.09 8.09h-6.148v-16.179h6.148a8.092 8.092 0 0 1 8.09 8.089z" fill="rgba(199, 197, 204, 1)" stroke="none"/>
  <path d="M131.52 137.854a8.09 8.09 0 0 1-8.09-8.09v-7.225a8.09 8.09 0 1 1 16.18 0v7.225a8.09 8.09 0 0 1-8.09 8.09z" fill="rgba(178, 177, 181, 1)" stroke="none"/>
  <path d="M17.587 169.123h-.014a8.603 8.603 0 0 1-8.602-8.602v-10.394a5.122 5.122 0 0 1 5.122-5.122h6.973a5.122 5.122 0 0 1 5.122 5.122v10.394c0 4.75-3.85 8.602-8.601 8.602z" fill="rgba(239, 239, 239, 1)" stroke="none"/>
  <path d="M54.871 169.123h-.014a8.603 8.603 0 0 1-8.602-8.602v-10.394a5.122 5.122 0 0 1 5.122-5.122h6.973a5.122 5.122 0 0 1 5.122 5.122v10.394a8.602 8.602 0 0 1-8.601 8.602z" fill="rgba(239, 239, 239, 1)" stroke="none"/>
  <path d="M92.154 169.123h-.014a8.603 8.603 0 0 1-8.602-8.602v-10.394a5.122 5.122 0 0 1 5.122-5.122h6.973a5.122 5.122 0 0 1 5.122 5.122v10.394a8.602 8.602 0 0 1-8.601 8.602z" fill="rgba(239, 239, 239, 1)" stroke="none"/>
  <path d="M129.437 169.123h-.014a8.603 8.603 0 0 1-8.602-8.602v-10.394a5.122 5.122 0 0 1 5.122-5.122h6.973a5.122 5.122 0 0 1 5.122 5.122v10.394c0 4.75-3.85 8.602-8.601 8.602z" fill="rgba(239, 239, 239, 1)" stroke="none"/>
  <path d="M166.721 169.123h-.014a8.603 8.603 0 0 1-8.602-8.602v-10.394a5.122 5.122 0 0 1 5.122-5.122h6.973a5.122 5.122 0 0 1 5.122 5.122v10.394a8.602 8.602 0 0 1-8.601 8.602z" fill="rgba(239, 239, 239, 1)" stroke="none"/>
  <path d="M204.004 169.123h-.014a8.603 8.603 0 0 1-8.602-8.602v-10.394a5.122 5.122 0 0 1 5.122-5.122h6.973a5.122 5.122 0 0 1 5.122 5.122v10.394a8.602 8.602 0 0 1-8.601 8.602z" fill="rgba(239, 239, 239, 1)" stroke="none"/>
  <path d="M212.605 184.838H8.965a5.393 5.393 0 0 1-5.393-5.393v-14.901a5.393 5.393 0 0 1 5.393-5.393h203.64a5.393 5.393 0 0 1 5.393 5.393v14.901a5.393 5.393 0 0 1-5.393 5.393z" fill="rgba(224, 224, 227, 1)" stroke="none"/>
  <g>
    <path d="M97.895 249.266H77.508a1.472 1.472 0 0 1-1.473-1.473V231.09c0-6.444 5.223-11.667 11.667-11.667s11.667 5.223 11.667 11.667v16.703c0 .813-.66 1.473-1.474 1.473z" fill="rgba(61, 61, 61, 1)" stroke="none"/>
    <path d="M132.016 249.266h-20.387a1.472 1.472 0 0 1-1.473-1.473V231.09c0-6.444 5.223-11.667 11.667-11.667s11.667 5.223 11.667 11.667v16.703c0 .813-.66 1.473-1.474 1.473z" fill="rgba(61, 61, 61, 1)" stroke="none"/>
  </g>
  <path d="M130.087 284.584a8.153 8.153 0 0 0-2.86-5.907l-17.248-14.549a8.09 8.09 0 0 0-10.432 0l-17.249 14.549a8.185 8.185 0 0 0-2.873 6.184v34.389a8.09 8.09 0 0 0 8.09 8.09c4.267 0 7.754-3.306 8.06-7.496h1.13c.305 4.189 3.793 7.496 8.06 7.496s7.754-3.306 8.06-7.496h1.128c.305 4.189 3.793 7.496 8.06 7.496a8.09 8.09 0 0 0 8.09-8.09v-34.389c-.003-.094-.013-.184-.016-.277zm-17.235 3.135l1.069.902v15.043h-1.069v-15.945zm-17.249.902l1.069-.902v15.945h-1.069v-15.043z" fill="rgba(178, 177, 181, 1)" stroke="none"/>
  <path d="M26.225 473.058l-9.411 22.431c-1.491 3.554 1.119 7.479 4.974 7.479h173.56v-29.904l-169.123-.006z" fill="rgba(196, 174, 151, 1)" stroke="none"/>
  <path d="M138.742 473.057h55.411v29.911h-55.411z" fill="rgba(183, 159, 138, 1)" stroke="none"/>
  <path d="M156.338 377.01h333.134v115.033H156.338z" fill="rgba(224, 224, 227, 1)" stroke="none"/>
  <g>
    <path d="M156.348 407.824h333.134v16.27H156.348z" fill="rgba(199, 197, 204, 1)" stroke="none"/>
    <path d="M187.192 418.266v16.967l-19.434 32.722h-11.415v-53.831z" fill="rgba(199, 197, 204, 1)" stroke="none"/>
    <path d="M458.633 418.266v16.967l19.433 32.722h11.415v-53.831z" fill="rgba(199, 197, 204, 1)" stroke="none"/>
  </g>
  <path d="M489.496 482.089h-333.16l-8.684 22.582c-1.358 3.533 1.249 7.329 5.034 7.329h340.461c3.785 0 6.393-3.796 5.034-7.329l-8.685-22.582z" fill="rgba(196, 174, 151, 1)" stroke="none"/>
  <path d="M175.802 356.265v71.341l-9.159 19.892a5.394 5.394 0 0 1-4.898 3.138h-8.938a5.395 5.395 0 0 1-4.898-3.136l-9.169-19.893v-71.341h37.063v-.001z" fill="rgba(224, 224, 227, 1)" stroke="none"/>
  <path d="M177.142 356.261c0-13.107-8.895-23.733-19.869-23.733s-19.869 10.626-19.869 23.733h39.738z" fill="rgba(206, 205, 209, 1)" stroke="none"/>
  <path d="M157.066 387.277a8.086 8.086 0 0 1-8.09 8.09H138.74v-16.179h10.236a8.076 8.076 0 0 1 8.09 8.089z" fill="rgba(199, 197, 204, 1)" stroke="none"/>
  <path d="M507.096 356.265v71.342l-10.614 23.029h-15.845l-10.614-23.029v-71.342z" fill="rgba(224, 224, 227, 1)" stroke="none"/>
  <path d="M468.69 356.261c0-13.107 8.895-23.733 19.869-23.733s19.869 10.626 19.869 23.733H468.69z" fill="rgba(206, 205, 209, 1)" stroke="none"/>
  <path d="M507.096 379.186v16.179h-7.723a8.087 8.087 0 0 1-8.09-8.09 8.08 8.08 0 0 1 8.09-8.09h7.723z" fill="rgba(199, 197, 204, 1)" stroke="none"/>
  <g>
    <path d="M204.418 387.273h-.015a9.057 9.057 0 0 1-9.057-9.057v-10.944a5.393 5.393 0 0 1 5.393-5.393h7.342a5.393 5.393 0 0 1 5.393 5.393v10.944c.001 5.001-4.055 9.057-9.056 9.057z" fill="rgba(206, 205, 209, 1)" stroke="none"/>
    <path d="M243.675 387.273h-.015a9.057 9.057 0 0 1-9.057-9.057v-10.944a5.393 5.393 0 0 1 5.393-5.393h7.342a5.393 5.393 0 0 1 5.393 5.393v10.944c.002 5.001-4.054 9.057-9.056 9.057z" fill="rgba(206, 205, 209, 1)" stroke="none"/>
    <path d="M282.934 387.273h-.015a9.057 9.057 0 0 1-9.057-9.057v-10.944a5.393 5.393 0 0 1 5.393-5.393h7.342a5.393 5.393 0 0 1 5.393 5.393v10.944c.002 5.001-4.054 9.057-9.056 9.057z" fill="rgba(206, 205, 209, 1)" stroke="none"/>
    <path d="M322.192 387.273h-.015a9.057 9.057 0 0 1-9.057-9.057v-10.944a5.393 5.393 0 0 1 5.393-5.393h7.342a5.393 5.393 0 0 1 5.393 5.393v10.944a9.056 9.056 0 0 1-9.056 9.057z" fill="rgba(206, 205, 209, 1)" stroke="none"/>
    <path d="M361.45 387.273h-.015a9.057 9.057 0 0 1-9.057-9.057v-10.944a5.393 5.393 0 0 1 5.393-5.393h7.342a5.393 5.393 0 0 1 5.393 5.393v10.944a9.056 9.056 0 0 1-9.056 9.057z" fill="rgba(206, 205, 209, 1)" stroke="none"/>
    <path d="M400.709 387.273h-.015a9.057 9.057 0 0 1-9.057-9.057v-10.944a5.393 5.393 0 0 1 5.393-5.393h7.342a5.393 5.393 0 0 1 5.393 5.393v10.944a9.056 9.056 0 0 1-9.056 9.057z" fill="rgba(206, 205, 209, 1)" stroke="none"/>
    <path d="M439.967 387.273h-.015a9.057 9.057 0 0 1-9.057-9.057v-10.944a5.393 5.393 0 0 1 5.393-5.393h7.342a5.393 5.393 0 0 1 5.393 5.393v10.944a9.056 9.056 0 0 1-9.056 9.057z" fill="rgba(206, 205, 209, 1)" stroke="none"/>
  </g>
  <g>
    <path d="M229.419 463.48h-6.76a8.09 8.09 0 1 1 0-16.18h6.76a8.09 8.09 0 1 1 0 16.18z" fill="rgba(178, 177, 181, 1)" stroke="none"/>
    <path d="M275.342 463.48h-6.76a8.09 8.09 0 1 1 0-16.18h6.76a8.09 8.09 0 1 1 0 16.18z" fill="rgba(178, 177, 181, 1)" stroke="none"/>
    <path d="M321.266 463.48h-6.76a8.09 8.09 0 1 1 0-16.18h6.76a8.09 8.09 0 1 1 0 16.18z" fill="rgba(178, 177, 181, 1)" stroke="none"/>
    <path d="M367.19 463.48h-6.76a8.09 8.09 0 1 1 0-16.18h6.76a8.09 8.09 0 1 1 0 16.18z" fill="rgba(178, 177, 181, 1)" stroke="none"/>
    <path d="M413.114 463.48h-6.76a8.09 8.09 0 1 1 0-16.18h6.76a8.09 8.09 0 1 1 0 16.18z" fill="rgba(178, 177, 181, 1)" stroke="none"/>
  </g>
  <g>
    <path d="M135.942 36.673h-8.493V4.246a4.246 4.246 0 0 1 8.492 0v32.427z" fill="rgba(206, 205, 209, 1)" stroke="none"/>
    <path d="M204.112 36.673h-8.493V4.246a4.246 4.246 0 0 1 8.492 0l.001 32.427z" fill="rgba(206, 205, 209, 1)" stroke="none"/>
    <path d="M162.352 340.337h-8.493v-32.426a4.246 4.246 0 0 1 8.492 0l.001 32.426z" fill="rgba(206, 205, 209, 1)" stroke="none"/>
    <path d="M492.806 340.337h-8.493v-32.426a4.246 4.246 0 0 1 8.492 0v32.426z" fill="rgba(206, 205, 209, 1)" stroke="none"/>
    <path d="M24.863 36.673H16.37V4.246a4.246 4.246 0 1 1 8.493 0v32.427z" fill="rgba(206, 205, 209, 1)" stroke="none"/>
  </g>
</svg>
</g></svg></g></g>
<!-- /image 69713 -->

<!-- image 04170 -->
<g id="transformed-04170" data-image="04170" transform="translate(115, 102) rotate(0, 19, 19)"><g><svg version="1.1" width="38px" height="38px" viewBox="0 0 38 38"><g id="original-04170"><svg xmlns="http://www.w3.org/2000/svg" viewBox="0 0 512 512" xmlns:xlink="http://www.w3.org/1999/xlink" version="1.1" preserveAspectRatio="xMidYMid meet">
  <path d="M123.019 0L86.973 195h157.054L207.981 0z" fill="rgba(255, 239, 143, 1)" stroke="none"/>
  <path d="M388.981 0h-84.962l-36.046 195h157.054z" fill="rgba(255, 214, 87, 1)" stroke="none"/>
  <path d="M256 165L136 300l376-60-52.5-75z" fill="rgba(255, 26, 26, 1)" stroke="none"/>
  <path d="M256 165H52.5L0 240l256 60z" fill="rgba(255, 59, 27, 1)" stroke="none"/>
  <path d="M437 240l-60 136 60 136h75V240z" fill="rgba(255, 189, 30, 1)" stroke="none"/>
  <path d="M256 240l-60 136 60 136h25.333l55.334-30L392 512h45V240z" fill="rgba(255, 214, 87, 1)" stroke="none"/>
  <path d="M75 240H0v272h75l60-136z" fill="rgba(255, 214, 87, 1)" stroke="none"/>
  <path d="M75 240v272h45l55.333-30 55.334 30H256V240z" fill="rgba(255, 239, 143, 1)" stroke="none"/>
  <path d="M281.333 285h30v30h-30z" fill="rgba(102, 20, 41, 1)" stroke="none"/>
  <path d="M200.667 285h30v30h-30z" fill="rgba(153, 22, 36, 1)" stroke="none"/>
  <path d="M120 285h30v30h-30z" fill="rgba(153, 22, 36, 1)" stroke="none"/>
  <path d="M362 285h30v30h-30z" fill="rgba(102, 20, 41, 1)" stroke="none"/>
  <path d="M175.333 345C142.891 358.135 120 389.933 120 427.086V512h110.667v-84.914c0-37.153-22.891-68.951-55.334-82.086z" fill="rgba(102, 20, 41, 1)" stroke="none"/>
  <path d="M336.667 345c-32.443 13.135-55.333 44.933-55.333 82.086V512H392v-84.914c0-37.153-22.891-68.951-55.333-82.086z" fill="rgba(51, 18, 46, 1)" stroke="none"/>
</svg>
</g></svg></g></g>
<!-- /image 04170 -->

<!-- image 15973 -->
<g id="transformed-15973" data-image="15973" transform="translate(200, 100) rotate(0, 22, 22)"><g><svg version="1.1" width="44px" height="44px" viewBox="0 0 44 44"><g id="original-15973"><svg xmlns="http://www.w3.org/2000/svg" viewBox="0 0 512 512" xmlns:xlink="http://www.w3.org/1999/xlink" version="1.1" preserveAspectRatio="xMidYMid meet">
  <path d="M303.305 17.281c-2.38.723-64.778 1.153-67.125 2.13l15.601 52.484.95 1.195 28.257 36.601L395.16 62.52C381.387 25.543 341.063 5.8 303.305 17.28zm0 0" fill="rgba(255, 100, 26, 1)" stroke="none"/>
  <path d="M437.309 74.691c-30.184-30.214-87.172-29.257-115.098 9.465l24.348 48.52 112.664-1.246c.761-20.758-7.239-42.075-21.914-56.739zm0 0" fill="rgba(255, 131, 69, 1)" stroke="none"/>
  <path d="M492.59 158.41c-15.82-38.172-60.735-56.394-98.996-40.59a75.535 75.535 0 0 0-11.106 5.73l-14.148 55.458 123.183 39.289c8.614-18.883 9.008-40.711 1.067-59.887zm0 0" fill="rgba(255, 100, 26, 1)" stroke="none"/>
  <path d="M424.563 182.023l-26.047 59.59 89.578 69.29C503.285 296.752 512 276.742 512 256c0-46.215-41.61-81.613-87.438-73.977zm0 0" fill="rgba(255, 131, 69, 1)" stroke="none"/>
  <path d="M452 255.59a75.233 75.233 0 0 0-11.895-3.809l-37.796 29.207L449.48 395.16c19.47-7.25 35.172-22.414 43.11-41.57 15.875-38.293-2.278-82.106-40.59-98zm0 0" fill="rgba(255, 100, 26, 1)" stroke="none"/>
  <path d="M427.844 322.21l-48.52 24.349 1.246 111.664c.895.043 1.801.058 2.696.058 40.523 0 76.015-32.703 76.015-75 0-24.332-11.515-46.703-31.437-61.07zm0 0" fill="rgba(255, 131, 69, 1)" stroke="none"/>
  <path d="M394.18 393.594a75.535 75.535 0 0 0-5.73-11.106l-55.458 15.852-39.289 93.183c18.895 8.618 40.742 9 59.887 1.067 38.2-15.82 56.41-60.777 40.59-98.996zm0 0" fill="rgba(255, 100, 26, 1)" stroke="none"/>
  <path d="M256 512c-20.7 0-40.8-8.7-54.902-24L256 440.8l14.398-12.3 59.7-4.8c7.5 45.6-27.899 88.3-74.098 88.3zm0 0" fill="rgba(255, 182, 76, 1)" stroke="none"/>
  <path d="M256 512v-71.2l14.398-12.3 59.7-4.8c7.5 45.6-27.899 88.3-74.098 88.3zm0 0" fill="rgba(255, 131, 69, 1)" stroke="none"/>
  <path d="M201.012 402.309L116.84 448.48c11.015 29.575 39.379 49.868 70.27 49.868 33.632 0 64.96-23.926 73.109-59.243zm0 0" fill="rgba(255, 131, 69, 1)" stroke="none"/>
  <path d="M165.441 379.324L52.777 380.57c-1.527 41.676 32.746 77.711 75.942 77.711 24.332 0 46.703-11.515 61.07-31.437zm0 0" fill="rgba(255, 182, 76, 1)" stroke="none"/>
  <path d="M113.66 332.992l-93.183-39.289c-8.614 18.883-9.008 40.711-1.067 59.887 17.652 42.594 70.598 59.531 110.102 34.86zm0 0" fill="rgba(255, 131, 69, 1)" stroke="none"/>
  <path d="M82.484 270.387l-58.578-69.29C8.715 215.248 0 235.258 0 256c0 46.215 42.61 81.613 88.438 73.977zm0 0" fill="rgba(255, 182, 76, 1)" stroke="none"/>
  <path d="M62.52 116.84c-39.016 14.531-59.684 58.996-43.11 98.98 9.64 23.278 29.578 39.114 52.485 44.399l37.796-29.211zm0 0" fill="rgba(255, 131, 69, 1)" stroke="none"/>
  <path d="M131.43 52.777c-41.336-1.605-78.711 32.5-78.711 75.942 0 24.332 11.515 46.703 31.437 61.07l48.52-24.348zm0 0" fill="rgba(255, 182, 76, 1)" stroke="none"/>
  <path d="M158.41 19.41c-38.2 15.82-56.41 60.778-40.59 98.996a75.535 75.535 0 0 0 5.73 11.106l55.458-15.852 39.289-93.183c-18.914-8.625-40.738-9.024-59.887-1.067zm0 0" fill="rgba(255, 131, 69, 1)" stroke="none"/>
  <path d="M303.402 17.398c-2.402.602-4.8.903-7.203 2.102C277.9 27 263.5 41.102 256 59.398c0 .301-.3.301-.3.602-1.802 3.898-3 7.8-3.9 12l.9 1.2-11.098 9.3-59.704 4.8c-.597-3.902-.898-8.1-.898-12.3 0-41.398 33.602-75 75-75 17.402 0 33.898 6.3 47.402 17.398zm0 0" fill="rgba(255, 182, 76, 1)" stroke="none"/>
  <path d="M256 59.398V0c17.402 0 33.898 6.3 47.402 17.398-2.402.602-4.8.903-7.203 2.102C277.9 27 263.5 41.102 256 59.398zm0 0" fill="rgba(255, 131, 69, 1)" stroke="none"/>
  <path d="M256 60C148.598 60 60 148.598 60 256c0 107.398 88.598 195 196 195s196-87.602 196-195c0-107.402-88.598-196-196-196zm0 0" fill="rgba(255, 211, 150, 1)" stroke="none"/>
  <path d="M452 256c0 107.398-88.598 195-196 195V60c107.402 0 196 88.598 196 196zm0 0" fill="rgba(255, 182, 76, 1)" stroke="none"/>
  <path d="M181 151h30v30h-30zm0 0" fill="rgba(255, 182, 76, 1)" stroke="none"/>
  <path d="M121 241h30v30h-30zm0 0" fill="rgba(255, 182, 76, 1)" stroke="none"/>
  <path d="M301 151h30v30h-30zm0 0" fill="rgba(255, 131, 69, 1)" stroke="none"/>
  <path d="M241 241h30v30h-30zm0 0" fill="rgba(255, 182, 76, 1)" stroke="none"/>
  <path d="M361 241h30v30h-30zm0 0" fill="rgba(255, 131, 69, 1)" stroke="none"/>
  <path d="M181 331h30v30h-30zm0 0" fill="rgba(255, 182, 76, 1)" stroke="none"/>
  <path d="M301 331h30v30h-30zm0 0" fill="rgba(255, 131, 69, 1)" stroke="none"/>
  <path d="M256 241h15v30h-15zm0 0" fill="rgba(255, 131, 69, 1)" stroke="none"/>
</svg>
</g></svg></g></g>
<!-- /image 15973 -->

<!-- image 56648 -->
<g id="transformed-56648" data-image="56648" transform="translate(33, 191) rotate(0, 18, 18)"><g><svg version="1.1" width="36px" height="36px" viewBox="0 0 36 36"><g id="original-56648"><svg xmlns="http://www.w3.org/2000/svg" viewBox="0 0 492.159 492.159" xmlns:xlink="http://www.w3.org/1999/xlink" version="1.1" preserveAspectRatio="xMidYMid meet">
  <path d="M490.38 98.499c-16.59 70.81-24.6 106.18-28.73 125.57v.01c-.05.25-.11.5-.16.75-2.57 12.11-3.57 17.8-4.25 22.13-.04.23-.07.45-.11.67-.56 3.72-.91 6.58-1.9 12.1-5.91 32.84-52.54 58.96-117.58 61.6l-2.33.09c-.27.01-.55.02-.82.02-.72.03-1.44.05-2.17.06-.78.02-1.57.03-2.36.04-1.09.01-2.19.02-3.3.02h-13.05c-70.74 0-122.32-27.17-128.56-61.83-2.62-14.59-.79-10.59-10.23-53.02-1.25-5.67-2.71-12.16-4.41-19.64-4.73-20.8-11.3-49.21-20.52-88.57z" fill="rgba(255, 221, 129, 1)" stroke="none"/>
  <path d="M337.653 321.333c-3.6.16-7.26.23-10.98.23h-13.05c-70.74 0-122.32-27.17-128.56-61.83-2.62-14.59-.79-10.59-10.23-53.02-1.25-5.67-2.71-12.16-4.41-19.64-4.73-20.8-11.3-49.21-20.52-88.57h35c9.22 39.36 15.79 67.77 20.52 88.57 1.7 7.48 3.16 13.97 4.41 19.64 9.44 42.43 7.61 38.43 10.23 53.02 5.91 32.84 52.53 58.96 117.59 61.6z" fill="rgba(254, 210, 43, 1)" stroke="none"/>
  <ellipse cx="320.121" cy="86.254" rx="171.942" ry="86.254" fill="rgba(254, 210, 43, 1)" stroke="none"/>
  <path d="M386.09 38.829c-20.361-4.886-43.173-7.469-65.969-7.469-39.92 0-78.434 7.834-105.664 21.495a7.499 7.499 0 0 0-3.341 10.066 7.499 7.499 0 0 0 10.066 3.341c25.213-12.648 61.274-19.902 98.938-19.902 21.635 0 43.236 2.439 62.469 7.055 4.03.966 8.077-1.515 9.043-5.543s-1.514-8.077-5.542-9.043z" fill="rgba(227, 136, 3, 1)" stroke="none"/>
  <path d="M425.785 52.854a150.458 150.458 0 0 0-10.024-4.563 7.5 7.5 0 0 0-5.725 13.864 135.66 135.66 0 0 1 9.022 4.106 7.498 7.498 0 0 0 10.066-3.34 7.5 7.5 0 0 0-3.339-10.067z" fill="rgba(227, 136, 3, 1)" stroke="none"/>
  <path d="M288.059 121.21l-.591.001c-38.554 0-64.936-18.502-65.27-18.741a7.501 7.501 0 0 0-8.767 12.171c1.22.88 30.378 21.569 74.038 21.569l.661-.001a7.5 7.5 0 0 0 7.465-7.535c-.021-4.141-3.404-7.446-7.536-7.464z" fill="rgba(227, 136, 3, 1)" stroke="none"/>
  <path d="M337.623 172.053c-5.75.3-11.59.45-17.5.45-94.96 0-171.94-38.61-171.94-86.25S225.163.003 320.123.003c5.91 0 11.75.15 17.5.45-86.74 4.39-154.44 41.12-154.44 85.8s67.7 81.41 154.44 85.8z" fill="rgba(253, 194, 2, 1)" stroke="none"/>
  <path d="M461.489 224.829c-2.57 12.11-3.57 17.8-4.25 22.13-.04.23-.07.45-.11.67-8.08 6.18-22.73 16.12-42.98 24.82a213.414 213.414 0 0 1-84.11 17.28c-15.11 0-31.36-1.6-48.56-5.47a7.504 7.504 0 0 1-5.68-8.96 7.507 7.507 0 0 1 8.97-5.67c42.44 9.55 83.79 5.94 122.89-10.72 29.33-12.5 46.32-28.08 46.49-28.23.14-.13.3-.26.45-.38z" fill="rgba(240, 167, 10, 1)" stroke="none"/>
  <path d="M342.299 269.099c-16.59 70.81-24.6 106.18-28.73 125.57v.01c-2.69 12.63-3.72 18.46-4.41 22.88-.63 4.06-.96 6.92-2.01 12.77-6.24 34.66-57.83 61.83-128.56 61.83h-13.05c-70.74 0-122.32-27.17-128.56-61.83-2.62-14.59-.79-10.59-10.23-53.02-1.25-5.67-2.71-12.16-4.41-19.64-4.73-20.8-11.3-49.21-20.52-88.57z" fill="rgba(255, 221, 129, 1)" stroke="none"/>
  <path d="M189.57 491.929c-3.6.16-7.26.23-10.98.23h-13.05c-70.74 0-122.32-27.17-128.56-61.83-2.62-14.59-.79-10.59-10.23-53.02-1.25-5.67-2.71-12.16-4.41-19.64-4.73-20.8-11.3-49.21-20.52-88.57h35c9.22 39.36 15.79 67.77 20.52 88.57 1.7 7.48 3.16 13.97 4.41 19.64 9.44 42.43 7.61 38.43 10.23 53.02 5.91 32.84 52.529 58.96 117.59 61.6z" fill="rgba(254, 210, 43, 1)" stroke="none"/>
  <ellipse cx="172.038" cy="256.849" rx="171.942" ry="86.254" fill="rgba(254, 210, 43, 1)" stroke="none"/>
  <path d="M237.399 406.409a7.5 7.5 0 0 0-3.388-14.612c-45.332 10.513-91.326 8.856-135.067-2.446a7.498 7.498 0 0 0-9.138 5.386 7.5 7.5 0 0 0 5.386 9.138c45.848 11.845 94.304 13.643 142.207 2.534z" fill="rgba(253, 194, 2, 1)" stroke="none"/>
  <path d="M75.46 390.289c-1.42 3.9-5.72 5.91-9.61 4.5-16.65-6.04-27.47-11.21-39.1-17.48-1.25-5.67-2.71-12.16-4.41-19.64 20.48 11.32 29.46 16.07 48.63 23.02a7.496 7.496 0 0 1 4.49 9.6z" fill="rgba(253, 194, 2, 1)" stroke="none"/>
  <path d="M313.569 394.679c-2.69 12.63-3.72 18.46-4.41 22.88-12.53 9.54-24.78 17.18-43.09 25.05-41.24 17.72-87.07 22.07-132.68 11.81-4.04-.91-6.58-4.92-5.67-8.96s4.92-6.58 8.96-5.67c101.63 22.86 168.71-38.32 169.38-38.94.101-.09 3.33-2.74 7.51-6.17z" fill="rgba(253, 194, 2, 1)" stroke="none"/>
  <path d="M238.007 209.424c-20.361-4.886-43.173-7.469-65.969-7.469-39.92 0-78.434 7.834-105.664 21.495a7.499 7.499 0 0 0-3.341 10.066 7.499 7.499 0 0 0 10.066 3.341c25.213-12.648 61.274-19.902 98.938-19.902 21.635 0 43.236 2.439 62.469 7.055 4.03.966 8.077-1.515 9.043-5.543s-1.514-8.076-5.542-9.043z" fill="rgba(227, 136, 3, 1)" stroke="none"/>
  <path d="M277.702 223.45a150.458 150.458 0 0 0-10.024-4.563 7.5 7.5 0 0 0-5.725 13.864 135.66 135.66 0 0 1 9.022 4.106 7.498 7.498 0 0 0 10.066-3.34 7.499 7.499 0 0 0-3.339-10.067z" fill="rgba(227, 136, 3, 1)" stroke="none"/>
  <path d="M139.976 291.806l-.591.001c-38.554 0-64.936-18.502-65.271-18.741a7.501 7.501 0 0 0-8.767 12.171c1.22.88 30.378 21.569 74.038 21.569l.661-.001a7.5 7.5 0 0 0 7.465-7.535c-.02-4.141-3.403-7.446-7.535-7.464z" fill="rgba(227, 136, 3, 1)" stroke="none"/>
  <path d="M189.54 342.649c-5.75.3-11.59.45-17.5.45-94.96 0-171.94-38.61-171.94-86.25s76.98-86.25 171.94-86.25c5.91 0 11.75.15 17.5.45-86.74 4.39-154.44 41.12-154.44 85.8s67.699 81.41 154.44 85.8z" fill="rgba(253, 194, 2, 1)" stroke="none"/>
  <path d="M61.749 377.309l-.03-.11c-13.42-5.32-22.49-10.19-39.38-19.53 1.7 7.48 3.16 13.97 4.41 19.64 11.56 6.23 22.32 11.38 38.8 17.37-1.009-4.74-2.259-10.43-3.8-17.37z" fill="rgba(240, 167, 10, 1)" stroke="none"/>
</svg>
</g></svg></g></g>
<!-- /image 56648 -->

<!-- image 75942 -->
<g id="transformed-75942" data-image="75942" transform="translate(208, 193) rotate(0, 17, 16.999999999999993)"><g><svg version="1.1" width="34px" height="33.999999999999986px" viewBox="0 0 34 33.999999999999986"><g id="original-75942"><svg xmlns="http://www.w3.org/2000/svg" viewBox="0 0 512 512" xmlns:xlink="http://www.w3.org/1999/xlink" version="1.1" preserveAspectRatio="xMidYMid meet">
  <path d="M180.75 90h30v60h-30z" fill="rgba(255, 214, 87, 1)" stroke="none"/>
  <path d="M301.25 90h30v60h-30z" fill="rgba(255, 189, 30, 1)" stroke="none"/>
  <path d="M271 90h-15l-10 10v50h25z" fill="rgba(255, 189, 30, 1)" stroke="none"/>
  <path d="M241 90h15v60h-15z" fill="rgba(255, 214, 87, 1)" stroke="none"/>
  <path d="M391.5 285V120H256L120.5 285z" fill="rgba(255, 189, 30, 1)" stroke="none"/>
  <path d="M120.5 120H256v165H120.5z" fill="rgba(255, 214, 87, 1)" stroke="none"/>
  <path d="M256 225L120.5 407h271V225z" fill="rgba(255, 214, 87, 1)" stroke="none"/>
  <path d="M120.5 225H256v182H120.5z" fill="rgba(255, 239, 143, 1)" stroke="none"/>
  <path d="M301 315c0-24.813-20.187-45-45-45l-45 152h90z" fill="rgba(102, 20, 41, 1)" stroke="none"/>
  <path d="M211 315v107h45V270c-24.813 0-45 20.187-45 45z" fill="rgba(153, 22, 36, 1)" stroke="none"/>
  <path d="M331.5 407l-30 52.5 30 52.5h30l30-105z" fill="rgba(255, 157, 29, 1)" stroke="none"/>
  <path d="M256 407l-30 52.5 30 52.5h75.5V407z" fill="rgba(255, 189, 30, 1)" stroke="none"/>
  <path d="M180.5 407l-30 52.5 30 52.5H256V407z" fill="rgba(255, 214, 87, 1)" stroke="none"/>
  <path d="M120.5 407l30 105h30V407z" fill="rgba(255, 189, 30, 1)" stroke="none"/>
  <path d="M60.25 0h30v60h-30z" fill="rgba(255, 239, 143, 1)" stroke="none"/>
  <path d="M30 0H0v30l30 30z" fill="rgba(255, 239, 143, 1)" stroke="none"/>
  <path d="M150.5 0h-30v60l30-30z" fill="rgba(255, 239, 143, 1)" stroke="none"/>
  <path d="M0 225v287h150.5V225L75.25 125z" fill="rgba(255, 214, 87, 1)" stroke="none"/>
  <path d="M0 30h150.5v195H0z" fill="rgba(255, 239, 143, 1)" stroke="none"/>
  <path d="M60.25 330h30v122h-30z" fill="rgba(102, 20, 41, 1)" stroke="none"/>
  <path d="M60.25 90h30v30h-30z" fill="rgba(102, 20, 41, 1)" stroke="none"/>
  <path d="M421.75 0h30v60h-30z" fill="rgba(255, 214, 87, 1)" stroke="none"/>
  <path d="M391.5 0h-30v30l30 30z" fill="rgba(255, 214, 87, 1)" stroke="none"/>
  <path d="M512 0h-30v60l30-30z" fill="rgba(255, 214, 87, 1)" stroke="none"/>
  <path d="M361.5 225v287H512V225l-75.25-100z" fill="rgba(255, 189, 30, 1)" stroke="none"/>
  <path d="M361.5 30H512v195H361.5z" fill="rgba(255, 214, 87, 1)" stroke="none"/>
  <path d="M421.75 330h30v122h-30z" fill="rgba(51, 18, 46, 1)" stroke="none"/>
  <path d="M421.75 90h30v30h-30z" fill="rgba(51, 18, 46, 1)" stroke="none"/>
</svg>
</g></svg></g></g>
<!-- /image 75942 -->

<!-- image 40517 -->
<g id="transformed-40517" data-image="40517" transform="translate(119.32000000000001, 187) rotate(0, 20.679999999999996, 22)"><g><svg version="1.1" width="41.35999999999999px" height="44px" viewBox="0 0 41.35999999999999 44"><g id="original-40517"><svg xmlns="http://www.w3.org/2000/svg" viewBox="1 -31 511.999 511" xmlns:xlink="http://www.w3.org/1999/xlink" version="1.1" preserveAspectRatio="xMidYMid meet">
  <path d="M502.965 263.188l-1.613-11.07-11.059-1.614c-1.961-.277-49.36-6.867-83.941 14.648l7.75 74.2 74.214 7.765c21.516-34.582 14.938-81.937 14.649-83.93zm0 0" fill="rgba(255, 182, 76, 1)" stroke="none"/>
  <path d="M262.52 317.5c-39.68 9.21-68.504 47.367-69.723 48.992l-6.676 8.965 6.676 8.965c1.219 1.625 30.043 39.777 69.723 48.992l22.144-57.941zm0 0" fill="rgba(255, 211, 150, 1)" stroke="none"/>
  <path d="M437.227 316.227l-14.938-74.758-17.871 9.695c-11.879 6.445-22.965 14.777-32.953 24.781-14.266 14.25-25.266 30.95-31.813 48.262l31.489 92.215c7.398 2.695 15.41 4 23.773 4 27.242 0 58.043-13.871 82.606-38.434 10.003-10.004 18.351-21.09 24.785-32.941L512 331.164zm0 0" fill="rgba(153, 80, 61, 1)" stroke="none"/>
  <path d="M262.27 120.484l-62.692 29.996-128.187-29.996-56.692-29.996L32.695.5h205.578zm0 0" fill="rgba(255, 245, 245, 1)" stroke="none"/>
  <path d="M262.27 120.484l-62.692 29.996-64.594-14.996V.5h103.29zm0 0" fill="rgba(239, 226, 221, 1)" stroke="none"/>
  <path d="M119.984 285.465h30v89.992h-30zm0 0" fill="rgba(255, 245, 245, 1)" stroke="none"/>
  <path d="M294.813 450.45c-14.149 0-27.887-1.95-40.82-5.774L234.5 438.89l42.285-63.434-42.285-63.434 19.492-5.785c12.934-3.824 26.672-5.77 40.82-5.77 58.868 0 105.989 32.938 105.989 74.989s-47.121 74.992-105.988 74.992zm0 0" fill="rgba(198, 113, 90, 1)" stroke="none"/>
  <path d="M134.984 285.465h15v89.992h-15zm0 0" fill="rgba(239, 226, 221, 1)" stroke="none"/>
  <path d="M134.984 354.16l-96.289 96.29h193.578zm-23.695 66.29l23.695-23.696 23.696 23.695zm0 0" fill="rgba(255, 245, 245, 1)" stroke="none"/>
  <path d="M232.273 450.45h-97.289v-30h23.696l-23.696-23.696V354.16zm0 0" fill="rgba(239, 226, 221, 1)" stroke="none"/>
  <path d="M268.566 151.98l-.296-1.5-6-29.996h-62.692c-19.797 0-40.297-4.5-57.996-13.496-2.098-1.199-4.496-2.101-6.598-2.703-19.797-9.297-41.695-13.797-63.593-13.797H14.699l-6 29.996-6.297 31.496C.902 159.781 0 168.18 0 176.277c0 68.395 55.793 124.188 124.187 124.188h21.594c68.395 0 125.188-55.793 125.188-124.188 0-8.097-.903-16.496-2.403-24.297zm0 0" fill="rgba(255, 100, 26, 1)" stroke="none"/>
  <path d="M270.969 176.277c0 68.395-56.793 124.188-125.188 124.188h-10.797v-196.18c2.102.602 4.5 1.504 6.598 2.703 17.7 8.996 38.2 13.496 57.996 13.496h62.692l6 29.996.3 1.5c1.496 7.801 2.399 16.2 2.399 24.297zm0 0" fill="rgba(240, 56, 0, 1)" stroke="none"/>
  <path d="M59.992 150.48h29.996v30H59.992zm0 0" fill="rgba(240, 56, 0, 1)" stroke="none"/>
  <path d="M119.984 180.48h30v29.997h-30zm0 0" fill="rgba(240, 56, 0, 1)" stroke="none"/>
  <path d="M134.984 180.48h15v29.997h-15zm0 0" fill="rgba(205, 0, 0, 1)" stroke="none"/>
</svg>
</g></svg></g></g>
<!-- /image 40517 -->
</defs><rect x="0" y="0" width="250" height="250" fill="rgba(158, 210, 174, 1)"></rect><use xlink:href="#transformed-54116" transform="translate(-250, -250)"></use><use xlink:href="#transformed-54116" transform="translate(0, -250)"></use><use xlink:href="#transformed-54116" transform="translate(250, -250)"></use><use xlink:href="#transformed-54116" transform="translate(-250, 0)"></use><use xlink:href="#transformed-54116" transform="translate(0, 0)"></use><use xlink:href="#transformed-54116" transform="translate(250, 0)"></use><use xlink:href="#transformed-54116" transform="translate(-250, 250)"></use><use xlink:href="#transformed-54116" transform="translate(0, 250)"></use><use xlink:href="#transformed-54116" transform="translate(250, 250)"></use><use xlink:href="#transformed-85395" transform="translate(-250, -250)"></use><use xlink:href="#transformed-85395" transform="translate(0, -250)"></use><use xlink:href="#transformed-85395" transform="translate(250, -250)"></use><use xlink:href="#transformed-85395" transform="translate(-250, 0)"></use><use xlink:href="#transformed-85395" transform="translate(0, 0)"></use><use xlink:href="#transformed-85395" transform="translate(250, 0)"></use><use xlink:href="#transformed-85395" transform="translate(-250, 250)"></use><use xlink:href="#transformed-85395" transform="translate(0, 250)"></use><use xlink:href="#transformed-85395" transform="translate(250, 250)"></use><use xlink:href="#transformed-85587" transform="translate(-250, -250)"></use><use xlink:href="#transformed-85587" transform="translate(0, -250)"></use><use xlink:href="#transformed-85587" transform="translate(250, -250)"></use><use xlink:href="#transformed-85587" transform="translate(-250, 0)"></use><use xlink:href="#transformed-85587" transform="translate(0, 0)"></use><use xlink:href="#transformed-85587" transform="translate(250, 0)"></use><use xlink:href="#transformed-85587" transform="translate(-250, 250)"></use><use xlink:href="#transformed-85587" transform="translate(0, 250)"></use><use xlink:href="#transformed-85587" transform="translate(250, 250)"></use><use xlink:href="#transformed-89916" transform="translate(-250, -250)"></use><use xlink:href="#transformed-89916" transform="translate(0, -250)"></use><use xlink:href="#transformed-89916" transform="translate(250, -250)"></use><use xlink:href="#transformed-89916" transform="translate(-250, 0)"></use><use xlink:href="#transformed-89916" transform="translate(0, 0)"></use><use xlink:href="#transformed-89916" transform="translate(250, 0)"></use><use xlink:href="#transformed-89916" transform="translate(-250, 250)"></use><use xlink:href="#transformed-89916" transform="translate(0, 250)"></use><use xlink:href="#transformed-89916" transform="translate(250, 250)"></use><use xlink:href="#transformed-61286" transform="translate(-250, -250)"></use><use xlink:href="#transformed-61286" transform="translate(0, -250)"></use><use xlink:href="#transformed-61286" transform="translate(250, -250)"></use><use xlink:href="#transformed-61286" transform="translate(-250, 0)"></use><use xlink:href="#transformed-61286" transform="translate(0, 0)"></use><use xlink:href="#transformed-61286" transform="translate(250, 0)"></use><use xlink:href="#transformed-61286" transform="translate(-250, 250)"></use><use xlink:href="#transformed-61286" transform="translate(0, 250)"></use><use xlink:href="#transformed-61286" transform="translate(250, 250)"></use><use xlink:href="#transformed-00229" transform="translate(-250, -250)"></use><use xlink:href="#transformed-00229" transform="translate(0, -250)"></use><use xlink:href="#transformed-00229" transform="translate(250, -250)"></use><use xlink:href="#transformed-00229" transform="translate(-250, 0)"></use><use xlink:href="#transformed-00229" transform="translate(0, 0)"></use><use xlink:href="#transformed-00229" transform="translate(250, 0)"></use><use xlink:href="#transformed-00229" transform="translate(-250, 250)"></use><use xlink:href="#transformed-00229" transform="translate(0, 250)"></use><use xlink:href="#transformed-00229" transform="translate(250, 250)"></use><use xlink:href="#transformed-82391" transform="translate(-250, -250)"></use><use xlink:href="#transformed-82391" transform="translate(0, -250)"></use><use xlink:href="#transformed-82391" transform="translate(250, -250)"></use><use xlink:href="#transformed-82391" transform="translate(-250, 0)"></use><use xlink:href="#transformed-82391" transform="translate(0, 0)"></use><use xlink:href="#transformed-82391" transform="translate(250, 0)"></use><use xlink:href="#transformed-82391" transform="translate(-250, 250)"></use><use xlink:href="#transformed-82391" transform="translate(0, 250)"></use><use xlink:href="#transformed-82391" transform="translate(250, 250)"></use><use xlink:href="#transformed-92483" transform="translate(-250, -250)"></use><use xlink:href="#transformed-92483" transform="translate(0, -250)"></use><use xlink:href="#transformed-92483" transform="translate(250, -250)"></use><use xlink:href="#transformed-92483" transform="translate(-250, 0)"></use><use xlink:href="#transformed-92483" transform="translate(0, 0)"></use><use xlink:href="#transformed-92483" transform="translate(250, 0)"></use><use xlink:href="#transformed-92483" transform="translate(-250, 250)"></use><use xlink:href="#transformed-92483" transform="translate(0, 250)"></use><use xlink:href="#transformed-92483" transform="translate(250, 250)"></use><use xlink:href="#transformed-63411" transform="translate(-250, -250)"></use><use xlink:href="#transformed-63411" transform="translate(0, -250)"></use><use xlink:href="#transformed-63411" transform="translate(250, -250)"></use><use xlink:href="#transformed-63411" transform="translate(-250, 0)"></use><use xlink:href="#transformed-63411" transform="translate(0, 0)"></use><use xlink:href="#transformed-63411" transform="translate(250, 0)"></use><use xlink:href="#transformed-63411" transform="translate(-250, 250)"></use><use xlink:href="#transformed-63411" transform="translate(0, 250)"></use><use xlink:href="#transformed-63411" transform="translate(250, 250)"></use><use xlink:href="#transformed-74801" transform="translate(-250, -250)"></use><use xlink:href="#transformed-74801" transform="translate(0, -250)"></use><use xlink:href="#transformed-74801" transform="translate(250, -250)"></use><use xlink:href="#transformed-74801" transform="translate(-250, 0)"></use><use xlink:href="#transformed-74801" transform="translate(0, 0)"></use><use xlink:href="#transformed-74801" transform="translate(250, 0)"></use><use xlink:href="#transformed-74801" transform="translate(-250, 250)"></use><use xlink:href="#transformed-74801" transform="translate(0, 250)"></use><use xlink:href="#transformed-74801" transform="translate(250, 250)"></use><use xlink:href="#transformed-69713" transform="translate(-250, -250)"></use><use xlink:href="#transformed-69713" transform="translate(0, -250)"></use><use xlink:href="#transformed-69713" transform="translate(250, -250)"></use><use xlink:href="#transformed-69713" transform="translate(-250, 0)"></use><use xlink:href="#transformed-69713" transform="translate(0, 0)"></use><use xlink:href="#transformed-69713" transform="translate(250, 0)"></use><use xlink:href="#transformed-69713" transform="translate(-250, 250)"></use><use xlink:href="#transformed-69713" transform="translate(0, 250)"></use><use xlink:href="#transformed-69713" transform="translate(250, 250)"></use><use xlink:href="#transformed-04170" transform="translate(-250, -250)"></use><use xlink:href="#transformed-04170" transform="translate(0, -250)"></use><use xlink:href="#transformed-04170" transform="translate(250, -250)"></use><use xlink:href="#transformed-04170" transform="translate(-250, 0)"></use><use xlink:href="#transformed-04170" transform="translate(0, 0)"></use><use xlink:href="#transformed-04170" transform="translate(250, 0)"></use><use xlink:href="#transformed-04170" transform="translate(-250, 250)"></use><use xlink:href="#transformed-04170" transform="translate(0, 250)"></use><use xlink:href="#transformed-04170" transform="translate(250, 250)"></use><use xlink:href="#transformed-15973" transform="translate(-250, -250)"></use><use xlink:href="#transformed-15973" transform="translate(0, -250)"></use><use xlink:href="#transformed-15973" transform="translate(250, -250)"></use><use xlink:href="#transformed-15973" transform="translate(-250, 0)"></use><use xlink:href="#transformed-15973" transform="translate(0, 0)"></use><use xlink:href="#transformed-15973" transform="translate(250, 0)"></use><use xlink:href="#transformed-15973" transform="translate(-250, 250)"></use><use xlink:href="#transformed-15973" transform="translate(0, 250)"></use><use xlink:href="#transformed-15973" transform="translate(250, 250)"></use><use xlink:href="#transformed-56648" transform="translate(-250, -250)"></use><use xlink:href="#transformed-56648" transform="translate(0, -250)"></use><use xlink:href="#transformed-56648" transform="translate(250, -250)"></use><use xlink:href="#transformed-56648" transform="translate(-250, 0)"></use><use xlink:href="#transformed-56648" transform="translate(0, 0)"></use><use xlink:href="#transformed-56648" transform="translate(250, 0)"></use><use xlink:href="#transformed-56648" transform="translate(-250, 250)"></use><use xlink:href="#transformed-56648" transform="translate(0, 250)"></use><use xlink:href="#transformed-56648" transform="translate(250, 250)"></use><use xlink:href="#transformed-75942" transform="translate(-250, -250)"></use><use xlink:href="#transformed-75942" transform="translate(0, -250)"></use><use xlink:href="#transformed-75942" transform="translate(250, -250)"></use><use xlink:href="#transformed-75942" transform="translate(-250, 0)"></use><use xlink:href="#transformed-75942" transform="translate(0, 0)"></use><use xlink:href="#transformed-75942" transform="translate(250, 0)"></use><use xlink:href="#transformed-75942" transform="translate(-250, 250)"></use><use xlink:href="#transformed-75942" transform="translate(0, 250)"></use><use xlink:href="#transformed-75942" transform="translate(250, 250)"></use><use xlink:href="#transformed-40517" transform="translate(-250, -250)"></use><use xlink:href="#transformed-40517" transform="translate(0, -250)"></use><use xlink:href="#transformed-40517" transform="translate(250, -250)"></use><use xlink:href="#transformed-40517" transform="translate(-250, 0)"></use><use xlink:href="#transformed-40517" transform="translate(0, 0)"></use><use xlink:href="#transformed-40517" transform="translate(250, 0)"></use><use xlink:href="#transformed-40517" transform="translate(-250, 250)"></use><use xlink:href="#transformed-40517" transform="translate(0, 250)"></use><use xlink:href="#transformed-40517" transform="translate(250, 250)"></use></svg>