<svg version="1.1"
      xmlns="http://www.w3.org/2000/svg"
      xmlns:xlink="http://www.w3.org/1999/xlink"  id="snapshot-62871" width="250" height="250" viewBox="0 0 250 250"><desc>This image was made on Patterninja.com</desc><defs>
<!-- image 54116 -->
<g id="transformed-54116" data-image="54116" transform="translate(26.000000000000004, 22) rotate(0, 19.999999999999996, 20)"><g><svg version="1.1" width="39.99999999999999px" height="40px" viewBox="0 0 39.99999999999999 40"><g id="original-54116"><svg xmlns="http://www.w3.org/2000/svg" viewBox="0 0 512 512" xmlns:xlink="http://www.w3.org/1999/xlink" version="1.1" preserveAspectRatio="xMidYMid meet">
  <path d="M495.484 90.839H16.516L7.817 101v294.151c0 9.122 7.395 16.516 16.516 16.516H502l10-7.021v-297.29c0-9.123-7.395-16.517-16.516-16.517z" fill="rgba(149, 204, 129, 1)" stroke="none"/>
  <path d="M16.516 355.097V90.839C7.395 90.839 0 98.233 0 107.355v297.29c0 9.122 7.395 16.516 16.516 16.516h478.968c9.121 0 16.516-7.395 16.516-16.516H66.065c-27.365 0-49.549-22.183-49.549-49.548z" fill="rgba(125, 189, 128, 1)" stroke="none"/>
  <path d="M440.141 252.473L264.588 145.614a16.515 16.515 0 0 0-17.175 0L71.859 252.473c-2.643 1.609-2.643 5.446 0 7.054l175.553 106.859a16.515 16.515 0 0 0 17.175 0L440.14 259.527c2.644-1.609 2.644-5.445.001-7.054z" fill="rgba(255, 224, 125, 1)" stroke="none"/>
  <path d="M256 189.936c-24.565 0-45.998 13.407-57.382 33.302l-6.616 16.302a66.202 66.202 0 0 0-2.067 16.459c0 36.486 29.578 66.064 66.064 66.064 29.834 0 55.05-19.776 63.252-46.935l2.792-17.509c.013-.539.02-1.079.02-1.62.001-36.485-29.577-66.063-66.063-66.063z" fill="rgba(80, 85, 160, 1)" stroke="none"/>
  <path d="M192.002 239.541c45.894.372 89.785 12.681 127.25 35.589a65.88 65.88 0 0 0 2.792-17.509c-36.905-21.207-79.232-33.007-123.427-34.382a65.78 65.78 0 0 0-6.615 16.302z" fill="rgba(255, 255, 255, 1)" stroke="none"/>
</svg>
</g></svg></g></g>
<!-- /image 54116 -->

<!-- image 25432 -->
<g id="transformed-25432" data-image="25432" transform="translate(26.000000000000014, 22) rotate(0, 19.999999999999986, 20)"><g><svg version="1.1" width="39.99999999999997px" height="40px" viewBox="0 0 39.99999999999997 40"><g id="original-25432"><svg xmlns="http://www.w3.org/2000/svg" viewBox="0 0 512 512" xmlns:xlink="http://www.w3.org/1999/xlink" version="1.1" preserveAspectRatio="xMidYMid meet">
  <path d="M495.484 90.839H16.516l-8.849 16.516v291.129c0 9.122 7.395 16.516 16.516 16.516h471.301L512 404.645v-49.548L497 337V171l15-14.097v-49.548c0-9.122-7.395-16.516-16.516-16.516z" fill="rgba(229, 100, 110, 1)" stroke="none"/>
  <path d="M16.516 355.097V90.839C7.395 90.839 0 98.233 0 107.355v49.548L7.5 168.5V342L0 355.097v49.548c0 9.122 7.395 16.516 16.516 16.516h478.968c9.121 0 16.516-7.395 16.516-16.516H66.065c-27.365 0-49.549-22.183-49.549-49.548z" fill="rgba(219, 70, 85, 1)" stroke="none"/>
  <path d="M512 355.097H16.516L8.5 339.5V177l8.016-20.097H512z" fill="rgba(255, 224, 125, 1)" stroke="none"/>
  <path d="M148.645 189.935c-9.121 0-16.516 7.394-16.516 16.516v24.774h33.032v-24.774c0-9.121-7.394-16.516-16.516-16.516z" fill="rgba(219, 70, 85, 1)" stroke="none"/>
  <path d="M148.645 313.806l-41.29-49.548v-33.032a8.258 8.258 0 0 1 8.258-8.258h33.032l41.29 41.29v8.258c0 22.804-18.486 41.29-41.29 41.29z" fill="rgba(229, 100, 110, 1)" stroke="none"/>
  <path d="M66.065 222.968h16.516v82.581H66.065z" fill="rgba(255, 255, 255, 1)" stroke="none"/>
  <path d="M0 156.903h16.516v198.194H0z" fill="rgba(255, 208, 100, 1)" stroke="none"/>
  <circle cx="74.323" cy="222.968" r="8.258" fill="rgba(229, 100, 110, 1)" stroke="none"/>
  <circle cx="74.323" cy="305.548" r="8.258" fill="rgba(80, 85, 160, 1)" stroke="none"/>
  <path d="M214.71 222.968h16.516v82.581H214.71z" fill="rgba(255, 255, 255, 1)" stroke="none"/>
  <circle cx="222.968" cy="222.968" r="8.258" fill="rgba(229, 100, 110, 1)" stroke="none"/>
  <circle cx="222.968" cy="305.548" r="8.258" fill="rgba(80, 85, 160, 1)" stroke="none"/>
  <path d="M181.677 222.968h-33.032v41.29h41.29v-33.032a8.258 8.258 0 0 0-8.258-8.258z" fill="rgba(255, 255, 255, 1)" stroke="none"/>
  <path d="M107.355 264.258v8.258c0 22.804 18.486 41.29 41.29 41.29v-49.548z" fill="rgba(255, 194, 105, 1)" stroke="none"/>
  <circle cx="148.645" cy="264.258" r="16.516" fill="rgba(80, 85, 160, 1)" stroke="none"/>
</svg>
</g></svg></g></g>
<!-- /image 25432 -->

<!-- image 08574 -->
<g id="transformed-08574" data-image="08574" transform="translate(187, 3) rotate(0, 27.999999999999993, 28)"><g><svg version="1.1" width="55.999999999999986px" height="56px" viewBox="0 0 55.999999999999986 56"><g id="original-08574"><svg xmlns="http://www.w3.org/2000/svg" viewBox="0 0 439.48 439.48" xmlns:xlink="http://www.w3.org/1999/xlink" version="1.1" preserveAspectRatio="xMidYMid meet">
  <path d="M152.029 261.409l39.39 22.801 28.667 74-52.667 28-50-13.334-24.667-4-36.666-51.333 14.603-23.483 28.38-99.21 17.34 61.199 17.33-61.199z" fill="rgba(153, 153, 153, 1)" stroke="none"/>
  <path d="M343.759 194.85l28.39 99.219 11.937 38.98-57.657 22.494-50.343 2.667-21.334-66.667 36.047-30.134 18.29-66.559 17.34 61.199z" fill="rgba(153, 153, 153, 1)" stroke="none"/>
  <path d="M290.799 261.409l-3.55-130.51-21 74.161-12-132-21 184.059h-.01l-14.594 37.861-9.066-37.861-21-184.059-12 132-21-74.161-3.55 130.51-.95 34.73v55.91l21.007 28.161 49.272-29.116 34.728 27.782 35.663-26.827v-55.91z" fill="rgba(204, 204, 204, 1)" stroke="none"/>
  <path d="M378.439 271.85l-6.29 22.219-11.05 38.98-17.34-61.199-17.33 61.199-17.34-61.199-17.34 61.199v2.944l-66.997 56.217-73.673-59.161-17.34-61.199-17.33 61.199-17.34-61.199-17.34 61.199-11.04-38.989-6.29-22.21-17.34 61.199 2.03 60.591h344.66l2.02-60.591z" fill="rgba(204, 204, 204, 1)" stroke="none"/>
  <path d="M233.159 379.639v14h-24v-14c0-6.63 5.37-12 12-12s12 5.37 12 12z" fill="rgba(102, 102, 102, 1)" stroke="none"/>
  <path d="M192.939 347.44l-3.61 46.199h-38.25v-41.59l21.59-76.2z" fill="rgba(179, 179, 179, 1)" stroke="none"/>
  <path d="M291.749 352.049v41.59h-38.25l-3.61-46.199 20.27-71.591z" fill="rgba(179, 179, 179, 1)" stroke="none"/>
  <path d="M253.499 367.049v26.59h-20.34v-14c0-6.63-5.37-12-12-12s-12 5.37-12 12v14h-19.83v-26.59l3.61-19.61 16.64-90.32 11.83-64.22 11.83 64.22 16.65 90.32 3.61 19.61z" fill="rgba(230, 230, 230, 1)" stroke="none"/>
  <path d="M80.569 21.75c27.75 0 50.24 22.49 50.24 50.24s-22.49 50.25-50.24 50.25-50.25-22.5-50.25-50.25 22.5-50.24 50.25-50.24z" fill="rgba(255, 208, 57, 1)" stroke="none"/>
  <circle cx="263.669" cy="233.899" r="7.5" fill="rgba(102, 102, 102, 1)" stroke="none"/>
  <circle cx="179.129" cy="233.75" r="7.5" fill="rgba(102, 102, 102, 1)" stroke="none"/>
  <circle cx="68.069" cy="355.899" r="7.5" fill="rgba(102, 102, 102, 1)" stroke="none"/>
  <circle cx="99.069" cy="355.899" r="7.5" fill="rgba(102, 102, 102, 1)" stroke="none"/>
  <circle cx="130.069" cy="355.899" r="7.5" fill="rgba(102, 102, 102, 1)" stroke="none"/>
  <circle cx="312.759" cy="355.899" r="7.5" fill="rgba(102, 102, 102, 1)" stroke="none"/>
  <circle cx="343.759" cy="355.899" r="7.5" fill="rgba(102, 102, 102, 1)" stroke="none"/>
  <circle cx="374.759" cy="355.899" r="7.5" fill="rgba(102, 102, 102, 1)" stroke="none"/>
  <circle cx="221.414" cy="293.27" r="7.5" fill="rgba(102, 102, 102, 1)" stroke="none"/>
  <path d="M80.566 21.74c27.75 0 50.24 22.5 50.24 50.25s-22.49 50.25-50.24 50.25-50.25-22.5-50.25-50.25 22.5-50.25 50.25-50.25z" fill="rgba(234, 185, 50, 1)" stroke="none"/>
  <path d="M130.806 71.99c0 27.75-22.49 50.25-50.24 50.25-6.12 0-11.98-1.09-17.4-3.1a49.928 49.928 0 0 1-3.1-17.4c0-27.75 22.49-50.25 50.25-50.25 6.11 0 11.97 1.09 17.39 3.09a50.003 50.003 0 0 1 3.1 17.41z" fill="rgba(255, 208, 57, 1)" stroke="none"/>
  <g>
    <path d="M439.48 417.74H0c0-4.43 1.13-8.59 3.12-12.22 1.17-2.14 2.64-4.09 4.35-5.8a25.39 25.39 0 0 1 18.03-7.47h388.48c9.65 0 18.05 5.36 22.38 13.27a25.33 25.33 0 0 1 3.12 12.22z" fill="rgba(230, 230, 230, 1)" stroke="none"/>
    <path d="M439.48 417.74H0c0-4.43 1.13-8.59 3.12-12.22h433.24a25.33 25.33 0 0 1 3.12 12.22z" fill="rgba(204, 204, 204, 1)" stroke="none"/>
  </g>
</svg>
</g></svg></g></g>
<!-- /image 08574 -->

<!-- image 12063 -->
<g id="transformed-12063" data-image="12063" transform="translate(25, 102) rotate(0, 23, 22.999999999999996)"><g><svg version="1.1" width="46px" height="45.99999999999999px" viewBox="0 0 46 45.99999999999999"><g id="original-12063"><svg xmlns="http://www.w3.org/2000/svg" viewBox="0 0 512 512" xmlns:xlink="http://www.w3.org/1999/xlink" version="1.1" preserveAspectRatio="xMidYMid meet">
  <path d="M406.625 345.813h-301.25c-7.732 0-14.198-5.877-14.932-13.575L72.275 141.875a33.8 33.8 0 0 1 8.62-25.896 33.797 33.797 0 0 1 24.96-11.042h300.288a33.803 33.803 0 0 1 24.961 11.041 33.8 33.8 0 0 1 8.62 25.896l-18.167 190.362c-.735 7.699-7.2 13.577-14.932 13.577z" fill="rgba(89, 89, 89, 1)" stroke="none"/>
  <path d="M406.144 104.938H256v240.875h150.625c7.732 0 14.197-5.877 14.933-13.575l18.167-190.362a33.805 33.805 0 0 0-8.62-25.896 33.8 33.8 0 0 0-24.961-11.042z" fill="rgba(46, 46, 46, 1)" stroke="none"/>
  <path d="M83.125 255.563l7.318 76.675c.734 7.697 7.2 13.575 14.932 13.575h301.25c7.732 0 14.197-5.877 14.933-13.575l7.317-76.675z" fill="rgba(255, 64, 92, 1)" stroke="none"/>
  <path d="M256 345.813h150.625c7.732 0 14.197-5.877 14.933-13.575l7.317-76.675H256z" fill="rgba(249, 0, 36, 1)" stroke="none"/>
  <path d="M45.125 407.063c-8.284 0-15-6.716-15-15v-60.25c0-8.284 6.716-15 15-15s15 6.716 15 15v60.25c0 8.284-6.716 15-15 15z" fill="rgba(129, 129, 129, 1)" stroke="none"/>
  <path d="M466.875 407.063c-8.284 0-15-6.716-15-15v-60.25c0-8.284 6.716-15 15-15s15 6.716 15 15v60.25c0 8.284-6.716 15-15 15z" fill="rgba(110, 110, 110, 1)" stroke="none"/>
  <path d="M105.375 407.063c-8.284 0-15-6.716-15-15v-60.25c0-8.284 6.716-15 15-15s15 6.716 15 15v60.25c0 8.284-6.716 15-15 15z" fill="rgba(129, 129, 129, 1)" stroke="none"/>
  <path d="M165.625 407.063c-8.284 0-15-6.716-15-15v-60.25c0-8.284 6.716-15 15-15s15 6.716 15 15v60.25c0 8.284-6.716 15-15 15z" fill="rgba(129, 129, 129, 1)" stroke="none"/>
  <path d="M225.875 407.063c-8.284 0-15-6.716-15-15v-60.25c0-8.284 6.716-15 15-15s15 6.716 15 15v60.25c0 8.284-6.716 15-15 15z" fill="rgba(129, 129, 129, 1)" stroke="none"/>
  <path d="M286.125 407.063c-8.284 0-15-6.716-15-15v-60.25c0-8.284 6.716-15 15-15s15 6.716 15 15v60.25c0 8.284-6.716 15-15 15z" fill="rgba(110, 110, 110, 1)" stroke="none"/>
  <path d="M346.375 407.063c-8.284 0-15-6.716-15-15v-60.25c0-8.284 6.716-15 15-15s15 6.716 15 15v60.25c0 8.284-6.716 15-15 15z" fill="rgba(110, 110, 110, 1)" stroke="none"/>
  <path d="M406.625 407.063c-8.284 0-15-6.716-15-15v-60.25c0-8.284 6.716-15 15-15s15 6.716 15 15v60.25c0 8.284-6.716 15-15 15z" fill="rgba(110, 110, 110, 1)" stroke="none"/>
  <path d="M497 346.813H15c-8.284 0-15-6.716-15-15s6.716-15 15-15h482c8.284 0 15 6.716 15 15s-6.716 15-15 15z" fill="rgba(89, 89, 89, 1)" stroke="none"/>
  <path d="M497 316.813H256v30h241c8.284 0 15-6.716 15-15 0-8.285-6.716-15-15-15z" fill="rgba(46, 46, 46, 1)" stroke="none"/>
</svg>
</g></svg></g></g>
<!-- /image 12063 -->

<!-- image 61070 -->
<g id="transformed-61070" data-image="61070" transform="translate(194, 96) rotate(0, 24, 24)"><g><svg version="1.1" width="48px" height="48px" viewBox="0 0 48 48"><g id="original-61070"><svg xmlns="http://www.w3.org/2000/svg" viewBox="0 0 512 512" xmlns:xlink="http://www.w3.org/1999/xlink" version="1.1" preserveAspectRatio="xMidYMid meet">
  <path d="M90.513 115.638v105.958h15l10-48-10-57.958z" fill="rgba(230, 230, 230, 1)" stroke="none"/>
  <path d="M105.513 115.638h15v105.958h-15z" fill="rgba(205, 205, 205, 1)" stroke="none"/>
  <path d="M66.101 210.993c-16.568 0-30 13.432-30 30 0 5.856.608 18.233 1 30l68.413 6.345 10-36.345-10-30z" fill="rgba(74, 160, 70, 1)" stroke="none"/>
  <path d="M144.927 210.993h-39.413v66.345l39.413 3.655z" fill="rgba(52, 113, 49, 1)" stroke="none"/>
  <path d="M66.101 270.993c-16.568 0-30-13.432-30-30v60c0 16.568 13.432 30 30 30l39.413 10 10-35-10-35z" fill="rgba(160, 190, 40, 1)" stroke="none"/>
  <path d="M105.514 270.993v70l57.191-10h12.222v-60z" fill="rgba(74, 160, 70, 1)" stroke="none"/>
  <path d="M105.514 123.831c-21.093 0-38.192-17.099-38.192-38.192s17.099-38.192 38.192-38.192l10 38.192z" fill="rgba(255, 136, 89, 1)" stroke="none"/>
  <path d="M105.514 47.446c21.093 0 38.192 17.099 38.192 38.192s-17.099 38.192-38.192 38.192z" fill="rgba(200, 60, 80, 1)" stroke="none"/>
  <g>
    <path d="M48.323 330.993c-20.313 0-36.78 16.467-36.78 36.78 0 20.313 16.467 36.78 36.78 36.78l57.191 10 10-48.958-10-34.603H48.323z" fill="rgba(255, 182, 85, 1)" stroke="none"/>
    <path d="M162.705 330.993h-57.191v83.561l57.191-10c20.313 0 36.781-16.467 36.781-36.78-.001-20.314-16.468-36.781-36.781-36.781z" fill="rgba(255, 136, 89, 1)" stroke="none"/>
  </g>
  <g>
    <path d="M0 404.554v60h105.514l10-28.413-10-31.587z" fill="rgba(189, 132, 114, 1)" stroke="none"/>
    <path d="M105.514 404.554h105.514v60H105.514z" fill="rgba(178, 112, 91, 1)" stroke="none"/>
  </g>
  <g>
    <path d="M391.486 115.638v105.958h15l10-48-10-57.958z" fill="rgba(230, 230, 230, 1)" stroke="none"/>
    <path d="M406.486 115.638h15v105.958h-15z" fill="rgba(205, 205, 205, 1)" stroke="none"/>
    <path d="M367.074 210.993c-16.568 0-30 13.432-30 30 0 5.856.608 18.233 1 30l68.413 6.345 10-36.345-10-30z" fill="rgba(74, 160, 70, 1)" stroke="none"/>
    <path d="M445.899 210.993h-39.413v66.345l39.413 3.655z" fill="rgba(52, 113, 49, 1)" stroke="none"/>
    <path d="M367.073 270.993c-16.568 0-30-13.432-30-30v60c0 16.568 13.432 30 30 30l39.413 10 10-35-10-35z" fill="rgba(160, 190, 40, 1)" stroke="none"/>
    <path d="M406.486 270.993v70l57.191-10h12.222v-60z" fill="rgba(74, 160, 70, 1)" stroke="none"/>
    <path d="M406.486 123.831c-21.093 0-38.192-17.099-38.192-38.192s17.099-38.192 38.192-38.192l10 38.192z" fill="rgba(255, 136, 89, 1)" stroke="none"/>
    <path d="M406.486 47.446c21.093 0 38.192 17.099 38.192 38.192s-17.099 38.192-38.192 38.192z" fill="rgba(200, 60, 80, 1)" stroke="none"/>
    <g>
      <path d="M349.295 330.993c-20.313 0-36.78 16.467-36.78 36.78 0 20.313 16.467 36.78 36.78 36.78l57.191 10 10-48.958-10-34.603h-57.191z" fill="rgba(255, 182, 85, 1)" stroke="none"/>
      <path d="M463.677 330.993h-57.191v83.561l57.191-10c20.313 0 36.781-16.467 36.781-36.78 0-20.314-16.467-36.781-36.781-36.781z" fill="rgba(255, 136, 89, 1)" stroke="none"/>
    </g>
    <g>
      <path d="M300.973 404.554v60h105.513l10-28.413-10-31.587z" fill="rgba(189, 132, 114, 1)" stroke="none"/>
      <path d="M406.486 404.554H512v60H406.486z" fill="rgba(178, 112, 91, 1)" stroke="none"/>
    </g>
  </g>
</svg>
</g></svg></g></g>
<!-- /image 61070 -->

<!-- image 83911 -->
<g id="transformed-83911" data-image="83911" transform="translate(105, 14) rotate(0, 21.999999999999996, 22)"><g><svg version="1.1" width="43.99999999999999px" height="44px" viewBox="0 0 43.99999999999999 44"><g id="original-83911"><svg xmlns="http://www.w3.org/2000/svg" viewBox="0 0 512 512" xmlns:xlink="http://www.w3.org/1999/xlink" version="1.1" preserveAspectRatio="xMidYMid meet">
  <path d="M156.754 0h-5.144c-45.49 0-82.5 37.01-82.5 82.5s37.01 82.5 82.5 82.5h51.597l-4.81-30H151.61c-28.948 0-52.5-23.552-52.5-52.5S122.662 30 151.61 30h29.953z" fill="rgba(216, 229, 239, 1)" stroke="none"/>
  <path d="M442.889 345.02c0 56.55-28.01 106.57-70.92 136.92l-96.59 20.035-96.64-19.965a167.764 167.764 0 0 1-19.93-16.51c-31.51-30.47-51.1-73.19-51.1-120.48 0-60.89 32.48-114.19 81.04-143.53L156.749 0h268.65c3.02 0 5.35 2.69 4.89 5.67-2.88 18.98-20 33.55-39.73 33.55l-28.71 162.27c48.57 29.34 81.04 82.64 81.04 143.53z" fill="rgba(238, 247, 255, 1)" stroke="none"/>
  <path d="M442.889 345.02c0 56.55-28.01 106.57-70.92 136.92l-193.23.07a167.764 167.764 0 0 1-19.93-16.51l207.07-.06c36.22-27.93 58.51-73.53 58.51-120.42 0-51.56-26.28-97.01-72.11-124.7a18.5 18.5 0 0 1-8.63-19.17L380.549 0h44.85c3.02 0 5.35 2.69 4.89 5.67-2.88 18.98-20 33.55-39.73 33.55l-28.71 162.27c48.57 29.34 81.04 82.64 81.04 143.53z" fill="rgba(216, 229, 239, 1)" stroke="none"/>
  <path d="M412.889 347.84c0 41.56-18.9 80.88-50.98 106.92l-173.13.07a137.631 137.631 0 0 1-20.07-20.02c-19.8-24.3-31-54.97-31-86.97 0-24.13 6.33-47.85 18.3-68.6 11.63-20.18 28.32-37.21 48.26-49.26a30.002 30.002 0 0 0 14.11-30.42l-14.58-90.95c17.66 0 18.59 10 36.25 10s17.66-10 35.32-10 17.66 10 35.32 10c6.77 0 11.07-1.47 14.78-3.29 5.97-2.91 10.45-6.71 21.34-6.71l-14.59 90.95a30.002 30.002 0 0 0 14.11 30.42c19.94 12.05 36.63 29.08 48.26 49.26 11.97 20.75 18.3 44.47 18.3 68.6z" fill="rgba(255, 118, 128, 1)" stroke="none"/>
  <path d="M412.889 347.84c0 41.56-18.9 80.88-50.98 106.92l-173.13.07a137.631 137.631 0 0 1-20.07-20.02l185.79-.05c24.48-22.31 38.39-53.61 38.39-86.92 0-20.62-5.4-40.89-15.62-58.61-9.95-17.26-24.23-31.82-41.28-42.13-17.53-10.59-26.76-30.49-23.51-50.71l12.99-81.07c5.97-2.91 10.45-6.71 21.34-6.71l-14.59 90.95a30.002 30.002 0 0 0 14.11 30.42c19.94 12.05 36.63 29.08 48.26 49.26 11.97 20.75 18.3 44.47 18.3 68.6z" fill="rgba(244, 77, 144, 1)" stroke="none"/>
  <path d="M340.671 326.071c1.313-1.313 3.637-1.313 4.95 0 15.049 15.051 15.049 39.539 0 54.588-7.525 7.525-17.409 11.287-27.294 11.287-9.884 0-19.769-3.762-27.294-11.287a3.499 3.499 0 0 1 0-4.949z" fill="rgba(255, 225, 80, 1)" stroke="none"/>
  <path d="M203.314 306.353c7.29-7.291 16.983-11.307 27.294-11.307 10.31 0 20.003 4.016 27.294 11.307a3.499 3.499 0 0 1 0 4.949l-49.638 49.638c-.684.684-1.579 1.025-2.475 1.025s-1.791-.342-2.475-1.025c-15.05-15.05-15.05-39.538 0-54.587z" fill="rgba(255, 225, 80, 1)" stroke="none"/>
  <path d="M305.869 247.573a3.5 3.5 0 0 1 4.95 0l20.873 20.872a3.503 3.503 0 0 1 0 4.95l-20.873 20.873a3.503 3.503 0 0 1-4.95 0l-20.872-20.873a3.499 3.499 0 0 1 0-4.949z" fill="rgba(255, 197, 82, 1)" stroke="none"/>
  <path d="M250.028 394.181a7.503 7.503 0 1 1-15.004 0c0-4.145 3.359-7.505 7.502-7.505s7.502 3.36 7.502 7.505z" fill="rgba(244, 77, 144, 1)" stroke="none"/>
  <path d="M362.373 291.797c4.143 0 7.502 3.36 7.502 7.505a7.503 7.503 0 1 1-15.004 0 7.504 7.504 0 0 1 7.502-7.505z" fill="rgba(244, 77, 144, 1)" stroke="none"/>
  <ellipse cx="244.373" cy="251.361" rx="7.502" ry="7.505" fill="rgba(244, 77, 144, 1)" stroke="none"/>
  <path d="M273.871 201.426c0-4.145 3.359-7.505 7.502-7.505s7.502 3.36 7.502 7.505-3.359 7.505-7.502 7.505-7.502-3.36-7.502-7.505z" fill="rgba(244, 77, 144, 1)" stroke="none"/>
  <path d="M381.779 491.75c0 11.19-9.08 20.25-20.29 20.25h-172.22c-5.61 0-10.68-2.26-14.35-5.93a20.17 20.17 0 0 1-5.94-14.32c0-5.38 4.37-9.74 9.76-9.74h193.28c2.7 0 5.14 1.09 6.9 2.85a9.686 9.686 0 0 1 2.86 6.89z" fill="rgba(195, 216, 229, 1)" stroke="none"/>
  <path d="M378.919 484.86a9.686 9.686 0 0 1 2.86 6.89c0 11.19-9.08 20.25-20.29 20.25h-27c11.21 0 20.29-9.06 20.29-20.25 0-2.69-1.09-5.13-2.86-6.89a9.725 9.725 0 0 0-6.9-2.85h27c2.7 0 5.14 1.09 6.9 2.85z" fill="rgba(167, 198, 214, 1)" stroke="none"/>
</svg>
</g></svg></g></g>
<!-- /image 83911 -->

<!-- image 92424 -->
<g id="transformed-92424" data-image="92424" transform="translate(26.000000000000004, 189) rotate(0, 20.999999999999996, 21)"><g><svg version="1.1" width="41.99999999999999px" height="42px" viewBox="0 0 41.99999999999999 42"><g id="original-92424"><svg xmlns="http://www.w3.org/2000/svg" viewBox="0 0 512 512" xmlns:xlink="http://www.w3.org/1999/xlink" version="1.1" preserveAspectRatio="xMidYMid meet">
  <path d="M55.8 119.433L3.578 67.211l31.817-31.816L67.211 3.578 119.433 55.8 98.222 77.011 67.211 46 46 67.211l31.011 31.011z" fill="rgba(114, 93, 87, 1)" stroke="none"/>
  <path d="M444.789 508.422L392.567 456.2l21.211-21.211L444.789 466 466 444.789l-31.011-31.011 21.211-21.211 52.222 52.222-31.817 31.816z" fill="rgba(83, 67, 63, 1)" stroke="none"/>
  <path d="M256 0C115.3 0 0 115.3 0 256s115.3 256 256 256 256-115.3 256-256S396.7 0 256 0z" fill="rgba(114, 93, 87, 1)" stroke="none"/>
  <path d="M512 256c0 140.7-115.3 256-256 256V0c140.7 0 256 115.3 256 256z" fill="rgba(83, 67, 63, 1)" stroke="none"/>
  <path d="M256 61C148.599 61 61 148.599 61 256s87.599 195 195 195 195-87.599 195-195S363.401 61 256 61z" fill="rgba(255, 242, 97, 1)" stroke="none"/>
  <path d="M451 256c0 107.401-87.599 195-195 195V61c107.401 0 195 87.599 195 195z" fill="rgba(255, 218, 45, 1)" stroke="none"/>
  <path d="M361 211h30v30h-30z" fill="rgba(255, 230, 179, 1)" stroke="none"/>
  <path d="M121 241h30v30h-30z" fill="rgba(255, 247, 204, 1)" stroke="none"/>
  <path d="M151 331h30v30h-30z" fill="rgba(255, 247, 204, 1)" stroke="none"/>
  <path d="M256 127.357c-9.203-4.039-19.323-6.357-30-6.357-41.353 0-75 33.647-75 75v15h150v-15c0-30.676-18.56-57.036-45-68.643z" fill="rgba(185, 221, 57, 1)" stroke="none"/>
  <path d="M301 196c0-30.676-18.56-57.036-45-68.643V211h45z" fill="rgba(144, 204, 28, 1)" stroke="none"/>
  <path d="M293.2 241L256 314.229l-8.401 16.47c2.701 0 5.7.3 8.401.3 8.401 0 15 6.599 15 15s-6.599 15-15 15h-45v30h75c41.4 0 75-33.6 75-75C361 277 331.3 244.6 293.2 241z" fill="rgba(255, 100, 26, 1)" stroke="none"/>
  <path d="M361 316c0-39-29.7-71.4-67.8-75L256 314.229V331c8.401 0 15 6.599 15 15s-6.599 15-15 15v30h30c41.4 0 75-33.6 75-75z" fill="rgba(240, 56, 0, 1)" stroke="none"/>
  <path d="M293.2 241H181s.3 20.7.3 23.401c3.9 34.799 31.5 62.399 66.299 66.299 2.888-.317 5.651-1.02 8.401-1.74 25.823-6.749 45-30.306 45-57.96 0-10.8-2.701-21.301-7.8-30z" fill="rgba(255, 145, 0, 1)" stroke="none"/>
  <path d="M301 271c0-10.8-2.701-21.301-7.8-30H256v87.96c25.823-6.749 45-30.306 45-57.96z" fill="rgba(255, 100, 26, 1)" stroke="none"/>
</svg>
</g></svg></g></g>
<!-- /image 92424 -->

<!-- image 04845 -->
<g id="transformed-04845" data-image="04845" transform="translate(107, 99.00000000000001) rotate(0, 25, 24.99999999999999)"><g><svg version="1.1" width="50px" height="49.99999999999998px" viewBox="0 0 50 49.99999999999998"><g id="original-04845"><svg xmlns="http://www.w3.org/2000/svg" viewBox="0 0 512 512" xmlns:xlink="http://www.w3.org/1999/xlink" version="1.1" preserveAspectRatio="xMidYMid meet">
  <path d="M136 114.488l-55 68.75V202.5H51v81.84h140V183.238z" fill="rgba(254, 196, 120, 1)" stroke="none"/>
  <path d="M441 291.654l-250-10.456V164.959L226.729 93.5h178.542L441 164.959z" fill="rgba(254, 219, 171, 1)" stroke="none"/>
  <path d="M405.271 93.5H256v190.417l185 7.737V164.959z" fill="rgba(254, 196, 120, 1)" stroke="none"/>
  <path d="M296 288.5h-50v-50c0-13.785 11.215-25 25-25s25 11.215 25 25v50z" fill="rgba(214, 112, 43, 1)" stroke="none"/>
  <path d="M386 288.5h-50v-50c0-13.785 11.215-25 25-25s25 11.215 25 25v50z" fill="rgba(214, 112, 43, 1)" stroke="none"/>
  <path d="M226.729 93.5L191 164.959h250L405.271 93.5z" fill="rgba(255, 104, 73, 1)" stroke="none"/>
  <path d="M256 164.959h185L405.271 93.5H256z" fill="rgba(253, 75, 45, 1)" stroke="none"/>
  <path d="M512 418.5H0V287.005l55.173-27.468 40.172 19.999 40.168-20 40.168 20 40.167-20 40.166 20 40.161-20 40.165 20 40.167-20 40.166 20 40.164-20L512 287.006V418.5z" fill="rgba(255, 232, 204, 1)" stroke="none"/>
  <path d="M456.837 259.536l-40.164 20-40.166-20-40.167 20-40.165-20-40.161 20-.014-.007V418.5h256V287.006z" fill="rgba(254, 219, 171, 1)" stroke="none"/>
  <path d="M281 418.5h-50v-40c0-13.785 11.215-25 25-25s25 11.215 25 25v40z" fill="rgba(224, 131, 68, 1)" stroke="none"/>
  <path d="M461 418.5h-50v-40c0-13.785 11.215-25 25-25s25 11.215 25 25v40z" fill="rgba(214, 112, 43, 1)" stroke="none"/>
  <path d="M371 418.5h-50v-40c0-13.785 11.215-25 25-25s25 11.215 25 25v40z" fill="rgba(214, 112, 43, 1)" stroke="none"/>
  <path d="M191 418.5h-50v-40c0-13.785 11.215-25 25-25s25 11.215 25 25v40z" fill="rgba(224, 131, 68, 1)" stroke="none"/>
  <path d="M101 418.5H51v-40c0-13.785 11.215-25 25-25s25 11.215 25 25v40z" fill="rgba(224, 131, 68, 1)" stroke="none"/>
  <path d="M0 302.5h512v30H0z" fill="rgba(255, 104, 73, 1)" stroke="none"/>
  <path d="M256 353.5v65h25v-40c0-13.785-11.215-25-25-25z" fill="rgba(214, 112, 43, 1)" stroke="none"/>
  <path d="M256 302.5h256v30H256z" fill="rgba(253, 75, 45, 1)" stroke="none"/>
  <path d="M81 183.238h110l-55-68.75z" fill="rgba(255, 104, 73, 1)" stroke="none"/>
</svg>
</g></svg></g></g>
<!-- /image 04845 -->

<!-- image 79411 -->
<g id="transformed-79411" data-image="79411" transform="translate(199, 191) rotate(0, 19, 18.999999999999993)"><g><svg version="1.1" width="38px" height="37.999999999999986px" viewBox="0 0 38 37.999999999999986"><g id="original-79411"><svg xmlns="http://www.w3.org/2000/svg" viewBox="0 0 512 512" xmlns:xlink="http://www.w3.org/1999/xlink" version="1.1" preserveAspectRatio="xMidYMid meet">
  <path d="M118.303 446.175l74.032-74.032c-10.57-5.544-20.663-12.906-30.118-22.361s-16.816-19.548-22.361-30.118l-74.032 74.032s-32.404-18.238-55.17 2.902C-9.358 415.183-2.513 448.687 42.6 450.52c10.236.416 18.464 8.644 18.88 18.88 1.833 45.112 35.337 51.958 53.921 31.945 21.139-22.766 2.902-55.17 2.902-55.17z" fill="rgba(244, 233, 211, 1)" stroke="none"/>
  <path d="M115.401 501.345c21.139-22.766 2.902-55.169 2.902-55.169l74.032-74.032c-5.502-2.886-10.871-6.277-16.091-10.186L99.082 439.12a5.155 5.155 0 0 0-1.07 5.755c3.911 8.672 12.73 33.532-4.446 52.029-4.777 5.144-10.539 8.508-16.496 9.909 11.73 8.713 27.543 6.149 38.331-5.468z" fill="rgba(229, 214, 190, 1)" stroke="none"/>
  <path d="M343.648 168.352C275.75 100.454 238.285 27.834 259.968 6.151c0 0-218.033 223.348-97.75 343.631s343.631-97.751 343.631-97.751c-21.683 21.684-94.303-15.781-162.201-83.679z" fill="rgba(232, 131, 77, 1)" stroke="none"/>
  <path d="M469.164 255.031c-56.615 48.829-215.65 170.027-314.536 86.497a134 134 0 0 0 7.589 8.255c120.283 120.283 343.631-97.751 343.631-97.751-7.239 7.239-20.161 7.877-36.684 2.999z" fill="rgba(214, 110, 65, 1)" stroke="none"/>
  <ellipse cx="382.908" cy="129.092" rx="55.522" ry="173.864" transform="rotate(-45 382.914 129.17)" fill="rgba(255, 236, 161, 1)" stroke="none"/>
  <ellipse cx="382.908" cy="129.092" rx="35.811" ry="142.641" transform="rotate(-45 382.914 129.17)" fill="rgba(255, 71, 85, 1)" stroke="none"/>
  <ellipse cx="382.908" cy="129.092" rx="15.975" ry="50.024" transform="rotate(-45 382.914 129.17)" fill="rgba(244, 233, 211, 1)" stroke="none"/>
  <path d="M234.276 201.279a7.72 7.72 0 0 0 5.475-2.268l20.38-20.38a7.743 7.743 0 0 0-10.95-10.949l-20.38 20.38c-4.769 4.77-1.296 13.217 5.475 13.217z" fill="rgba(153, 78, 55, 1)" stroke="none"/>
  <path d="M223.174 141.94a7.72 7.72 0 0 0 5.475-2.268l20.38-20.38a7.743 7.743 0 0 0-10.95-10.949l-20.38 20.38c-4.769 4.77-1.296 13.217 5.475 13.217z" fill="rgba(153, 78, 55, 1)" stroke="none"/>
  <path d="M198.536 176.221a7.743 7.743 0 0 0-10.95 0l-20.38 20.38c-2.818 2.818-3.006 7.474-.411 10.504 2.895 3.382 8.212 3.593 11.361.444l20.38-20.38a7.742 7.742 0 0 0 0-10.948z" fill="rgba(153, 78, 55, 1)" stroke="none"/>
  <path d="M295.272 218.543l20.38-20.38a7.743 7.743 0 0 0-10.95-10.949l-20.38 20.38c-2.819 2.819-3.006 7.474-.411 10.504 2.895 3.382 8.212 3.593 11.361.445z" fill="rgba(153, 78, 55, 1)" stroke="none"/>
  <path d="M254.688 288.728a7.72 7.72 0 0 0 5.475-2.268l20.379-20.38a7.742 7.742 0 0 0-.001-10.949 7.742 7.742 0 0 0-10.949 0l-20.379 20.38c-4.768 4.77-1.295 13.217 5.475 13.217z" fill="rgba(153, 78, 55, 1)" stroke="none"/>
  <path d="M187.632 332.109a7.72 7.72 0 0 0 5.475-2.268l20.38-20.38a7.743 7.743 0 0 0-10.95-10.949l-20.38 20.38c-4.769 4.77-1.296 13.217 5.475 13.217z" fill="rgba(153, 78, 55, 1)" stroke="none"/>
  <path d="M260.922 339.589a7.72 7.72 0 0 0 5.475-2.268l20.38-20.38a7.743 7.743 0 0 0-10.95-10.949l-20.38 20.38c-4.769 4.77-1.296 13.217 5.475 13.217z" fill="rgba(153, 78, 55, 1)" stroke="none"/>
  <path d="M186.341 272.558a7.72 7.72 0 0 0 5.475-2.268l20.379-20.38a7.742 7.742 0 1 0-10.95-10.948l-20.379 20.379c-4.769 4.77-1.296 13.217 5.475 13.217z" fill="rgba(153, 78, 55, 1)" stroke="none"/>
  <path d="M352.798 239.971a7.744 7.744 0 0 0-10.95 0l-20.38 20.38c-2.818 2.818-3.006 7.474-.411 10.504 2.895 3.382 8.212 3.592 11.361.444l20.38-20.38a7.74 7.74 0 0 0 0-10.948z" fill="rgba(153, 78, 55, 1)" stroke="none"/>
  <path d="M392.394 298.022a7.72 7.72 0 0 0 5.475-2.268l20.379-20.38a7.742 7.742 0 0 0-.001-10.949 7.742 7.742 0 0 0-10.949 0l-20.379 20.38c-4.768 4.769-1.296 13.217 5.475 13.217z" fill="rgba(153, 78, 55, 1)" stroke="none"/>
  <path d="M323.638 337.298a7.72 7.72 0 0 0 5.475-2.268l20.38-20.38a7.743 7.743 0 0 0-10.949-10.949l-20.38 20.38c-4.77 4.77-1.297 13.217 5.474 13.217z" fill="rgba(153, 78, 55, 1)" stroke="none"/>
</svg>
</g></svg></g></g>
<!-- /image 79411 -->

<!-- image 00379 -->
<g id="transformed-00379" data-image="00379" transform="translate(109, 188) rotate(0, 22.999999999999996, 23)"><g><svg version="1.1" width="45.99999999999999px" height="46px" viewBox="0 0 45.99999999999999 46"><g id="original-00379"><svg xmlns="http://www.w3.org/2000/svg" viewBox="0 0 512 512" xmlns:xlink="http://www.w3.org/1999/xlink" version="1.1" preserveAspectRatio="xMidYMid meet">
  <path d="M315.507 244.18v-31.131a5.396 5.396 0 0 0-5.395-5.395h-6.593a5.395 5.395 0 0 0-5.395 5.395v9.933h-.706a5.396 5.396 0 0 0-5.395 5.395v15.803h-19.746v-15.803a5.395 5.395 0 0 0-5.395-5.395h-.706v-9.933a5.396 5.396 0 0 0-5.395-5.395h-9.548a5.395 5.395 0 0 0-5.395 5.395v9.933h-.706a5.395 5.395 0 0 0-5.395 5.395v15.803H219.99v-15.803a5.395 5.395 0 0 0-5.395-5.395h-.706v-9.933a5.396 5.396 0 0 0-5.395-5.395H201.9a5.396 5.396 0 0 0-5.395 5.395v31.131H171.29v180.438h54.657a5.396 5.396 0 0 0 5.395-5.395V374.33c0-13.511 10.505-25.017 24.008-25.497 14.175-.504 25.825 10.838 25.825 24.9v45.491a5.395 5.395 0 0 0 5.395 5.395h54.153V244.18h-25.216z" fill="rgba(206, 178, 147, 1)" stroke="none"/>
  <path d="M340.72 139.137V243.29c0-46.796-37.926-84.721-84.711-84.721-23.392 0-44.572 9.485-59.905 24.816-15.332 15.332-24.816 36.501-24.816 59.905V139.137h25.215v-33.276a5.396 5.396 0 0 1 5.395-5.395h6.592a5.396 5.396 0 0 1 5.395 5.395v9.937h.713a5.396 5.396 0 0 1 5.395 5.395v17.944h19.745v-17.944a5.396 5.396 0 0 1 5.395-5.395h.701v-9.937a5.396 5.396 0 0 1 5.395-5.395h9.549a5.396 5.396 0 0 1 5.395 5.395v9.937h.713a5.395 5.395 0 0 1 5.395 5.395v17.944h19.745v-17.944a5.396 5.396 0 0 1 5.395-5.395h.701v-9.937a5.396 5.396 0 0 1 5.395-5.395h6.592a5.396 5.396 0 0 1 5.395 5.395v33.276h25.216z" fill="rgba(186, 162, 136, 1)" stroke="none"/>
  <path d="M340.72 158.526v84.764c0-46.796-37.926-84.721-84.711-84.721-23.392 0-44.572 9.485-59.905 24.816-15.332 15.332-24.816 36.501-24.816 59.905v-84.764H340.72z" fill="rgba(163, 140, 119, 1)" stroke="none"/>
  <path d="M511.997 92.771v326.455a5.396 5.396 0 0 1-5.395 5.395H340.709V92.771a5.396 5.396 0 0 1 5.395-5.395h6.592a5.395 5.395 0 0 1 5.395 5.395v9.937h.712a5.395 5.395 0 0 1 5.395 5.395v17.944h19.745v-17.944a5.396 5.396 0 0 1 5.395-5.395h.701v-9.937a5.396 5.396 0 0 1 5.395-5.395h9.549a5.395 5.395 0 0 1 5.395 5.395v9.937h.712a5.395 5.395 0 0 1 5.395 5.395v17.944h19.745v-17.944a5.396 5.396 0 0 1 5.395-5.395h.701v-9.937a5.396 5.396 0 0 1 5.395-5.395h9.549a5.396 5.396 0 0 1 5.395 5.395v9.937h.713a5.396 5.396 0 0 1 5.395 5.395v17.944h19.745v-17.944a5.396 5.396 0 0 1 5.395-5.395h.701v-9.937a5.396 5.396 0 0 1 5.395-5.395h6.592a5.395 5.395 0 0 1 5.396 5.395z" fill="rgba(207, 188, 164, 1)" stroke="none"/>
  <path d="M340.71 424.619h165.895a5.395 5.395 0 0 0 5.395-5.395v-32.506H340.71v37.901z" fill="rgba(188, 164, 138, 1)" stroke="none"/>
  <path d="M231.341 386.717h-60.05v37.901h54.655a5.396 5.396 0 0 0 5.395-5.395v-32.506z" fill="rgba(175, 150, 126, 1)" stroke="none"/>
  <path d="M281.174 386.717v32.506a5.395 5.395 0 0 0 5.395 5.395h54.141v-37.901h-59.536z" fill="rgba(175, 150, 126, 1)" stroke="none"/>
  <path d="M317.764 244.181h22.951v180.443h-22.951z" fill="rgba(175, 150, 126, 1)" stroke="none"/>
  <path d="M171.29 244.181h22.951v180.443H171.29z" fill="rgba(175, 150, 126, 1)" stroke="none"/>
  <path d="M281.174 310.936h-49.832a8.093 8.093 0 0 1-8.093-8.093c0-18.201 14.807-33.009 33.008-33.009s33.008 14.807 33.008 33.009a8.091 8.091 0 0 1-8.091 8.093zm-39.664-16.185h29.494c-2.865-5.201-8.402-8.732-14.747-8.732-6.345 0-11.881 3.531-14.747 8.732z" fill="rgba(175, 150, 126, 1)" stroke="none"/>
  <path d="M281.174 330.263h-49.832a8.093 8.093 0 0 1-8.093-8.093v-19.327a8.093 8.093 0 0 1 8.093-8.093h49.832a8.093 8.093 0 0 1 8.093 8.093v19.327a8.094 8.094 0 0 1-8.093 8.093zm-41.741-16.184h33.648v-3.143h-33.648v3.143z" fill="rgba(175, 150, 126, 1)" stroke="none"/>
  <path d="M289.705 310.936h-66.896a8.093 8.093 0 0 1 0-16.186h66.896a8.093 8.093 0 0 1 0 16.186z" fill="rgba(175, 150, 126, 1)" stroke="none"/>
  <g>
    <path d="M468.545 324.229h-17.644a8.093 8.093 0 0 1 0-16.186h17.644a8.093 8.093 0 0 1 0 16.186z" fill="rgba(173, 151, 134, 1)" stroke="none"/>
    <path d="M388.239 170.395h-7.057a8.093 8.093 0 0 1 0-16.186h7.057a8.093 8.093 0 0 1 0 16.186z" fill="rgba(173, 151, 134, 1)" stroke="none"/>
    <path d="M416.332 289.153h-3.529a8.093 8.093 0 0 1 0-16.186h3.529a8.093 8.093 0 0 1 0 16.186z" fill="rgba(173, 151, 134, 1)" stroke="none"/>
    <path d="M388.239 272.359h-7.057a8.093 8.093 0 0 1 0-16.186h7.057a8.093 8.093 0 0 1 0 16.186z" fill="rgba(173, 151, 134, 1)" stroke="none"/>
    <path d="M483.203 238.951h-12.735a8.093 8.093 0 0 1 0-16.186h12.735a8.093 8.093 0 0 1 0 16.186z" fill="rgba(173, 151, 134, 1)" stroke="none"/>
    <path d="M362.914 193.417a8.089 8.089 0 0 1-8.093 8.093h-14.113v-16.184h14.113a8.08 8.08 0 0 1 8.093 8.091z" fill="rgba(173, 151, 134, 1)" stroke="none"/>
    <path d="M391.769 387.636h-7.058a8.093 8.093 0 0 1 0-16.186h7.058a8.093 8.093 0 0 1 0 16.186z" fill="rgba(173, 151, 134, 1)" stroke="none"/>
  </g>
  <g>
    <path d="M310.942 363.533h-7.058a8.093 8.093 0 0 1 0-16.186h7.058a8.093 8.093 0 0 1 0 16.186z" fill="rgba(134, 116, 98, 1)" stroke="none"/>
    <path d="M320.457 280.991h-7.058a8.093 8.093 0 0 1 0-16.186h7.058a8.093 8.093 0 0 1 0 16.186z" fill="rgba(134, 116, 98, 1)" stroke="none"/>
    <path d="M185.407 333.861h-14.116a8.093 8.093 0 0 1 0-16.186h14.116a8.093 8.093 0 0 1 0 16.186z" fill="rgba(134, 116, 98, 1)" stroke="none"/>
    <path d="M231.344 394.669c-.474.097-.971.14-1.479.14h-7.056a8.096 8.096 0 0 1-8.093-8.093 8.096 8.096 0 0 1 8.093-8.093h7.056c.507 0 1.003.043 1.479.14v15.906z" fill="rgba(134, 116, 98, 1)" stroke="none"/>
  </g>
  <path d="M171.288 92.771v331.85H5.395A5.396 5.396 0 0 1 0 419.226V92.771a5.396 5.396 0 0 1 5.395-5.395h6.592a5.396 5.396 0 0 1 5.395 5.395v9.937h.713a5.396 5.396 0 0 1 5.395 5.395v17.944h19.745v-17.944a5.396 5.396 0 0 1 5.395-5.395h.701v-9.937a5.396 5.396 0 0 1 5.395-5.395h9.549a5.396 5.396 0 0 1 5.395 5.395v9.937h.712a5.396 5.396 0 0 1 5.395 5.395v17.944h19.745v-17.944a5.396 5.396 0 0 1 5.395-5.395h.701v-9.937a5.396 5.396 0 0 1 5.395-5.395h9.549a5.396 5.396 0 0 1 5.395 5.395v9.937h.712a5.396 5.396 0 0 1 5.395 5.395v17.944h19.745v-17.944a5.396 5.396 0 0 1 5.395-5.395h.701v-9.937a5.396 5.396 0 0 1 5.395-5.395h6.592a5.395 5.395 0 0 1 5.396 5.395z" fill="rgba(207, 188, 164, 1)" stroke="none"/>
  <path d="M5.395 424.619H171.29v-37.901H0v32.506a5.396 5.396 0 0 0 5.395 5.395z" fill="rgba(188, 164, 138, 1)" stroke="none"/>
  <g>
    <path d="M127.835 324.229H110.19a8.093 8.093 0 0 1 0-16.186h17.645a8.093 8.093 0 0 1 0 16.186z" fill="rgba(173, 151, 134, 1)" stroke="none"/>
    <path d="M47.529 170.395h-7.057a8.093 8.093 0 0 1 0-16.186h7.057a8.093 8.093 0 0 1 0 16.186z" fill="rgba(173, 151, 134, 1)" stroke="none"/>
    <path d="M96.568 349.234H93.04a8.093 8.093 0 0 1 0-16.186h3.529a8.093 8.093 0 1 1-.001 16.186z" fill="rgba(173, 151, 134, 1)" stroke="none"/>
    <path d="M15.149 264.264a8.09 8.09 0 0 1-8.093 8.093H0v-16.184h7.056c4.467-.002 8.093 3.624 8.093 8.091z" fill="rgba(173, 151, 134, 1)" stroke="none"/>
    <path d="M115.876 204.923h-9.216a8.093 8.093 0 0 1 0-16.186h9.216a8.093 8.093 0 0 1 0 16.186z" fill="rgba(173, 151, 134, 1)" stroke="none"/>
    <path d="M97.648 248.47H83.532a8.093 8.093 0 0 1 0-16.186h14.116a8.093 8.093 0 0 1 0 16.186z" fill="rgba(173, 151, 134, 1)" stroke="none"/>
    <path d="M51.059 387.636h-7.058a8.093 8.093 0 0 1 0-16.186h7.058a8.093 8.093 0 0 1 0 16.186z" fill="rgba(173, 151, 134, 1)" stroke="none"/>
  </g>
</svg>
</g></svg></g></g>
<!-- /image 00379 -->
</defs><rect x="0" y="0" width="250" height="250" fill="rgba(249, 250, 131, 1)"></rect><use xlink:href="#transformed-54116" transform="translate(-250, -250)"></use><use xlink:href="#transformed-54116" transform="translate(0, -250)"></use><use xlink:href="#transformed-54116" transform="translate(250, -250)"></use><use xlink:href="#transformed-54116" transform="translate(-250, 0)"></use><use xlink:href="#transformed-54116" transform="translate(0, 0)"></use><use xlink:href="#transformed-54116" transform="translate(250, 0)"></use><use xlink:href="#transformed-54116" transform="translate(-250, 250)"></use><use xlink:href="#transformed-54116" transform="translate(0, 250)"></use><use xlink:href="#transformed-54116" transform="translate(250, 250)"></use><use xlink:href="#transformed-25432" transform="translate(-250, -250)"></use><use xlink:href="#transformed-25432" transform="translate(0, -250)"></use><use xlink:href="#transformed-25432" transform="translate(250, -250)"></use><use xlink:href="#transformed-25432" transform="translate(-250, 0)"></use><use xlink:href="#transformed-25432" transform="translate(0, 0)"></use><use xlink:href="#transformed-25432" transform="translate(250, 0)"></use><use xlink:href="#transformed-25432" transform="translate(-250, 250)"></use><use xlink:href="#transformed-25432" transform="translate(0, 250)"></use><use xlink:href="#transformed-25432" transform="translate(250, 250)"></use><use xlink:href="#transformed-08574" transform="translate(-250, -250)"></use><use xlink:href="#transformed-08574" transform="translate(0, -250)"></use><use xlink:href="#transformed-08574" transform="translate(250, -250)"></use><use xlink:href="#transformed-08574" transform="translate(-250, 0)"></use><use xlink:href="#transformed-08574" transform="translate(0, 0)"></use><use xlink:href="#transformed-08574" transform="translate(250, 0)"></use><use xlink:href="#transformed-08574" transform="translate(-250, 250)"></use><use xlink:href="#transformed-08574" transform="translate(0, 250)"></use><use xlink:href="#transformed-08574" transform="translate(250, 250)"></use><use xlink:href="#transformed-12063" transform="translate(-250, -250)"></use><use xlink:href="#transformed-12063" transform="translate(0, -250)"></use><use xlink:href="#transformed-12063" transform="translate(250, -250)"></use><use xlink:href="#transformed-12063" transform="translate(-250, 0)"></use><use xlink:href="#transformed-12063" transform="translate(0, 0)"></use><use xlink:href="#transformed-12063" transform="translate(250, 0)"></use><use xlink:href="#transformed-12063" transform="translate(-250, 250)"></use><use xlink:href="#transformed-12063" transform="translate(0, 250)"></use><use xlink:href="#transformed-12063" transform="translate(250, 250)"></use><use xlink:href="#transformed-61070" transform="translate(-250, -250)"></use><use xlink:href="#transformed-61070" transform="translate(0, -250)"></use><use xlink:href="#transformed-61070" transform="translate(250, -250)"></use><use xlink:href="#transformed-61070" transform="translate(-250, 0)"></use><use xlink:href="#transformed-61070" transform="translate(0, 0)"></use><use xlink:href="#transformed-61070" transform="translate(250, 0)"></use><use xlink:href="#transformed-61070" transform="translate(-250, 250)"></use><use xlink:href="#transformed-61070" transform="translate(0, 250)"></use><use xlink:href="#transformed-61070" transform="translate(250, 250)"></use><use xlink:href="#transformed-83911" transform="translate(-250, -250)"></use><use xlink:href="#transformed-83911" transform="translate(0, -250)"></use><use xlink:href="#transformed-83911" transform="translate(250, -250)"></use><use xlink:href="#transformed-83911" transform="translate(-250, 0)"></use><use xlink:href="#transformed-83911" transform="translate(0, 0)"></use><use xlink:href="#transformed-83911" transform="translate(250, 0)"></use><use xlink:href="#transformed-83911" transform="translate(-250, 250)"></use><use xlink:href="#transformed-83911" transform="translate(0, 250)"></use><use xlink:href="#transformed-83911" transform="translate(250, 250)"></use><use xlink:href="#transformed-92424" transform="translate(-250, -250)"></use><use xlink:href="#transformed-92424" transform="translate(0, -250)"></use><use xlink:href="#transformed-92424" transform="translate(250, -250)"></use><use xlink:href="#transformed-92424" transform="translate(-250, 0)"></use><use xlink:href="#transformed-92424" transform="translate(0, 0)"></use><use xlink:href="#transformed-92424" transform="translate(250, 0)"></use><use xlink:href="#transformed-92424" transform="translate(-250, 250)"></use><use xlink:href="#transformed-92424" transform="translate(0, 250)"></use><use xlink:href="#transformed-92424" transform="translate(250, 250)"></use><use xlink:href="#transformed-04845" transform="translate(-250, -250)"></use><use xlink:href="#transformed-04845" transform="translate(0, -250)"></use><use xlink:href="#transformed-04845" transform="translate(250, -250)"></use><use xlink:href="#transformed-04845" transform="translate(-250, 0)"></use><use xlink:href="#transformed-04845" transform="translate(0, 0)"></use><use xlink:href="#transformed-04845" transform="translate(250, 0)"></use><use xlink:href="#transformed-04845" transform="translate(-250, 250)"></use><use xlink:href="#transformed-04845" transform="translate(0, 250)"></use><use xlink:href="#transformed-04845" transform="translate(250, 250)"></use><use xlink:href="#transformed-79411" transform="translate(-250, -250)"></use><use xlink:href="#transformed-79411" transform="translate(0, -250)"></use><use xlink:href="#transformed-79411" transform="translate(250, -250)"></use><use xlink:href="#transformed-79411" transform="translate(-250, 0)"></use><use xlink:href="#transformed-79411" transform="translate(0, 0)"></use><use xlink:href="#transformed-79411" transform="translate(250, 0)"></use><use xlink:href="#transformed-79411" transform="translate(-250, 250)"></use><use xlink:href="#transformed-79411" transform="translate(0, 250)"></use><use xlink:href="#transformed-79411" transform="translate(250, 250)"></use><use xlink:href="#transformed-00379" transform="translate(-250, -250)"></use><use xlink:href="#transformed-00379" transform="translate(0, -250)"></use><use xlink:href="#transformed-00379" transform="translate(250, -250)"></use><use xlink:href="#transformed-00379" transform="translate(-250, 0)"></use><use xlink:href="#transformed-00379" transform="translate(0, 0)"></use><use xlink:href="#transformed-00379" transform="translate(250, 0)"></use><use xlink:href="#transformed-00379" transform="translate(-250, 250)"></use><use xlink:href="#transformed-00379" transform="translate(0, 250)"></use><use xlink:href="#transformed-00379" transform="translate(250, 250)"></use></svg>