<svg version="1.1"
      xmlns="http://www.w3.org/2000/svg"
      xmlns:xlink="http://www.w3.org/1999/xlink"  id="snapshot-95794" width="250" height="250" viewBox="0 0 250 250"><desc>This image was made on Patterninja.com</desc><defs>
<!-- image 54116 -->
<g id="transformed-54116" data-image="54116" transform="translate(26.000000000000004, 22) rotate(0, 19.999999999999996, 20)"><g><svg version="1.1" width="39.99999999999999px" height="40px" viewBox="0 0 39.99999999999999 40"><g id="original-54116"><svg xmlns="http://www.w3.org/2000/svg" viewBox="0 0 512 512" xmlns:xlink="http://www.w3.org/1999/xlink" version="1.1" preserveAspectRatio="xMidYMid meet">
  <path d="M495.484 90.839H16.516L7.817 101v294.151c0 9.122 7.395 16.516 16.516 16.516H502l10-7.021v-297.29c0-9.123-7.395-16.517-16.516-16.517z" fill="rgba(149, 204, 129, 1)" stroke="none"/>
  <path d="M16.516 355.097V90.839C7.395 90.839 0 98.233 0 107.355v297.29c0 9.122 7.395 16.516 16.516 16.516h478.968c9.121 0 16.516-7.395 16.516-16.516H66.065c-27.365 0-49.549-22.183-49.549-49.548z" fill="rgba(125, 189, 128, 1)" stroke="none"/>
  <path d="M440.141 252.473L264.588 145.614a16.515 16.515 0 0 0-17.175 0L71.859 252.473c-2.643 1.609-2.643 5.446 0 7.054l175.553 106.859a16.515 16.515 0 0 0 17.175 0L440.14 259.527c2.644-1.609 2.644-5.445.001-7.054z" fill="rgba(255, 224, 125, 1)" stroke="none"/>
  <path d="M256 189.936c-24.565 0-45.998 13.407-57.382 33.302l-6.616 16.302a66.202 66.202 0 0 0-2.067 16.459c0 36.486 29.578 66.064 66.064 66.064 29.834 0 55.05-19.776 63.252-46.935l2.792-17.509c.013-.539.02-1.079.02-1.62.001-36.485-29.577-66.063-66.063-66.063z" fill="rgba(80, 85, 160, 1)" stroke="none"/>
  <path d="M192.002 239.541c45.894.372 89.785 12.681 127.25 35.589a65.88 65.88 0 0 0 2.792-17.509c-36.905-21.207-79.232-33.007-123.427-34.382a65.78 65.78 0 0 0-6.615 16.302z" fill="rgba(255, 255, 255, 1)" stroke="none"/>
</svg>
</g></svg></g></g>
<!-- /image 54116 -->

<!-- image 25432 -->
<g id="transformed-25432" data-image="25432" transform="translate(26.000000000000014, 22) rotate(0, 19.999999999999986, 20)"><g><svg version="1.1" width="39.99999999999997px" height="40px" viewBox="0 0 39.99999999999997 40"><g id="original-25432"><svg xmlns="http://www.w3.org/2000/svg" viewBox="0 0 512 512" xmlns:xlink="http://www.w3.org/1999/xlink" version="1.1" preserveAspectRatio="xMidYMid meet">
  <path d="M495.484 90.839H16.516l-8.849 16.516v291.129c0 9.122 7.395 16.516 16.516 16.516h471.301L512 404.645v-49.548L497 337V171l15-14.097v-49.548c0-9.122-7.395-16.516-16.516-16.516z" fill="rgba(229, 100, 110, 1)" stroke="none"/>
  <path d="M16.516 355.097V90.839C7.395 90.839 0 98.233 0 107.355v49.548L7.5 168.5V342L0 355.097v49.548c0 9.122 7.395 16.516 16.516 16.516h478.968c9.121 0 16.516-7.395 16.516-16.516H66.065c-27.365 0-49.549-22.183-49.549-49.548z" fill="rgba(219, 70, 85, 1)" stroke="none"/>
  <path d="M512 355.097H16.516L8.5 339.5V177l8.016-20.097H512z" fill="rgba(255, 224, 125, 1)" stroke="none"/>
  <path d="M148.645 189.935c-9.121 0-16.516 7.394-16.516 16.516v24.774h33.032v-24.774c0-9.121-7.394-16.516-16.516-16.516z" fill="rgba(219, 70, 85, 1)" stroke="none"/>
  <path d="M148.645 313.806l-41.29-49.548v-33.032a8.258 8.258 0 0 1 8.258-8.258h33.032l41.29 41.29v8.258c0 22.804-18.486 41.29-41.29 41.29z" fill="rgba(229, 100, 110, 1)" stroke="none"/>
  <path d="M66.065 222.968h16.516v82.581H66.065z" fill="rgba(255, 255, 255, 1)" stroke="none"/>
  <path d="M0 156.903h16.516v198.194H0z" fill="rgba(255, 208, 100, 1)" stroke="none"/>
  <circle cx="74.323" cy="222.968" r="8.258" fill="rgba(229, 100, 110, 1)" stroke="none"/>
  <circle cx="74.323" cy="305.548" r="8.258" fill="rgba(80, 85, 160, 1)" stroke="none"/>
  <path d="M214.71 222.968h16.516v82.581H214.71z" fill="rgba(255, 255, 255, 1)" stroke="none"/>
  <circle cx="222.968" cy="222.968" r="8.258" fill="rgba(229, 100, 110, 1)" stroke="none"/>
  <circle cx="222.968" cy="305.548" r="8.258" fill="rgba(80, 85, 160, 1)" stroke="none"/>
  <path d="M181.677 222.968h-33.032v41.29h41.29v-33.032a8.258 8.258 0 0 0-8.258-8.258z" fill="rgba(255, 255, 255, 1)" stroke="none"/>
  <path d="M107.355 264.258v8.258c0 22.804 18.486 41.29 41.29 41.29v-49.548z" fill="rgba(255, 194, 105, 1)" stroke="none"/>
  <circle cx="148.645" cy="264.258" r="16.516" fill="rgba(80, 85, 160, 1)" stroke="none"/>
</svg>
</g></svg></g></g>
<!-- /image 25432 -->

<!-- image 88509 -->
<g id="transformed-88509" data-image="88509" transform="translate(26, 22.000000000000004) rotate(0, 20, 19.999999999999996)"><g><svg version="1.1" width="40px" height="39.99999999999999px" viewBox="0 0 40 39.99999999999999"><g id="original-88509"><svg xmlns="http://www.w3.org/2000/svg" viewBox="0 0 512 512" xmlns:xlink="http://www.w3.org/1999/xlink" version="1.1" preserveAspectRatio="xMidYMid meet">
  <path d="M512 140.387L499.667 127h-486L14 385.667h485.667L512 371.613v-49.548l-9.5-11.565v-110l9.5-10.565z" fill="rgba(242, 242, 246, 1)" stroke="none"/>
  <path d="M16.516 131.667L0 140.387v49.548l16.516 5.321v-5.321z" fill="rgba(225, 225, 230, 1)" stroke="none"/>
  <path d="M16.516 314.68L0 322.065v49.547l11.625 5.887 7.717-5.868a49.47 49.47 0 0 1-2.826-16.535v-33.032z" fill="rgba(225, 225, 230, 1)" stroke="none"/>
  <path d="M512 322.065H16.516L6 307.5V203l10.516-13.065H512z" fill="rgba(229, 100, 110, 1)" stroke="none"/>
  <path d="M0 189.935h16.516v132.129H0z" fill="rgba(219, 70, 85, 1)" stroke="none"/>
  <path d="M495.484 90.839H16.516L8.75 107.355l7.766 33.032H512v-33.032c0-9.122-7.395-16.516-16.516-16.516z" fill="rgba(80, 85, 160, 1)" stroke="none"/>
  <path d="M16.516 90.839C7.395 90.839 0 98.233 0 107.355v33.032h16.516z" fill="rgba(63, 63, 143, 1)" stroke="none"/>
  <path d="M495.484 415.5H27.516L11 404.645l8.342-33.013L512 371.613v33.032z" fill="rgba(80, 85, 160, 1)" stroke="none"/>
  <path d="M0 404.645c0 9.121 7.395 16.516 16.516 16.516h478.968c9.121 0 16.516-7.395 16.516-16.516H66.065c-21.565 0-39.913-13.8-46.722-33.032H0z" fill="rgba(63, 63, 143, 1)" stroke="none"/>
</svg>
</g></svg></g></g>
<!-- /image 88509 -->

<!-- image 01696 -->
<g id="transformed-01696" data-image="01696" transform="translate(193, 10) rotate(0, 23, 23)"><g><svg version="1.1" width="46px" height="46px" viewBox="0 0 46 46"><g id="original-01696"><svg xmlns="http://www.w3.org/2000/svg" viewBox="0 0 496 496" xmlns:xlink="http://www.w3.org/1999/xlink" version="1.1" preserveAspectRatio="xMidYMid meet">
  <path d="M468 404l-20 20.8-11.2-11.2-12 12h-11.2l-8 8.8h-83.2l-16.8-16.8H292l-7.2-8h-5.6L264 394.4l-12.8 12-2.4-2.4v-2.4l-.8 1.6-.8-1.6v2.4l-2.4 2.4-12.8-12-15.2 15.2h-5.6l-7.2 8h-13.6l-16.8 16.8H90.4l-8-8.8H71.2l-12-12L48 424.8 28 404 0 432v64h496v-64z" fill="rgba(3, 96, 91, 1)" stroke="none"/>
  <path d="M300 356c0 16 23.2 109.6 7.2 109.6H188.8c-16 0 7.2-93.6 7.2-109.6l-44-124c0-16 12.8-28.8 28.8-28.8h133.6c16 0 28.8 12.8 28.8 28.8L300 356z" fill="rgba(242, 165, 10, 1)" stroke="none"/>
  <path d="M315.2 203.2c16 0 28.8 12.8 28.8 28.8l-44 124c0 16 23.2 109.6 7.2 109.6H188.8c-16 0 7.2-93.6 7.2-109.6" fill="rgba(239, 152, 12, 1)" stroke="none"/>
  <path d="M344 232l-44 124c0 16 23.2 109.6 7.2 109.6H188.8c-16 0 7.2-93.6 7.2-109.6" fill="rgba(239, 142, 12, 1)" stroke="none"/>
  <path d="M412.8 480c0 8.8-7.2 16-16 16H99.2c-8.8 0-16-7.2-16-16v-21.6c0-8.8 7.2-16 16-16h297.6c8.8 0 16 7.2 16 16V480z" fill="rgba(175, 8, 63, 1)" stroke="none"/>
  <path d="M83.2 458.4c0-8.8 7.2-16 16-16h297.6c8.8 0 16 7.2 16 16" fill="rgba(198, 0, 71, 1)" stroke="none"/>
  <path d="M277.6 265.6c0 9.6-13.6 18.4-24 18.4h-11.2c-9.6 0-24-8-24-18.4l5.6-86.4c0-9.6 8-18.4 18.4-18.4h11.2c10.4 0 18.4 8 18.4 18.4l5.6 86.4z" fill="rgba(242, 165, 10, 1)" stroke="none"/>
  <path d="M224 179.2c0-9.6 8-18.4 18.4-18.4h11.2c10.4 0 18.4 8 18.4 18.4l5.6 86.4c0 9.6-13.6 18.4-24 18.4" fill="rgba(239, 142, 12, 1)" stroke="none"/>
  <path d="M294.4 106.4c.8-.8 1.6-2.4 1.6-4 0-4-3.2-7.2-7.2-7.2h-3.2c0-4-1.6-8-4.8-11.2L250.4 4.8c-6.4-6.4-1.6-6.4-8 0L212 84c-3.2 3.2-4.8 7.2-4.8 11.2-4 0-6.4 3.2-6.4 7.2 0 1.6.8 2.4 1.6 4-4 1.6-6.4 5.6-6.4 10.4v24.8c0 6.4 4.8 11.2 10.4 11.2 8 20 23.2 39.2 41.6 39.2s33.6-19.2 41.6-39.2c5.6 0 10.4-5.6 10.4-11.2v-24.8c.8-4.8-2.4-8-5.6-10.4z" fill="rgba(242, 165, 10, 1)" stroke="none"/>
  <path d="M248 192c18.4 0 33.6-19.2 41.6-39.2 5.6 0 10.4-5.6 10.4-11.2v-24.8c0-4.8-2.4-8-6.4-10.4.8-.8 1.6-2.4 1.6-4 0-4-3.2-7.2-7.2-7.2h-3.2c0-4-1.6-8-4.8-11.2L249.6 4.8c-6.4-6.4-1.6-6.4-8 0" fill="rgba(239, 152, 12, 1)" stroke="none"/>
  <path d="M172.8 464.8c2.4 19.2 162.4 19.2 181.6 16.8 19.2-2.4 33.6-19.2 32-39.2-2.4-19.2-19.2-33.6-39.2-32-20 3.2-176.8 35.2-174.4 54.4z" fill="rgba(247, 185, 13, 1)" stroke="none"/>
  <path d="M172.8 464.8c2.4 19.2 162.4 19.2 181.6 16.8 19.2-2.4 33.6-19.2 32-39.2" fill="rgba(242, 165, 10, 1)" stroke="none"/>
  <path d="M323.2 464.8c-2.4 19.2-162.4 19.2-181.6 16.8-19.2-2.4-33.6-19.2-32-39.2 2.4-19.2 19.2-33.6 39.2-32 20 3.2 176.8 35.2 174.4 54.4z" fill="rgba(255, 219, 6, 1)" stroke="none"/>
  <path d="M323.2 464.8c-2.4 19.2-162.4 19.2-181.6 16.8-19.2-2.4-33.6-19.2-32-39.2" fill="rgba(249, 203, 11, 1)" stroke="none"/>
  <path d="M165.6 206.4c11.2 0 20 8.8 20 20v88c0 11.2-8.8 20-20 20s-20-8.8-20-20v-88c-.8-11.2 8.8-20 20-20z" fill="rgba(247, 185, 13, 1)" stroke="none"/>
  <path d="M165.6 206.4c11.2 0 20 8.8 20 20v88c0 11.2-8.8 20-20 20s-20-8.8-20-20" fill="rgba(242, 165, 10, 1)" stroke="none"/>
  <path d="M157.6 297.6c10.4-4 94.4-30.4 99.2-20s-73.6 52.8-83.2 56.8-21.6-.8-26.4-10.4.8-21.6 10.4-26.4z" fill="rgba(249, 203, 11, 1)" stroke="none"/>
  <path d="M256.8 277.6c4 10.4-73.6 52.8-83.2 56.8s-21.6-.8-26.4-10.4" fill="rgba(247, 185, 13, 1)" stroke="none"/>
  <path d="M330.4 206.4c-11.2 0-20 8.8-20 20v88c0 11.2 8.8 20 20 20s20-8.8 20-20v-88c.8-11.2-8.8-20-20-20z" fill="rgba(242, 165, 10, 1)" stroke="none"/>
  <path d="M330.4 206.4c-11.2 0-20 8.8-20 20v88c0 11.2 8.8 20 20 20s20-8.8 20-20" fill="rgba(239, 152, 12, 1)" stroke="none"/>
  <path d="M338.4 297.6c-10.4-4-94.4-30.4-99.2-20-4 10.4 73.6 52.8 83.2 56.8 10.4 4 21.6-.8 26.4-10.4s-.8-21.6-10.4-26.4z" fill="rgba(249, 203, 11, 1)" stroke="none"/>
  <path d="M239.2 277.6c-4 10.4 73.6 52.8 83.2 56.8 10.4 4 21.6-.8 26.4-10.4" fill="rgba(247, 185, 13, 1)" stroke="none"/>
  <path d="M268.8 274.4c0 12-9.6 4.8-20.8 4.8s-20.8 7.2-20.8-4.8 9.6-56.8 20.8-56.8 20.8 45.6 20.8 56.8z" fill="rgba(249, 203, 11, 1)" stroke="none"/>
  <circle cx="201.6" cy="163.2" r="7.2" fill="rgba(247, 185, 13, 1)" stroke="none"/>
  <circle cx="294.4" cy="163.2" r="7.2" fill="rgba(247, 185, 13, 1)" stroke="none"/>
  <path d="M491.2 488c0 4.8-4 8-8 8H12.8c-4.8 0-8-4-8-8 0-4.8 4-8 8-8h469.6c4.8-.8 8.8 3.2 8.8 8z" fill="rgba(142, 9, 57, 1)" stroke="none"/>
  <g>
    <circle cx="246.4" cy="99.2" r="6.4" fill="rgba(247, 185, 13, 1)" stroke="none"/>
    <circle cx="246.4" cy="42.4" r="2.4" fill="rgba(247, 185, 13, 1)" stroke="none"/>
    <circle cx="246.4" cy="60.8" r="2.4" fill="rgba(247, 185, 13, 1)" stroke="none"/>
    <circle cx="246.4" cy="80" r="2.4" fill="rgba(247, 185, 13, 1)" stroke="none"/>
  </g>
</svg>
</g></svg></g></g>
<!-- /image 01696 -->

<!-- image 31726 -->
<g id="transformed-31726" data-image="31726" transform="translate(113, 17) rotate(0, 21, 21)"><g><svg version="1.1" width="42px" height="42px" viewBox="0 0 42 42"><g id="original-31726"><svg xmlns="http://www.w3.org/2000/svg" viewBox="0 0 64 64" xmlns:xlink="http://www.w3.org/1999/xlink" version="1.1" preserveAspectRatio="xMidYMid meet">
  <g data-name="Layer 10">
    <path d="M41 30.03h2V34h-2z" fill="rgba(233, 150, 140, 1)" stroke="none"/>
    <path d="M45.12 29.96h2V34h-2z" fill="rgba(233, 150, 140, 1)" stroke="none"/>
    <path d="M39 25h7.59a9.36 9.36 0 0 1 7.23 3.42 9.61 9.61 0 0 1 2.18 6.1 10.17 10.17 0 0 1-3.49 7.68l-2.88 2.5a1.25 1.25 0 0 1-1.37.17 1.28 1.28 0 0 1-.48-1.87l2.09-2.91a8.53 8.53 0 0 0 1.42-6.6 3.61 3.61 0 0 0-1.5-2.26 3.49 3.49 0 0 0-3.67-.15A4.8 4.8 0 0 1 39 26.87z" fill="rgba(228, 124, 111, 1)" stroke="none"/>
    <rect width="50" height="4" x="12" y="4" rx="2" fill="rgba(193, 200, 209, 1)" stroke="none"/>
    <rect width="50" height="4" x="12" y="8" rx="2" fill="rgba(193, 200, 209, 1)" stroke="none"/>
    <path d="M4 50a13 13 0 0 1 26 0z" fill="rgba(247, 199, 124, 1)" stroke="none"/>
    <path d="M22 38V4a2 2 0 0 0-4 0v33.05a13 13 0 0 1 4 .95z" fill="rgba(245, 185, 91, 1)" stroke="none"/>
    <path d="M8 50a9 9 0 0 1 18 0z" fill="rgba(247, 216, 129, 1)" stroke="none"/>
    <path d="M12 50a5 5 0 0 1 10 0z" fill="rgba(247, 199, 124, 1)" stroke="none"/>
    <path d="M34 50a13 13 0 0 1 26 0z" fill="rgba(247, 199, 124, 1)" stroke="none"/>
    <path d="M38 50a9 9 0 0 1 18 0z" fill="rgba(247, 216, 129, 1)" stroke="none"/>
    <path d="M42 50a5 5 0 0 1 10 0z" fill="rgba(247, 199, 124, 1)" stroke="none"/>
    <path d="M2 50h60a8 8 0 0 1-8 8H10a8 8 0 0 1-8-8z" fill="rgba(193, 200, 209, 1)" stroke="none"/>
    <path d="M19 50a13 13 0 0 1 26 0z" fill="rgba(245, 185, 91, 1)" stroke="none"/>
    <path d="M30 37.17V4a2 2 0 0 0-4 0v34.47a13 13 0 0 1 4-1.3z" fill="rgba(247, 216, 129, 1)" stroke="none"/>
    <path d="M26 38.47V4a2 2 0 0 0-4 0v34a12.65 12.65 0 0 1 2.49 1.4 13.57 13.57 0 0 1 1.51-.93z" fill="rgba(247, 199, 124, 1)" stroke="none"/>
    <path d="M23 50a9 9 0 0 1 18 0z" fill="rgba(247, 216, 129, 1)" stroke="none"/>
    <path d="M27 50a5 5 0 0 1 10 0z" fill="rgba(245, 185, 91, 1)" stroke="none"/>
    <path d="M14 58h35v4H14z" fill="rgba(160, 168, 178, 1)" stroke="none"/>
    <path d="M54.84 30l-4.22 2.11a3.68 3.68 0 0 1 .67 1.46l.06.42 4.25-2.13a8.86 8.86 0 0 0-.76-1.86z" fill="rgba(233, 150, 140, 1)" stroke="none"/>
    <path d="M47.05 30.68l.15.05a3.55 3.55 0 0 1 1.88.18L50.73 26a9 9 0 0 0-1.88-.69z" fill="rgba(233, 150, 140, 1)" stroke="none"/>
    <path d="M42 27h2v2h-2z" fill="rgba(193, 200, 209, 1)" stroke="none"/>
    <path d="M39 27h-3a3 3 0 0 1 0-6h4v2h-4a1 1 0 0 0 0 2h3z" fill="rgba(193, 200, 209, 1)" stroke="none"/>
    <path d="M2 32l10-10a7.07 7.07 0 0 1 0 10 7.07 7.07 0 0 1-10 0z" fill="rgba(120, 183, 91, 1)" stroke="none"/>
    <path d="M6 28v6a6.7 6.7 0 0 0 2 0v-4.59l3.24 3.24A7.69 7.69 0 0 0 12 32a7.69 7.69 0 0 0 .65-.76L9.41 28H14a6.7 6.7 0 0 0 0-2H8z" fill="rgba(150, 204, 127, 1)" stroke="none"/>
    <path d="M60 23a6.84 6.84 0 0 1-4.83 2H55v-.17A6.84 6.84 0 0 1 57 20a6.84 6.84 0 0 1 4.83-2H62v.17A6.84 6.84 0 0 1 60 23z" fill="rgba(120, 183, 91, 1)" stroke="none"/>
    <path d="M47 20a6.84 6.84 0 0 0 4.83 2H52v-.17A6.84 6.84 0 0 0 50 17a6.84 6.84 0 0 0-4.83-2H45v.17A6.84 6.84 0 0 0 47 20z" fill="rgba(120, 183, 91, 1)" stroke="none"/>
  </g>
</svg>
</g></svg></g></g>
<!-- /image 31726 -->

<!-- image 63222 -->
<g id="transformed-63222" data-image="63222" transform="translate(26.000000000000004, 98) rotate(0, 20.999999999999996, 21)"><g><svg version="1.1" width="41.99999999999999px" height="42px" viewBox="0 0 41.99999999999999 42"><g id="original-63222"><svg xmlns="http://www.w3.org/2000/svg" viewBox="0 0 512 512" xmlns:xlink="http://www.w3.org/1999/xlink" version="1.1" preserveAspectRatio="xMidYMid meet">
  <path d="M472 432V152L416 24h-32v408z" fill="rgba(248, 211, 135, 1)" stroke="none"/>
  <path d="M384 231.232V432h88V172.375a400.479 400.479 0 0 1-88 58.857z" fill="rgba(248, 199, 98, 1)" stroke="none"/>
  <path d="M40 424V152L96 24h32v400z" fill="rgba(248, 211, 135, 1)" stroke="none"/>
  <path d="M40 241.412V424h88V214.621a396.9 396.9 0 0 1-88 26.791z" fill="rgba(248, 199, 98, 1)" stroke="none"/>
  <path d="M416 304h56v16h-56z" fill="rgba(241, 165, 49, 1)" stroke="none"/>
  <path d="M416 256h56v16h-56z" fill="rgba(241, 165, 49, 1)" stroke="none"/>
  <path d="M424 208h48v16h-48z" fill="rgba(241, 165, 49, 1)" stroke="none"/>
  <path d="M384 171.312l67.095-67.095-6.886-15.739L384 148.687z" fill="rgba(241, 179, 85, 1)" stroke="none"/>
  <path d="M412.031 177.055L384 193.073v18.426l35.969-20.554L472 161.213V152l-3.225-7.371-.744.426z" fill="rgba(241, 179, 85, 1)" stroke="none"/>
  <path d="M416 352h56v16h-56z" fill="rgba(241, 165, 49, 1)" stroke="none"/>
  <path d="M392 184h32l8 224-40 32z" fill="rgba(227, 124, 85, 1)" stroke="none"/>
  <path d="M392 302.553V440l40-32-5.158-144.43A402.127 402.127 0 0 1 392 302.553z" fill="rgba(227, 99, 51, 1)" stroke="none"/>
  <path d="M368 152h32v272h-32z" fill="rgba(240, 156, 87, 1)" stroke="none"/>
  <path d="M368 283.816V424h32V240.915a401.328 401.328 0 0 1-32 42.901z" fill="rgba(240, 136, 51, 1)" stroke="none"/>
  <path d="M60.905 104.217L128 171.312v-22.625L67.791 88.478z" fill="rgba(241, 179, 85, 1)" stroke="none"/>
  <path d="M92.031 190.945L128 211.499v-18.426l-28.031-16.018-56-32-.744-.426L40 152v9.213z" fill="rgba(241, 179, 85, 1)" stroke="none"/>
  <path d="M40 352h56v16H40z" fill="rgba(241, 165, 49, 1)" stroke="none"/>
  <path d="M40 304h56v16H40z" fill="rgba(241, 165, 49, 1)" stroke="none"/>
  <path d="M40 256h56v16H40z" fill="rgba(241, 165, 49, 1)" stroke="none"/>
  <path d="M40 208h56v16H40z" fill="rgba(241, 179, 85, 1)" stroke="none"/>
  <path d="M128 184H88l-8 224 48 24z" fill="rgba(227, 124, 85, 1)" stroke="none"/>
  <path d="M83.36 313.909L80 408l48 24V256.915a401.52 401.52 0 0 1-44.64 56.994z" fill="rgba(227, 99, 51, 1)" stroke="none"/>
  <path d="M112 152h32v280h-32z" fill="rgba(240, 156, 87, 1)" stroke="none"/>
  <path d="M112 307.4V432h32V233.952a397.548 397.548 0 0 1-32 73.448z" fill="rgba(240, 136, 51, 1)" stroke="none"/>
  <path d="M248 224h16v32h-16z" fill="rgba(241, 179, 85, 1)" stroke="none"/>
  <path d="M240 216h32v16h-32z" fill="rgba(248, 211, 135, 1)" stroke="none"/>
  <path d="M208 424v-50.459A31.817 31.817 0 0 1 228 344a31.817 31.817 0 0 0 20-29.541V296h16v18.459A31.817 31.817 0 0 0 284 344a31.817 31.817 0 0 1 20 29.541V424z" fill="rgba(248, 211, 135, 1)" stroke="none"/>
  <path d="M240 256v-8h32v8a16 16 0 0 1-16 16 16 16 0 0 1-16-16z" fill="rgba(240, 156, 87, 1)" stroke="none"/>
  <path d="M248 352h16v80h-16z" fill="rgba(241, 179, 85, 1)" stroke="none"/>
  <path d="M224 368h16v16h-16z" fill="rgba(241, 179, 85, 1)" stroke="none"/>
  <path d="M272 368h16v16h-16z" fill="rgba(241, 179, 85, 1)" stroke="none"/>
  <path d="M224 392h16v48h-16z" fill="rgba(241, 179, 85, 1)" stroke="none"/>
  <path d="M272 392h16v48h-16z" fill="rgba(241, 179, 85, 1)" stroke="none"/>
  <path d="M192 424h128v48H192z" fill="rgba(227, 124, 85, 1)" stroke="none"/>
  <path d="M232 272v8a24 24 0 0 0 48 0v-8z" fill="rgba(227, 124, 85, 1)" stroke="none"/>
  <path d="M192 460.016V472h128v-48h-9.5A397.174 397.174 0 0 1 192 460.016z" fill="rgba(227, 99, 51, 1)" stroke="none"/>
  <path d="M352 408h136v64H352z" fill="rgba(230, 230, 230, 1)" stroke="none"/>
  <path d="M24 408h136v64H24z" fill="rgba(230, 230, 230, 1)" stroke="none"/>
  <path d="M32 448c-2.683 0-5.33-.149-8-.2V472h136v-45.046A399.3 399.3 0 0 1 32 448z" fill="rgba(204, 204, 204, 1)" stroke="none"/>
  <path d="M360 445.046c-2.683 0-5.33-.149-8-.2v24.2h136V424a399.269 399.269 0 0 1-128 21.046z" fill="rgba(204, 204, 204, 1)" stroke="none"/>
  <path d="M24 456h464v32H24z" fill="rgba(179, 179, 179, 1)" stroke="none"/>
</svg>
</g></svg></g></g>
<!-- /image 63222 -->

<!-- image 81449 -->
<g id="transformed-81449" data-image="81449" transform="translate(112.00000000000001, 101) rotate(0, 19.99999999999999, 20)"><g><svg version="1.1" width="39.99999999999998px" height="40px" viewBox="0 0 39.99999999999998 40"><g id="original-81449"><svg xmlns="http://www.w3.org/2000/svg" viewBox="0 0 64 64" xmlns:xlink="http://www.w3.org/1999/xlink" version="1.1" preserveAspectRatio="xMidYMid meet">
  <g data-name="Layer 11">
    <path d="M6 33h-.5A3.5 3.5 0 0 0 2 36.5 3.5 3.5 0 0 0 5.5 40H6z" fill="rgba(247, 216, 129, 1)" stroke="none"/>
    <path d="M23.71 35.29l-5-5-1.42 1.42 1.8 1.79-4.8 4.79 1.42 1.42 4.79-4.8 1.79 1.8z" fill="rgba(160, 168, 178, 1)" stroke="none"/>
    <path d="M39 16h2v28h-2z" fill="rgba(160, 168, 178, 1)" stroke="none"/>
    <path d="M46 32h16v6H46z" fill="rgba(136, 146, 159, 1)" stroke="none"/>
    <path d="M60 16h2v36h-2z" fill="rgba(160, 168, 178, 1)" stroke="none"/>
    <path d="M36 52a16 16 0 0 1 16-16h10v16z" fill="rgba(120, 183, 91, 1)" stroke="none"/>
    <path d="M44 52a7 7 0 0 1 14 0z" fill="rgba(242, 195, 81, 1)" stroke="none"/>
    <path d="M36 48V30a3 3 0 0 0-3-3 3 3 0 0 0-3 3v11H19v7z" fill="rgba(136, 146, 159, 1)" stroke="none"/>
    <path d="M7 46l-1-6v-7l5-17h4v23a9 9 0 0 1 9 9v4H9z" fill="rgba(120, 183, 91, 1)" stroke="none"/>
    <path d="M24 48v4h12a16 16 0 0 1 .52-4z" fill="rgba(242, 195, 81, 1)" stroke="none"/>
    <path d="M62 16H6l22-8h34z" fill="rgba(242, 195, 81, 1)" stroke="none"/>
    <path d="M2 52a7 7 0 0 1 14 0z" fill="rgba(242, 195, 81, 1)" stroke="none"/>
    <circle cx="9" cy="52" r="4" fill="rgba(136, 146, 159, 1)" stroke="none"/>
    <circle cx="51" cy="52" r="4" fill="rgba(136, 146, 159, 1)" stroke="none"/>
    <path d="M19 16h12v4H19z" fill="rgba(160, 168, 178, 1)" stroke="none"/>
  </g>
</svg>
</g></svg></g></g>
<!-- /image 81449 -->

<!-- image 37877 -->
<g id="transformed-37877" data-image="37877" transform="translate(110, 183) rotate(0, 23, 22.99999999999999)"><g><svg version="1.1" width="46px" height="45.99999999999998px" viewBox="0 0 46 45.99999999999998"><g id="original-37877"><svg xmlns="http://www.w3.org/2000/svg" viewBox="0 0 64 64" data-name="Layer 3" xmlns:xlink="http://www.w3.org/1999/xlink" version="1.1" preserveAspectRatio="xMidYMid meet">
  <path d="M25 47h14v8H25z" fill="rgba(26, 84, 132, 1)" stroke="none"/>
  <path d="M36 4l-.04.25L35.33 8 35 10h-6l-.33-2-.63-3.75L28 4l4-3z" fill="rgba(250, 58, 30, 1)" stroke="none"/>
  <path d="M30.69 8l-.52-3.13L32 3.5l1.83 1.37L33.31 8z" fill="rgba(250, 58, 30, 1)" stroke="none"/>
  <path d="M20 10h24v6H20z" fill="rgba(118, 155, 27, 1)" stroke="none"/>
  <path d="M48 16v21a10 10 0 0 1-10 10H26a10 10 0 0 1-10-10V16z" fill="rgba(37, 101, 163, 1)" stroke="none"/>
  <path d="M48 16v21a10 10 0 0 1-10 10h-9.62A11.992 11.992 0 0 1 23 37V16z" fill="rgba(68, 142, 204, 1)" stroke="none"/>
  <rect width="18" height="5" x="23" y="37" rx="2.5" fill="rgba(167, 215, 69, 1)" stroke="none"/>
  <path d="M20 10h5v6h-5z" fill="rgba(167, 215, 69, 1)" stroke="none"/>
  <path d="M35.96 4.25L35 10h-6l-.96-5.75z" fill="rgba(206, 39, 21, 1)" stroke="none"/>
  <path d="M12 55h41v9H12z" fill="rgba(167, 215, 69, 1)" stroke="none"/>
  <path d="M8 61h48.5v3H8z" fill="rgba(68, 142, 204, 1)" stroke="none"/>
  <path d="M11 36a1 1 0 0 1-1-1V22.535l-5.555-3.7A1 1 0 0 1 4 18v-4a1 1 0 0 1 2 0v3.465l5.555 3.7A1 1 0 0 1 12 22v13a1 1 0 0 1-1 1z" fill="rgba(232, 190, 15, 1)" stroke="none"/>
  <path d="M11 32a1 1 0 0 1-.554-.168l-6-4A1 1 0 0 1 4 27v-3a1 1 0 0 1 2 0v2.465l5.555 3.7A1 1 0 0 1 11 32z" fill="rgba(232, 190, 15, 1)" stroke="none"/>
  <path d="M53 36a1 1 0 0 1-1-1V22a1 1 0 0 1 .445-.832L58 17.465V14a1 1 0 0 1 2 0v4a1 1 0 0 1-.445.832L54 22.535V35a1 1 0 0 1-1 1z" fill="rgba(232, 190, 15, 1)" stroke="none"/>
  <path d="M53 32a1 1 0 0 1-.556-1.832L58 26.465V24a1 1 0 0 1 2 0v3a1 1 0 0 1-.445.832l-6 4A1 1 0 0 1 53 32z" fill="rgba(232, 190, 15, 1)" stroke="none"/>
  <path d="M31 47h2v4h-2z" fill="rgba(118, 155, 27, 1)" stroke="none"/>
  <path d="M53 56H20a1 1 0 0 1 0-2h32.531l4.7-5.641a1 1 0 1 1 1.537 1.281l-5 6A1 1 0 0 1 53 56z" fill="rgba(196, 159, 5, 1)" stroke="none"/>
  <path d="M16 56h-4a1 1 0 0 1-.769-.359l-5-6a1 1 0 1 1 1.537-1.281L12.469 54H16a1 1 0 0 1 0 2z" fill="rgba(196, 159, 5, 1)" stroke="none"/>
  <path d="M31 25v2h-2v-1.8a3.2 3.2 0 0 0-1.85-1.94 5.148 5.148 0 0 0-3.64.6 1.019 1.019 0 0 1-.9.06l-4.86-2.08v-2.18l5.21 2.23a6.753 6.753 0 0 1 4.82-.53 5.273 5.273 0 0 1 3.15 3.27.937.937 0 0 1 .07.37z" fill="rgba(167, 215, 69, 1)" stroke="none"/>
  <path d="M46.39 19.6v2.18l-5 2.14a.988.988 0 0 1-.9-.06 5.148 5.148 0 0 0-3.64-.6A3.2 3.2 0 0 0 35 25.2V27h-2v-2a.937.937 0 0 1 .07-.37 5.273 5.273 0 0 1 3.15-3.27 6.753 6.753 0 0 1 4.82.53z" fill="rgba(167, 215, 69, 1)" stroke="none"/>
  <path d="M38.5 43h-13a3.5 3.5 0 0 1 0-7h13a3.5 3.5 0 0 1 0 7zm-13-5a1.5 1.5 0 0 0 0 3h13a1.5 1.5 0 0 0 0-3z" fill="rgba(250, 58, 30, 1)" stroke="none"/>
  <path d="M25 38a4.821 4.821 0 0 1-5-5h1l1-.006A2.853 2.853 0 0 0 25 36z" fill="rgba(250, 58, 30, 1)" stroke="none"/>
  <path d="M39 38v-2a2.853 2.853 0 0 0 3-3.006L44 33a4.821 4.821 0 0 1-5 5z" fill="rgba(250, 58, 30, 1)" stroke="none"/>
  <path d="M58 62H7a1 1 0 0 1 0-2h51a1 1 0 0 1 0 2z" fill="rgba(196, 159, 5, 1)" stroke="none"/>
  <path d="M26 30a1 1 0 0 1-1-1v-1a1 1 0 0 1 2 0v1a1 1 0 0 1-1 1z" fill="rgba(8, 41, 68, 1)" stroke="none"/>
  <path d="M38 30a1 1 0 0 1-1-1v-1a1 1 0 0 1 2 0v1a1 1 0 0 1-1 1z" fill="rgba(8, 41, 68, 1)" stroke="none"/>
  <path d="M42 59h-1a1 1 0 0 1 0-2h1a1 1 0 0 1 0 2z" fill="rgba(118, 155, 27, 1)" stroke="none"/>
  <path d="M46 59h-1a1 1 0 0 1 0-2h1a1 1 0 0 1 0 2z" fill="rgba(118, 155, 27, 1)" stroke="none"/>
</svg>
</g></svg></g></g>
<!-- /image 37877 -->

<!-- image 86877 -->
<g id="transformed-86877" data-image="86877" transform="translate(192, 180) rotate(0, 26, 25.999999999999993)"><g><svg version="1.1" width="52px" height="51.999999999999986px" viewBox="0 0 52 51.999999999999986"><g id="original-86877"><svg xmlns="http://www.w3.org/2000/svg" viewBox="0 0 512 512" xmlns:xlink="http://www.w3.org/1999/xlink" version="1.1" preserveAspectRatio="xMidYMid meet">
  <path d="M120 264a30.16 30.16 0 0 1-28.649-20.649l-2.94-8.821a8 8 0 1 1 15.178-5.06l2.941 8.822A14.179 14.179 0 0 0 120 248a8 8 0 0 1 0 16z" fill="rgba(251, 181, 64, 1)" stroke="none"/>
  <path d="M72 280a30.16 30.16 0 0 1-28.649-20.649l-2.94-8.821a8 8 0 1 1 15.178-5.06l2.941 8.822A14.179 14.179 0 0 0 72 264a8 8 0 0 1 0 16z" fill="rgba(251, 181, 64, 1)" stroke="none"/>
  <path d="M248 264a8 8 0 0 1 0-16 14.179 14.179 0 0 0 13.47-9.708l2.941-8.822a8 8 0 1 1 15.178 5.06l-2.94 8.821A30.16 30.16 0 0 1 248 264z" fill="rgba(251, 181, 64, 1)" stroke="none"/>
  <path d="M304 280a8 8 0 0 1 0-16 14.179 14.179 0 0 0 13.47-9.708l2.941-8.822a8 8 0 1 1 15.178 5.06l-2.94 8.821A30.16 30.16 0 0 1 304 280z" fill="rgba(251, 181, 64, 1)" stroke="none"/>
  <path d="M328 312l-24-40H64l-24 40z" fill="rgba(85, 135, 111, 1)" stroke="none"/>
  <path d="M98.178 280.189L72 280l-14.218 24h251.306L296 280z" fill="rgba(211, 43, 57, 1)" stroke="none"/>
  <path d="M288 312l-32-56H112l-32 56z" fill="rgba(95, 150, 124, 1)" stroke="none"/>
  <path d="M120 264l-21.822 40H270l-22-40z" fill="rgba(232, 47, 62, 1)" stroke="none"/>
  <path d="M24 360h319.843v32H24z" fill="rgba(95, 150, 124, 1)" stroke="none"/>
  <path d="M24 384h319.843v8H24z" fill="rgba(85, 135, 111, 1)" stroke="none"/>
  <path d="M56 312h256v88H56z" fill="rgba(195, 195, 195, 1)" stroke="none"/>
  <path d="M104 312h160v88H104z" fill="rgba(228, 228, 226, 1)" stroke="none"/>
  <path d="M192 144v-40a8 8 0 0 0-16 0v40l-8 8v72h32v-72z" fill="rgba(209, 141, 40, 1)" stroke="none"/>
  <path d="M168 160h32v16h-32z" fill="rgba(195, 131, 37, 1)" stroke="none"/>
  <path d="M168 184h32v16h-32z" fill="rgba(195, 131, 37, 1)" stroke="none"/>
  <path d="M152 304h64v88h-64z" fill="rgba(235, 235, 235, 1)" stroke="none"/>
  <path d="M160 280h-32l56-88 56 88h-32l-24-40z" fill="rgba(251, 181, 64, 1)" stroke="none"/>
  <path d="M176 352h16v39.896h-16z" fill="rgba(211, 43, 57, 1)" stroke="none"/>
  <path d="M344 360h144v32H344z" fill="rgba(251, 181, 64, 1)" stroke="none"/>
  <path d="M344 384h144v8H344z" fill="rgba(209, 141, 40, 1)" stroke="none"/>
  <path d="M352 336h128v24H352z" fill="rgba(251, 181, 64, 1)" stroke="none"/>
  <path d="M352 352h128v8H352z" fill="rgba(209, 141, 40, 1)" stroke="none"/>
  <path d="M360 312h112v24H360z" fill="rgba(251, 181, 64, 1)" stroke="none"/>
  <path d="M360 328h112v8H360z" fill="rgba(209, 141, 40, 1)" stroke="none"/>
  <path d="M408 272v16h-38.77a98.781 98.781 0 0 1 3.9-16z" fill="rgba(251, 181, 64, 1)" stroke="none"/>
  <path d="M462.77 288H424v-16h34.87a98.781 98.781 0 0 1 3.9 16z" fill="rgba(251, 181, 64, 1)" stroke="none"/>
  <path d="M453.443 258.885L440 232l-2.846-7.116a275.032 275.032 0 0 1-17.547-68.028L416 128l-3.607 28.856a275.032 275.032 0 0 1-17.547 68.028L392 232l-13.443 26.885A100.013 100.013 0 0 0 368 303.607V312h96v-8.393a100.013 100.013 0 0 0-10.557-44.722z" fill="rgba(251, 181, 64, 1)" stroke="none"/>
  <path d="M462.77 288H424v-16h34.87a98.781 98.781 0 0 1 3.9 16z" fill="rgba(243, 206, 145, 1)" stroke="none"/>
  <path d="M408 272v16h-38.77a98.781 98.781 0 0 1 3.9-16z" fill="rgba(243, 206, 145, 1)" stroke="none"/>
  <path d="M232 336h16v16h-16z" fill="rgba(195, 195, 195, 1)" stroke="none"/>
  <path d="M120 336h16v16h-16z" fill="rgba(195, 195, 195, 1)" stroke="none"/>
  <path d="M176 320h16v16h-16z" fill="rgba(219, 219, 219, 1)" stroke="none"/>
  <path d="M72 336h16v16H72z" fill="rgba(168, 168, 168, 1)" stroke="none"/>
  <path d="M280 336h16v16h-16z" fill="rgba(168, 168, 168, 1)" stroke="none"/>
  <path d="M304 208a8 8 0 0 1-7.155-4.421L296 201.89a17.79 17.79 0 0 0-16-9.89 8 8 0 0 1 0-16 33.7 33.7 0 0 1 24 9.931A33.7 33.7 0 0 1 328 176a8 8 0 0 1 0 16 17.791 17.791 0 0 0-16 9.889l-.845 1.69A8 8 0 0 1 304 208z" fill="rgba(255, 181, 190, 1)" stroke="none"/>
  <path d="M56 176a8 8 0 0 1-7.155-4.421L48 169.89A17.79 17.79 0 0 0 32 160a8 8 0 0 1 0-16 33.7 33.7 0 0 1 24 9.931A33.7 33.7 0 0 1 80 144a8 8 0 0 1 0 16 17.791 17.791 0 0 0-16 9.889l-.845 1.69A8 8 0 0 1 56 176z" fill="rgba(255, 181, 190, 1)" stroke="none"/>
  <path d="M344 160a8 8 0 0 1-7.155-4.421L336 153.89a17.79 17.79 0 0 0-16-9.89 8 8 0 0 1 0-16 33.7 33.7 0 0 1 24 9.931A33.7 33.7 0 0 1 368 128a8 8 0 0 1 0 16 17.791 17.791 0 0 0-16 9.889l-.845 1.69A8 8 0 0 1 344 160z" fill="rgba(255, 181, 190, 1)" stroke="none"/>
  <path d="M80 120H56a8 8 0 0 1 0-16h24a8 8 0 0 1 0 16z" fill="rgba(255, 214, 219, 1)" stroke="none"/>
  <path d="M120 88H80a8 8 0 0 1 0-16h40a8 8 0 0 1 0 16z" fill="rgba(255, 214, 219, 1)" stroke="none"/>
  <path d="M48 88H32a8 8 0 0 1 0-16h16a8 8 0 0 1 0 16z" fill="rgba(255, 214, 219, 1)" stroke="none"/>
  <path d="M488 104h-56a8 8 0 0 1 0-16h56a8 8 0 0 1 0 16z" fill="rgba(255, 214, 219, 1)" stroke="none"/>
  <path d="M480 136h-24a8 8 0 0 1 0-16h24a8 8 0 0 1 0 16z" fill="rgba(255, 214, 219, 1)" stroke="none"/>
  <path d="M288 104h-24a8 8 0 0 1 0-16h24a8 8 0 0 1 0 16z" fill="rgba(255, 214, 219, 1)" stroke="none"/>
  <path d="M304 72h-16a8 8 0 0 1 0-16h16a8 8 0 0 1 0 16z" fill="rgba(255, 214, 219, 1)" stroke="none"/>
  <path d="M336 104h-16a8 8 0 0 1 0-16h16a8 8 0 0 1 0 16z" fill="rgba(255, 214, 219, 1)" stroke="none"/>
  <path d="M184 240l-40 64h80z" fill="rgba(209, 141, 40, 1)" stroke="none"/>
  <path d="M160 280h8l16-24 16 24h8l-24-40z" fill="rgba(195, 131, 37, 1)" stroke="none"/>
  <path d="M144 312h8v80h-8z" fill="rgba(219, 219, 219, 1)" stroke="none"/>
  <path d="M216 312h8v80h-8z" fill="rgba(219, 219, 219, 1)" stroke="none"/>
  <path d="M264 312h8v80h-8z" fill="rgba(185, 185, 185, 1)" stroke="none"/>
  <path d="M96 312h8v80h-8z" fill="rgba(185, 185, 185, 1)" stroke="none"/>
  <path d="M24 400h464v64H24z" fill="rgba(228, 228, 226, 1)" stroke="none"/>
  <path d="M488 400H24v-8h128v8h64v-8h272z" fill="rgba(251, 253, 255, 1)" stroke="none"/>
  <path d="M152 392h64v24h-64z" fill="rgba(219, 219, 219, 1)" stroke="none"/>
  <path d="M144 416h80v24h-80z" fill="rgba(219, 219, 219, 1)" stroke="none"/>
  <path d="M136 440h96v24h-96z" fill="rgba(219, 219, 219, 1)" stroke="none"/>
  <path d="M256 424h16v16h-16z" fill="rgba(168, 168, 168, 1)" stroke="none"/>
  <path d="M48 424h16v16H48z" fill="rgba(168, 168, 168, 1)" stroke="none"/>
  <path d="M96 424h16v16H96z" fill="rgba(168, 168, 168, 1)" stroke="none"/>
  <path d="M304 424h16v16h-16z" fill="rgba(168, 168, 168, 1)" stroke="none"/>
  <path d="M352 424h16v16h-16z" fill="rgba(168, 168, 168, 1)" stroke="none"/>
  <path d="M400 424h16v16h-16z" fill="rgba(168, 168, 168, 1)" stroke="none"/>
  <path d="M448 424h16v16h-16z" fill="rgba(168, 168, 168, 1)" stroke="none"/>
  <path d="M152 408h64v8h-64z" fill="rgba(195, 195, 195, 1)" stroke="none"/>
  <path d="M144 432h80v8h-80z" fill="rgba(195, 195, 195, 1)" stroke="none"/>
  <path d="M136 456h96v8h-96z" fill="rgba(195, 195, 195, 1)" stroke="none"/>
  <path d="M368 304h96v8h-96z" fill="rgba(209, 141, 40, 1)" stroke="none"/>
  <path d="M176 352h8v40h-8z" fill="rgba(232, 47, 62, 1)" stroke="none"/>
</svg>
</g></svg></g></g>
<!-- /image 86877 -->

<!-- image 99284 -->
<g id="transformed-99284" data-image="99284" transform="translate(193, 99.00000000000001) rotate(0, 24, 23.99999999999999)"><g><svg version="1.1" width="48px" height="47.99999999999998px" viewBox="0 0 48 47.99999999999998"><g id="original-99284"><svg xmlns="http://www.w3.org/2000/svg" viewBox="0 0 511.999 511.999" xmlns:xlink="http://www.w3.org/1999/xlink" version="1.1" preserveAspectRatio="xMidYMid meet">
  <path d="M256.896 196.751a51.746 51.746 0 0 1-6.48 21.953c-4.605 8.272-11.559 15.381-20.521 20.222a51.026 51.026 0 0 1-9.096 3.843c-23.128 7.294-48.944-2.586-60.915-24.745-.598-1.102-1.143-2.328-1.659-3.678-1.092-2.885-1.999-6.305-2.74-10.147-5.007-25.6-2.678-69.135-1.092-90.491.433-5.975 6.923-9.488 12.156-6.573 20.676 11.455 64.438 36.963 80.272 56.042 1.648 1.988 2.987 3.904 3.976 5.728a51.412 51.412 0 0 1 6.099 27.846z" fill="rgba(109, 204, 0, 1)" stroke="none"/>
  <path d="M195.188 210.947c19.12 0 37.715 2.637 55.228 7.757-4.605 8.272-11.559 15.381-20.521 20.222a51.026 51.026 0 0 1-9.096 3.843c-23.128 7.294-48.944-2.586-60.915-24.745-.598-1.102-1.143-2.328-1.659-3.678 11.981-2.256 24.354-3.399 36.963-3.399z" fill="rgba(92, 172, 0, 1)" stroke="none"/>
  <path d="M246.822 163.182c1.644 1.981 2.985 3.898 3.97 5.72 4.783 8.856 6.712 18.495 6.102 27.844-1.104 17.171-10.748 33.396-27.001 42.176a50.716 50.716 0 0 1-9.091 3.843c-1.987-7.584-2.627-15.66-1.697-23.926.944-8.268 5.022-18.654 12.467-31.747 4.448-7.79 9.774-16.006 15.25-23.91z" fill="rgba(92, 172, 0, 1)" stroke="none"/>
  <path d="M228.355 243.777a7.726 7.726 0 0 1-6.805-4.054l-34.063-63.046a7.727 7.727 0 0 1 13.595-7.346l34.063 63.046a7.727 7.727 0 0 1-6.79 11.4z" fill="rgba(92, 172, 0, 1)" stroke="none"/>
  <path d="M335.097 231.973a51.597 51.597 0 0 1-2.833 11.981c-8.005 21.871-30.153 36.283-54.311 33.542a33.846 33.846 0 0 1-2.081-.278c-27.269-4.193-46.595-29.216-43.453-56.876.196-1.751.608-3.668 1.216-5.707 1.782-6.037 5.213-13.238 9.581-20.923 12.62-22.149 33.038-48.295 44.277-62.12 3.781-4.656 11.095-3.832 13.732 1.545 8.138 16.524 22.87 48.048 29.978 72.854a185.93 185.93 0 0 1 1.298 4.77c2.133 8.396 3.204 15.772 2.596 21.212z" fill="rgba(109, 204, 0, 1)" stroke="none"/>
  <path d="M335.097 231.973a51.597 51.597 0 0 1-2.833 11.981c-8.005 21.871-30.153 36.283-54.311 33.542a33.846 33.846 0 0 1-2.081-.278c-27.269-4.193-46.595-29.216-43.453-56.876.196-1.751.608-3.668 1.216-5.707 18.924 3.709 36.87 10.168 53.188 19.213a74.745 74.745 0 0 1 2.565-2.565c11.93-11.342 26.97-18.461 43.113-20.521 2.133 8.395 3.204 15.771 2.596 21.211z" fill="rgba(92, 172, 0, 1)" stroke="none"/>
  <path d="M278.32 281.981a7.726 7.726 0 0 1-7.687-8.595l8.056-71.205c.48-4.241 4.304-7.31 8.546-6.809a7.726 7.726 0 0 1 6.809 8.545l-8.056 71.205a7.728 7.728 0 0 1-7.668 6.859z" fill="rgba(92, 172, 0, 1)" stroke="none"/>
  <path d="M472.225 287.108v57.494H278.788v-57.494c0-18.152 7.603-34.532 19.81-46.101 11.394-10.838 26.816-17.482 43.772-17.482h66.261c35.119 0 63.594 28.464 63.594 63.583z" fill="rgba(249, 209, 183, 1)" stroke="none"/>
  <path d="M358.688 344.602h-79.901v-57.494c0-18.152 7.603-34.532 19.81-46.101 25.621 17.101 44.586 40.517 53.714 66.447 4.235 12.043 6.377 24.529 6.377 37.148z" fill="rgba(226, 166, 125, 1)" stroke="none"/>
  <path d="M278.79 311.9h193.44v32.698H278.79z" fill="rgba(226, 166, 125, 1)" stroke="none"/>
  <path d="M345.296 344.602H45.081c0-11.332 1.957-22.293 5.614-32.698 17.781-50.53 75.729-87.565 144.493-87.565s126.712 37.035 144.493 87.565c3.658 10.405 5.615 21.366 5.615 32.698z" fill="rgba(254, 192, 7, 1)" stroke="none"/>
  <path d="M345.296 344.602H45.081c0-11.332 1.957-22.293 5.614-32.698h288.986c3.658 10.405 5.615 21.366 5.615 32.698z" fill="rgba(254, 151, 0, 1)" stroke="none"/>
  <path d="M314.442 271.556v50.808c0 4.265-3.461 7.726-7.726 7.726s-7.726-3.461-7.726-7.726v-64.623a135.345 135.345 0 0 1 15.452 13.815z" fill="rgba(254, 151, 0, 1)" stroke="none"/>
  <path d="M258.751 235.633v86.731c0 4.265-3.461 7.726-7.726 7.726s-7.726-3.461-7.726-7.726v-91.707a169.288 169.288 0 0 1 15.452 4.976z" fill="rgba(254, 151, 0, 1)" stroke="none"/>
  <path d="M203.059 224.507v97.857a7.722 7.722 0 0 1-7.726 7.726 7.729 7.729 0 0 1-7.726-7.726v-97.867a185.08 185.08 0 0 1 7.582-.154 180.22 180.22 0 0 1 7.87.164z" fill="rgba(254, 151, 0, 1)" stroke="none"/>
  <path d="M147.378 230.575v91.789c0 4.265-3.461 7.726-7.726 7.726s-7.726-3.461-7.726-7.726v-86.855a173.441 173.441 0 0 1 15.452-4.934z" fill="rgba(254, 151, 0, 1)" stroke="none"/>
  <path d="M91.686 257.504v64.86c0 4.265-3.461 7.726-7.726 7.726s-7.726-3.461-7.726-7.726v-51.107a133.855 133.855 0 0 1 15.452-13.753z" fill="rgba(254, 151, 0, 1)" stroke="none"/>
  <path d="M90.625 355.069v42.598c0 4.553-3.698 8.241-8.241 8.241H48.017c-4.543 0-8.241-3.688-8.241-8.241v-42.598h50.849z" fill="rgba(142, 79, 32, 1)" stroke="none"/>
  <path d="M39.775 355.07h50.85v31.616h-50.85z" fill="rgba(114, 55, 0, 1)" stroke="none"/>
  <path d="M472.225 355.069v42.598c0 4.553-3.698 8.241-8.241 8.241h-34.367c-4.543 0-8.241-3.688-8.241-8.241v-42.598h50.849z" fill="rgba(142, 79, 32, 1)" stroke="none"/>
  <path d="M421.37 355.07h50.85v31.616h-50.85z" fill="rgba(114, 55, 0, 1)" stroke="none"/>
  <path d="M503.759 373.289H8.241A8.24 8.24 0 0 1 0 365.048v-31.506a8.24 8.24 0 0 1 8.241-8.241h495.517a8.24 8.24 0 0 1 8.241 8.241v31.506a8.24 8.24 0 0 1-8.24 8.241z" fill="rgba(183, 126, 83, 1)" stroke="none"/>
  <g>
    <path d="M226.413 349.293a7.729 7.729 0 0 1-7.726 7.726H0v-15.453h218.687a7.73 7.73 0 0 1 7.726 7.727z" fill="rgba(142, 79, 32, 1)" stroke="none"/>
    <path d="M349.746 357.021h-57.69a7.726 7.726 0 1 1 0-15.452h57.69a7.726 7.726 0 1 1 0 15.452z" fill="rgba(142, 79, 32, 1)" stroke="none"/>
    <path d="M432.554 357.021H420.31a7.726 7.726 0 1 1 0-15.452h12.244a7.726 7.726 0 1 1 0 15.452z" fill="rgba(142, 79, 32, 1)" stroke="none"/>
  </g>
</svg>
</g></svg></g></g>
<!-- /image 99284 -->

<!-- image 91324 -->
<g id="transformed-91324" data-image="91324" transform="translate(27, 192) rotate(0, 19, 18.999999999999993)"><g><svg version="1.1" width="38px" height="37.999999999999986px" viewBox="0 0 38 37.999999999999986"><g id="original-91324"><svg xmlns="http://www.w3.org/2000/svg" viewBox="0 0 512 512" xmlns:xlink="http://www.w3.org/1999/xlink" version="1.1" preserveAspectRatio="xMidYMid meet">
  <path d="M386.877 427.495v42.207a8.908 8.908 0 0 1-8.911 8.911h-265.14a8.908 8.908 0 0 1-8.911-8.911v-42.207h282.962z" fill="rgba(254, 64, 128, 1)" stroke="none"/>
  <path d="M103.915 427.495h282.962v29.608c-4.152.412-8.355.618-12.589.618H112.703c-2.946 0-5.872-.103-8.788-.299v-29.927z" fill="rgba(226, 43, 113, 1)" stroke="none"/>
  <path d="M257.763 110.568c0 20.171-9.024 38.22-23.262 50.355-11.548 9.838-26.527 15.783-42.887 15.783a65.87 65.87 0 0 1-39.322-12.96c-14.474-10.714-24.426-27.207-26.424-46.07a62.395 62.395 0 0 1-.391-7.108c0-36.53 29.618-66.138 66.138-66.138 24.931 0 46.637 13.784 57.907 34.151 5.254 9.478 8.241 20.387 8.241 31.987z" fill="rgba(242, 98, 0, 1)" stroke="none"/>
  <path d="M234.502 160.924c-11.548 9.838-26.527 15.783-42.887 15.783a65.87 65.87 0 0 1-39.322-12.96c-14.474-10.714-24.426-27.207-26.424-46.07a128.19 128.19 0 0 1 12.486-.608c11.713 0 23.313 1.597 34.48 4.739 23.951 6.716 45.276 20.243 61.667 39.116z" fill="rgba(204, 62, 0, 1)" stroke="none"/>
  <path d="M249.522 78.581c5.254 9.478 8.241 20.387 8.241 31.987 0 36.53-29.618 66.138-66.148 66.138a65.87 65.87 0 0 1-39.322-12.96c18.141-40.919 53.703-72.463 97.229-85.165z" fill="rgba(204, 62, 0, 1)" stroke="none"/>
  <path d="M454.055 138.116c-.556 2.514-1.247 4.749-2.081 6.645-4.059 9.21-10.487 16.648-18.245 21.902-14.237 9.663-32.966 12.002-49.871 4.553a50.7 50.7 0 0 1-8.612-4.821c-19.955-13.794-27.99-40.239-17.843-63.285 1.597-3.606 4.45-7.654 8.221-11.96 17.153-19.656 52.952-44.525 70.794-56.382 4.986-3.317 11.734-.35 12.651 5.573 3.637 23.354 10.343 73.565 4.986 97.775z" fill="rgba(109, 204, 0, 1)" stroke="none"/>
  <path d="M454.055 138.116c-.556 2.514-1.247 4.749-2.081 6.645-4.059 9.21-10.487 16.648-18.245 21.902-14.237 9.663-32.966 12.002-49.871 4.553a50.7 50.7 0 0 1-8.612-4.821c4.77-6.222 10.755-11.682 17.853-16.019 7.108-4.327 17.812-7.479 32.719-9.632 8.88-1.269 18.636-2.103 28.237-2.628z" fill="rgba(92, 172, 0, 1)" stroke="none"/>
  <path d="M433.729 166.662c-14.237 9.663-32.966 12.002-49.871 4.553-26.105-11.497-37.952-41.99-26.455-68.106 1.597-3.606 4.45-7.654 8.221-11.96 30.421 16.638 54.62 43.299 68.105 75.513z" fill="rgba(92, 172, 0, 1)" stroke="none"/>
  <path d="M385.174 175.961a7.69 7.69 0 0 1-3.111-.658 7.726 7.726 0 0 1-3.956-10.185l28.888-65.579a7.726 7.726 0 0 1 10.186-3.956 7.726 7.726 0 0 1 3.956 10.185l-28.888 65.579a7.728 7.728 0 0 1-7.075 4.614z" fill="rgba(92, 172, 0, 1)" stroke="none"/>
  <path d="M511.158 162.644c-8.056 16.565-23.911 47.543-39.137 68.374-6.356 8.705-12.599 15.628-18.131 19.007a51.586 51.586 0 0 1-11.198 5.12c-22.18 7.098-47.152-1.556-59.813-22.314a36.164 36.164 0 0 1-1.051-1.813c-13.423-24.106-5.522-54.713 18.245-69.208 5.955-3.626 15.947-6.12 27.661-7.809 25.229-3.626 58.401-3.544 76.224-3.152 5.995.134 9.827 6.418 7.2 11.795z" fill="rgba(109, 204, 0, 1)" stroke="none"/>
  <path d="M445.535 225.63c0 2.071-.041 4.069-.113 5.934a151.987 151.987 0 0 1-2.73 23.581c-22.18 7.098-47.152-1.556-59.813-22.314a36.164 36.164 0 0 1-1.051-1.813c-13.423-24.106-5.522-54.713 18.245-69.208 5.955-3.626 15.947-6.12 27.661-7.809 11.363 21.387 17.801 45.771 17.801 71.629z" fill="rgba(92, 172, 0, 1)" stroke="none"/>
  <path d="M472.022 231.018c-6.356 8.705-12.599 15.628-18.131 19.007-24.354 14.855-56.156 7.16-71.011-17.194a36.164 36.164 0 0 1-1.051-1.813h90.193z" fill="rgba(92, 172, 0, 1)" stroke="none"/>
  <path d="M385.67 238.854a7.727 7.727 0 0 1-4.032-14.323l61.172-37.324a7.727 7.727 0 0 1 8.049 13.191l-61.172 37.324a7.69 7.69 0 0 1-4.017 1.132z" fill="rgba(92, 172, 0, 1)" stroke="none"/>
  <path d="M252.303 244.421c0 42.464-23.231 79.51-57.68 99.094-16.596 9.457-35.809 14.855-56.269 14.855-62.944 0-113.959-51.015-113.959-113.949 0-4.533.268-9.004.793-13.403 6.624-56.619 54.754-100.556 113.166-100.556 10.693 0 21.036 1.473 30.854 4.234 43.783 12.28 76.893 50.067 82.302 96.323.525 4.398.793 8.869.793 13.402z" fill="rgba(254, 192, 7, 1)" stroke="none"/>
  <path d="M251.51 231.018c.525 4.399.793 8.87.793 13.403 0 42.464-23.231 79.51-57.68 99.094a149.524 149.524 0 0 1-8.571-7.665c-28.619-27.609-45.205-64.665-46.709-104.327a151.975 151.975 0 0 1-.113-5.893c0-34.017 11.147-65.489 29.978-90.935 43.783 12.28 76.893 50.067 82.302 96.323z" fill="rgba(254, 151, 0, 1)" stroke="none"/>
  <path d="M251.51 231.018c.525 4.399.793 8.87.793 13.403 0 62.934-51.015 113.949-113.949 113.949-62.944 0-113.959-51.015-113.959-113.949 0-4.533.268-9.004.793-13.403H251.51z" fill="rgba(254, 151, 0, 1)" stroke="none"/>
  <path d="M218.933 252.145a7.726 7.726 0 0 1-7.726-7.726c0-40.171-32.682-72.854-72.853-72.854s-72.853 32.682-72.853 72.854a7.726 7.726 0 1 1-15.452 0c0-48.692 39.614-88.306 88.306-88.306s88.306 39.614 88.306 88.306a7.728 7.728 0 0 1-7.728 7.726z" fill="rgba(254, 151, 0, 1)" stroke="none"/>
  <path d="M184.354 252.145a7.726 7.726 0 0 1-7.726-7.726c0-21.105-17.17-38.275-38.274-38.275-21.11 0-38.285 17.17-38.285 38.275a7.726 7.726 0 1 1-15.452 0c0-29.626 24.107-53.728 53.738-53.728 29.625 0 53.727 24.102 53.727 53.728a7.728 7.728 0 0 1-7.728 7.726z" fill="rgba(254, 151, 0, 1)" stroke="none"/>
  <path d="M432.143 225.63c0 1.803-.031 3.606-.103 5.388-2.833 74.689-64.273 134.367-139.662 134.367-75.379 0-136.819-59.679-139.652-134.367a133.741 133.741 0 0 1-.103-5.388c0-77.192 62.574-139.765 139.755-139.765 77.191 0 139.765 62.573 139.765 139.765z" fill="rgba(254, 192, 7, 1)" stroke="none"/>
  <g>
    <path d="M432.04 231.018c-2.833 74.689-64.273 134.367-139.662 134.367-75.379 0-136.819-59.679-139.652-134.367H432.04z" fill="rgba(254, 151, 0, 1)" stroke="none"/>
    <path d="M389.423 252.146a7.726 7.726 0 0 1-7.592-9.206 90.714 90.714 0 0 0 1.652-17.318c0-50.23-40.87-91.094-91.106-91.094-50.23 0-91.095 40.864-91.095 91.094 0 5.87.556 11.696 1.652 17.318a7.726 7.726 0 0 1-6.105 9.062c-4.189.823-8.246-1.917-9.062-6.105a106.173 106.173 0 0 1-1.938-20.276c0-58.75 47.797-106.547 106.547-106.547 58.756 0 106.558 47.797 106.558 106.547 0 6.86-.652 13.682-1.938 20.276a7.725 7.725 0 0 1-7.573 6.249z" fill="rgba(254, 151, 0, 1)" stroke="none"/>
    <path d="M345.59 252.147a7.727 7.727 0 0 1-7.284-10.305 48.507 48.507 0 0 0 2.767-16.22c0-26.844-21.844-48.683-48.694-48.683s-48.694 21.839-48.694 48.683c0 5.572.931 11.03 2.767 16.22a7.727 7.727 0 0 1-4.708 9.861c-4.023 1.417-8.438-.686-9.86-4.708a63.92 63.92 0 0 1-3.651-21.373c0-35.364 28.776-64.136 64.147-64.136s64.147 28.772 64.147 64.136a63.92 63.92 0 0 1-3.651 21.373 7.733 7.733 0 0 1-7.286 5.152z" fill="rgba(254, 151, 0, 1)" stroke="none"/>
  </g>
  <path d="M486.99 254.053v77.573c0 5.646-.412 11.198-1.216 16.627a108.775 108.775 0 0 1-2.833 13.392 112.078 112.078 0 0 1-20.799 40.569 111.563 111.563 0 0 1-12.702 13.392c-19.934 17.864-46.266 28.722-75.152 28.722H112.703c-28.886 0-55.218-10.858-75.152-28.722a111.484 111.484 0 0 1-12.702-13.392 112.068 112.068 0 0 1-20.8-40.568 108.815 108.815 0 0 1-2.833-13.392A113.483 113.483 0 0 1 0 331.626v-77.573c0-5.316 4.316-9.632 9.632-9.632h467.726c5.316 0 9.632 4.316 9.632 9.632z" fill="rgba(181, 229, 220, 1)" stroke="none"/>
  <path d="M485.775 348.253a108.775 108.775 0 0 1-2.833 13.392 112.078 112.078 0 0 1-20.799 40.569 111.563 111.563 0 0 1-12.702 13.392H37.55a111.484 111.484 0 0 1-12.702-13.392 112.082 112.082 0 0 1-20.799-40.568 108.815 108.815 0 0 1-2.833-13.392h484.559v-.001z" fill="rgba(128, 193, 180, 1)" stroke="none"/>
  <path d="M482.944 361.641a112.1 112.1 0 0 1-20.798 40.573H24.844a112.116 112.116 0 0 1-20.798-40.573h478.898z" fill="rgba(254, 64, 128, 1)" stroke="none"/>
  <g>
    <path d="M486.99 302.894v28.732c0 2.452-.082 4.883-.237 7.294a7.713 7.713 0 0 1-7.49-7.716c0-22.427-18.379-40.672-40.97-40.672-22.592 0-40.981 18.245-40.981 40.672a7.716 7.716 0 0 1-7.726 7.726 7.722 7.722 0 0 1-7.726-7.726c0-22.427-18.379-40.672-40.971-40.672s-40.971 18.245-40.971 40.672c0 4.275-3.461 7.726-7.726 7.726s-7.726-3.451-7.726-7.726c0-22.427-18.379-40.672-40.971-40.672s-40.971 18.245-40.971 40.672c0 4.275-3.461 7.726-7.726 7.726s-7.726-3.451-7.726-7.726c0-22.427-18.379-40.672-40.971-40.672s-40.971 18.245-40.971 40.672a7.722 7.722 0 0 1-7.726 7.726 7.716 7.716 0 0 1-7.726-7.726c0-22.427-18.389-40.672-40.981-40.672S7.726 308.776 7.726 331.203a7.712 7.712 0 0 1-7.489 7.716c-.155-2.41-.237-4.841-.237-7.293v-28.732c9.797-16.627 27.959-27.815 48.697-27.815s38.9 11.178 48.707 27.805c9.807-16.627 27.959-27.805 48.697-27.805 20.727 0 38.89 11.178 48.697 27.805 9.807-16.627 27.959-27.805 48.697-27.805s38.89 11.178 48.697 27.805c9.807-16.627 27.97-27.805 48.697-27.805 20.738 0 38.89 11.178 48.697 27.805 9.807-16.627 27.97-27.805 48.707-27.805s38.9 11.188 48.697 27.815z" fill="rgba(128, 193, 180, 1)" stroke="none"/>
    <path d="M437.957 327.533a7.726 7.726 0 0 1-7.726-7.726v-.736a7.726 7.726 0 1 1 15.452 0v.736a7.724 7.724 0 0 1-7.726 7.726z" fill="rgba(128, 193, 180, 1)" stroke="none"/>
    <path d="M341.336 327.533a7.726 7.726 0 0 1-7.726-7.726v-.736a7.726 7.726 0 1 1 15.452 0v.736a7.725 7.725 0 0 1-7.726 7.726z" fill="rgba(128, 193, 180, 1)" stroke="none"/>
    <path d="M244.714 327.533a7.726 7.726 0 0 1-7.726-7.726v-.736a7.726 7.726 0 1 1 15.452 0v.736a7.725 7.725 0 0 1-7.726 7.726z" fill="rgba(128, 193, 180, 1)" stroke="none"/>
    <path d="M148.092 327.533a7.726 7.726 0 0 1-7.726-7.726v-.736a7.726 7.726 0 1 1 15.452 0v.736a7.725 7.725 0 0 1-7.726 7.726z" fill="rgba(128, 193, 180, 1)" stroke="none"/>
    <path d="M51.47 327.533a7.726 7.726 0 0 1-7.726-7.726v-.736a7.726 7.726 0 1 1 15.452 0v.736a7.725 7.725 0 0 1-7.726 7.726z" fill="rgba(128, 193, 180, 1)" stroke="none"/>
  </g>
</svg>
</g></svg></g></g>
<!-- /image 91324 -->
</defs><rect x="0" y="0" width="250" height="250" fill="rgba(179, 181, 245, 1)"></rect><use xlink:href="#transformed-54116" transform="translate(-250, -250)"></use><use xlink:href="#transformed-54116" transform="translate(0, -250)"></use><use xlink:href="#transformed-54116" transform="translate(250, -250)"></use><use xlink:href="#transformed-54116" transform="translate(-250, 0)"></use><use xlink:href="#transformed-54116" transform="translate(0, 0)"></use><use xlink:href="#transformed-54116" transform="translate(250, 0)"></use><use xlink:href="#transformed-54116" transform="translate(-250, 250)"></use><use xlink:href="#transformed-54116" transform="translate(0, 250)"></use><use xlink:href="#transformed-54116" transform="translate(250, 250)"></use><use xlink:href="#transformed-25432" transform="translate(-250, -250)"></use><use xlink:href="#transformed-25432" transform="translate(0, -250)"></use><use xlink:href="#transformed-25432" transform="translate(250, -250)"></use><use xlink:href="#transformed-25432" transform="translate(-250, 0)"></use><use xlink:href="#transformed-25432" transform="translate(0, 0)"></use><use xlink:href="#transformed-25432" transform="translate(250, 0)"></use><use xlink:href="#transformed-25432" transform="translate(-250, 250)"></use><use xlink:href="#transformed-25432" transform="translate(0, 250)"></use><use xlink:href="#transformed-25432" transform="translate(250, 250)"></use><use xlink:href="#transformed-88509" transform="translate(-250, -250)"></use><use xlink:href="#transformed-88509" transform="translate(0, -250)"></use><use xlink:href="#transformed-88509" transform="translate(250, -250)"></use><use xlink:href="#transformed-88509" transform="translate(-250, 0)"></use><use xlink:href="#transformed-88509" transform="translate(0, 0)"></use><use xlink:href="#transformed-88509" transform="translate(250, 0)"></use><use xlink:href="#transformed-88509" transform="translate(-250, 250)"></use><use xlink:href="#transformed-88509" transform="translate(0, 250)"></use><use xlink:href="#transformed-88509" transform="translate(250, 250)"></use><use xlink:href="#transformed-01696" transform="translate(-250, -250)"></use><use xlink:href="#transformed-01696" transform="translate(0, -250)"></use><use xlink:href="#transformed-01696" transform="translate(250, -250)"></use><use xlink:href="#transformed-01696" transform="translate(-250, 0)"></use><use xlink:href="#transformed-01696" transform="translate(0, 0)"></use><use xlink:href="#transformed-01696" transform="translate(250, 0)"></use><use xlink:href="#transformed-01696" transform="translate(-250, 250)"></use><use xlink:href="#transformed-01696" transform="translate(0, 250)"></use><use xlink:href="#transformed-01696" transform="translate(250, 250)"></use><use xlink:href="#transformed-31726" transform="translate(-250, -250)"></use><use xlink:href="#transformed-31726" transform="translate(0, -250)"></use><use xlink:href="#transformed-31726" transform="translate(250, -250)"></use><use xlink:href="#transformed-31726" transform="translate(-250, 0)"></use><use xlink:href="#transformed-31726" transform="translate(0, 0)"></use><use xlink:href="#transformed-31726" transform="translate(250, 0)"></use><use xlink:href="#transformed-31726" transform="translate(-250, 250)"></use><use xlink:href="#transformed-31726" transform="translate(0, 250)"></use><use xlink:href="#transformed-31726" transform="translate(250, 250)"></use><use xlink:href="#transformed-63222" transform="translate(-250, -250)"></use><use xlink:href="#transformed-63222" transform="translate(0, -250)"></use><use xlink:href="#transformed-63222" transform="translate(250, -250)"></use><use xlink:href="#transformed-63222" transform="translate(-250, 0)"></use><use xlink:href="#transformed-63222" transform="translate(0, 0)"></use><use xlink:href="#transformed-63222" transform="translate(250, 0)"></use><use xlink:href="#transformed-63222" transform="translate(-250, 250)"></use><use xlink:href="#transformed-63222" transform="translate(0, 250)"></use><use xlink:href="#transformed-63222" transform="translate(250, 250)"></use><use xlink:href="#transformed-81449" transform="translate(-250, -250)"></use><use xlink:href="#transformed-81449" transform="translate(0, -250)"></use><use xlink:href="#transformed-81449" transform="translate(250, -250)"></use><use xlink:href="#transformed-81449" transform="translate(-250, 0)"></use><use xlink:href="#transformed-81449" transform="translate(0, 0)"></use><use xlink:href="#transformed-81449" transform="translate(250, 0)"></use><use xlink:href="#transformed-81449" transform="translate(-250, 250)"></use><use xlink:href="#transformed-81449" transform="translate(0, 250)"></use><use xlink:href="#transformed-81449" transform="translate(250, 250)"></use><use xlink:href="#transformed-37877" transform="translate(-250, -250)"></use><use xlink:href="#transformed-37877" transform="translate(0, -250)"></use><use xlink:href="#transformed-37877" transform="translate(250, -250)"></use><use xlink:href="#transformed-37877" transform="translate(-250, 0)"></use><use xlink:href="#transformed-37877" transform="translate(0, 0)"></use><use xlink:href="#transformed-37877" transform="translate(250, 0)"></use><use xlink:href="#transformed-37877" transform="translate(-250, 250)"></use><use xlink:href="#transformed-37877" transform="translate(0, 250)"></use><use xlink:href="#transformed-37877" transform="translate(250, 250)"></use><use xlink:href="#transformed-86877" transform="translate(-250, -250)"></use><use xlink:href="#transformed-86877" transform="translate(0, -250)"></use><use xlink:href="#transformed-86877" transform="translate(250, -250)"></use><use xlink:href="#transformed-86877" transform="translate(-250, 0)"></use><use xlink:href="#transformed-86877" transform="translate(0, 0)"></use><use xlink:href="#transformed-86877" transform="translate(250, 0)"></use><use xlink:href="#transformed-86877" transform="translate(-250, 250)"></use><use xlink:href="#transformed-86877" transform="translate(0, 250)"></use><use xlink:href="#transformed-86877" transform="translate(250, 250)"></use><use xlink:href="#transformed-99284" transform="translate(-250, -250)"></use><use xlink:href="#transformed-99284" transform="translate(0, -250)"></use><use xlink:href="#transformed-99284" transform="translate(250, -250)"></use><use xlink:href="#transformed-99284" transform="translate(-250, 0)"></use><use xlink:href="#transformed-99284" transform="translate(0, 0)"></use><use xlink:href="#transformed-99284" transform="translate(250, 0)"></use><use xlink:href="#transformed-99284" transform="translate(-250, 250)"></use><use xlink:href="#transformed-99284" transform="translate(0, 250)"></use><use xlink:href="#transformed-99284" transform="translate(250, 250)"></use><use xlink:href="#transformed-91324" transform="translate(-250, -250)"></use><use xlink:href="#transformed-91324" transform="translate(0, -250)"></use><use xlink:href="#transformed-91324" transform="translate(250, -250)"></use><use xlink:href="#transformed-91324" transform="translate(-250, 0)"></use><use xlink:href="#transformed-91324" transform="translate(0, 0)"></use><use xlink:href="#transformed-91324" transform="translate(250, 0)"></use><use xlink:href="#transformed-91324" transform="translate(-250, 250)"></use><use xlink:href="#transformed-91324" transform="translate(0, 250)"></use><use xlink:href="#transformed-91324" transform="translate(250, 250)"></use></svg>