<svg id="Capa_1" enable-background="new 0 0 512 512" height="512" viewBox="0 0 512 512" width="512" xmlns="http://www.w3.org/2000/svg"><g><path d="m121 242c-66.72 0-121-54.28-121-121s54.28-121 121-121 121 54.28 121 121-54.28 121-121 121z" fill="#f4f4f6"/><g><path d="m384.804 238.701-60.621-35 107.5-186.195c9.665-16.74 31.071-22.476 47.811-12.811 16.74 9.665 22.475 31.07 12.811 47.811z" fill="#8bb9ff"/><path d="m479.495 4.695c-.001 0-.001 0 0 0l-125.001 216.506 30.311 17.5 107.5-186.195c9.665-16.74 3.929-38.146-12.81-47.811z" fill="#7d81e7"/><path d="m398.608 219.668-.303-4.351-60.621-35-3.92 1.913c-56.418 27.538-111.327 57.699-130.917 91.63-7.699 13.335-12.664 26.585-14.757 39.379-1.337 8.176 4.208 15.889 12.382 17.225 8.176 1.337 15.887-4.206 17.225-12.382 1.506-9.204 5.251-19.036 11.131-29.221 12.777-22.131 51.634-45.52 84.526-62.807-22.406 25.937-45.106 54.529-58.545 77.807-.872 1.511-1.71 2.991-2.535 4.461-4.022 7.17-1.521 16.229 5.579 20.328.054.031.109.063.164.094 7.225 4.053 16.368 1.482 20.421-5.743.764-1.363 1.542-2.737 2.351-4.139 12.181-21.099 35.974-51.746 67.861-87.539-15.053 45.509-29.698 81.439-41.883 102.542-.809 1.402-1.611 2.762-2.408 4.106-4.228 7.124-1.881 16.327 5.243 20.555l.159.093c7.101 4.1 16.2 1.735 20.396-5.336.86-1.449 1.723-2.915 2.593-4.422 13.44-23.278 26.852-57.232 38.111-89.601 1.475 37.127.648 82.469-12.13 104.601-5.881 10.186-12.523 18.345-19.741 24.25-6.412 5.246-7.357 14.696-2.111 21.108 1.183 1.446 2.578 2.613 4.105 3.495 5.246 3.029 12.036 2.68 17.002-1.383 10.033-8.208 19.024-19.133 26.724-32.47 19.593-33.933 18.259-96.565 13.898-159.193z" fill="#e2dff4"/><path d="m398.305 215.317-30.311-17.5-19.345 33.506c-15.053 45.509-29.698 81.439-41.883 102.542-.809 1.402-1.611 2.762-2.408 4.106-4.228 7.124-1.881 16.327 5.243 20.555l.159.093c7.101 4.1 16.2 1.735 20.396-5.336.86-1.449 1.723-2.915 2.593-4.422 13.44-23.278 26.852-57.232 38.111-89.601 1.475 37.127.648 82.469-12.13 104.601-5.881 10.186-12.523 18.345-19.741 24.25-6.412 5.246-7.357 14.696-2.111 21.108 1.183 1.446 2.578 2.613 4.105 3.495 5.246 3.029 12.036 2.68 17.002-1.383 10.033-8.208 19.024-19.133 26.724-32.47 19.591-33.933 18.256-96.564 13.896-159.192z" fill="#bebcdd"/></g><path d="m242 121c0-66.72-54.28-121-121-121v242c66.72 0 121-54.28 121-121z" fill="#e2dff4"/><path d="m98.499 182c-2.427 0-4.859-.588-7.077-1.775-4.877-2.61-7.922-7.693-7.922-13.225v-92c0-5.532 3.045-10.615 7.922-13.225 4.877-2.611 10.796-2.324 15.398.744l69 46c4.173 2.782 6.68 7.466 6.68 12.481s-2.506 9.699-6.68 12.481l-69 46c-2.509 1.673-5.411 2.519-8.321 2.519z" fill="#ff7038"/><path d="m175.82 108.519-54.82-36.547v98.056l54.82-36.547c4.173-2.782 6.68-7.466 6.68-12.481s-2.506-9.699-6.68-12.481z" fill="#ff1f3d"/><path d="m122 317v130c0 35.841 29.159 65 65 65h240c35.841 0 65-29.159 65-65v-130z" fill="#e2dff4"/><path d="m307 512h120c35.841 0 65-29.159 65-65v-130h-185z" fill="#bebcdd"/><path d="m497 332h-380c-8.284 0-15-6.716-15-15s6.716-15 15-15h380c8.284 0 15 6.716 15 15s-6.716 15-15 15z" fill="#f4f4f6"/><path d="m497 302h-190v30h190c8.284 0 15-6.716 15-15s-6.716-15-15-15z" fill="#e2dff4"/></g></svg>